<?xml version="1.0" standalone="no"?>
<!DOCTYPE svg PUBLIC "-//W3C//DTD SVG 1.1//EN" "http://www.w3.org/Graphics/SVG/1.1/DTD/svg11.dtd" >
<svg>
<metadata>
Created by FontForge 20110222 at Thu Feb 26 16:03:13 2015
 By deploy user
Sinkin Sans 500 Medium by Keith Bates      (c) 2014   www.k-type.com      Sinkin Sans is a simple, pleasantly proportioned sans serif with tiny, inconspicuous notches that sink into vertical strokes adding highlights to congested corners.
</metadata>
<defs>
<font id="SinkinSans-500Medium" horiz-adv-x="730" >
  <font-face 
    font-family="Sinkin Sans 500 Medium"
    font-weight="500"
    font-stretch="normal"
    units-per-em="1000"
    panose-1="0 0 0 0 0 0 0 0 0 0"
    ascent="810"
    descent="-190"
    x-height="629"
    cap-height="810"
    bbox="-100 -291 1353 1264"
    underline-thickness="50"
    underline-position="-50"
    unicode-range="U+0009-FB02"
  />
<missing-glyph horiz-adv-x="1000" 
 />
    <glyph glyph-name=".notdef" horiz-adv-x="1000" 
 />
    <glyph glyph-name=".null" horiz-adv-x="0" 
 />
    <glyph glyph-name="nonmarkingreturn" horiz-adv-x="333" 
 />
    <glyph glyph-name="HT" unicode="&#x9;" horiz-adv-x="1000" 
 />
    <glyph glyph-name="LF" unicode="&#xa;" horiz-adv-x="1000" 
 />
    <glyph glyph-name="CR" unicode="&#xd;" horiz-adv-x="1000" 
 />
    <glyph glyph-name="DLE" horiz-adv-x="1000" 
 />
    <glyph glyph-name="DC1" horiz-adv-x="1000" 
 />
    <glyph glyph-name="DC2" horiz-adv-x="1000" 
 />
    <glyph glyph-name="DC3" horiz-adv-x="1000" 
 />
    <glyph glyph-name="DC4" horiz-adv-x="1000" 
 />
    <glyph glyph-name="RS" horiz-adv-x="1000" 
 />
    <glyph glyph-name="US" horiz-adv-x="1000" 
 />
    <glyph glyph-name="space" unicode=" " horiz-adv-x="310" 
 />
    <glyph glyph-name="exclam" unicode="!" horiz-adv-x="302" 
d="M232 79q0 -41 -21 -65t-60 -24t-60 24t-21 65q0 40 21 64t60 24t60 -24t21 -64zM80 810h142l-28 -588h-86z" />
    <glyph glyph-name="quotedbl" unicode="&#x22;" horiz-adv-x="433" 
d="M55 840h123l-25 -309h-73zM255 840h123l-25 -309h-73z" />
    <glyph glyph-name="numbersign" unicode="#" horiz-adv-x="744" 
d="M488 494l10 11h-201l4 -11l-45 -177l-8 -12h198l-4 12zM714 605v-100h-132l5 -11l-46 -177l-8 -12h104v-100h-131l3 -11l-49 -194h-99l49 194l11 11h-200l4 -11l-50 -194h-99l49 194l11 11h-106v100h131l-4 12l47 177l9 11h-106v100h131l-4 11l50 194h99l-50 -194l-8 -11
h198l-4 12l50 193h99l-50 -193l-8 -12h104z" />
    <glyph glyph-name="dollar" unicode="$" horiz-adv-x="752" 
d="M560 197q0 29 -27 56t-85 44q-3 3 -10 3l-5 2l-5 1l5 -13v-176l-6 -13q4 1 13 1q61 9 90.5 35t29.5 60zM330 615l7 13q-9 0 -13 -1q-59 -8 -90.5 -34t-31.5 -56q0 -27 28 -48t95 -41q1 0 5 -1t6 -2l-6 14v156zM682 202q0 -81 -60 -140.5t-180 -70.5q-4 -1 -15 -1l6 -12
v-88h-103v88l7 12q-2 0 -7.5 0.5t-7.5 0.5q-165 20 -267 129l91 82q93 -85 177 -99q2 0 6.5 -0.5t6.5 -1.5l-6 13v202l7 11q-3 1 -10 3t-8 2q-13 2 -26 7q-104 29 -158 73t-54 122t62.5 135.5t178.5 68.5q4 1 15 1l-7 11v89h103v-90l-6 -12q7 0 15 -2q132 -18 225 -120
l-90 -83q-60 71 -136 90q-2 0 -7 1t-7 2l6 -14v-181l-6 -10q5 -1 15 -4t12 -3q21 -6 39 -11q96 -28 142.5 -80t46.5 -120z" />
    <glyph glyph-name="percent" unicode="%" horiz-adv-x="925" 
d="M297 592q0 134 -83 134t-83 -134q0 -129 82 -129q84 0 84 129zM795 214q0 134 -83 134q-84 0 -84 -134q0 -130 83 -130q84 0 84 130zM398 592q0 -99 -47 -161.5t-137 -62.5t-137 62.5t-47 161.5t48 164t136 65t136 -65t48 -164zM559 820h99l-290 -830h-99zM895 214
q0 -100 -46.5 -162.5t-137.5 -62.5q-89 0 -136 62.5t-47 162.5q0 99 47.5 163.5t135.5 64.5q89 0 136.5 -64.5t47.5 -163.5z" />
    <glyph glyph-name="ampersand" unicode="&#x26;" horiz-adv-x="790" 
d="M524 141l-12 5l-191 213l-3 12q-10 -5 -42 -25q-32 -18 -52 -36q-46 -43 -46 -96q0 -56 49.5 -85.5t138.5 -30.5q106 0 158 43zM459 618q0 38 -27 64t-66 26q-40 0 -67 -26t-27 -65q0 -9 2.5 -18.5t5.5 -16t9.5 -16.5t9.5 -14t12 -15t11 -14t9 -12t9 -12l2 -8
q61 28 89 55.5t28 71.5zM681 121l109 -121h-149l-38 44l-2 12q-87 -68 -235 -68q-136 0 -223.5 60t-87.5 166q0 138 194 236l-13 5q-31 35 -45 56q-32 52 -32 109q0 82 60 140t146 58t146.5 -57.5t60.5 -140.5q0 -72 -40.5 -119t-119.5 -86l12 -6q9 -10 50 -56t76 -85
t37 -41l4 -12q16 33 10 70h123v-23q0 -33 -15 -72t-39 -66z" />
    <glyph glyph-name="quotesingle" unicode="'" horiz-adv-x="233" 
d="M55 840h123l-25 -309h-73z" />
    <glyph glyph-name="parenleft" unicode="(" horiz-adv-x="298" 
d="M288 -191h-100q-148 272 -148 549q0 280 148 549h100q-128 -260 -128 -536q0 -310 128 -562z" />
    <glyph glyph-name="parenright" unicode=")" horiz-adv-x="298" 
d="M258 358q0 -278 -149 -549h-99q128 252 128 562q0 276 -128 536h100q148 -269 148 -549z" />
    <glyph glyph-name="asterisk" unicode="*" horiz-adv-x="577" 
d="M359 631l163 -29l-18 -79l-158 46l79 -145l-73 -35l-64 152l-63 -153l-73 36l79 144l-158 -45l-18 79l163 29l-135 96l51 63l123 -110l-9 165h81l-9 -166l123 111l51 -64z" />
    <glyph glyph-name="plus" unicode="+" horiz-adv-x="685" 
d="M595 460v-110h-205l7 -12v-205h-109v205l7 12h-205v110h205l-7 12v206h109v-206l-7 -12h205z" />
    <glyph glyph-name="comma" unicode="," horiz-adv-x="292" 
d="M222 78q0 -25 -14 -59l-88 -205l-60 25l58 139l14 12q-72 9 -72 88q0 41 21 65t60 24t60 -24t21 -65z" />
    <glyph glyph-name="hyphen" unicode="-" horiz-adv-x="405" 
d="M375 385v-110h-345v110h345z" />
    <glyph glyph-name="period" unicode="." horiz-adv-x="292" 
d="M222 79q0 -41 -21 -65t-60 -24t-60 24t-21 65q0 40 21 64t60 24t60 -24t21 -64z" />
    <glyph glyph-name="slash" unicode="/" horiz-adv-x="254" 
d="M220 860h104l-290 -910h-104z" />
    <glyph glyph-name="zero" unicode="0" horiz-adv-x="780" 
d="M602 400q0 309 -212 309q-109 0 -160.5 -84t-51.5 -225q0 -138 50.5 -218.5t160.5 -80.5q213 0 213 299zM725 400q0 -187 -86.5 -298.5t-248.5 -111.5t-248.5 111.5t-86.5 298.5t88.5 303.5t246.5 116.5q160 0 247.5 -116t87.5 -304z" />
    <glyph glyph-name="one" unicode="1" horiz-adv-x="428" 
d="M328 810v-810h-120v578l8 84h-2l-50 -64l-68 -68l-76 77l205 203h103z" />
    <glyph glyph-name="two" unicode="2" horiz-adv-x="706" 
d="M651 593q0 -82 -51 -141t-164 -98l-129 -44q-64 -22 -97.5 -67t-33.5 -108q0 -2 -2 -8t-2 -8l-7 -8h485v-111h-593l-2 141q-2 92 52 167.5t160 111.5l109 37q84 29 118 61t34 75q0 49 -39 82.5t-128 33.5q-129 0 -210 -106l-87 85q114 132 297 132q144 0 217 -66.5
t73 -160.5z" />
    <glyph glyph-name="three" unicode="3" horiz-adv-x="735" 
d="M680 230q0 -45 -18.5 -86.5t-55 -76.5t-100 -56t-144.5 -21q-186 0 -307 132l89 85q90 -106 218 -106q100 0 147.5 39.5t47.5 89.5q0 56 -43.5 92.5t-133.5 44.5l-136 4v107q104 2 131 5q89 9 127 44t38 78q0 44 -40.5 73.5t-137.5 29.5q-126 0 -211 -99l-88 86
q116 125 298 125q152 0 227 -61.5t75 -152.5q0 -115 -131 -178v-2q68 -21 108 -73.5t40 -122.5z" />
    <glyph glyph-name="four" unicode="4" horiz-adv-x="745" 
d="M487 295l-7 13v231l6 88h-2l-50 -65l-184 -215l-52 -50v-2h289zM705 295v-111h-111l6 -12v-172h-120v173l7 11h-447v86l464 540h96v-502l-6 -13h111z" />
    <glyph glyph-name="five" unicode="5" horiz-adv-x="748" 
d="M693 268q0 -117 -82 -198t-243 -81q-104 0 -176 35t-137 119l85 83q49 -67 103.5 -96.5t124.5 -29.5q102 0 152 49.5t50 118.5t-48 119t-144 50q-131 0 -220 -103l-78 75l49 401h506v-111h-414l11 -12l-15 -111l-16 -74l2 -1q72 47 175 47q152 0 233.5 -81t81.5 -199z
" />
    <glyph glyph-name="six" unicode="6" horiz-adv-x="774" 
d="M598 268q1 65 -50 117t-147 52q-92 0 -147 -53t-56 -117q-2 -64 50 -115.5t147 -51.5q91 0 146 51.5t57 116.5zM719 268q-1 -54 -21.5 -102.5t-58.5 -88.5t-102 -64t-144 -24q-165 0 -253 112t-85 299q4 195 101 307.5t249 112.5q93 0 159.5 -29t123.5 -93l-88 -88
q-74 99 -196 99q-98 0 -157 -69.5t-68 -187.5h2q36 44 95.5 70t126.5 26q152 0 235 -81.5t81 -198.5z" />
    <glyph glyph-name="seven" unicode="7" horiz-adv-x="685" 
d="M655 810v-92l-223 -283q-86 -110 -86 -287v-148h-120v154q0 110 24.5 188.5t84.5 154.5l105 135l63 65v2h-473v111h625z" />
    <glyph glyph-name="eight" unicode="8" horiz-adv-x="777" 
d="M599 236q0 57 -57.5 99t-153.5 42t-153 -42t-57 -99q0 -49 54.5 -92t155.5 -43t156 43t55 92zM570 594q0 45 -43 79.5t-138 34.5t-138.5 -34.5t-43.5 -79.5q0 -43 46.5 -80.5t134.5 -37.5t135 38t47 80zM722 234q0 -97 -87.5 -170.5t-245.5 -73.5q-159 0 -246.5 73.5
t-87.5 170.5q0 67 40 117.5t111 79.5v2q-56 24 -89 66.5t-33 100.5q0 93 75.5 156.5t226.5 63.5q152 0 230 -63.5t78 -156.5q0 -107 -125 -168v-2q69 -23 111 -75t42 -121z" />
    <glyph glyph-name="nine" unicode="9" horiz-adv-x="774" 
d="M576 543q1 64 -50.5 115t-146.5 51q-91 0 -146.5 -51.5t-56.5 -116.5q-1 -64 50 -116.5t147 -52.5q92 0 147 53t56 118zM719 409q-4 -195 -99.5 -307.5t-246.5 -112.5q-95 0 -164.5 29.5t-127.5 94.5l87 88q76 -101 205 -101q98 0 155.5 69.5t66.5 187.5h-2
q-37 -43 -96 -69t-126 -26q-152 0 -235 81t-81 199q1 54 21.5 102.5t58.5 88.5t101.5 63.5t143.5 23.5q166 0 254 -112t85 -299z" />
    <glyph glyph-name="colon" unicode=":" horiz-adv-x="302" 
d="M232 79q0 -41 -21 -65t-60 -24t-60 24t-21 65q0 40 21 64t60 24t60 -24t21 -64zM232 521q0 -41 -21 -65t-60 -24t-60 24t-21 65t21 65t60 24t60 -24t21 -65z" />
    <glyph glyph-name="semicolon" unicode=";" horiz-adv-x="302" 
d="M232 78q0 -25 -14 -59l-88 -205l-60 25l58 139l14 12q-72 9 -72 88q0 41 21 65t60 24t60 -24t21 -65zM232 521q0 -41 -21 -65t-60 -24t-60 24t-21 65t21 65t60 24t60 -24t21 -65z" />
    <glyph glyph-name="less" unicode="&#x3c;" horiz-adv-x="524" 
d="M279 339l155 -155l-78 -79l-301 300l301 300l78 -79l-176 -176l-55 -45l28 -23z" />
    <glyph glyph-name="equal" unicode="=" horiz-adv-x="685" 
d="M595 345v-110h-505v110h505zM595 575v-110h-505v110h505z" />
    <glyph glyph-name="greater" unicode="&#x3e;" horiz-adv-x="524" 
d="M169 705l300 -300l-300 -300l-79 79l177 176l54 44l-28 24l-48 43l-155 155z" />
    <glyph glyph-name="question" unicode="?" horiz-adv-x="669" 
d="M366 79q0 -41 -21.5 -65t-59.5 -24q-39 0 -60 24t-21 65q0 40 21 64t60 24t60 -24t21 -64zM614 606q0 -66 -40 -116.5t-104 -74.5l-38 -15q-56 -20 -71.5 -47.5t-15.5 -96.5v-34h-120v43q0 96 33 150.5t134 92.5l23 8q42 16 59 37t17 53q0 38 -41.5 71t-103.5 33
q-64 0 -111 -25t-89 -80l-91 83q115 132 291 132q119 0 193.5 -66t74.5 -148z" />
    <glyph glyph-name="at" unicode="@" horiz-adv-x="990" 
d="M574 444q0 113 -83 113q-60 0 -100.5 -60.5t-40.5 -125.5q0 -125 88 -125q63 0 99.5 61.5t36.5 136.5zM920 444q0 -66 -27 -130.5t-82.5 -109.5t-125.5 -45q-75 0 -112 63h-2q-64 -64 -151 -64q-83 0 -127.5 59t-44.5 142q0 105 73.5 193t180.5 88q28 0 57.5 -14
t44.5 -34h2l11 37h100l-69 -258q-11 -46 -11 -77q0 -21 17 -35.5t39 -14.5q67 0 102.5 61.5t35.5 136.5q0 133 -94.5 230t-227.5 97q-144 0 -247.5 -105t-103.5 -249q0 -153 101.5 -258.5t251.5 -105.5q100 0 191 62l59 -56q-113 -83 -244 -83q-192 0 -319.5 126t-127.5 319
q0 175 130.5 300.5t306.5 125.5q169 0 291 -116.5t122 -284.5z" />
    <glyph glyph-name="A" unicode="A" horiz-adv-x="881" 
d="M280 310h321l-12 12l-124 275l-23 74h-2l-23 -73l-125 -276zM499 810l367 -810h-131l-85 188l6 11h-431l6 -11l-85 -188h-131l367 810h117z" />
    <glyph glyph-name="B" unicode="B" horiz-adv-x="812" 
d="M644 235q0 126 -162 126h-284l12 -12v-226l-12 -12h284q87 0 124.5 31t37.5 93zM609 587q0 112 -145 112h-266l12 -12v-203l-12 -12h266q145 0 145 115zM767 235q0 -110 -74 -172.5t-211 -62.5h-392v810h384q124 0 191 -64.5t67 -159.5q0 -105 -85 -160v-2q58 -21 89 -71
t31 -118z" />
    <glyph glyph-name="C" unicode="C" horiz-adv-x="810" 
d="M780 692l-89 -86q-81 103 -226 103q-144 0 -215.5 -85.5t-71.5 -223.5q0 -135 70 -217t216 -82q147 0 228 103l87 -85q-117 -129 -315 -129t-303.5 111t-105.5 299q0 189 108 304.5t302 115.5q198 0 315 -128z" />
    <glyph glyph-name="D" unicode="D" horiz-adv-x="848" 
d="M670 405q0 66 -10 114t-37.5 91.5t-83.5 66t-140 22.5h-201l12 -12v-564l-12 -12h205q67 0 116 16t78 41t45.5 65t22 79.5t5.5 92.5zM793 405q0 -44 -4 -82.5t-15 -80.5t-28.5 -76.5t-47 -66t-68.5 -53t-94 -34t-123 -12.5h-323v810h319q94 0 165 -24.5t112 -62.5t66 -94
t33 -108.5t8 -115.5z" />
    <glyph glyph-name="E" unicode="E" horiz-adv-x="780" 
d="M710 111v-111h-620v810h620v-111h-512l12 -12v-214l-12 -13h464v-110h-464l12 -12v-215l-12 -12h512z" />
    <glyph glyph-name="F" unicode="F" horiz-adv-x="720" 
d="M690 810v-111h-492l12 -12v-234l-12 -12h444v-111h-444l12 -12v-318h-120v810h600z" />
    <glyph glyph-name="G" unicode="G" horiz-adv-x="910" 
d="M820 461v-461h-103v104h-2q-39 -52 -106.5 -83t-146.5 -31q-193 0 -300 109t-107 298q0 194 109.5 308.5t303.5 114.5q207 0 322 -123l-88 -86q-78 98 -234 98q-145 0 -217.5 -81.5t-72.5 -230.5q0 -142 71 -219t213 -77q108 0 176.5 67.5t71.5 170.5l12 11h-276v111h374
z" />
    <glyph glyph-name="H" unicode="H" horiz-adv-x="870" 
d="M780 810v-810h-120v337l12 12h-474l12 -12v-337h-120v810h120v-338l-12 -12h474l-12 12v338h120z" />
    <glyph glyph-name="I" unicode="I" horiz-adv-x="310" 
d="M215 810v-810h-120v810h120z" />
    <glyph glyph-name="J" unicode="J" horiz-adv-x="637" 
d="M552 810v-510q0 -84 -24.5 -145.5t-67.5 -96.5t-95.5 -51.5t-114.5 -16.5q-149 0 -250 125l84 85q34 -46 79 -72.5t88 -26.5q77 0 129 45.5t52 148.5v515h120z" />
    <glyph glyph-name="K" unicode="K" horiz-adv-x="793" 
d="M210 810v-810h-120v810h120zM379 408l414 -408h-174l-399 409l390 400h170l-401 -399v-2z" />
    <glyph glyph-name="L" unicode="L" horiz-adv-x="678" 
d="M663 111v-111h-573v810h120v-687l-12 -12h465z" />
    <glyph glyph-name="M" unicode="M" horiz-adv-x="1000" 
d="M910 810v-810h-120v548h-2l-44 -107l-243 -452h-3l-244 455l-42 103h-2v-547h-120v810h103l267 -504l40 -96h2l39 96l268 504h101z" />
    <glyph glyph-name="N" unicode="N" horiz-adv-x="870" 
d="M780 810v-810h-106l-406 524l-56 92h-2v-616h-120v810h106l408 -525l54 -91h2v616h120z" />
    <glyph glyph-name="O" unicode="O" horiz-adv-x="894" 
d="M716 400q0 136 -66 222.5t-203 86.5t-203 -85t-66 -224q0 -135 66.5 -217t202.5 -82q138 0 203.5 81.5t65.5 217.5zM839 400q0 -187 -103 -298.5t-289 -111.5q-189 0 -290.5 111t-101.5 299q0 189 102 304.5t290 115.5t290 -115t102 -305z" />
    <glyph glyph-name="P" unicode="P" horiz-adv-x="797" 
d="M629 556q0 67 -39 105t-118 38h-274l12 -12v-263l-12 -12h274q78 0 117.5 39t39.5 105zM752 556q0 -111 -75 -183t-205 -72h-274l12 -12v-289h-120v810h382q131 0 205.5 -70t74.5 -184z" />
    <glyph glyph-name="Q" unicode="Q" horiz-adv-x="894" 
d="M716 403q0 136 -66 221t-203 85t-203 -84t-66 -222q0 -136 66.5 -219t202.5 -83q72 0 124 26l18 -1l-117 116l76 76l122 -122v16q46 73 46 191zM749 117l117 -118l-76 -75l-123 123q-91 -57 -220 -57q-188 0 -290 112t-102 301q0 188 102 302.5t290 114.5t290 -114
t102 -303q0 -176 -90 -286z" />
    <glyph glyph-name="R" unicode="R" horiz-adv-x="819" 
d="M619 566q0 133 -162 133h-259l12 -12v-239l-12 -13h249q82 0 127 36.5t45 94.5zM685 263l129 -263h-134l-105 214q-28 57 -74 83.5t-121 26.5h-182l12 -11v-313h-120v810h367q122 0 203.5 -63.5t81.5 -180.5q0 -71 -43.5 -126.5t-108.5 -77.5v-2q26 -11 52 -36.5
t43 -60.5z" />
    <glyph glyph-name="S" unicode="S" horiz-adv-x="798" 
d="M748 225q0 -98 -83 -166.5t-252 -68.5q-105 0 -200.5 34t-162.5 104l89 86q69 -61 131.5 -87t138.5 -26q106 0 161 33.5t55 84.5q0 37 -35.5 68.5t-112.5 51.5q-9 3 -75.5 20t-73.5 19q-125 34 -190 82.5t-65 134.5q0 95 85.5 160t244.5 65q200 0 324 -130l-88 -87
q-90 106 -236 106q-104 0 -155.5 -32t-51.5 -78q0 -37 41.5 -62.5t145.5 -53.5q7 -2 35.5 -9.5t59 -15.5t36.5 -10q118 -30 176 -88t58 -135z" />
    <glyph glyph-name="T" unicode="T" 
d="M710 810v-111h-291l6 -12v-687h-120v687l7 12h-292v111h690z" />
    <glyph glyph-name="U" unicode="U" horiz-adv-x="882" 
d="M797 810v-438q0 -382 -355 -382q-357 0 -357 382v438h120v-437q0 -134 55 -203t181 -69q125 0 180.5 69t55.5 203v437h120z" />
    <glyph glyph-name="V" unicode="V" horiz-adv-x="849" 
d="M702 810h132l-351 -810h-117l-351 810h134l251 -593l24 -80h2l25 80z" />
    <glyph glyph-name="W" unicode="W" horiz-adv-x="1077" 
d="M926 810h126l-223 -810h-143l-132 490l-16 92h-2l-15 -92l-132 -490h-141l-223 810h128l154 -577l13 -82h2l15 82l156 577h92l157 -577l13 -81h2l14 81z" />
    <glyph glyph-name="X" unicode="X" horiz-adv-x="804" 
d="M477 406l307 -406h-152l-178 238l-51 82h-2l-52 -82l-179 -238h-150l307 406l-306 404h152l180 -240l48 -76h2l48 76l181 240h150z" />
    <glyph glyph-name="Y" unicode="Y" horiz-adv-x="840" 
d="M675 810h150l-344 -472v-338h-121v338l-345 472h151l201 -284l52 -87h2l51 88z" />
    <glyph glyph-name="Z" unicode="Z" horiz-adv-x="810" 
d="M750 111v-111h-690v94l455 535l71 68v2h-516v111h675v-93l-452 -534l-71 -70v-2h528z" />
    <glyph glyph-name="bracketleft" unicode="[" horiz-adv-x="294" 
d="M279 -96v-94h-219v1097h219v-93h-121v-910h121z" />
    <glyph glyph-name="backslash" unicode="\" horiz-adv-x="334" 
d="M74 860l290 -910h-104l-290 910h104z" />
    <glyph glyph-name="bracketright" unicode="]" horiz-adv-x="295" 
d="M235 907v-1097h-220v94h122v910h-122v93h220z" />
    <glyph glyph-name="asciicircum" unicode="^" horiz-adv-x="686" 
d="M386 810l225 -395h-123l-115 205l-29 65h-2l-29 -65l-115 -205h-123l225 395h86z" />
    <glyph glyph-name="underscore" unicode="_" horiz-adv-x="673" 
d="M683 -83v-102h-693v102h693z" />
    <glyph glyph-name="grave" unicode="`" horiz-adv-x="720" 
d="M304 951l178 -208l-47 -48l-208 178z" />
    <glyph glyph-name="a" unicode="a" horiz-adv-x="720" 
d="M518 282l12 12q-5 0 -25.5 1t-28.5 1q-64 0 -100 -2q-59 -3 -107 -15q-98 -25 -98 -91q0 -35 26.5 -57.5t59 -29.5t68.5 -7q27 0 55.5 3.5t62 12.5t54.5 29.5t21 48.5v94zM635 406v-406h-117v48h-2q-74 -59 -191 -59q-51 0 -96.5 10.5t-86 32t-64 62t-23.5 94.5
q0 47 19 83.5t54.5 58.5t74 36.5t91 20.5t90.5 8t87 2q35 0 59 -2l-12 12v6t-1 6q-8 115 -160 115q-119 0 -191 -60l-77 79q111 86 268 86q55 0 102 -11.5t88 -37t64.5 -72.5t23.5 -112z" />
    <glyph glyph-name="b" unicode="b" horiz-adv-x="753" 
d="M581 313q0 101 -46.5 161t-144.5 60q-99 0 -145 -59.5t-46 -161.5q0 -100 46.5 -159t144.5 -59q99 0 145 58.5t46 159.5zM698 313q0 -146 -77 -234.5t-222 -88.5q-124 0 -190 72h-2v-62h-117v840h117v-277h2q69 77 190 77q146 0 222.5 -90t76.5 -237z" />
    <glyph glyph-name="c" unicode="c" horiz-adv-x="641" 
d="M534 162l77 -77q-96 -95 -244 -95q-153 0 -232.5 88.5t-79.5 231.5q0 144 83.5 237t229.5 93q149 0 239 -88l-78 -77q-60 60 -160 60q-95 -1 -146 -64.5t-51 -160.5q0 -95 48 -155t147 -60q101 0 167 67z" />
    <glyph glyph-name="d" unicode="d" horiz-adv-x="753" 
d="M554 313q0 102 -46 161.5t-145 59.5q-97 0 -144 -60t-47 -161t46 -159.5t145 -58.5t145 58.5t46 159.5zM663 840v-840h-117v62h-2q-66 -72 -190 -72q-145 0 -222 88.5t-77 233.5q0 147 77 237.5t222 90.5q121 0 190 -77h2v277h117z" />
    <glyph glyph-name="e" unicode="e" 
d="M166 366h399l-12 12q-14 75 -60.5 116.5t-125.5 41.5q-154 0 -188 -158zM675 310q0 -22 -3 -46h-507l12 -12q29 -158 195 -158q95 0 171 71l80 -80q-104 -95 -251 -95q-156 0 -236.5 88.5t-80.5 231.5q0 147 83.5 238.5t228.5 91.5q151 0 229.5 -91t78.5 -239z" />
    <glyph glyph-name="f" unicode="f" horiz-adv-x="432" 
d="M412 629v-100h-196l6 -12v-517h-117v517l6 12h-81v101h81l-6 12v8q1 93 55.5 144t154.5 51q55 0 97 -16v-104q-42 17 -87 17q-103 0 -103 -100l-6 -12z" />
    <glyph glyph-name="g" unicode="g" horiz-adv-x="753" 
d="M554 339q0 88 -50 142t-143 54t-141 -54t-48 -142t48.5 -140t140.5 -52q98 0 145.5 52t47.5 140zM546 630h117v-570q0 -132 -75 -203.5t-223 -71.5q-151 0 -270 90l79 80q84 -65 191 -65q89 0 135 44.5t46 125.5v52h-2q-70 -70 -189 -70q-146 0 -223 80.5t-77 216.5
q0 129 78.5 215t220.5 86q58 0 108.5 -19.5t81.5 -54.5h2v64z" />
    <glyph glyph-name="h" unicode="h" horiz-adv-x="753" 
d="M668 397v-397h-117v382q0 73 -34.5 113t-128.5 40q-79 0 -130 -44t-51 -122v-369h-117v840h117v-278h2q32 36 84.5 57t108.5 21q130 0 198 -66t68 -177z" />
    <glyph glyph-name="i" unicode="i" horiz-adv-x="297" 
d="M207 630v-630h-117v630h117zM219 772q0 -33 -19 -53.5t-51 -20.5t-51 20.5t-19 53.5t19 53.5t51 20.5t51 -20.5t19 -53.5z" />
    <glyph glyph-name="j" unicode="j" horiz-adv-x="297" 
d="M208 630v-672q0 -87 -45.5 -130t-129.5 -43q-49 0 -92 20v109q40 -20 86 -20q30 0 47 19t17 56v661h117zM219 772q0 -33 -19 -53.5t-51 -20.5t-51 20.5t-19 53.5t19 53.5t51 20.5t51 -20.5t19 -53.5z" />
    <glyph glyph-name="k" unicode="k" horiz-adv-x="683" 
d="M207 840v-840h-117v840h117zM360 319l323 -319h-152l-314 318l302 312h153l-312 -309v-2z" />
    <glyph glyph-name="l" unicode="l" horiz-adv-x="297" 
d="M207 840v-840h-117v840h117z" />
    <glyph glyph-name="m" unicode="m" horiz-adv-x="1030" 
d="M945 372l-1 -372h-117v349q0 37 -2 63t-9.5 51t-20 39.5t-34 23.5t-51.5 9q-64 0 -99.5 -45.5t-34.5 -112.5v-377h-118v372q0 82 -24.5 122.5t-91.5 40.5q-58 0 -96 -45t-38 -114v-376h-118v630h118v-63h1q26 33 68 53t87 20q58 0 105 -29t70 -76h2q29 47 79 76t106 29
q109 0 164 -68.5t55 -199.5z" />
    <glyph glyph-name="n" unicode="n" horiz-adv-x="753" 
d="M668 398v-398h-117v380q0 76 -34 115.5t-129 39.5q-80 0 -130.5 -42.5t-50.5 -120.5v-372h-117v630h117v-68h2q32 36 84.5 57t108.5 21q124 0 195 -63.5t71 -178.5z" />
    <glyph glyph-name="o" unicode="o" 
d="M558 315q0 99 -48 159.5t-145 60.5q-98 0 -145.5 -60t-47.5 -160q0 -99 48 -159.5t145 -60.5t145 60t48 160zM675 315q0 -144 -80.5 -234.5t-229.5 -90.5q-151 0 -230.5 89.5t-79.5 235.5q0 145 80 235t229 90q151 0 231 -89t80 -236z" />
    <glyph glyph-name="p" unicode="p" horiz-adv-x="753" 
d="M581 313q0 101 -46 161.5t-145 60.5q-98 0 -144.5 -60.5t-46.5 -161.5t46 -159.5t145 -58.5t145 58.5t46 159.5zM698 315q0 -147 -76.5 -236t-222.5 -89q-123 0 -190 75h-2v-275h-117v840h117v-65h2q67 75 190 75q145 0 222 -89.5t77 -235.5z" />
    <glyph glyph-name="q" unicode="q" horiz-adv-x="753" 
d="M554 313q0 101 -46.5 161.5t-144.5 60.5t-144.5 -60.5t-46.5 -161.5q0 -100 46.5 -159t144.5 -59q99 0 145 58.5t46 159.5zM663 630v-840h-117v275h-2q-68 -75 -190 -75q-146 0 -222.5 89t-76.5 236q0 146 77 235.5t222 89.5q123 0 190 -75h2v65h117z" />
    <glyph glyph-name="r" unicode="r" horiz-adv-x="450" 
d="M430 637v-119h-37q-84 1 -135 -49.5t-51 -157.5v-311h-117v630h117v-101h2q27 51 79 79.5t115 28.5h27z" />
    <glyph glyph-name="s" unicode="s" horiz-adv-x="661" 
d="M606 178q0 -80 -66.5 -134.5t-198.5 -54.5q-175 0 -286 112l80 81q55 -49 102 -68.5t101 -19.5q76 0 113 24t37 56q0 26 -21 44t-81 33q-18 4 -112 31q-95 26 -148 66t-53 111q0 78 68.5 129.5t192.5 51.5q154 0 257 -107l-80 -80q-72 82 -177 82q-73 0 -108 -23t-35 -50
q0 -25 28.5 -41.5t101.5 -35.5q79 -24 101 -29q95 -25 139.5 -69t44.5 -109z" />
    <glyph glyph-name="t" unicode="t" horiz-adv-x="493" 
d="M406 143l78 -78q-98 -75 -191 -75q-90 0 -140.5 54.5t-50.5 150.5v322l7 12h-79v101h79l-7 12v93l117 63v-156l-6 -12h198v-101h-198l6 -12v-323q0 -48 21 -73.5t58 -25.5q53 0 108 48z" />
    <glyph glyph-name="u" unicode="u" horiz-adv-x="745" 
d="M655 630v-630h-117v68h-2q-72 -78 -189 -78q-134 0 -198 65.5t-64 185.5v389h117v-385q0 -73 33 -111.5t126 -38.5q79 0 128 42.5t49 120.5v372h117z" />
    <glyph glyph-name="v" unicode="v" horiz-adv-x="675" 
d="M535 630h130l-269 -630h-117l-269 630h130l170 -416l26 -82h2l27 82z" />
    <glyph glyph-name="w" unicode="w" horiz-adv-x="915" 
d="M778 630h122l-186 -630h-128l-112 350l-15 84h-2l-15 -84l-114 -350h-127l-186 630h124l116 -410l13 -79h2l13 79l126 410h98l126 -410l14 -79h2l12 79z" />
    <glyph glyph-name="x" unicode="x" horiz-adv-x="657" 
d="M400 316l237 -316h-146l-129 175l-33 56h-2l-32 -56l-130 -175h-145l237 316l-235 314h146l124 -169l36 -59h2l35 59l126 169h144z" />
    <glyph glyph-name="y" unicode="y" horiz-adv-x="700" 
d="M555 630h130l-292 -695q-29 -70 -80 -110t-114 -40q-73 0 -130 29v112q62 -33 118 -33q69 0 115 113l-287 624h130l186 -417l28 -85h2l27 85z" />
    <glyph glyph-name="z" unicode="z" horiz-adv-x="677" 
d="M617 107v-107h-557v87l331 376l65 58l1 1h-390v107h547v-82l-335 -377l-69 -62l1 -1h406z" />
    <glyph glyph-name="braceleft" unicode="{" horiz-adv-x="349" 
d="M339 -107v-89q-90 0 -111 3q-115 15 -115 170v227q0 46 -15.5 73t-57.5 34v96q73 14 73 98v236q0 155 115 170l111 3v-89q-25 0 -30 -1q-61 -1 -79.5 -20t-18.5 -71v-227q0 -58 -15.5 -90t-60.5 -57q52 -29 64 -56t12 -93v-225q0 -52 18.5 -71t79.5 -20q5 -1 30 -1z" />
    <glyph glyph-name="bar" unicode="|" horiz-adv-x="334" 
d="M219 860v-910h-104v910h104z" />
    <glyph glyph-name="braceright" unicode="}" horiz-adv-x="349" 
d="M309 407v-96q-42 -7 -57.5 -34t-15.5 -73v-227q0 -155 -115 -170l-111 -3v89q25 0 30 1q61 1 79.5 20t18.5 71v225q0 66 12 93t63 56q-45 25 -60 57t-15 90v227q0 52 -18.5 71t-79.5 20q-5 1 -30 1v89q90 0 111 -3q115 -15 115 -170v-236q0 -84 73 -98z" />
    <glyph glyph-name="asciitilde" unicode="~" horiz-adv-x="594" 
d="M499 421l65 -66q-17 -54 -61.5 -87.5t-102.5 -33.5q-41 0 -113 41t-103 41q-33 0 -55.5 -24t-33.5 -61l-65 65q14 51 59 86.5t104 35.5q41 0 114 -41.5t101 -41.5q66 0 91 86z" />
    <glyph glyph-name="DEL" horiz-adv-x="1000" 
 />
    <glyph glyph-name="uni00A0" unicode="&#xa0;" horiz-adv-x="310" 
 />
    <glyph glyph-name="exclamdown" unicode="&#xa1;" horiz-adv-x="304" 
d="M195 588l27 -588h-141l27 588h87zM234 731q0 -39 -21.5 -63.5t-60.5 -24.5t-60.5 24t-21.5 64q0 39 21.5 64t60.5 25t60.5 -24.5t21.5 -64.5z" />
    <glyph glyph-name="cent" unicode="&#xa2;" horiz-adv-x="641" 
d="M345 611l9 10q-2 -1 -8 -1q-86 -9 -130 -69.5t-44 -150.5q0 -65 25 -117t78 -76l-5 16zM531 255l80 -80q-96 -95 -244 -95q-27 0 -34 1l6 -10l-16 -81h-98l19 97l10 9q-97 29 -148 109.5t-51 194.5q0 141 80.5 233.5t212.5 96.5h27l-5 11l16 79h98l-18 -88l-8 -10
q91 -23 149 -80l-81 -80q-37 37 -89 52l5 -12l-78 -403l-9 -11h12q96 -1 164 67z" />
    <glyph glyph-name="sterling" unicode="&#xa3;" horiz-adv-x="738" 
d="M668 688l-83 -83q-82 104 -198 104q-150 0 -150 -116q0 -46 17 -121l-4 -12h240v-110h-212l8 -13q29 -157 -60 -224v-2h428v-111h-599v102q75 36 102 84t8 151l4 13h-97v110h69l-9 12q-18 72 -18 117q0 117 78 174t199 57q165 0 277 -132z" />
    <glyph glyph-name="currency" unicode="&#xa4;" horiz-adv-x="624" 
d="M431 403q0 50 -35 85t-84 35q-50 0 -84 -35t-34 -85q0 -49 34 -83q33 -35 84 -35t85 34t34 84zM497 659l72 -69l-71 -73q33 -55 33 -114q0 -65 -32 -116l68 -71l-70 -69l-71 69q-52 -31 -114 -31q-65 0 -116 32l-70 -69l-70 69l69 71q-32 55 -32 115t33 114l-71 73l71 69
l70 -69q51 32 116 32q63 0 114 -32z" />
    <glyph glyph-name="yen" unicode="&#xa5;" horiz-adv-x="850" 
d="M675 810h150l-257 -353l-14 -14l170 4v-101h-245l6 -13v-57l-6 -13h245v-101h-245l6 -11v-151h-10h-100h-10v150l6 12h-243v101h243l-4 8l-2 26l3 43l3 6h-243v101h167l-13 11l-257 352h151l201 -284l47 -79h2l46 80z" />
    <glyph glyph-name="brokenbar" unicode="&#xa6;" horiz-adv-x="335" 
d="M220 360v-410h-105v410h105zM220 860v-410h-105v410h105z" />
    <glyph glyph-name="section" unicode="&#xa7;" horiz-adv-x="657" 
d="M494 274q0 18 -8 34t-25.5 30.5t-28 22t-32.5 20.5l-164 97q-22 -19 -34 -31t-25.5 -33.5t-13.5 -40.5q0 -54 86 -103l176 -101q69 60 69 105zM614 290q0 -102 -106 -185q54 -57 54 -124q0 -90 -64 -136t-157 -46q-70 0 -141 28.5t-125 81.5l81 79q76 -80 185 -80
q94 0 94 74q0 22 -20 46q-27 32 -91 70q-17 10 -58 32.5t-62 34.5q-74 42 -117 88.5t-43 109.5q0 96 117 183q-47 51 -47 105q0 80 66 124t161 44q68 0 135.5 -30.5t121.5 -84.5l-81 -79q-82 87 -176 87q-46 0 -73.5 -16.5t-27.5 -45.5q0 -32 44 -67q23 -18 57 -37
q13 -8 69 -38q46 -25 74 -42.5t62 -45t51 -60.5t17 -70z" />
    <glyph glyph-name="dieresis" unicode="&#xa8;" horiz-adv-x="720" 
d="M291 778q0 -32 -17 -51.5t-48 -19.5t-47.5 19.5t-16.5 51.5t16.5 51.5t47.5 19.5q32 0 48.5 -19t16.5 -52zM535 778q0 -32 -17 -51.5t-48 -19.5t-47.5 19.5t-16.5 51.5t16.5 51.5t47.5 19.5q32 0 48.5 -19t16.5 -52z" />
    <glyph glyph-name="copyright" unicode="&#xa9;" horiz-adv-x="959" 
d="M615 272l62 -62q-76 -83 -199 -83t-187 74.5t-64 194.5q0 121 67.5 199t184.5 78q124 0 192 -74l-62 -62q-48 51 -129 51q-80 -1 -122.5 -55t-42.5 -137q0 -81 40 -132t123 -51q82 0 137 59zM816 401q0 139 -99.5 242t-236.5 103q-138 0 -237.5 -103t-99.5 -242
q0 -140 99 -243t238 -103q138 0 237 103t99 243zM899 401q0 -174 -123 -297.5t-296 -123.5q-174 0 -297 123.5t-123 297.5q0 173 123 296t297 123q173 0 296 -123t123 -296z" />
    <glyph glyph-name="ordfeminine" unicode="&#xaa;" horiz-adv-x="467" 
d="M330 576l9 12h-33q-39 0 -61 -1q-40 -2 -66 -8q-67 -15 -67 -59q0 -29 28.5 -43t67.5 -14q45 0 83.5 13t38.5 45v55zM412 664v-270h-82v32h-1q-47 -39 -121 -39q-73 0 -125.5 32t-52.5 101q0 32 12.5 57t36.5 39.5t49 24.5t60.5 14t59 5t55.5 1q26 0 36 -1q-6 7 -7 9
l-2 8q-17 67 -101 67q-80 0 -129 -45l-57 56q79 65 186 65q77 0 130 -36.5t53 -119.5z" />
    <glyph glyph-name="guillemotleft" unicode="&#xab;" horiz-adv-x="673" 
d="M255 212l89 -89l-77 -78l-212 210l212 210l77 -78l-89 -89l-56 -43q1 -1 1 -2zM529 212l89 -89l-77 -78l-212 210l212 210l77 -78l-89 -89l-56 -43q1 -1 1 -2z" />
    <glyph glyph-name="logicalnot" unicode="&#xac;" horiz-adv-x="583" 
d="M553 370v-320h-111v203l5 11h-417v106h523z" />
    <glyph glyph-name="softhyphen" unicode="&#xad;" horiz-adv-x="405" 
d="M375 385v-110h-345v110h345z" />
    <glyph glyph-name="registered" unicode="&#xae;" horiz-adv-x="959" 
d="M575 491q0 64 -78 64h-133l10 -11v-106l-10 -11h128q40 0 61.5 18t21.5 46zM626 324l77 -162h-95l-59 126q-14 30 -35 43t-58 13h-92l10 -11v-171h-85v476h208q69 0 116.5 -38t47.5 -109q0 -39 -20.5 -71t-52.5 -47q24 -17 38 -49zM816 400q0 140 -99.5 243t-236.5 103
q-138 0 -237.5 -103t-99.5 -243q0 -139 99.5 -242t237.5 -103t237 103t99 242zM899 401q0 -174 -123 -297.5t-296 -123.5q-174 0 -297 123.5t-123 297.5q0 173 123 296t297 123q173 0 296 -123t123 -296z" />
    <glyph glyph-name="macron" unicode="&#xaf;" horiz-adv-x="709" 
d="M565 822v-80h-395v80h395z" />
    <glyph glyph-name="degree" unicode="&#xb0;" horiz-adv-x="437" 
d="M301 627q0 51 -23.5 81.5t-71.5 30.5q-95 0 -95 -112q0 -51 23.5 -81t71.5 -30t71.5 30t23.5 81zM382 627q0 -85 -45.5 -138.5t-130.5 -53.5t-130.5 53.5t-45.5 138.5q0 86 45.5 139.5t130.5 53.5q86 0 131 -53t45 -140z" />
    <glyph glyph-name="plusminus" unicode="&#xb1;" horiz-adv-x="685" 
d="M595 160v-110h-505v110h505zM595 535v-110h-205l7 -12v-205h-109v205l7 12h-205v110h205l-7 12v206h109v-206l-7 -12h205z" />
    <glyph glyph-name="twosuperior" unicode="&#xb2;" horiz-adv-x="434" 
d="M379 685q0 -94 -116 -136l-64 -22q-8 -3 -14 -6.5t-11 -9t-8 -9t-7.5 -12t-5.5 -11t-5 -13t-5 -12.5l-1 -2l-7 -8h244v-83h-322v85q0 53 28 97t85 65l55 19q40 14 53.5 27.5t13.5 30.5q0 47 -71 47q-57 0 -103 -62l-63 63q69 82 167 82q76 0 116.5 -38t40.5 -92z" />
    <glyph glyph-name="threesuperior" unicode="&#xb3;" horiz-adv-x="469" 
d="M414 496q0 -57 -47 -99t-133 -42q-106 0 -179 82l62 61q28 -33 54 -47.5t62 -14.5q49 0 72 18.5t23 39.5q0 56 -84 63l-76 3v76q60 1 73 3q43 4 60.5 20.5t17.5 34.5q0 17 -19 30.5t-66 13.5q-35 0 -60.5 -13.5t-52.5 -44.5l-62 62q71 78 176 78q83 0 127 -36t44 -90
q0 -27 -17 -52t-43 -40v-2q68 -29 68 -104z" />
    <glyph glyph-name="acute" unicode="&#xb4;" horiz-adv-x="725" 
d="M428 951l77 -78l-207 -178l-48 48z" />
    <glyph glyph-name="mu" unicode="&#xb5;" 
d="M640 630v-631h-116v54h-2q-61 -64 -167 -64q-91 0 -147 61l-1 -1v-259h-117v840h117v-373q0 -76 40.5 -119.5t106.5 -43.5q77 0 123.5 44.5t46.5 121.5v370h116z" />
    <glyph glyph-name="paragraph" unicode="&#xb6;" horiz-adv-x="665" 
d="M595 810v-105h-64l6 -10v-876h-110v876l6 10h-78l6 -10v-876h-111v470l7 10h-9q-105 6 -176.5 79t-71.5 176q0 106 77 181t185 75h333z" />
    <glyph glyph-name="periodcentered" unicode="&#xb7;" horiz-adv-x="292" 
d="M222 406q0 -41 -21 -65t-60 -24t-60 24t-21 65q0 40 21 64t60 24t60 -24t21 -64z" />
    <glyph glyph-name="cedilla" unicode="&#xb8;" horiz-adv-x="641" 
d="M382 4l29 -26q22 -21 22.5 -46.5t-23.5 -49.5l-90 -90l-56 55l66 66q33 33 10 56l-35 35h77z" />
    <glyph glyph-name="onesuperior" unicode="&#xb9;" horiz-adv-x="297" 
d="M222 810v-455h-85v300l7 47l-16 -21l-18 -22l-22 -23l-58 58l118 116h74z" />
    <glyph glyph-name="ordmasculine" unicode="&#xba;" horiz-adv-x="494" 
d="M357 604q0 64 -30.5 101.5t-92.5 37.5t-92 -37.5t-30 -101.5t30.5 -102t91.5 -38q62 0 92.5 37.5t30.5 102.5zM439 604q0 -96 -53 -156.5t-152 -60.5t-151.5 60t-52.5 157q0 96 52.5 156t151.5 60t152 -59.5t53 -156.5z" />
    <glyph glyph-name="guillemotright" unicode="&#xbb;" horiz-adv-x="673" 
d="M132 465l212 -210l-212 -210l-77 78l89 89q48 37 56 42l-27 20l-45 40l-73 73zM406 465l212 -210l-212 -210l-77 78l89 89q48 37 56 42l-27 20l-45 40l-73 73z" />
    <glyph glyph-name="onequarter" unicode="&#xbc;" horiz-adv-x="795" 
d="M481 179l128 1l-5 8v110l1 33l-10 -14l-18 -27l-68 -82l-27 -27zM222 810v-455h-85v300l7 47l-16 -21l-18 -22l-22 -23l-58 58l118 116h74zM444 820h91l-291 -830h-91zM740 180v-82h-55l5 -8l1 -91h-87v90l5 9h-237v63l243 293h76v-265l-5 -9h54z" />
    <glyph glyph-name="onehalf" unicode="&#xbd;" horiz-adv-x="819" 
d="M222 810v-455h-85v300l7 47l-16 -21l-18 -22l-22 -23l-58 58l118 116h74zM445 820h91l-291 -830h-91zM764 323q0 -94 -116 -135l-65 -23q-7 -2 -13.5 -5.5t-11.5 -9t-8.5 -9.5t-7 -12t-5 -11t-5.5 -13t-5 -13l-1 -2l-6 -8h243v-83h-322v86q0 53 28.5 97t85.5 64l54 19
q40 14 54 27.5t14 30.5q0 48 -71 48q-56 0 -103 -62l-63 63q71 82 166 82q77 0 117.5 -38t40.5 -93z" />
    <glyph glyph-name="threequarters" unicode="&#xbe;" horiz-adv-x="947" 
d="M633 179l128 1l-5 8v110l2 33l-10 -14l-18 -27l-68 -82l-28 -27zM414 496q0 -57 -47 -99t-133 -42q-106 0 -179 82l62 61q28 -33 54 -47.5t62 -14.5q49 0 72 18.5t23 39.5q0 56 -84 63l-76 3v76q60 1 73 3q43 4 60.5 20.5t17.5 34.5q0 17 -19 30.5t-66 13.5
q-35 0 -60.5 -13.5t-52.5 -44.5l-62 62q71 78 176 78q83 0 127 -36t44 -90q0 -27 -17 -52t-43 -40v-2q68 -29 68 -104zM596 820h91l-291 -830h-91zM892 180v-82h-55l6 -8v-91h-87v90l6 9h-237v63l242 293h76v-265l-5 -9h54z" />
    <glyph glyph-name="questiondown" unicode="&#xbf;" horiz-adv-x="669" 
d="M522 204l92 -82q-116 -132 -291 -132q-119 0 -193.5 65.5t-74.5 147.5q0 67 40 117.5t104 74.5l38 14q55 21 71 49t16 96v34h120v-43q0 -96 -33 -150.5t-134 -92.5l-23 -8q-42 -16 -59 -37.5t-17 -53.5q0 -37 41.5 -70.5t103.5 -33.5q64 0 110.5 25t88.5 80zM465 731
q0 -40 -21 -64t-60 -24t-60 23.5t-21 64.5t21 65t60 24t60 -24t21 -65z" />
    <glyph glyph-name="Agrave" unicode="&#xc0;" horiz-adv-x="881" 
d="M280 310h321l-12 12l-124 275l-23 74h-2l-23 -73l-125 -276zM499 810l367 -810h-131l-85 188l6 11h-431l6 -11l-85 -188h-131l367 810h117zM384 1129l178 -207l-47 -48l-208 178z" />
    <glyph glyph-name="Aacute" unicode="&#xc1;" horiz-adv-x="881" 
d="M280 310h321l-12 12l-124 275l-23 74h-2l-23 -73l-125 -276zM499 810l367 -810h-131l-85 188l6 11h-431l6 -11l-85 -188h-131l367 810h117zM501 1129l78 -77l-208 -178l-48 48z" />
    <glyph glyph-name="Acircumflex" unicode="&#xc2;" horiz-adv-x="881" 
d="M280 310h321l-12 12l-124 275l-23 74h-2l-23 -73l-125 -276zM499 810l367 -810h-131l-85 188l6 11h-431l6 -11l-85 -188h-131l367 810h117zM442 1106l187 -186l-47 -47l-141 114h-2l-140 -114l-47 47l188 186h2z" />
    <glyph glyph-name="Atilde" unicode="&#xc3;" horiz-adv-x="881" 
d="M280 310h321l-12 12l-124 275l-23 74h-2l-23 -73l-125 -276zM499 810l367 -810h-131l-85 188l6 11h-431l6 -11l-85 -188h-131l367 810h117zM624 1041l54 -53q-16 -50 -57 -81.5t-90 -31.5q-36 0 -102 39q-27 18 -46 25q-22 11 -41 11q-59 0 -84 -76l-52 52q12 44 53 78.5
t91 34.5q38 0 104 -40q37 -21 46 -25q23 -10 40 -10q60 0 84 77z" />
    <glyph glyph-name="Adieresis" unicode="&#xc4;" horiz-adv-x="881" 
d="M280 310h321l-12 12l-124 275l-23 74h-2l-23 -73l-125 -276zM499 810l367 -810h-131l-85 188l6 11h-431l6 -11l-85 -188h-131l367 810h117zM384 971q0 -32 -16.5 -51.5t-47.5 -19.5t-48 19.5t-17 51.5t16.5 51.5t47.5 19.5t48 -19.5t17 -51.5zM628 971q0 -32 -16.5 -51.5
t-47.5 -19.5t-48 19.5t-17 51.5t16.5 51.5t47.5 19.5t48 -19.5t17 -51.5z" />
    <glyph glyph-name="Aring" unicode="&#xc5;" horiz-adv-x="881" 
d="M280 310h321l-12 12l-124 275l-23 74h-2l-23 -73l-125 -276zM493 992q0 25 -13.5 40.5t-38.5 15.5q-52 0 -52 -56q0 -26 13.5 -41.5t38.5 -15.5t38.5 15.5t13.5 41.5zM499 810l367 -810h-131l-85 188l6 11h-431l6 -11l-85 -188h-131l367 810h117zM554 992
q0 -52 -29.5 -84.5t-83.5 -32.5q-55 0 -84 32.5t-29 84.5t29 84t84 32t84 -32t29 -84z" />
    <glyph glyph-name="AE" unicode="&#xc6;" horiz-adv-x="1076" 
d="M280 310h248l-10 12v365l7 12h-73l3 -12l-165 -367zM1006 111v-111h-489v187l8 12h-300l6 -12l-85 -187h-131l367 810h624v-111h-375l6 -12v-214l-12 -13h338v-110h-338l12 -12v-215l-12 -12h381z" />
    <glyph glyph-name="Ccedilla" unicode="&#xc7;" horiz-adv-x="810" 
d="M780 692l-89 -86q-81 103 -226 103q-144 0 -215.5 -85.5t-71.5 -223.5q0 -135 70 -217t216 -82q147 0 228 103l87 -85q-109 -119 -283 -128l14 -13q22 -21 22.5 -46.5t-23.5 -49.5l-90 -90l-56 55l66 66q33 33 10 56l-23 23q-175 13 -268 122.5t-93 285.5
q0 189 108 304.5t302 115.5q198 0 315 -128z" />
    <glyph glyph-name="Egrave" unicode="&#xc8;" horiz-adv-x="780" 
d="M710 111v-111h-620v810h620v-111h-512l12 -12v-214l-12 -13h464v-110h-464l12 -12v-215l-12 -12h512zM341 1130l178 -207l-48 -48l-208 178z" />
    <glyph glyph-name="Eacute" unicode="&#xc9;" horiz-adv-x="780" 
d="M710 111v-111h-620v810h620v-111h-512l12 -12v-214l-12 -13h464v-110h-464l12 -12v-215l-12 -12h512zM485 1129l77 -77l-207 -178l-48 48z" />
    <glyph glyph-name="Ecircumflex" unicode="&#xca;" horiz-adv-x="780" 
d="M710 111v-111h-620v810h620v-111h-512l12 -12v-214l-12 -13h464v-110h-464l12 -12v-215l-12 -12h512zM408 1106l187 -186l-47 -47l-141 114h-2l-140 -114l-47 47l188 186h2z" />
    <glyph glyph-name="Edieresis" unicode="&#xcb;" horiz-adv-x="780" 
d="M710 111v-111h-620v810h620v-111h-512l12 -12v-214l-12 -13h464v-110h-464l12 -12v-215l-12 -12h512zM349 971q0 -32 -17 -51t-48 -19q-32 0 -48.5 19t-16.5 51q0 33 17 52t48 19q32 0 48.5 -19t16.5 -52zM593 971q0 -32 -17 -51t-48 -19q-32 0 -48.5 19t-16.5 51
q0 33 17 52t48 19q32 0 48.5 -19t16.5 -52z" />
    <glyph glyph-name="Igrave" unicode="&#xcc;" horiz-adv-x="310" 
d="M215 810v-810h-120v810h120zM90 1130l178 -207l-47 -48l-208 178z" />
    <glyph glyph-name="Iacute" unicode="&#xcd;" horiz-adv-x="310" 
d="M215 810v-810h-120v810h120zM213 1129l77 -77l-207 -178l-48 48z" />
    <glyph glyph-name="Icircumflex" unicode="&#xce;" horiz-adv-x="310" 
d="M215 810v-810h-120v810h120zM159 1106l187 -186l-47 -47l-142 114h-2l-140 -114l-47 47l189 186h2z" />
    <glyph glyph-name="Idieresis" unicode="&#xcf;" horiz-adv-x="310" 
d="M215 810v-810h-120v810h120zM99 970q0 -32 -16.5 -51t-47.5 -19q-32 0 -48.5 19t-16.5 51q0 33 16.5 52t47.5 19q32 0 48.5 -19t16.5 -52zM343 970q0 -32 -16.5 -51t-47.5 -19q-32 0 -48.5 19t-16.5 51q0 33 16.5 52t47.5 19q32 0 48.5 -19t16.5 -52z" />
    <glyph glyph-name="Eth" unicode="&#xd0;" horiz-adv-x="848" 
d="M670 405q0 66 -10 114t-37.5 91.5t-83.5 66t-140 22.5h-201l12 -12v-215l-7 -12h202v-110h-202l7 -13v-214l-12 -12h205q67 0 116 16t78 41t45.5 65t22 79.5t5.5 92.5zM793 405q0 -44 -4 -82.5t-15 -80.5t-28.5 -76.5t-47 -66t-68.5 -53t-94 -34t-123 -12.5h-323v338
l7 12h-72v110h72l-8 13l1 337h88h72h159q94 0 165 -24.5t112 -62.5t66 -94t33 -108.5t8 -115.5z" />
    <glyph glyph-name="Ntilde" unicode="&#xd1;" horiz-adv-x="870" 
d="M780 810v-810h-106l-406 524l-56 92h-2v-616h-120v810h106l408 -525l54 -91h2v616h120zM616 1041l53 -53q-15 -49 -56 -81t-90 -32q-36 0 -102 39q-29 18 -46 25q-22 11 -42 11q-58 0 -83 -76l-53 52q13 44 54 78.5t91 34.5q39 0 103 -40q37 -21 46 -25q25 -10 40 -10
q61 0 85 77z" />
    <glyph glyph-name="Ograve" unicode="&#xd2;" horiz-adv-x="894" 
d="M716 400q0 136 -66 222.5t-203 86.5t-203 -85t-66 -224q0 -135 66.5 -217t202.5 -82q138 0 203.5 81.5t65.5 217.5zM839 400q0 -187 -103 -298.5t-289 -111.5q-189 0 -290.5 111t-101.5 299q0 189 102 304.5t290 115.5t290 -115t102 -305zM381 1130l178 -207l-48 -48
l-208 178z" />
    <glyph glyph-name="Oacute" unicode="&#xd3;" horiz-adv-x="894" 
d="M716 400q0 136 -66 222.5t-203 86.5t-203 -85t-66 -224q0 -135 66.5 -217t202.5 -82q138 0 203.5 81.5t65.5 217.5zM839 400q0 -187 -103 -298.5t-289 -111.5q-189 0 -290.5 111t-101.5 299q0 189 102 304.5t290 115.5t290 -115t102 -305zM512 1129l78 -77l-208 -178
l-48 48z" />
    <glyph glyph-name="Ocircumflex" unicode="&#xd4;" horiz-adv-x="894" 
d="M716 400q0 136 -66 222.5t-203 86.5t-203 -85t-66 -224q0 -135 66.5 -217t202.5 -82q138 0 203.5 81.5t65.5 217.5zM839 400q0 -187 -103 -298.5t-289 -111.5q-189 0 -290.5 111t-101.5 299q0 189 102 304.5t290 115.5t290 -115t102 -305zM450 1106l187 -186l-47 -47
l-141 114h-2l-140 -114l-47 47l188 186h2z" />
    <glyph glyph-name="Otilde" unicode="&#xd5;" horiz-adv-x="894" 
d="M716 400q0 136 -66 222.5t-203 86.5t-203 -85t-66 -224q0 -135 66.5 -217t202.5 -82q138 0 203.5 81.5t65.5 217.5zM839 400q0 -187 -103 -298.5t-289 -111.5q-189 0 -290.5 111t-101.5 299q0 189 102 304.5t290 115.5t290 -115t102 -305zM624 1041l54 -53
q-16 -50 -57 -81.5t-90 -31.5q-36 0 -102 39q-27 18 -46 25q-22 11 -41 11q-59 0 -84 -76l-52 52q12 44 53 78.5t91 34.5q38 0 104 -40q37 -21 46 -25q23 -10 40 -10q60 0 84 77z" />
    <glyph glyph-name="Odieresis" unicode="&#xd6;" horiz-adv-x="894" 
d="M716 400q0 136 -66 222.5t-203 86.5t-203 -85t-66 -224q0 -135 66.5 -217t202.5 -82q138 0 203.5 81.5t65.5 217.5zM839 400q0 -187 -102.5 -298.5t-289.5 -111.5q-189 0 -290.5 111t-101.5 299q0 189 102 304.5t290 115.5t290 -115t102 -305zM389 971q0 -32 -17 -51.5
t-48 -19.5t-48 19.5t-17 51.5t17 51.5t48 19.5t48 -19.5t17 -51.5zM633 971q0 -32 -17 -51.5t-48 -19.5t-48 19.5t-17 51.5t17 51.5t48 19.5t48 -19.5t17 -51.5z" />
    <glyph glyph-name="multiply" unicode="&#xd7;" horiz-adv-x="626" 
d="M392 399l159 -155l-77 -77l-155 159l-5 8l-162 -167l-77 77l166 163l-8 4l-158 155l77 77l153 -158l6 -9l163 167l77 -77l-167 -163z" />
    <glyph glyph-name="Oslash" unicode="&#xd8;" horiz-adv-x="894" 
d="M559 679l10 5q-50 25 -122 25q-137 0 -203 -85t-66 -224q0 -163 91 -241v14zM716 400q0 173 -96 254v-12l-292 -508l-10 -7q55 -26 129 -26q138 0 203.5 81.5t65.5 217.5zM839 400q0 -187 -102.5 -298.5t-289.5 -111.5q-107 0 -188 38l2 -11l-51 -89l-60 36l50 87l9 5
q-154 108 -154 344q0 188 103 304t290 116q97 0 177 -36l1 11l34 60l61 -36l-34 -58l-8 -6q160 -110 160 -355z" />
    <glyph glyph-name="Ugrave" unicode="&#xd9;" horiz-adv-x="882" 
d="M797 810v-438q0 -382 -355 -382q-357 0 -357 382v438h120v-437q0 -134 55 -203t181 -69q125 0 180.5 69t55.5 203v437h120zM375 1130l178 -207l-48 -48l-208 178z" />
    <glyph glyph-name="Uacute" unicode="&#xda;" horiz-adv-x="882" 
d="M797 810v-438q0 -382 -355 -382q-357 0 -357 382v438h120v-437q0 -134 55 -203t181 -69q125 0 180.5 69t55.5 203v437h120zM496 1129l77 -77l-207 -178l-48 48z" />
    <glyph glyph-name="Ucircumflex" unicode="&#xdb;" horiz-adv-x="882" 
d="M797 810v-438q0 -382 -355 -382q-357 0 -357 382v438h120v-437q0 -134 55 -203t181 -69q125 0 180.5 69t55.5 203v437h120zM444 1106l187 -186l-47 -47l-142 114h-2l-140 -114l-47 47l189 186h2z" />
    <glyph glyph-name="Udieresis" unicode="&#xdc;" horiz-adv-x="882" 
d="M797 810v-438q0 -382 -355 -382q-357 0 -357 382v438h120v-437q0 -134 55 -203t181 -69q125 0 180.5 69t55.5 203v437h120zM384 971q0 -32 -17 -51.5t-48 -19.5t-48 19.5t-17 51.5t17 51.5t48 19.5t48 -19.5t17 -51.5zM628 971q0 -32 -17 -51.5t-48 -19.5t-48 19.5
t-17 51.5t17 51.5t48 19.5t48 -19.5t17 -51.5z" />
    <glyph glyph-name="Yacute" unicode="&#xdd;" horiz-adv-x="850" 
d="M685 810h150l-349 -472v-338h-121v338l-350 472h151l209 -288l49 -84h2l48 85zM487 1129l77 -77l-207 -178l-48 48z" />
    <glyph glyph-name="Thorn" unicode="&#xde;" horiz-adv-x="797" 
d="M629 404q0 68 -39 106t-118 38h-274l12 -12v-263l-12 -13h274q78 0 117.5 39.5t39.5 104.5zM752 404q0 -110 -75 -182t-205 -72h-274l12 -12v-138h-120v810h119v-139l-12 -12h275q132 0 206 -70.5t74 -184.5z" />
    <glyph glyph-name="germandbls" unicode="&#xdf;" horiz-adv-x="707" 
d="M652 245q0 -110 -73.5 -183t-184.5 -73q-83 0 -147 23v114q42 -18 69 -23.5t69 -5.5q67 0 108.5 39.5t41.5 107.5t-43.5 109.5t-112.5 41.5h-129v107l92 -1q62 -1 97 29.5t35 85.5q0 57 -42 89.5t-107 32.5t-91.5 -28.5t-26.5 -93.5v-616h-117v639q0 206 236 206
q116 0 191 -62t75 -162q0 -105 -88 -156v-2q64 -20 106 -80t42 -138z" />
    <glyph glyph-name="agrave" unicode="&#xe0;" horiz-adv-x="720" 
d="M518 282l12 12q-5 0 -25.5 1t-28.5 1q-64 0 -100 -2q-59 -3 -107 -15q-98 -25 -98 -91q0 -35 26.5 -57.5t59 -29.5t68.5 -7q27 0 55.5 3.5t62 12.5t54.5 29.5t21 48.5v94zM635 406v-406h-117v48h-2q-74 -59 -191 -59q-51 0 -96.5 10.5t-86 32t-64 62t-23.5 94.5
q0 47 19 83.5t54.5 58.5t74 36.5t91 20.5t90.5 8t87 2q35 0 59 -2l-12 12v6t-1 6q-8 115 -160 115q-119 0 -191 -60l-77 79q111 86 268 86q55 0 102 -11.5t88 -37t64.5 -72.5t23.5 -112zM304 951l178 -208l-47 -48l-208 178z" />
    <glyph glyph-name="aacute" unicode="&#xe1;" horiz-adv-x="720" 
d="M518 282l12 12q-5 0 -25.5 1t-28.5 1q-64 0 -100 -2q-59 -3 -107 -15q-98 -25 -98 -91q0 -35 26.5 -57.5t59 -29.5t68.5 -7q27 0 55.5 3.5t62 12.5t54.5 29.5t21 48.5v94zM635 406v-406h-117v48h-2q-74 -59 -191 -59q-51 0 -96.5 10.5t-86 32t-64 62t-23.5 94.5
q0 47 19 83.5t54.5 58.5t74 36.5t91 20.5t90.5 8t87 2q35 0 59 -2l-12 12v6t-1 6q-8 115 -160 115q-119 0 -191 -60l-77 79q111 86 268 86q55 0 102 -11.5t88 -37t64.5 -72.5t23.5 -112zM426 951l78 -78l-208 -178l-47 48z" />
    <glyph glyph-name="acircumflex" unicode="&#xe2;" horiz-adv-x="720" 
d="M518 282l12 12q-5 0 -25.5 1t-28.5 1q-64 0 -100 -2q-59 -3 -107 -15q-98 -25 -98 -91q0 -35 26.5 -57.5t59 -29.5t68.5 -7q27 0 55.5 3.5t62 12.5t54.5 29.5t21 48.5v94zM635 406v-406h-117v48h-2q-74 -59 -191 -59q-51 0 -96.5 10.5t-86 32t-64 62t-23.5 94.5
q0 47 19 83.5t54.5 58.5t74 36.5t91 20.5t90.5 8t87 2q35 0 59 -2l-12 12v6t-1 6q-8 115 -160 115q-119 0 -191 -60l-77 79q111 86 268 86q55 0 102 -11.5t88 -37t64.5 -72.5t23.5 -112zM347 930l187 -187l-47 -47l-141 115l-2 -1l-140 -114l-47 47l188 187h2z" />
    <glyph glyph-name="atilde" unicode="&#xe3;" horiz-adv-x="720" 
d="M518 282l12 12q-5 0 -25.5 1t-28.5 1q-64 0 -100 -2q-59 -3 -107 -15q-98 -25 -98 -91q0 -35 26.5 -57.5t59 -29.5t68.5 -7q27 0 55.5 3.5t62 12.5t54.5 29.5t21 48.5v94zM635 406v-406h-117v48h-2q-74 -59 -191 -59q-51 0 -96.5 10.5t-86 32t-64 62t-23.5 94.5
q0 47 19 83.5t54.5 58.5t74 36.5t91 20.5t90.5 8t87 2q35 0 59 -2l-12 12v6t-1 6q-8 115 -160 115q-119 0 -191 -60l-77 79q111 86 268 86q55 0 102 -11.5t88 -37t64.5 -72.5t23.5 -112zM530 878l53 -53q-15 -49 -56 -81t-90 -32q-35 0 -102 40q-27 16 -46 25q-23 10 -42 10
q-58 0 -83 -76l-52 53q12 44 53 78.5t91 34.5q35 0 104 -40q33 -20 46 -25q22 -11 39 -11q29 0 51.5 20.5t33.5 56.5z" />
    <glyph glyph-name="adieresis" unicode="&#xe4;" horiz-adv-x="720" 
d="M518 282l12 12q-5 0 -25.5 1t-28.5 1q-64 0 -100 -2q-59 -3 -107 -15q-98 -25 -98 -91q0 -35 26.5 -57.5t59 -29.5t68.5 -7q27 0 55.5 3.5t62 12.5t54.5 29.5t21 48.5v94zM635 406v-406h-117v48h-2q-74 -59 -191 -59q-51 0 -96.5 10.5t-86 32t-64 62t-23.5 94.5
q0 47 19 83.5t54.5 58.5t74 36.5t91 20.5t90.5 8t87 2q35 0 59 -2l-12 12v6t-1 6q-8 115 -160 115q-119 0 -191 -60l-77 79q111 86 268 86q55 0 102 -11.5t88 -37t64.5 -72.5t23.5 -112zM291 778q0 -32 -17 -51.5t-48 -19.5t-47.5 19.5t-16.5 51.5t16.5 51.5t47.5 19.5
q32 0 48.5 -19t16.5 -52zM535 778q0 -32 -17 -51.5t-48 -19.5t-47.5 19.5t-16.5 51.5t16.5 51.5t47.5 19.5q32 0 48.5 -19t16.5 -52z" />
    <glyph glyph-name="aring" unicode="&#xe5;" horiz-adv-x="720" 
d="M518 282l12 12q-5 0 -25.5 1t-28.5 1q-64 0 -100 -2q-59 -3 -107 -15q-98 -25 -98 -91q0 -35 26.5 -57.5t59 -29.5t68.5 -7q27 0 55.5 3.5t62 12.5t54.5 29.5t21 48.5v94zM407 812q0 56 -52 56t-52 -56q0 -25 13.5 -40.5t38.5 -15.5q52 0 52 56zM635 406v-406h-117v48h-2
q-74 -59 -191 -59q-51 0 -96.5 10.5t-86 32t-64 62t-23.5 94.5q0 47 19 83.5t54.5 58.5t74 36.5t91 20.5t90.5 8t87 2q35 0 59 -2l-12 12v6t-1 6q-8 115 -160 115q-119 0 -191 -60l-77 79q111 86 268 86q55 0 102 -11.5t88 -37t64.5 -72.5t23.5 -112zM469 812
q0 -52 -30 -84.5t-84 -32.5q-55 0 -84 32.5t-29 84.5t29 84.5t84 32.5t84.5 -32.5t29.5 -84.5z" />
    <glyph glyph-name="ae" unicode="&#xe6;" horiz-adv-x="1163" 
d="M508 281l11 14q-6 0 -25.5 0.5t-27.5 0.5q-80 0 -98 -1q-62 -4 -103 -15q-98 -25 -98 -93q0 -50 46.5 -71.5t104.5 -21.5q28 0 55.5 3.5t60.5 12t53.5 29t20.5 49.5v93zM612 366h392l-15 13q-14 73 -59 114.5t-122 41.5t-123.5 -42t-61.5 -114zM1108 310l-2 -46h-496
l12 -13q31 -156 191 -156q96 0 169 72l79 -77q-103 -100 -249 -100q-145 0 -235 100h-1q-74 -101 -258 -101q-68 0 -124.5 17t-97.5 63.5t-41 117.5q0 48 18.5 84.5t53 58t72 36t89 20.5t88.5 8t85 2q46 0 58 -2l-11 14q0 11 -1 12q-7 115 -157 115q-122 0 -194 -67l-79 77
q113 94 273 94q161 0 232 -107l1 1q36 48 95.5 77.5t129.5 29.5q147 0 223.5 -91t76.5 -239z" />
    <glyph glyph-name="ccedilla" unicode="&#xe7;" horiz-adv-x="641" 
d="M534 162l77 -77q-88 -86 -213 -94l1 -2l12 -11q48 -45 0 -95l-91 -91l-56 55l66 66q33 33 10 56l-23 24q-129 14 -195.5 100.5t-66.5 216.5q0 144 83.5 237t229.5 93q149 0 239 -88l-78 -77q-60 60 -160 60q-95 -1 -146 -64.5t-51 -160.5q0 -95 48 -155t147 -60
q101 0 167 67z" />
    <glyph glyph-name="egrave" unicode="&#xe8;" 
d="M166 366h399l-12 12q-14 75 -60.5 116.5t-125.5 41.5q-154 0 -188 -158zM675 310q0 -22 -3 -46h-507l12 -12q29 -158 195 -158q95 0 171 71l80 -80q-104 -95 -251 -95q-156 0 -236.5 88.5t-80.5 231.5q0 147 83.5 238.5t228.5 91.5q151 0 229.5 -91t78.5 -239zM300 951
l178 -208l-48 -48l-207 178z" />
    <glyph glyph-name="eacute" unicode="&#xe9;" 
d="M166 366h399l-12 12q-14 75 -60.5 116.5t-125.5 41.5q-154 0 -188 -158zM675 310q0 -22 -3 -46h-507l12 -12q29 -158 195 -158q95 0 171 71l80 -80q-104 -95 -251 -95q-156 0 -236.5 88.5t-80.5 231.5q0 147 83.5 238.5t228.5 91.5q151 0 229.5 -91t78.5 -239zM430 951
l78 -78l-208 -178l-47 48z" />
    <glyph glyph-name="ecircumflex" unicode="&#xea;" 
d="M166 366h399l-12 12q-14 75 -60.5 116.5t-125.5 41.5q-154 0 -188 -158zM675 310q0 -22 -3 -46h-507l12 -12q29 -158 195 -158q95 0 171 71l80 -80q-104 -95 -251 -95q-156 0 -236.5 88.5t-80.5 231.5q0 147 83.5 238.5t228.5 91.5q151 0 229.5 -91t78.5 -239zM369 930
l187 -187l-47 -47l-142 115l-1 -1l-140 -114l-47 47l188 187h2z" />
    <glyph glyph-name="edieresis" unicode="&#xeb;" 
d="M166 366h399l-12 12q-14 75 -60.5 116.5t-125.5 41.5q-154 0 -188 -158zM675 310q0 -22 -3 -46h-507l12 -12q29 -158 195 -158q95 0 171 71l80 -80q-104 -95 -251 -95q-156 0 -236.5 88.5t-80.5 231.5q0 147 83.5 238.5t228.5 91.5q151 0 229.5 -91t78.5 -239zM308 778
q0 -32 -17 -51.5t-48 -19.5t-47.5 19.5t-16.5 51.5t16.5 51.5t47.5 19.5q32 0 48.5 -19t16.5 -52zM552 778q0 -32 -17 -51.5t-48 -19.5t-47.5 19.5t-16.5 51.5t16.5 51.5t47.5 19.5q32 0 48.5 -19t16.5 -52z" />
    <glyph glyph-name="igrave" unicode="&#xec;" horiz-adv-x="297" 
d="M207 630v-630h-117v630h117zM87 951l178 -208l-48 -48l-207 178z" />
    <glyph glyph-name="iacute" unicode="&#xed;" horiz-adv-x="297" 
d="M207 630v-630h-117v630h117zM204 951l78 -78l-208 -178l-47 48z" />
    <glyph glyph-name="icircumflex" unicode="&#xee;" horiz-adv-x="297" 
d="M207 630v-630h-117v630h117zM151 930l187 -187l-47 -47l-142 115l-1 -1l-140 -114l-47 47l188 187h2z" />
    <glyph glyph-name="idieresis" unicode="&#xef;" horiz-adv-x="297" 
d="M207 630v-630h-117v630h117zM92 778q0 -32 -17 -51.5t-48 -19.5t-48 19.5t-17 51.5t17 51.5t48 19.5q32 0 48.5 -19t16.5 -52zM336 778q0 -32 -17 -51.5t-48 -19.5t-48 19.5t-17 51.5t17 51.5t48 19.5q32 0 48.5 -19t16.5 -52z" />
    <glyph glyph-name="eth" unicode="&#xf0;" horiz-adv-x="675" 
d="M512 293q0 92 -44.5 148.5t-132.5 56.5t-132.5 -56t-44.5 -149q0 -91 44.5 -145t132.5 -54t132.5 53.5t44.5 145.5zM620 296q0 -135 -74.5 -220.5t-210.5 -85.5q-137 0 -211 85t-74 221q0 119 57.5 200.5t164.5 100.5q32 5 60 5q27 0 47 -4l-48 73l-1 12l-84 -51l-47 76
l82 50l-10 5l-53 83h126l18 -27l2 -11l71 44l50 -76l-74 -44l10 -5l145 -223q54 -84 54 -208z" />
    <glyph glyph-name="ntilde" unicode="&#xf1;" horiz-adv-x="753" 
d="M668 398v-398h-117v380q0 76 -34 115.5t-129 39.5q-80 0 -130.5 -42.5t-50.5 -120.5v-372h-117v630h117v-68h2q32 36 84.5 57t108.5 21q124 0 195 -63.5t71 -178.5zM566 878l53 -53q-15 -49 -56 -81t-90 -32q-35 0 -102 40q-27 16 -46 25q-23 10 -42 10q-58 0 -83 -76
l-52 53q12 44 53 78.5t91 34.5q35 0 104 -40q33 -20 46 -25q22 -11 39 -11q29 0 51.5 20.5t33.5 56.5z" />
    <glyph glyph-name="ograve" unicode="&#xf2;" 
d="M558 315q0 99 -48 159.5t-145 60.5q-98 0 -145.5 -60t-47.5 -160q0 -99 48 -159.5t145 -60.5t145 60t48 160zM675 315q0 -144 -80.5 -234.5t-229.5 -90.5q-151 0 -230.5 89.5t-79.5 235.5q0 145 80 235t229 90q151 0 231 -89t80 -236zM292 951l178 -208l-47 -48l-208 178
z" />
    <glyph glyph-name="oacute" unicode="&#xf3;" 
d="M558 315q0 99 -48 159.5t-145 60.5q-98 0 -145.5 -60t-47.5 -160q0 -99 48 -159.5t145 -60.5t145 60t48 160zM675 315q0 -144 -80.5 -234.5t-229.5 -90.5q-151 0 -230.5 89.5t-79.5 235.5q0 145 80 235t229 90q151 0 231 -89t80 -236zM430 951l78 -78l-208 -178l-47 48z
" />
    <glyph glyph-name="ocircumflex" unicode="&#xf4;" 
d="M558 315q0 99 -48 159.5t-145 60.5q-98 0 -145.5 -60t-47.5 -160q0 -99 48 -159.5t145 -60.5t145 60t48 160zM675 315q0 -144 -80.5 -234.5t-229.5 -90.5q-151 0 -230.5 89.5t-79.5 235.5q0 145 80 235t229 90q151 0 231 -89t80 -236zM367 930l187 -187l-47 -47l-142 115
l-1 -1l-140 -114l-47 47l188 187h2z" />
    <glyph glyph-name="otilde" unicode="&#xf5;" 
d="M558 315q0 99 -48 159.5t-145 60.5q-98 0 -145.5 -60t-47.5 -160q0 -99 48 -159.5t145 -60.5t145 60t48 160zM675 315q0 -144 -80.5 -234.5t-229.5 -90.5q-151 0 -230.5 89.5t-79.5 235.5q0 145 80 235t229 90q151 0 231 -89t80 -236zM542 878l53 -53q-15 -49 -56 -81
t-90 -32q-35 0 -102 40q-27 16 -46 25q-23 10 -42 10q-58 0 -83 -76l-52 53q12 44 53 78.5t91 34.5q35 0 104 -40q33 -20 46 -25q22 -11 39 -11q29 0 51.5 20.5t33.5 56.5z" />
    <glyph glyph-name="odieresis" unicode="&#xf6;" 
d="M558 315q0 99 -48 159.5t-145 60.5q-98 0 -145.5 -60t-47.5 -160q0 -99 48 -159.5t145 -60.5t145 60t48 160zM675 315q0 -144 -80.5 -234.5t-229.5 -90.5q-151 0 -230.5 89.5t-79.5 235.5q0 145 80 235t229 90q151 0 231 -89t80 -236zM308 778q0 -32 -17 -51.5t-48 -19.5
t-48 19.5t-17 51.5t17 51.5t48 19.5q32 0 48.5 -19t16.5 -52zM552 778q0 -32 -17 -51.5t-48 -19.5t-48 19.5t-17 51.5t17 51.5t48 19.5q32 0 48.5 -19t16.5 -52z" />
    <glyph glyph-name="divide" unicode="&#xf7;" horiz-adv-x="675" 
d="M420 176q0 -40 -21.5 -64t-60.5 -24t-60 24t-21 64q0 41 21 65t60 24q40 0 61 -24t21 -65zM590 460v-110h-505v110h505zM420 634q0 -41 -21.5 -65t-60.5 -24t-60 24t-21 65q0 40 21 64t60 24q40 0 61 -23.5t21 -64.5z" />
    <glyph glyph-name="oslash" unicode="&#xf8;" horiz-adv-x="705" 
d="M426 510l11 7q-37 16 -85 16q-94 0 -140 -59t-46 -159q0 -111 57 -169l3 15zM539 315q0 108 -54 167l-2 -13l-199 -348l-11 -9q31 -15 80 -15q94 0 140 59t46 159zM650 315q0 -145 -76.5 -235t-220.5 -90q-80 0 -136 26v-11l-40 -69l-60 36l40 69l10 6q-112 87 -112 268
q0 146 76.5 235.5t220.5 89.5q79 0 138 -28l1 10l39 69l61 -36l-40 -69l-9 -4q108 -91 108 -267z" />
    <glyph glyph-name="ugrave" unicode="&#xf9;" horiz-adv-x="745" 
d="M655 630v-630h-117v68h-2q-72 -78 -189 -78q-134 0 -198 65.5t-64 185.5v389h117v-385q0 -73 33 -111.5t126 -38.5q79 0 128 42.5t49 120.5v372h117zM300 951l178 -208l-48 -48l-207 178z" />
    <glyph glyph-name="uacute" unicode="&#xfa;" horiz-adv-x="745" 
d="M655 630v-630h-117v68h-2q-72 -78 -189 -78q-134 0 -198 65.5t-64 185.5v389h117v-385q0 -73 33 -111.5t126 -38.5q79 0 128 42.5t49 120.5v372h117zM438 951l78 -78l-208 -178l-47 48z" />
    <glyph glyph-name="ucircumflex" unicode="&#xfb;" horiz-adv-x="745" 
d="M655 630v-630h-117v68h-2q-72 -78 -189 -78q-134 0 -198 65.5t-64 185.5v389h117v-385q0 -73 33 -111.5t126 -38.5q79 0 128 42.5t49 120.5v372h117zM369 930l187 -187l-47 -47l-142 115l-1 -1l-140 -114l-47 47l188 187h2z" />
    <glyph glyph-name="udieresis" unicode="&#xfc;" horiz-adv-x="745" 
d="M655 630v-630h-117v68h-2q-72 -78 -189 -78q-134 0 -198 65.5t-64 185.5v389h117v-385q0 -73 33 -111.5t126 -38.5q79 0 128 42.5t49 120.5v372h117zM313 778q0 -32 -17 -51.5t-48 -19.5t-48 19.5t-17 51.5t17 51.5t48 19.5q32 0 48.5 -19t16.5 -52zM557 778
q0 -32 -17 -51.5t-48 -19.5t-48 19.5t-17 51.5t17 51.5t48 19.5q32 0 48.5 -19t16.5 -52z" />
    <glyph glyph-name="yacute" unicode="&#xfd;" horiz-adv-x="700" 
d="M555 630h130l-291 -695q-29 -70 -80 -110t-114 -40q-74 0 -131 29v112q62 -33 118 -33q71 0 116 107l-288 630h130l189 -428l26 -76h2l25 77zM416 951l78 -78l-208 -178l-47 48z" />
    <glyph glyph-name="thorn" unicode="&#xfe;" horiz-adv-x="753" 
d="M581 314q0 102 -46 161.5t-145 59.5q-98 0 -144.5 -60t-46.5 -161q0 -102 46 -161t145 -59q98 0 144.5 59.5t46.5 160.5zM698 314q0 -148 -76.5 -236t-227.5 -88q-115 0 -185 71h-2v-271h-117v1050h117v-275h2q69 75 185 75q149 0 226.5 -89.5t77.5 -236.5z" />
    <glyph glyph-name="ydieresis" unicode="&#xff;" horiz-adv-x="700" 
d="M555 630h130l-292 -695q-29 -70 -80 -110t-114 -40q-73 0 -130 29v112q62 -33 118 -33q69 0 115 113l-287 624h130l186 -417l28 -85h2l27 85zM285 778q0 -32 -17 -51.5t-48 -19.5t-48 19.5t-17 51.5t17 51.5t48 19.5q32 0 48.5 -19t16.5 -52zM529 778q0 -32 -17 -51.5
t-48 -19.5t-48 19.5t-17 51.5t17 51.5t48 19.5q32 0 48.5 -19t16.5 -52z" />
    <glyph glyph-name="Amacron" unicode="&#x100;" horiz-adv-x="881" 
d="M280 310h321l-12 12l-124 275l-23 74h-2l-23 -73l-125 -276zM499 810l367 -810h-131l-85 188l6 11h-431l6 -11l-85 -188h-131l367 810h117zM636 980v-80h-395v80h395z" />
    <glyph glyph-name="amacron" unicode="&#x101;" horiz-adv-x="720" 
d="M518 282l12 12q-5 0 -25.5 1t-28.5 1q-64 0 -100 -2q-59 -3 -107 -15q-98 -25 -98 -91q0 -35 26.5 -57.5t59 -29.5t68.5 -7q27 0 55.5 3.5t62 12.5t54.5 29.5t21 48.5v94zM635 406v-406h-117v48h-2q-74 -59 -191 -59q-51 0 -96.5 10.5t-86 32t-64 62t-23.5 94.5
q0 47 19 83.5t54.5 58.5t74 36.5t91 20.5t90.5 8t87 2q35 0 59 -2l-12 12v6t-1 6q-8 115 -160 115q-119 0 -191 -60l-77 79q111 86 268 86q55 0 102 -11.5t88 -37t64.5 -72.5t23.5 -112zM559 822v-80h-395v80h395z" />
    <glyph glyph-name="Abreve" unicode="&#x102;" horiz-adv-x="881" 
d="M280 310h321l-12 12l-124 275l-23 74h-2l-23 -73l-125 -276zM499 810l367 -810h-131l-85 188l6 11h-431l6 -11l-85 -188h-131l367 810h117zM545 1020h89q-44 -146 -195 -146q-76 0 -125 38.5t-69 107.5h89q32 -68 105 -68q76 0 106 68z" />
    <glyph glyph-name="abreve" unicode="&#x103;" horiz-adv-x="720" 
d="M518 282l12 12q-5 0 -25.5 1t-28.5 1q-64 0 -100 -2q-59 -3 -107 -15q-98 -25 -98 -91q0 -35 26.5 -57.5t59 -29.5t68.5 -7q27 0 55.5 3.5t62 12.5t54.5 29.5t21 48.5v94zM635 406v-406h-117v48h-2q-74 -59 -191 -59q-51 0 -96.5 10.5t-86 32t-64 62t-23.5 94.5
q0 47 19 83.5t54.5 58.5t74 36.5t91 20.5t90.5 8t87 2q35 0 59 -2l-12 12v6t-1 6q-8 115 -160 115q-119 0 -191 -60l-77 79q111 86 268 86q55 0 102 -11.5t88 -37t64.5 -72.5t23.5 -112zM465 841h89q-44 -146 -195 -146q-152 0 -194 146h89q30 -68 105 -68q76 0 106 68z" />
    <glyph glyph-name="Aogonek" unicode="&#x104;" horiz-adv-x="881" 
d="M280 310h321l-12 12l-124 275l-23 74h-2l-23 -73l-125 -276zM499 810l367 -810h-30l-111 -119q-14 -14 -12 -33q1 -17 14 -30t30 -12q15 2 27 12q10 9 22 22l43 -43q-21 -24 -28 -31q-38 -36 -80 -38t-74 27.5t-34 72.5q-2 50 35 88l82 84h-15l-85 188l6 11h-431l6 -11
l-85 -188h-131l367 810h117z" />
    <glyph glyph-name="aogonek" unicode="&#x105;" horiz-adv-x="720" 
d="M518 282l12 12q-5 0 -25.5 1t-28.5 1q-64 0 -100 -2q-65 -4 -107 -15q-98 -25 -98 -91q0 -35 26.5 -57.5t59 -29.5t68.5 -7q27 0 55.5 3.5t62 12.5t54.5 29.5t21 48.5v94zM325 -11q-51 0 -96.5 10.5t-86 32t-64 62t-23.5 94.5q0 47 19 83.5t54.5 58.5t74 36.5t91 20.5
t90.5 8t87 2q35 0 59 -2l-12 12q-1 2 -1 12q-8 115 -160 115q-119 0 -191 -60l-77 79q111 86 268 86q55 0 102 -11.5t88 -37t64.5 -72.5t23.5 -112v-406h-30l-111 -118q-14 -15 -12 -34q1 -17 14 -30t30 -12q15 2 27 12q10 9 22 22l43 -43q-21 -24 -28 -31q-38 -36 -80 -38
t-74 27.5t-34 72.5q-2 50 35 88l82 84v52h-2q-35 -30 -88.5 -46.5t-103.5 -16.5z" />
    <glyph glyph-name="Cacute" unicode="&#x106;" horiz-adv-x="810" 
d="M780 692l-89 -86q-81 103 -226 103q-144 0 -215.5 -85.5t-71.5 -223.5q0 -135 70 -217t216 -82q147 0 228 103l87 -85q-117 -129 -315 -129t-303.5 111t-105.5 299q0 189 108 304.5t302 115.5q198 0 315 -128zM522 1129l78 -77l-208 -178l-48 48z" />
    <glyph glyph-name="cacute" unicode="&#x107;" horiz-adv-x="641" 
d="M534 162l77 -77q-96 -95 -244 -95q-153 0 -232.5 88.5t-79.5 231.5q0 144 83.5 237t229.5 93q149 0 239 -88l-78 -77q-60 60 -160 60q-95 -1 -146 -64.5t-51 -160.5q0 -95 48 -155t147 -60q101 0 167 67zM424 951l77 -78l-207 -178l-48 48z" />
    <glyph glyph-name="Ccircumflex" unicode="&#x108;" horiz-adv-x="810" 
d="M780 692l-89 -86q-81 103 -226 103q-144 0 -215.5 -85.5t-71.5 -223.5q0 -135 70 -217t216 -82q147 0 228 103l87 -85q-117 -129 -315 -129t-303.5 111t-105.5 299q0 189 108 304.5t302 115.5q198 0 315 -128zM461 1107l187 -186l-47 -47l-141 114l-2 -1l-140 -113
l-47 47l188 186h2z" />
    <glyph glyph-name="ccircumflex" unicode="&#x109;" horiz-adv-x="641" 
d="M534 162l77 -77q-96 -95 -244 -95q-153 0 -232.5 88.5t-79.5 231.5q0 144 83.5 237t229.5 93q149 0 239 -88l-78 -77q-60 60 -160 60q-95 -1 -146 -64.5t-51 -160.5q0 -95 48 -155t147 -60q101 0 167 67zM363 930l187 -187l-47 -47l-141 115l-2 -1l-140 -114l-47 47
l188 187h2z" />
    <glyph glyph-name="Cdotaccent" unicode="&#x10a;" horiz-adv-x="810" 
d="M780 692l-89 -86q-81 103 -226 103q-144 0 -215.5 -85.5t-71.5 -223.5q0 -135 70 -217t216 -82q147 0 228 103l87 -85q-117 -129 -315 -129t-303.5 111t-105.5 299q0 189 108 304.5t302 115.5q198 0 315 -128zM531 965q0 -36 -19 -58t-54 -22t-54 22t-19 58t19 58t54 22
t54 -22t19 -58z" />
    <glyph glyph-name="cdotaccent" unicode="&#x10b;" horiz-adv-x="641" 
d="M534 162l77 -77q-96 -95 -244 -95q-153 0 -232.5 88.5t-79.5 231.5q0 144 83.5 237t229.5 93q149 0 239 -88l-78 -77q-60 60 -160 60q-95 -1 -146 -64.5t-51 -160.5q0 -95 48 -155t147 -60q101 0 167 67zM434 787q0 -36 -19 -58t-54 -22t-54 22t-19 58t19 58t54 22
t54 -21.5t19 -58.5z" />
    <glyph glyph-name="Ccaron" unicode="&#x10c;" horiz-adv-x="810" 
d="M780 692l-89 -86q-81 103 -226 103q-144 0 -215.5 -85.5t-71.5 -223.5q0 -135 70 -217t216 -82q147 0 228 103l87 -85q-117 -129 -315 -129t-303.5 111t-105.5 299q0 189 108 304.5t302 115.5q198 0 315 -128zM598 1109l47 -48l-188 -186h-3l-187 186l47 47l142 -114l2 1
z" />
    <glyph glyph-name="ccaron" unicode="&#x10d;" horiz-adv-x="641" 
d="M534 162l77 -77q-96 -95 -244 -95q-153 0 -232.5 88.5t-79.5 231.5q0 144 83.5 237t229.5 93q149 0 239 -88l-78 -77q-60 60 -160 60q-95 -1 -146 -64.5t-51 -160.5q0 -95 48 -155t147 -60q101 0 167 67zM505 930l47 -47l-188 -187h-2l-187 187l47 47l141 -115l2 1z" />
    <glyph glyph-name="Dcaron" unicode="&#x10e;" horiz-adv-x="848" 
d="M670 405q0 66 -10 114t-37.5 91.5t-83.5 66t-140 22.5h-201l12 -12v-564l-12 -12h205q67 0 116 16t78 41t45.5 65t22 79.5t5.5 92.5zM793 405q0 -44 -4 -82.5t-15 -80.5t-28.5 -76.5t-47 -66t-68.5 -53t-94 -34t-123 -12.5h-323v810h99h220q94 0 165 -24.5t112 -62.5
t66 -94t33 -108.5t8 -115.5zM545 1109l47 -48l-188 -186h-3l-187 186l47 47l142 -114l2 1z" />
    <glyph glyph-name="dcaron" unicode="&#x10f;" horiz-adv-x="863" 
d="M554 313q0 102 -46 161.5t-145 59.5q-97 0 -144 -60t-47 -161t46 -159.5t145 -58.5t145 58.5t46 159.5zM663 840v-840h-117v62h-2q-66 -72 -190 -72q-145 0 -222 88.5t-77 233.5q0 147 77 237.5t222 90.5q121 0 190 -77h2v277h117zM878 885q0 -28 -13 -49l-78 -141
l-52 30l42 74l12 9q-24 4 -39 24.5t-15 52.5q0 35 18.5 56t53.5 21q34 0 52.5 -21t18.5 -56z" />
    <glyph glyph-name="Dcroat" unicode="&#x110;" horiz-adv-x="848" 
d="M670 405q0 66 -10 114t-37.5 91.5t-83.5 66t-140 22.5h-201l12 -12v-215l-7 -12h202v-110h-202l7 -13v-214l-12 -12h205q67 0 116 16t78 41t45.5 65t22 79.5t5.5 92.5zM793 405q0 -44 -4 -82.5t-15 -80.5t-28.5 -76.5t-47 -66t-68.5 -53t-94 -34t-123 -12.5h-323v338
l7 12h-72v110h72l-8 13l1 337h88h72h159q94 0 165 -24.5t112 -62.5t66 -94t33 -108.5t8 -115.5z" />
    <glyph glyph-name="dcroat" unicode="&#x111;" horiz-adv-x="753" 
d="M554 313q0 102 -46 161.5t-145 59.5q-97 0 -144 -60t-47 -161t46 -159.5t145 -58.5t145 58.5t46 159.5zM719 780v-79h-62l6 -12v-689h-117v62h-2q-66 -72 -190 -72q-145 0 -222 88.5t-77 233.5q0 147 77 237.5t222 90.5q121 0 190 -77h2v126l6 12h-221v79h221l-6 12v48
h117v-48l-6 -12h62z" />
    <glyph glyph-name="Emacron" unicode="&#x112;" horiz-adv-x="780" 
d="M710 111v-111h-620v810h620v-111h-512l12 -12v-214l-12 -13h464v-110h-464l12 -12v-215l-12 -12h512zM605 980v-80h-395v80h395z" />
    <glyph glyph-name="emacron" unicode="&#x113;" 
d="M166 366h399l-12 12q-14 75 -60.5 116.5t-125.5 41.5q-154 0 -188 -158zM675 310q0 -22 -3 -46h-507l12 -12q29 -158 195 -158q95 0 171 71l80 -80q-104 -95 -251 -95q-156 0 -236.5 88.5t-80.5 231.5q0 147 83.5 238.5t228.5 91.5q151 0 229.5 -91t78.5 -239zM566 822
v-80h-395v80h395z" />
    <glyph glyph-name="Ebreve" unicode="&#x114;" horiz-adv-x="780" 
d="M710 111v-111h-620v810h620v-111h-512l12 -12v-214l-12 -13h464v-110h-464l12 -12v-215l-12 -12h512zM513 1021h89q-21 -70 -70 -108t-125 -38q-152 0 -194 146h89q32 -68 105 -68q76 0 106 68z" />
    <glyph glyph-name="ebreve" unicode="&#x115;" 
d="M166 366h399l-12 12q-14 75 -60.5 116.5t-125.5 41.5q-154 0 -188 -158zM675 310q0 -22 -3 -46h-507l12 -12q29 -158 195 -158q95 0 171 71l80 -80q-104 -95 -251 -95q-156 0 -236.5 88.5t-80.5 231.5q0 147 83.5 238.5t228.5 91.5q151 0 229.5 -91t78.5 -239zM473 841
h89q-44 -146 -195 -146q-152 0 -194 146h89q30 -68 105 -68q76 0 106 68z" />
    <glyph glyph-name="Edotaccent" unicode="&#x116;" horiz-adv-x="780" 
d="M710 111v-111h-620v810h620v-111h-512l12 -12v-214l-12 -13h464v-110h-464l12 -12v-215l-12 -12h512zM476 965q0 -36 -19 -58t-54 -22t-54 22t-19 58t19 58t54 22t54 -22t19 -58z" />
    <glyph glyph-name="edotaccent" unicode="&#x117;" 
d="M166 366h399l-12 12q-14 75 -60.5 116.5t-125.5 41.5q-154 0 -188 -158zM675 310q0 -22 -3 -46h-507l12 -12q29 -158 195 -158q95 0 171 71l80 -80q-104 -95 -251 -95q-156 0 -236.5 88.5t-80.5 231.5q0 147 83.5 238.5t228.5 91.5q151 0 229.5 -91t78.5 -239zM438 787
q0 -36 -19 -58t-54 -22t-54 22t-19 58t19 58t54 22t54 -21.5t19 -58.5z" />
    <glyph glyph-name="Eogonek" unicode="&#x118;" horiz-adv-x="780" 
d="M710 111v-111h-26l-111 -119q-14 -14 -12 -33q1 -17 14 -30t30 -12q15 2 27 12q10 9 22 22l43 -43q-21 -24 -28 -31q-38 -36 -80 -38t-74 27.5t-34 72.5q-2 50 35 88l82 84h-508v810h620v-111h-512l12 -12v-214l-12 -13h464v-110h-464l12 -12v-215l-12 -12h512z" />
    <glyph glyph-name="eogonek" unicode="&#x119;" 
d="M166 366h399l-12 12q-14 74 -60.5 115.5t-125.5 41.5q-156 0 -188 -157zM675 310q0 -22 -3 -46h-507l12 -12q29 -157 195 -157q96 0 171 69l80 -79q-4 -3 -23.5 -20t-35.5 -29.5t-23 -16.5l-130 -137q-13 -13 -13 -34q1 -17 14 -30t30 -12q16 2 27 12q2 0 22 22l44 -43
q-5 -5 -13.5 -14.5t-15.5 -16.5q-36 -36 -80 -38q-42 -2 -74 27.5t-33 72.5q-3 48 35 88l76 78q-25 -4 -58 -4q-156 0 -236.5 88.5t-80.5 231.5q0 147 83.5 238.5t228.5 91.5q151 0 229.5 -91t78.5 -239z" />
    <glyph glyph-name="Ecaron" unicode="&#x11a;" horiz-adv-x="780" 
d="M710 111v-111h-620v810h620v-111h-512l12 -12v-214l-12 -13h464v-110h-464l12 -12v-215l-12 -12h512zM551 1109l47 -48l-188 -186h-3l-187 186l47 47l142 -114l2 1z" />
    <glyph glyph-name="ecaron" unicode="&#x11b;" 
d="M166 366h399l-12 12q-14 75 -60.5 116.5t-125.5 41.5q-154 0 -188 -158zM675 310q0 -22 -3 -46h-507l12 -12q29 -158 195 -158q95 0 171 71l80 -80q-104 -95 -251 -95q-156 0 -236.5 88.5t-80.5 231.5q0 147 83.5 238.5t228.5 91.5q151 0 229.5 -91t78.5 -239zM505 930
l47 -47l-188 -187h-2l-187 187l47 47l142 -115l1 1z" />
    <glyph glyph-name="Gcircumflex" unicode="&#x11c;" horiz-adv-x="910" 
d="M820 461v-461h-103v104h-2q-39 -52 -106.5 -83t-146.5 -31q-193 0 -300 109t-107 298q0 194 109.5 308.5t303.5 114.5q207 0 322 -123l-88 -86q-78 98 -234 98q-145 0 -217.5 -81.5t-72.5 -230.5q0 -142 71 -219t213 -77q108 0 176.5 67.5t71.5 170.5l12 11h-276v111h374
zM461 1107l187 -186l-47 -47l-141 114l-2 -1l-140 -113l-47 47l188 186h2z" />
    <glyph glyph-name="gcircumflex" unicode="&#x11d;" horiz-adv-x="753" 
d="M554 339q0 88 -50 142t-143 54t-141 -54t-48 -142t48.5 -140t140.5 -52q98 0 145.5 52t47.5 140zM546 630h117v-570q0 -132 -75 -203.5t-223 -71.5q-151 0 -270 90l79 80q84 -65 191 -65q89 0 135 44.5t46 125.5v52h-2q-70 -70 -189 -70q-146 0 -223 80.5t-77 216.5
q0 129 78.5 215t220.5 86q58 0 108.5 -19.5t81.5 -54.5h2v64zM374 930l187 -187l-47 -47l-141 115l-2 -1l-140 -114l-47 47l188 187h2z" />
    <glyph glyph-name="Gbreve" unicode="&#x11e;" horiz-adv-x="910" 
d="M820 461v-461h-103v104h-2q-39 -52 -106.5 -83t-146.5 -31q-193 0 -300 109t-107 298q0 194 109.5 308.5t303.5 114.5q207 0 322 -123l-88 -86q-78 98 -234 98q-145 0 -217.5 -81.5t-72.5 -230.5q0 -142 71 -219t213 -77q108 0 176.5 67.5t71.5 170.5l12 11h-276v111h374
zM563 1021h88q-21 -70 -70 -108t-124 -38q-152 0 -195 146h89q32 -68 106 -68t106 68z" />
    <glyph glyph-name="gbreve" unicode="&#x11f;" horiz-adv-x="753" 
d="M554 339q0 88 -50 142t-143 54t-141 -54t-48 -142t48.5 -140t140.5 -52q98 0 145.5 52t47.5 140zM546 630h117v-570q0 -132 -75 -203.5t-223 -71.5q-151 0 -270 90l79 80q84 -65 191 -65q89 0 135 44.5t46 125.5v52h-2q-70 -70 -189 -70q-146 0 -223 80.5t-77 216.5
q0 129 78.5 215t220.5 86q58 0 108.5 -19.5t81.5 -54.5h2v64zM473 841h88q-21 -69 -70 -107.5t-124 -38.5q-152 0 -195 146h89q32 -68 106 -68t106 68z" />
    <glyph glyph-name="Gdotaccent" unicode="&#x120;" horiz-adv-x="910" 
d="M820 461v-461h-103v104h-2q-39 -52 -106.5 -83t-146.5 -31q-193 0 -300 109t-107 298q0 194 109.5 308.5t303.5 114.5q207 0 322 -123l-88 -86q-78 98 -234 98q-145 0 -217.5 -81.5t-72.5 -230.5q0 -142 71 -219t213 -77q108 0 176.5 67.5t71.5 170.5l12 11h-276v111h374
zM532 965q0 -36 -19 -58t-54 -22t-54 22t-19 58t19 58t53 22q36 0 55 -22t19 -58z" />
    <glyph glyph-name="gdotaccent" unicode="&#x121;" horiz-adv-x="753" 
d="M554 339q0 88 -50 142t-143 54t-141 -54t-48 -142t48.5 -140t140.5 -52q98 0 145.5 52t47.5 140zM546 630h117v-570q0 -132 -75 -203.5t-223 -71.5q-151 0 -270 90l79 80q84 -65 191 -65q89 0 135 44.5t46 125.5v52h-2q-70 -70 -189 -70q-146 0 -223 80.5t-77 216.5
q0 129 78.5 215t220.5 86q58 0 108.5 -19.5t81.5 -54.5h2v64zM437 787q0 -36 -19 -58t-54 -22t-54 22t-19 58t19 58t54 22t54 -21.5t19 -58.5z" />
    <glyph glyph-name="Gcommacedilla" unicode="&#x122;" horiz-adv-x="910" 
d="M542 -117q0 -24 -13 -45l-73 -129l-49 28l37 65l14 10q-25 4 -39.5 22t-14.5 49q0 34 18 53t51 19t51 -19t18 -53zM820 461v-461h-103v104h-2q-39 -52 -106.5 -83t-146.5 -31q-193 0 -300 109t-107 298q0 194 109.5 308.5t303.5 114.5q207 0 322 -123l-88 -86
q-78 98 -234 98q-145 0 -217.5 -81.5t-72.5 -230.5q0 -142 71 -219t213 -77q108 0 176.5 67.5t71.5 170.5l12 11h-276v111h374z" />
    <glyph glyph-name="gcommacedilla" unicode="&#x123;" horiz-adv-x="753" 
d="M554 339q0 88 -50 142t-143 54t-141 -54t-48 -142t48.5 -140t140.5 -52q98 0 145.5 52t47.5 140zM546 630h117v-570q0 -132 -75 -203.5t-223 -71.5q-151 0 -270 90l79 80q84 -65 191 -65q89 0 135 44.5t46 125.5v52h-2q-70 -70 -189 -70q-146 0 -223 80.5t-77 216.5
q0 129 78.5 215t220.5 86q58 0 108.5 -19.5t81.5 -54.5h2v64zM435 763q0 -33 -17.5 -52.5t-50.5 -19.5q-34 0 -51.5 19t-17.5 53q0 22 12 44l73 129l49 -27l-37 -65l-14 -10q25 -4 39.5 -22t14.5 -49z" />
    <glyph glyph-name="Hcircumflex" unicode="&#x124;" horiz-adv-x="870" 
d="M780 810v-810h-120v337l12 12h-474l12 -12v-337h-120v810h120v-338l-12 -12h474l-12 12v338h120zM438 1107l188 -186l-47 -47l-141 114l-2 -1l-140 -113l-47 47l187 186h2z" />
    <glyph glyph-name="hcircumflex" unicode="&#x125;" horiz-adv-x="753" 
d="M668 397v-397h-117v382q0 73 -34.5 113t-128.5 40q-79 0 -130 -44t-51 -122v-369h-117v840h117v-278h2q32 36 84.5 57t108.5 21q130 0 198 -66t68 -177zM386 1108l187 -187l-47 -47l-141 115l-2 -1l-140 -114l-47 47l188 187h2z" />
    <glyph glyph-name="Hbar" unicode="&#x126;" horiz-adv-x="872" 
d="M199 460h474l-12 12v73l7 12h-464l7 -12v-73zM822 653v-96h-48l7 -12v-545h-120v337l12 12h-474l12 -12v-337h-120v545l7 12h-48v96h48l-7 12v145h120v-145l-7 -12h464l-7 12v145h120v-145l-7 -12h48z" />
    <glyph glyph-name="hbar" unicode="&#x127;" horiz-adv-x="753" 
d="M668 397v-397h-117v382q0 73 -34.5 113t-128.5 40q-79 0 -130 -44t-51 -122v-369h-117v689l6 12h-61v80h61l-6 11v48h117v-48l-6 -11h221v-80h-221l6 -12v-127h2q76 78 193 78q130 0 198 -66t68 -177z" />
    <glyph glyph-name="Itilde" unicode="&#x128;" horiz-adv-x="310" 
d="M215 810v-810h-120v810h120zM325 1041l51 -53q-14 -50 -53 -81.5t-86 -31.5q-33 0 -97 39q-23 16 -43 25q-22 11 -40 11q-54 0 -79 -76l-50 52q12 44 51 78.5t86 34.5q37 0 99 -40q35 -21 43 -25q23 -10 38 -10q58 0 80 77z" />
    <glyph glyph-name="itilde" unicode="&#x129;" horiz-adv-x="297" 
d="M207 630v-630h-117v630h117zM316 878l51 -53q-14 -49 -53.5 -81t-85.5 -32q-34 0 -97 40q-25 16 -43 25q-23 10 -40 10q-54 0 -79 -76l-50 53q12 44 51 78.5t86 34.5q34 0 99 -40q31 -20 43 -25q22 -11 38 -11q28 0 48.5 20.5t31.5 56.5z" />
    <glyph glyph-name="Imacron" unicode="&#x12a;" horiz-adv-x="310" 
d="M215 810v-810h-120v810h120zM350 980v-80h-395v80h395z" />
    <glyph glyph-name="imacron" unicode="&#x12b;" horiz-adv-x="297" 
d="M207 630v-630h-117v630h117zM346 822v-80h-395v80h395z" />
    <glyph glyph-name="Ibreve" unicode="&#x12c;" horiz-adv-x="310" 
d="M215 810v-810h-120v810h120zM261 1021h89q-21 -70 -70 -108t-125 -38q-152 0 -194 146h89q32 -68 105 -68q76 0 106 68z" />
    <glyph glyph-name="ibreve" unicode="&#x12d;" horiz-adv-x="297" 
d="M207 630v-630h-117v630h117zM255 841h89q-44 -146 -195 -146q-152 0 -194 146h89q30 -68 105 -68q76 0 106 68z" />
    <glyph glyph-name="Iogonek" unicode="&#x12e;" horiz-adv-x="310" 
d="M215 810v-810h-17l-111 -119q-14 -14 -12 -33q1 -17 14 -30t30 -12q15 2 27 12q10 9 22 22l43 -43q-21 -24 -28 -31q-38 -36 -80 -38t-74 27.5t-34 72.5q-2 50 35 88l82 84h-17v810h120z" />
    <glyph glyph-name="iogonek" unicode="&#x12f;" horiz-adv-x="297" 
d="M207 630v-630h-16l-111 -119q-14 -14 -12 -33q1 -17 14 -30t30 -12q15 2 27 12q10 9 22 22l43 -43q-21 -24 -28 -31q-38 -36 -80 -38t-74 27.5t-34 72.5q-2 50 35 88l82 84h-15v630h117zM219 772q0 -33 -19 -53.5t-51 -20.5t-51 20.5t-19 53.5t19 53.5t51 20.5t51 -20.5
t19 -53.5z" />
    <glyph glyph-name="Idotaccent" unicode="&#x130;" horiz-adv-x="310" 
d="M215 810v-810h-120v810h120zM228 965q0 -36 -19 -58t-54 -22t-54 22t-19 58t19 58t53 22q36 0 55 -22t19 -58z" />
    <glyph glyph-name="dotlessi" unicode="&#x131;" horiz-adv-x="297" 
d="M207 630v-630h-117v630h117z" />
    <glyph glyph-name="IJ" unicode="&#x132;" horiz-adv-x="912" 
d="M215 810v-810h-120v810h120zM827 810v-510q0 -84 -24.5 -145.5t-67.5 -96.5t-95.5 -51.5t-114.5 -16.5q-149 0 -250 125l84 85q34 -46 79 -72.5t88 -26.5q77 0 129 45.5t52 148.5v515h120z" />
    <glyph glyph-name="ij" unicode="&#x133;" horiz-adv-x="550" 
d="M207 630v-630h-117v630h117zM459 630v-672q0 -87 -45.5 -130t-129.5 -43q-49 0 -92 20v109q40 -20 86 -20q30 0 47 19t17 56v661h117zM219 772q0 -33 -19 -53.5t-51 -20.5t-51 20.5t-19 53.5t19 53.5t51 20.5t51 -20.5t19 -53.5zM470 772q0 -33 -19 -53.5t-51 -20.5
t-51 20.5t-19 53.5t19 53.5t51 20.5t51 -20.5t19 -53.5z" />
    <glyph glyph-name="Jcircumflex" unicode="&#x134;" horiz-adv-x="637" 
d="M552 810v-510q0 -84 -24.5 -145.5t-67.5 -96.5t-95.5 -51.5t-114.5 -16.5q-149 0 -250 125l84 85q34 -46 79 -72.5t88 -26.5q77 0 129 45.5t52 148.5v515h120zM491 1107l188 -186l-47 -47l-142 114l-2 -1l-140 -113l-47 47l188 186h2z" />
    <glyph glyph-name="jcircumflex" unicode="&#x135;" horiz-adv-x="292" 
d="M203 630v-672q0 -87 -45.5 -130t-129.5 -43q-49 0 -92 20v109q40 -20 86 -20q30 0 47 19t17 56v661h117zM144 930l187 -187l-47 -47l-141 115l-2 -1l-140 -114l-47 47l188 187h2z" />
    <glyph glyph-name="Kcommacedilla" unicode="&#x136;" horiz-adv-x="793" 
d="M497 -117q0 -24 -13 -45l-73 -129l-49 28l37 65l14 10q-25 4 -39.5 22t-14.5 49q0 34 18 53t51 19t51 -19t18 -53zM210 810v-810h-120v810h120zM379 408l414 -408h-174l-399 409l390 400h170l-401 -399v-2z" />
    <glyph glyph-name="kcommacedilla" unicode="&#x137;" horiz-adv-x="683" 
d="M454 -117q0 -23 -12 -45l-73 -129l-49 28l37 65l14 10q-54 8 -54 71q0 34 17.5 53t50.5 19q34 0 51.5 -19t17.5 -53zM207 840v-840h-117v840h117zM360 319l323 -319h-152l-314 318l302 312h153l-312 -309v-2z" />
    <glyph glyph-name="kgreenlandic" unicode="&#x138;" horiz-adv-x="683" 
d="M207 630v-630h-117v630h117zM360 319l323 -319h-152l-314 318l302 312h153l-312 -309v-2z" />
    <glyph glyph-name="Lacute" unicode="&#x139;" horiz-adv-x="678" 
d="M663 111v-111h-573v810h120v-687l-12 -12h465zM260 1129l78 -77l-208 -178l-48 48z" />
    <glyph glyph-name="lacute" unicode="&#x13a;" horiz-adv-x="297" 
d="M207 840v-840h-117v840h117zM212 1129l78 -77l-208 -178l-48 48z" />
    <glyph glyph-name="Lcommacedilla" unicode="&#x13b;" horiz-adv-x="678" 
d="M465 -117q0 -23 -12 -45l-73 -129l-49 28l37 65l14 10q-54 8 -54 71q0 34 17.5 53t50.5 19q34 0 51.5 -19t17.5 -53zM663 111v-111h-573v810h120v-687l-12 -12h465z" />
    <glyph glyph-name="lcommacedilla" unicode="&#x13c;" horiz-adv-x="297" 
d="M216 -117q0 -23 -12 -45l-73 -129l-49 28l37 65l14 10q-54 8 -54 71q0 34 17.5 53t50.5 19q34 0 51.5 -19t17.5 -53zM207 840v-840h-117v840h117z" />
    <glyph glyph-name="Lcaron" unicode="&#x13d;" horiz-adv-x="678" 
d="M663 111v-111h-573v810h120v-687l-12 -12h465zM463 742q0 -28 -13 -49l-78 -141l-52 30l42 74l12 10q-24 3 -39 23.5t-15 52.5q0 35 19 56.5t53 21.5t52.5 -21t18.5 -57z" />
    <glyph glyph-name="lcaron" unicode="&#x13e;" horiz-adv-x="395" 
d="M207 840v-840h-117v840h117zM420 768q0 -25 -13 -49l-78 -141l-52 30l41 74l13 10q-24 3 -39 23.5t-15 52.5q0 35 18.5 56.5t52.5 21.5t53 -21.5t19 -56.5z" />
    <glyph glyph-name="Ldot" unicode="&#x13f;" horiz-adv-x="678" 
d="M663 111v-111h-573v810h120v-687l-12 -12h465zM458 434q0 -36 -19 -58t-54 -22t-54 22t-19 58t19 58t54 22t54 -21.5t19 -58.5z" />
    <glyph glyph-name="ldot" unicode="&#x140;" horiz-adv-x="421" 
d="M207 840v-840h-117v840h117zM421 434q0 -36 -19 -58t-54 -22t-54 22t-19 58t19 58t54 22t54 -21.5t19 -58.5z" />
    <glyph glyph-name="Lslash" unicode="&#x141;" horiz-adv-x="678" 
d="M663 111v-111h-573v277l6 15l-81 -34v112l81 34l-6 9v397h120v-348l-6 -15l223 90v-112l-222 -90l5 -10v-203l-12 -11h465z" />
    <glyph glyph-name="lslash" unicode="&#x142;" horiz-adv-x="297" 
d="M282 527v-108l-82 -35l7 -9v-375h-117v326l6 14l-81 -34v109l82 34l-7 9v382h117v-332l-5 -15z" />
    <glyph glyph-name="Nacute" unicode="&#x143;" horiz-adv-x="870" 
d="M780 810v-810h-106l-406 524l-56 92h-2v-616h-120v810h106l408 -525l54 -91h2v616h120zM500 1129l78 -77l-208 -178l-48 48z" />
    <glyph glyph-name="nacute" unicode="&#x144;" horiz-adv-x="753" 
d="M668 398v-398h-117v380q0 76 -34 115.5t-129 39.5q-80 0 -130.5 -42.5t-50.5 -120.5v-372h-117v630h117v-68h2q32 36 84.5 57t108.5 21q124 0 195 -63.5t71 -178.5zM445 951l78 -78l-208 -178l-47 48z" />
    <glyph glyph-name="Ncommacedilla" unicode="&#x145;" horiz-adv-x="870" 
d="M511 -117q0 -24 -13 -45l-73 -129l-49 28l37 65l14 10q-25 4 -39.5 22t-14.5 49q0 34 18 53t51 19t51 -19t18 -53zM780 810v-810h-106l-406 524l-56 92h-2v-616h-120v810h106l408 -525l54 -91h2v616h120z" />
    <glyph glyph-name="ncommacedilla" unicode="&#x146;" horiz-adv-x="753" 
d="M458 -117q0 -24 -13 -45l-73 -129l-49 28l37 65l14 10q-25 4 -39.5 22t-14.5 49q0 34 18 53t51 19t51 -19t18 -53zM668 398v-398h-117v380q0 76 -34 115.5t-129 39.5q-80 0 -130.5 -42.5t-50.5 -120.5v-372h-117v630h117v-68h2q32 36 84.5 57t108.5 21q124 0 195 -63.5
t71 -178.5z" />
    <glyph glyph-name="Ncaron" unicode="&#x147;" horiz-adv-x="870" 
d="M780 810v-810h-106l-406 524l-56 92h-2v-616h-120v810h106l408 -525l54 -91h2v616h120zM575 1109l47 -48l-188 -186h-3l-187 186l47 47l142 -114l2 1z" />
    <glyph glyph-name="ncaron" unicode="&#x148;" horiz-adv-x="753" 
d="M668 398v-398h-117v380q0 76 -34 115.5t-129 39.5q-80 0 -130.5 -42.5t-50.5 -120.5v-372h-117v630h117v-68h2q32 36 84.5 57t108.5 21q124 0 195 -63.5t71 -178.5zM538 930l47 -47l-188 -187h-2l-187 187l47 47l142 -115l1 1z" />
    <glyph glyph-name="napostrophe" unicode="&#x149;" horiz-adv-x="830" 
d="M143 742q0 -25 -13 -49l-78 -141l-52 30l41 74l13 10q-24 3 -39 23.5t-15 52.5q0 35 18.5 56.5t52.5 21.5t53 -21.5t19 -56.5zM744 398v-398h-117v380q0 76 -34 115.5t-129 39.5q-80 0 -130.5 -42.5t-50.5 -120.5v-372h-117v630h117v-68h2q32 36 84.5 57t108.5 21
q124 0 195 -63.5t71 -178.5z" />
    <glyph glyph-name="Eng" unicode="&#x14a;" horiz-adv-x="870" 
d="M780 810v-859q0 -63 -7 -76q-8 -42 -43.5 -70.5t-83.5 -28.5q-53 0 -88.5 36t-35.5 90l1 39h92v-36q0 -31 29 -31q13 0 21 8.5t8 23.5v82q0 12 -19 35l-386 501l-56 92h-2v-616h-120v810h106l408 -527l54 -90h2v617h120z" />
    <glyph glyph-name="eng" unicode="&#x14b;" horiz-adv-x="753" 
d="M668 398v-16v-462q0 -1 -0.5 -7t-0.5 -7q-4 -57 -44 -93.5t-96 -36.5t-93.5 37.5t-37.5 93.5l1 37l97 -1v-29q0 -37 29 -37q12 0 20 8.5t8 23.5v91v189v191q0 76 -34 115.5t-129 39.5q-80 0 -130.5 -42.5t-50.5 -120.5v-372h-117v630h117v-68h2q32 36 84.5 57t108.5 21
q124 0 195 -63.5t71 -178.5z" />
    <glyph glyph-name="Omacron" unicode="&#x14c;" horiz-adv-x="894" 
d="M716 400q0 136 -66 222.5t-203 86.5t-203 -85t-66 -224q0 -135 66.5 -217t202.5 -82q138 0 203.5 81.5t65.5 217.5zM839 400q0 -187 -102.5 -298.5t-289.5 -111.5q-189 0 -290.5 111t-101.5 299q0 189 102 304.5t290 115.5t290 -115t102 -305zM644 980v-80h-395v80h395z
" />
    <glyph glyph-name="omacron" unicode="&#x14d;" 
d="M558 315q0 99 -48 159.5t-145 60.5q-98 0 -145.5 -60t-47.5 -160q0 -99 48 -159.5t145 -60.5t145 60t48 160zM675 315q0 -144 -80.5 -234.5t-229.5 -90.5q-151 0 -230.5 89.5t-79.5 235.5q0 145 80 235t229 90q151 0 231 -89t80 -236zM562 822v-80h-395v80h395z" />
    <glyph glyph-name="Obreve" unicode="&#x14e;" horiz-adv-x="894" 
d="M716 400q0 136 -66 222.5t-203 86.5t-203 -85t-66 -224q0 -135 66.5 -217t202.5 -82q138 0 203.5 81.5t65.5 217.5zM839 400q0 -187 -103 -298.5t-289 -111.5q-189 0 -290.5 111t-101.5 299q0 189 102 304.5t290 115.5t290 -115t102 -305zM552 1021h89q-21 -70 -70 -108
t-125 -38q-152 0 -194 146h89q32 -68 105 -68q76 0 106 68z" />
    <glyph glyph-name="obreve" unicode="&#x14f;" 
d="M558 315q0 99 -48 159.5t-145 60.5q-98 0 -145.5 -60t-47.5 -160q0 -99 48 -159.5t145 -60.5t145 60t48 160zM675 315q0 -144 -80.5 -234.5t-229.5 -90.5q-151 0 -230.5 89.5t-79.5 235.5q0 145 80 235t229 90q151 0 231 -89t80 -236zM471 841h88q-21 -69 -70 -107.5
t-124 -38.5q-152 0 -195 146h89q32 -68 106 -68t106 68z" />
    <glyph glyph-name="Ohungarumlaut" unicode="&#x150;" horiz-adv-x="894" 
d="M716 400q0 136 -66 222.5t-203 86.5t-203 -85t-66 -224q0 -135 66.5 -217t202.5 -82q138 0 203.5 81.5t65.5 217.5zM839 400q0 -187 -103 -298.5t-289 -111.5q-189 0 -290.5 111t-101.5 299q0 189 102 304.5t290 115.5t290 -115t102 -305zM417 1083l75 -75l-163 -134
l-46 46zM611 1083l75 -75l-163 -134l-46 46z" />
    <glyph glyph-name="ohungarumlaut" unicode="&#x151;" 
d="M558 315q0 99 -48 159.5t-145 60.5q-98 0 -145.5 -60t-47.5 -160q0 -99 48 -159.5t145 -60.5t145 60t48 160zM675 315q0 -144 -80.5 -234.5t-229.5 -90.5q-151 0 -230.5 89.5t-79.5 235.5q0 145 80 235t229 90q151 0 231 -89t80 -236zM329 898l76 -75l-164 -134l-46 46z
M523 898l76 -75l-164 -134l-46 46z" />
    <glyph glyph-name="OE" unicode="&#x152;" horiz-adv-x="1117" 
d="M572 400q0 137 -50 223t-147 86t-147 -85t-50 -224q0 -136 50 -217.5t147 -81.5q98 0 147.5 81.5t49.5 217.5zM1047 111v-111h-485v59l-1 -1q-68 -68 -186 -68q-155 0 -237.5 111.5t-82.5 298.5q0 188 83 304t237 116q117 0 186 -70h1v60h485v-111h-372l7 -12v-215
l-7 -11h334v-112h-334l7 -13v-212l-7 -13h372z" />
    <glyph glyph-name="oe" unicode="&#x153;" horiz-adv-x="1202" 
d="M548 315q0 100 -47.5 160t-143.5 60t-143 -60t-47 -160q0 -99 48 -159.5t143 -60.5q96 0 143 60t47 160zM649 366h392l-13 13q-14 72 -59.5 114t-121.5 42q-78 0 -124 -42t-61 -114zM1147 310l-2 -46h-497l13 -12q30 -157 190 -157q99 0 170 70l78 -79q-96 -96 -248 -96
q-174 0 -253 118l-1 -1q-67 -117 -240 -117q-147 0 -224.5 89.5t-77.5 235.5q0 145 78 235t224 90q169 0 248 -121l2 1q73 120 240 120q147 0 223.5 -91t76.5 -239z" />
    <glyph glyph-name="Racute" unicode="&#x154;" horiz-adv-x="819" 
d="M619 566q0 133 -162 133h-259l12 -12v-239l-12 -13h249q82 0 127 36.5t45 94.5zM685 263l129 -263h-134l-105 214q-28 57 -74 83.5t-121 26.5h-182l12 -11v-313h-120v810h367q122 0 203.5 -63.5t81.5 -180.5q0 -71 -43.5 -126.5t-108.5 -77.5v-2q26 -11 52 -36.5
t43 -60.5zM490 1129l78 -77l-208 -178l-48 48z" />
    <glyph glyph-name="racute" unicode="&#x155;" horiz-adv-x="450" 
d="M430 637v-119h-37q-84 1 -135 -49.5t-51 -157.5v-311h-117v630h117v-101h2q27 51 79 79.5t115 28.5h27zM311 950l78 -77l-208 -178l-47 48z" />
    <glyph glyph-name="Rcommacedilla" unicode="&#x156;" horiz-adv-x="819" 
d="M619 566q0 133 -162 133h-259l12 -12v-239l-12 -13h249q82 0 127 36.5t45 94.5zM515 -117q0 -23 -12 -45l-73 -129l-49 28l37 65l14 10q-54 8 -54 71q0 34 17.5 53t50.5 19q34 0 51.5 -19t17.5 -53zM685 263l129 -263h-134l-105 214q-28 57 -74 83.5t-121 26.5h-182
l12 -11v-313h-120v810h367q122 0 203.5 -63.5t81.5 -180.5q0 -71 -43.5 -126.5t-108.5 -77.5v-2q26 -11 52 -36.5t43 -60.5z" />
    <glyph glyph-name="rcommacedilla" unicode="&#x157;" horiz-adv-x="450" 
d="M277 -117q0 -24 -13 -45l-73 -129l-49 28l37 65l14 10q-25 4 -39.5 22t-14.5 49q0 34 18 53t51 19t51 -19t18 -53zM430 637v-119h-37q-84 1 -135 -49.5t-51 -157.5v-311h-117v630h117v-101h2q27 51 79 79.5t115 28.5h27z" />
    <glyph glyph-name="Rcaron" unicode="&#x158;" horiz-adv-x="819" 
d="M619 566q0 133 -162 133h-259l12 -12v-239l-12 -13h249q82 0 127 36.5t45 94.5zM685 263l129 -263h-134l-105 214q-28 57 -74 83.5t-121 26.5h-182l12 -11v-313h-120v810h367q122 0 203.5 -63.5t81.5 -180.5q0 -71 -43.5 -126.5t-108.5 -77.5v-2q26 -11 52 -36.5
t43 -60.5zM548 1109l47 -48l-188 -186h-3l-187 186l47 47l142 -114l2 1z" />
    <glyph glyph-name="rcaron" unicode="&#x159;" horiz-adv-x="450" 
d="M430 637v-119h-37q-84 1 -135 -49.5t-51 -157.5v-311h-117v630h117v-101h2q27 51 79 79.5t115 28.5h27zM403 930l47 -47l-188 -187h-2l-187 187l47 47l142 -115l1 1z" />
    <glyph glyph-name="Sacute" unicode="&#x15a;" horiz-adv-x="798" 
d="M748 225q0 -98 -83 -166.5t-252 -68.5q-105 0 -200.5 34t-162.5 104l89 86q69 -61 131.5 -87t138.5 -26q106 0 161 33.5t55 84.5q0 37 -35.5 68.5t-112.5 51.5q-9 3 -75.5 20t-73.5 19q-125 34 -190 82.5t-65 134.5q0 95 85.5 160t244.5 65q200 0 324 -130l-88 -87
q-90 106 -236 106q-104 0 -155.5 -32t-51.5 -78q0 -37 41.5 -62.5t145.5 -53.5q7 -2 35.5 -9.5t59 -15.5t36.5 -10q118 -30 176 -88t58 -135zM468 1129l77 -77l-207 -178l-48 48z" />
    <glyph glyph-name="sacute" unicode="&#x15b;" horiz-adv-x="661" 
d="M606 178q0 -80 -66.5 -134.5t-198.5 -54.5q-175 0 -286 112l80 81q55 -49 102 -68.5t101 -19.5q76 0 113 24t37 56q0 26 -21 44t-81 33q-18 4 -112 31q-95 26 -148 66t-53 111q0 78 68.5 129.5t192.5 51.5q154 0 257 -107l-80 -80q-72 82 -177 82q-73 0 -108 -23t-35 -50
q0 -25 28.5 -41.5t101.5 -35.5q79 -24 101 -29q95 -25 139.5 -69t44.5 -109zM403 951l77 -78l-207 -178l-48 48z" />
    <glyph glyph-name="Scircumflex" unicode="&#x15c;" horiz-adv-x="798" 
d="M748 225q0 -98 -83 -166.5t-252 -68.5q-105 0 -200.5 34t-162.5 104l89 86q69 -61 131.5 -87t138.5 -26q106 0 161 33.5t55 84.5q0 37 -35.5 68.5t-112.5 51.5q-9 3 -75.5 20t-73.5 19q-125 34 -190 82.5t-65 134.5q0 95 85.5 160t244.5 65q200 0 324 -130l-88 -87
q-90 106 -236 106q-104 0 -155.5 -32t-51.5 -78q0 -37 41.5 -62.5t145.5 -53.5q7 -2 35.5 -9.5t59 -15.5t36.5 -10q118 -30 176 -88t58 -135zM406 1107l188 -186l-47 -47l-142 114l-2 -1l-140 -113l-47 47l188 186h2z" />
    <glyph glyph-name="scircumflex" unicode="&#x15d;" horiz-adv-x="662" 
d="M606 178q0 -80 -66.5 -134.5t-198.5 -54.5q-175 0 -286 112l80 81q55 -49 102 -68.5t101 -19.5q76 0 113 24t37 56q0 26 -21 44t-81 33q-18 4 -112 31q-95 26 -148 66t-53 111q0 78 68.5 129.5t192.5 51.5q154 0 257 -107l-80 -80q-72 82 -177 82q-73 0 -108 -23t-35 -50
q0 -25 28.5 -41.5t101.5 -35.5q79 -24 101 -29q95 -25 139.5 -69t44.5 -109zM337 930l187 -187l-47 -47l-141 115l-2 -1l-140 -114l-47 47l188 187h2z" />
    <glyph glyph-name="Scedilla" unicode="&#x15e;" horiz-adv-x="798" 
d="M748 225q0 -44 -17.5 -83.5t-52.5 -72.5t-95.5 -54t-139.5 -24l14 -13q23 -20 23 -46t-23 -50l-91 -90l-55 55l65 66q34 33 11 56l-23 23q-199 15 -314 136l89 86q69 -61 131.5 -87t138.5 -26q106 0 161 33.5t55 84.5q0 37 -35.5 68.5t-112.5 51.5q-9 3 -75.5 20
t-73.5 19q-125 34 -190 82.5t-65 134.5q0 95 85.5 160t244.5 65q200 0 324 -130l-88 -87q-90 106 -236 106q-104 0 -155.5 -32t-51.5 -78q0 -37 41.5 -62.5t145.5 -53.5q7 -2 35.5 -9.5t59 -15.5t36.5 -10q118 -30 176 -88t58 -135z" />
    <glyph glyph-name="scedilla" unicode="&#x15f;" horiz-adv-x="661" 
d="M606 178q0 -71 -56.5 -120.5t-170.5 -66.5h-1l14 -13q23 -20 23 -46t-23 -50l-91 -90l-55 55l65 66q20 20 21.5 33.5t-10.5 22.5l-22 22q-148 12 -245 110l80 81q55 -49 102 -68.5t101 -19.5q76 0 113 24t37 56q0 26 -21 44t-81 33q-18 4 -112 31q-95 26 -148 66t-53 111
q0 78 68.5 129.5t192.5 51.5q154 0 257 -107l-80 -80q-72 82 -177 82q-73 0 -108 -23t-35 -50q0 -25 28.5 -41.5t101.5 -35.5q79 -24 101 -29q95 -25 139.5 -69t44.5 -109z" />
    <glyph glyph-name="Scaron" unicode="&#x160;" horiz-adv-x="798" 
d="M748 225q0 -98 -83 -166.5t-252 -68.5q-105 0 -200.5 34t-162.5 104l89 86q69 -61 131.5 -87t138.5 -26q106 0 161 33.5t55 84.5q0 37 -35.5 68.5t-112.5 51.5q-9 3 -75.5 20t-73.5 19q-125 34 -190 82.5t-65 134.5q0 95 85.5 160t244.5 65q200 0 324 -130l-88 -87
q-90 106 -236 106q-104 0 -155.5 -32t-51.5 -78q0 -37 41.5 -62.5t145.5 -53.5q7 -2 35.5 -9.5t59 -15.5t36.5 -10q118 -30 176 -88t58 -135zM544 1109l47 -48l-188 -186h-2l-187 186l47 47l141 -114l2 1z" />
    <glyph glyph-name="scaron" unicode="&#x161;" horiz-adv-x="661" 
d="M606 178q0 -80 -66.5 -134.5t-198.5 -54.5q-175 0 -286 112l80 81q55 -49 102 -68.5t101 -19.5q76 0 113 24t37 56q0 26 -21 44t-81 33q-18 4 -112 31q-95 26 -148 66t-53 111q0 78 68.5 129.5t192.5 51.5q154 0 257 -107l-80 -80q-72 82 -177 82q-73 0 -108 -23t-35 -50
q0 -25 28.5 -41.5t101.5 -35.5q79 -24 101 -29q95 -25 139.5 -69t44.5 -109zM482 928l47 -47l-188 -186h-2l-187 186l47 47l142 -114h1z" />
    <glyph glyph-name="Tcedilla" unicode="&#x162;" 
d="M710 810v-111h-291l6 -12v-687h-27l24 -22q23 -20 23 -46t-23 -50l-91 -90l-55 55l65 66q20 20 21.5 33.5t-10.5 22.5l-31 31h-16v687l7 12h-292v111h690z" />
    <glyph glyph-name="tcedilla" unicode="&#x163;" horiz-adv-x="493" 
d="M405 143l79 -78q-95 -74 -186 -75l13 -12q23 -20 23 -46t-23 -50l-91 -90l-55 55l65 66q34 33 11 56l-43 43q-96 47 -96 183v322l7 12h-79v101h79l-7 12v93l117 63v-156l-6 -12h198v-101h-198l6 -12v-323q0 -48 21 -73.5t58 -25.5q54 0 107 48z" />
    <glyph glyph-name="Tcaron" unicode="&#x164;" 
d="M710 810v-111h-291l6 -12v-687h-120v687l7 12h-292v111h690zM511 1109l47 -48l-188 -186h-3l-187 186l47 47l142 -114l2 1z" />
    <glyph glyph-name="tcaron" unicode="&#x165;" horiz-adv-x="493" 
d="M406 143l78 -78q-98 -75 -191 -75q-90 0 -140.5 54.5t-50.5 150.5v322l7 12h-79v101h79l-7 12v93l117 63v-156l-6 -12h198v-101h-198l6 -12v-323q0 -48 21 -73.5t58 -25.5q53 0 108 48zM413 857q0 -24 -12 -46l-76 -136l-51 29l39 68l14 11q-56 8 -56 74q0 35 18 55.5
t53 20.5t53 -20.5t18 -55.5z" />
    <glyph glyph-name="Tbar" unicode="&#x166;" 
d="M710 810v-111h-291l6 -12v-218l-6 -12h191v-107h-191l6 -11v-339h-120v339l6 11h-191v107h191l-6 12v218l7 12h-292v111h690z" />
    <glyph glyph-name="tbar" unicode="&#x167;" horiz-adv-x="493" 
d="M406 143l78 -78q-98 -75 -191 -75q-90 0 -140.5 54.5t-50.5 150.5v135l6 12h-78v101h78l-6 12v62l7 12h-79v101h79l-7 12v93l117 63v-156l-6 -12h198v-101h-198l6 -12v-62l-6 -12h198v-101h-198l6 -12v-136q0 -48 21 -73.5t58 -25.5q53 0 108 48z" />
    <glyph glyph-name="Utilde" unicode="&#x168;" horiz-adv-x="882" 
d="M797 810v-438q0 -382 -355 -382q-357 0 -357 382v438h120v-437q0 -134 55 -203t181 -69q125 0 180.5 69t55.5 203v437h120zM626 1044l54 -53q-16 -50 -57 -81.5t-90 -31.5q-36 0 -102 39q-27 18 -46 25q-22 11 -41 11q-59 0 -84 -76l-52 52q12 44 53 78.5t91 34.5
q38 0 104 -40q37 -21 46 -25q23 -10 40 -10q60 0 84 77z" />
    <glyph glyph-name="utilde" unicode="&#x169;" horiz-adv-x="745" 
d="M655 630v-630h-117v68h-2q-72 -78 -189 -78q-134 0 -198 65.5t-64 185.5v389h117v-385q0 -73 33 -111.5t126 -38.5q79 0 128 42.5t49 120.5v372h117zM550 878l54 -53q-16 -49 -57 -81t-90 -32q-36 0 -101 40q-37 21 -46 25q-25 10 -42 10q-58 0 -83 -76l-53 53
q13 44 54 78.5t91 34.5q36 0 103 -40q41 -23 46 -25q22 -11 40 -11q60 0 84 77z" />
    <glyph glyph-name="Umacron" unicode="&#x16a;" horiz-adv-x="882" 
d="M797 810v-438q0 -382 -355 -382q-357 0 -357 382v438h120v-437q0 -134 55 -203t181 -69q125 0 180.5 69t55.5 203v437h120zM639 980v-80h-395v80h395z" />
    <glyph glyph-name="umacron" unicode="&#x16b;" horiz-adv-x="745" 
d="M655 630v-630h-117v68h-2q-72 -78 -189 -78q-134 0 -198 65.5t-64 185.5v389h117v-385q0 -73 33 -111.5t126 -38.5q79 0 128 42.5t49 120.5v372h117zM569 822v-80h-394v80h394z" />
    <glyph glyph-name="Ubreve" unicode="&#x16c;" horiz-adv-x="882" 
d="M797 810v-438q0 -382 -355 -382q-357 0 -357 382v438h120v-437q0 -134 55 -203t181 -69q125 0 180.5 69t55.5 203v437h120zM548 1021h89q-21 -70 -70 -108t-125 -38q-152 0 -194 146h89q32 -68 105 -68q76 0 106 68z" />
    <glyph glyph-name="ubreve" unicode="&#x16d;" horiz-adv-x="745" 
d="M655 630v-630h-117v68h-2q-72 -78 -189 -78q-134 0 -198 65.5t-64 185.5v389h117v-385q0 -73 33 -111.5t126 -38.5q79 0 128 42.5t49 120.5v372h117zM473 841h88q-21 -69 -70 -107.5t-124 -38.5q-152 0 -195 146h89q32 -68 106 -68t106 68z" />
    <glyph glyph-name="Uring" unicode="&#x16e;" horiz-adv-x="882" 
d="M493 992q0 56 -52 56t-52 -56q0 -26 13.5 -41t38.5 -15q52 0 52 56zM797 810v-438q0 -382 -355 -382q-357 0 -357 382v438h120v-437q0 -134 55 -203t181 -69q125 0 180.5 69t55.5 203v437h120zM554 992q0 -52 -29.5 -84.5t-83.5 -32.5q-55 0 -84 32.5t-29 84.5t29 84
t84 32t84 -32t29 -84z" />
    <glyph glyph-name="uring" unicode="&#x16f;" horiz-adv-x="745" 
d="M423 812q0 56 -52 56t-52 -56q0 -25 13.5 -40.5t38.5 -15.5q52 0 52 56zM655 630v-630h-117v68h-2q-72 -78 -189 -78q-134 0 -198 65.5t-64 185.5v389h117v-385q0 -73 33 -111.5t126 -38.5q79 0 128 42.5t49 120.5v372h117zM485 812q0 -52 -30 -84.5t-84 -32.5
q-55 0 -84 32.5t-29 84.5t29 84.5t84 32.5t84.5 -32.5t29.5 -84.5z" />
    <glyph glyph-name="Uhungarumlaut" unicode="&#x170;" horiz-adv-x="882" 
d="M797 810v-438q0 -382 -355 -382q-357 0 -357 382v438h120v-437q0 -134 55 -203t181 -69q125 0 180.5 69t55.5 203v437h120zM411 1083l75 -75l-163 -134l-46 46zM605 1083l75 -75l-163 -134l-46 46z" />
    <glyph glyph-name="uhungarumlaut" unicode="&#x171;" horiz-adv-x="745" 
d="M655 630v-630h-117v68h-2q-72 -78 -189 -78q-134 0 -198 65.5t-64 185.5v389h117v-385q0 -73 33 -111.5t126 -38.5q79 0 128 42.5t49 120.5v372h117zM324 898l75 -75l-163 -134l-46 46zM518 898l75 -75l-163 -134l-46 46z" />
    <glyph glyph-name="Uogonek" unicode="&#x172;" horiz-adv-x="882" 
d="M797 810v-438q0 -329 -267 -375l-108 -115q-14 -15 -12 -34q1 -17 14 -30t30 -12q15 2 27 12q10 9 22 22l43 -43q-7 -7 -14.5 -16t-13.5 -15q-38 -36 -80 -38t-74 27.5t-34 72.5q-2 50 35 88l72 74h-6q-346 6 -346 382v438h120v-437q0 -134 55 -203t181 -69
q125 0 180.5 69t55.5 203v437h120z" />
    <glyph glyph-name="uogonek" unicode="&#x173;" horiz-adv-x="745" 
d="M655 630v-630h-29l-111 -119q-14 -14 -12 -33q1 -17 14 -30t30 -12q15 2 27 12q10 9 22 22l43 -43q-21 -24 -28 -31q-38 -36 -80 -38t-74 27.5t-34 72.5q-2 50 35 88l82 84h-2v68h-2q-72 -78 -189 -78q-134 0 -198 65.5t-64 185.5v389h117v-385q0 -73 33 -111.5
t126 -38.5q79 0 128 42.5t49 120.5v372h117z" />
    <glyph glyph-name="Wcircumflex" unicode="&#x174;" horiz-adv-x="1077" 
d="M926 810h126l-223 -810h-143l-132 490l-16 92h-2l-15 -92l-132 -490h-141l-223 810h128l154 -577l13 -82h2l15 82l156 577h92l157 -577l13 -81h2l14 81zM540 1107l187 -186l-47 -47l-141 114l-2 -1l-140 -113l-47 47l188 186h2z" />
    <glyph glyph-name="wcircumflex" unicode="&#x175;" horiz-adv-x="915" 
d="M778 630h122l-186 -630h-128l-112 350l-15 84h-2l-15 -84l-114 -350h-127l-186 630h124l116 -410l13 -79h2l13 79l126 410h98l126 -410l14 -79h2l12 79zM459 930l187 -187l-47 -47l-141 115l-2 -1l-140 -114l-47 47l188 187h2z" />
    <glyph glyph-name="Ycircumflex" unicode="&#x176;" horiz-adv-x="840" 
d="M675 810h150l-344 -472v-338h-121v338l-345 472h151l201 -284l52 -87h2l51 88zM421 1107l187 -186l-47 -47l-141 114l-2 -1l-140 -113l-47 47l188 186h2z" />
    <glyph glyph-name="ycircumflex" unicode="&#x177;" horiz-adv-x="700" 
d="M555 630h130l-292 -695q-29 -70 -80 -110t-114 -40q-73 0 -130 29v112q62 -33 118 -33q69 0 115 113l-287 624h130l186 -417l28 -85h2l27 85zM347 930l187 -187l-47 -47l-141 115l-2 -1l-140 -114l-47 47l188 187h2z" />
    <glyph glyph-name="Ydieresis" unicode="&#x178;" horiz-adv-x="840" 
d="M675 810h150l-344 -472v-338h-121v338l-345 472h151l201 -284l52 -87h2l51 88zM361 971q0 -32 -17 -51.5t-48 -19.5t-48 19.5t-17 51.5t17 51.5t48 19.5t48 -19.5t17 -51.5zM605 971q0 -32 -17 -51.5t-48 -19.5t-48 19.5t-17 51.5t17 51.5t48 19.5t48 -19.5t17 -51.5z
" />
    <glyph glyph-name="Zacute" unicode="&#x179;" horiz-adv-x="810" 
d="M750 111v-111h-690v94l455 535l71 68v2h-516v111h675v-93l-452 -534l-71 -70v-2h528zM484 1129l78 -77l-208 -178l-48 48z" />
    <glyph glyph-name="zacute" unicode="&#x17a;" horiz-adv-x="677" 
d="M617 107v-107h-557v87l331 376l65 58l1 1h-390v107h547v-82l-335 -377l-69 -62l1 -1h406zM410 951l78 -78l-208 -178l-47 48z" />
    <glyph glyph-name="Zdotaccent" unicode="&#x17b;" horiz-adv-x="810" 
d="M750 111v-111h-690v94l455 535l71 68v2h-516v111h675v-93l-452 -534l-71 -70v-2h528zM477 965q0 -36 -19 -58t-54 -22t-54 22t-19 58t19 58t53 22q36 0 55 -22t19 -58z" />
    <glyph glyph-name="zdotaccent" unicode="&#x17c;" horiz-adv-x="677" 
d="M617 107v-107h-557v87l331 376l65 58l1 1h-390v107h547v-82l-335 -377l-69 -62l1 -1h406zM415 787q0 -36 -19 -58t-54 -22t-54 22t-19 58t19 58t54 22t54 -21.5t19 -58.5z" />
    <glyph glyph-name="Zcaron" unicode="&#x17d;" horiz-adv-x="810" 
d="M750 111v-111h-690v94l459 539l67 64l1 2h-517v111h675v-93l-452 -534l-71 -71l1 -1h527zM548 1109l47 -48l-188 -186h-2l-187 186l47 47l141 -114l2 1z" />
    <glyph glyph-name="zcaron" unicode="&#x17e;" horiz-adv-x="682" 
d="M622 107v-107h-562v87l338 381l59 52v2h-390v107h552v-83l-346 -383l-62 -55l1 -1h410zM484 928l47 -47l-188 -186h-2l-187 186l47 47l142 -114h1z" />
    <glyph glyph-name="longs" unicode="&#x17f;" horiz-adv-x="412" 
d="M412 829v-104q-41 17 -87 17q-50 0 -76.5 -26t-26.5 -71v-645h-117v513l6 12h-81v105h81l-6 12v8q1 86 57.5 140.5t156.5 54.5q55 0 93 -16z" />
    <glyph glyph-name="florin" unicode="&#x192;" horiz-adv-x="432" 
d="M402 630v-104h-196l6 -12v-449q0 -280 -214 -280q-40 0 -98 20v112q50 -23 86 -23q31 0 53 13t33 29.5t16.5 47t6 49t0.5 52.5v10v419l6 12h-81v104h81l-6 12v8q1 91 60.5 143t153.5 52q51 0 93 -16v-104q-44 17 -87 17q-50 0 -76.5 -25.5t-26.5 -74.5l-6 -12h196z" />
    <glyph glyph-name="Aringacute" unicode="&#x1fa;" horiz-adv-x="881" 
d="M280 310h321l-12 12l-124 275l-23 74h-2l-23 -73l-125 -276zM493 866q0 26 -13.5 41t-38.5 15q-52 0 -52 -56q0 -25 13.5 -40.5t38.5 -15.5t38.5 15t13.5 41zM516 774l350 -774h-131l-85 188l6 11h-431l6 -12l-85 -187h-131l351 774q-38 31 -38 92q0 52 29 84.5t84 32.5
t84 -32.5t29 -84.5q0 -60 -38 -92zM504 1264l78 -77l-208 -178l-48 48z" />
    <glyph glyph-name="aringacute" unicode="&#x1fb;" horiz-adv-x="720" 
d="M518 282l12 12q-5 0 -25.5 1t-28.5 1q-64 0 -100 -2q-59 -3 -107 -15q-98 -25 -98 -91q0 -35 26.5 -57.5t59 -29.5t68.5 -7q27 0 55.5 3.5t62 12.5t54.5 29.5t21 48.5v94zM407 807q0 56 -52 56t-52 -56q0 -25 13.5 -40.5t38.5 -15.5q52 0 52 56zM635 406v-406h-117v48h-2
q-74 -59 -191 -59q-51 0 -96.5 10.5t-86 32t-64 62t-23.5 94.5q0 47 19 83.5t54.5 58.5t74 36.5t91 20.5t90.5 8t87 2q35 0 59 -2l-12 12v6t-1 6q-8 115 -160 115q-119 0 -191 -60l-77 79q111 86 268 86q55 0 102 -11.5t88 -37t64.5 -72.5t23.5 -112zM469 807
q0 -52 -30 -84.5t-84 -32.5q-55 0 -84 32.5t-29 84.5t29 84.5t84 32.5t84.5 -32.5t29.5 -84.5zM420 1207l77 -77l-207 -178l-48 47z" />
    <glyph glyph-name="AEacute" unicode="&#x1fc;" horiz-adv-x="1076" 
d="M280 310h248l-10 12v365l7 12h-73l3 -12l-165 -367zM1006 111v-111h-489v187l8 12h-300l6 -12l-85 -187h-131l367 810h624v-111h-375l6 -12v-214l-12 -13h338v-110h-338l12 -12v-215l-12 -12h381zM629 1129l78 -77l-208 -178l-48 48z" />
    <glyph glyph-name="aeacute" unicode="&#x1fd;" horiz-adv-x="1163" 
d="M508 282l9 12q-5 0 -24 1t-27 1q-62 0 -98 -2q-62 -4 -103 -15q-96 -24 -96 -91q0 -50 45.5 -71.5t104.5 -21.5q27 0 55 3.5t60.5 12.5t53 29t20.5 48v94zM614 367h388l-14 12q-32 154 -180 154q-151 0 -184 -154zM1108 310q0 -11 -3 -47h-494l12 -12q30 -154 189 -154
q97 0 169 71l81 -78q-103 -100 -250 -100t-234 100l-2 -1q-72 -100 -258 -100q-50 0 -94.5 10.5t-83.5 32t-62 62t-23 94.5q0 47 18.5 83.5t53.5 58.5t72 36.5t88.5 20.5t88.5 8t85 2q44 0 56 -2l-10 12q0 11 -1 12q-7 114 -156 114q-123 0 -194 -66l-79 77q113 95 273 95
t232 -106l1 1q35 47 94.5 76.5t130.5 29.5q147 0 223.5 -91t76.5 -239zM653 951l77 -78l-207 -178l-48 48z" />
    <glyph glyph-name="Oslashacute" unicode="&#x1fe;" horiz-adv-x="894" 
d="M559 679l10 5q-50 25 -122 25q-137 0 -203 -85t-66 -224q0 -163 91 -241v14zM716 400q0 173 -96 254v-12l-292 -508l-10 -7q55 -26 129 -26q138 0 203.5 81.5t65.5 217.5zM839 400q0 -187 -102.5 -298.5t-289.5 -111.5q-107 0 -188 38l2 -11l-51 -89l-60 36l50 87l9 5
q-154 108 -154 344q0 188 103 304t290 116q97 0 177 -36l1 11l34 60l61 -36l-34 -58l-8 -6q160 -110 160 -355zM507 1129l78 -77l-208 -178l-48 48z" />
    <glyph glyph-name="oslashacute" unicode="&#x1ff;" horiz-adv-x="705" 
d="M426 510l11 7q-37 16 -85 16q-94 0 -140 -59t-46 -159q0 -111 57 -169l3 15zM539 315q0 108 -54 167l-2 -13l-199 -348l-11 -9q31 -15 80 -15q94 0 140 59t46 159zM650 315q0 -145 -76.5 -235t-220.5 -90q-80 0 -136 26v-11l-40 -69l-60 36l40 69l10 6q-112 87 -112 268
q0 146 76.5 235.5t220.5 89.5q79 0 138 -28l1 10l39 69l61 -36l-40 -69l-9 -4q108 -91 108 -267zM418 951l78 -78l-208 -178l-47 48z" />
    <glyph glyph-name="Scommacedilla" unicode="&#x218;" horiz-adv-x="798" 
d="M487 -117q0 -24 -13 -45l-73 -129l-49 28l37 65l14 10q-25 4 -39.5 22t-14.5 49q0 34 18 53t51 19t51 -19t18 -53zM748 225q0 -98 -83 -166.5t-252 -68.5q-105 0 -200.5 34t-162.5 104l89 86q69 -61 131.5 -87t138.5 -26q106 0 161 33.5t55 84.5q0 37 -35.5 68.5
t-112.5 51.5q-9 3 -75.5 20t-73.5 19q-125 34 -190 82.5t-65 134.5q0 95 85.5 160t244.5 65q200 0 324 -130l-88 -87q-90 106 -236 106q-104 0 -155.5 -32t-51.5 -78q0 -37 41.5 -62.5t145.5 -53.5q7 -2 35.5 -9.5t59 -15.5t36.5 -10q118 -30 176 -88t58 -135z" />
    <glyph glyph-name="scommacedilla" unicode="&#x219;" horiz-adv-x="661" 
d="M414 -117q0 -23 -12 -45l-73 -129l-49 28l37 65l14 10q-54 8 -54 71q0 34 17.5 53t50.5 19q34 0 51.5 -19t17.5 -53zM606 178q0 -80 -66.5 -134.5t-198.5 -54.5q-175 0 -286 112l80 81q55 -49 102 -68.5t101 -19.5q76 0 113 24t37 56q0 26 -21 44t-81 33q-18 4 -112 31
q-95 26 -148 66t-53 111q0 78 68.5 129.5t192.5 51.5q154 0 257 -107l-80 -80q-72 82 -177 82q-73 0 -108 -23t-35 -50q0 -25 28.5 -41.5t101.5 -35.5q79 -24 101 -29q95 -25 139.5 -69t44.5 -109z" />
    <glyph glyph-name="Tcommacedilla" unicode="&#x21a;" 
d="M438 -117q0 -24 -13 -45l-73 -129l-49 28l37 65l14 10q-25 4 -39.5 22t-14.5 49q0 34 18 53t51 19t51 -19t18 -53zM710 810v-111h-291l6 -12v-687h-120v687l7 12h-292v111h690z" />
    <glyph glyph-name="tcommacedilla" unicode="&#x21b;" horiz-adv-x="493" 
d="M332 -117q0 -24 -13 -45l-73 -129l-49 28l37 65l14 10q-25 4 -39.5 22t-14.5 49q0 34 18 53t51 19t51 -19t18 -53zM406 143l78 -78q-98 -75 -191 -75q-90 0 -140.5 54.5t-50.5 150.5v322l7 12h-79v101h79l-7 12v93l117 63v-156l-6 -12h198v-101h-198l6 -12v-323
q0 -48 21 -73.5t58 -25.5q53 0 108 48z" />
    <glyph glyph-name="circumflex" unicode="&#x2c6;" horiz-adv-x="725" 
d="M358 930l187 -187l-47 -47l-142 115l-1 -1l-140 -114l-47 47l188 187h2z" />
    <glyph glyph-name="caron" unicode="&#x2c7;" horiz-adv-x="695" 
d="M478 930l47 -47l-188 -187h-2l-187 187l47 47l142 -115l1 1z" />
    <glyph glyph-name="breve" unicode="&#x2d8;" horiz-adv-x="695" 
d="M455 841h89q-44 -146 -195 -146q-152 0 -194 146h89q30 -68 105 -68q76 0 106 68z" />
    <glyph glyph-name="dotaccent" unicode="&#x2d9;" horiz-adv-x="440" 
d="M295 787q0 -36 -19 -57.5t-54 -21.5t-54 21.5t-19 57.5q0 37 19 58.5t54 21.5t54 -21.5t19 -58.5z" />
    <glyph glyph-name="ring" unicode="&#x2da;" horiz-adv-x="720" 
d="M404 812q0 56 -51 56q-52 0 -52 -56t52 -56q51 0 51 56zM466 812q0 -52 -29.5 -84.5t-83.5 -32.5q-55 0 -84.5 32.5t-29.5 84.5t29.5 84.5t83.5 32.5q55 0 84.5 -32.5t29.5 -84.5z" />
    <glyph glyph-name="ogonek" unicode="&#x2db;" horiz-adv-x="807" 
d="M700 -160l43 -43q-21 -24 -28 -31q-38 -36 -80 -38t-74 27.5t-34 72.5q-2 50 35 88l94 96l77 -9l-114 -122q-14 -14 -12 -33q1 -17 14 -30t30 -12q15 2 27 12q10 9 22 22z" />
    <glyph glyph-name="tilde" unicode="&#x2dc;" horiz-adv-x="720" 
d="M530 878l53 -53q-15 -49 -56 -81t-90 -32q-35 0 -102 40q-27 16 -46 25q-23 10 -42 10q-58 0 -83 -76l-52 53q12 44 53 78.5t91 34.5q35 0 104 -40q33 -20 46 -25q22 -11 39 -11q29 0 51.5 20.5t33.5 56.5z" />
    <glyph glyph-name="hungarumlaut" unicode="&#x2dd;" horiz-adv-x="705" 
d="M317 898l76 -75l-164 -134l-46 46zM511 898l76 -75l-164 -134l-46 46z" />
    <glyph glyph-name="pi" unicode="&#x3c0;" horiz-adv-x="714" 
d="M694 629v-108h-92l6 -12v-509h-112v509l6 12h-289l5 -12v-509h-111v509l6 12h-93v108h674z" />
    <glyph glyph-name="Bdotaccent" unicode="&#x1e02;" horiz-adv-x="812" 
d="M644 235q0 126 -162 126h-284l12 -12v-226l-12 -12h284q87 0 124.5 31t37.5 93zM609 587q0 112 -145 112h-266l12 -12v-203l-12 -12h266q145 0 145 115zM767 235q0 -110 -74 -172.5t-211 -62.5h-392v810h98h286q124 0 191 -64.5t67 -159.5q0 -107 -85 -160v-2
q58 -24 89 -73t31 -116zM458 965q0 -36 -19 -58t-54 -22t-54 22t-19 58t19 58t54 22t54 -22t19 -58z" />
    <glyph glyph-name="bdotaccent" unicode="&#x1e03;" horiz-adv-x="753" 
d="M581 313q0 101 -46.5 161t-144.5 60q-99 0 -145 -59.5t-46 -161.5q0 -100 46.5 -159t144.5 -59q99 0 145 58.5t46 159.5zM698 313q0 -146 -77 -234.5t-222 -88.5q-124 0 -190 72h-2v-62h-117v840h117v-277h2q69 77 190 77q146 0 222.5 -90t76.5 -237zM472 787
q0 -36 -19 -58t-54 -22t-54 22t-19 58t19 58t54 22t54 -21.5t19 -58.5z" />
    <glyph glyph-name="Ddotaccent" unicode="&#x1e0a;" horiz-adv-x="848" 
d="M670 405q0 66 -10 114t-37.5 91.5t-83.5 66t-140 22.5h-201l12 -12v-564l-12 -12h205q67 0 116 16t78 41t45.5 65t22 79.5t5.5 92.5zM793 405q0 -44 -4 -82.5t-15 -80.5t-28.5 -76.5t-47 -66t-68.5 -53t-94 -34t-123 -12.5h-323v810h99h220q94 0 165 -24.5t112 -62.5
t66 -94t33 -108.5t8 -115.5zM463 965q0 -36 -19 -58t-54 -22t-54 22t-19 58t19 58t54 22t54 -22t19 -58z" />
    <glyph glyph-name="ddotaccent" unicode="&#x1e0b;" horiz-adv-x="753" 
d="M554 313q0 102 -46 161.5t-145 59.5q-97 0 -144 -60t-47 -161t46 -159.5t145 -58.5t145 58.5t46 159.5zM663 840v-840h-117v62h-2q-66 -72 -190 -72q-145 0 -222 88.5t-77 233.5q0 147 77 237.5t222 90.5q121 0 190 -77h2v277h117zM426 787q0 -36 -19 -58t-54 -22t-54 22
t-19 58t19 58t54 22t54 -21.5t19 -58.5z" />
    <glyph glyph-name="Fdotaccent" unicode="&#x1e1e;" horiz-adv-x="720" 
d="M690 810v-111h-492l12 -12v-234l-12 -12h444v-111h-444l12 -12v-318h-120v810h600zM472 965q0 -36 -19 -58t-54 -22t-54 22t-19 58t19 58t53 22q36 0 55 -22t19 -58z" />
    <glyph glyph-name="fdotaccent" unicode="&#x1e1f;" horiz-adv-x="432" 
d="M412 629v-100h-196l6 -12v-517h-117v517l6 12h-81v101h81l-6 12v8q1 93 55.5 144t154.5 51q55 0 97 -16v-104q-42 17 -87 17q-103 0 -103 -100l-6 -12zM351 976q0 -36 -19 -58t-54 -22t-54 22t-19 58t19 58t53 22q36 0 55 -22t19 -58z" />
    <glyph glyph-name="Mdotaccent" unicode="&#x1e40;" horiz-adv-x="1000" 
d="M910 810v-810h-120v548h-2l-44 -107l-243 -452h-3l-244 455l-42 103h-2v-547h-120v810h103l267 -504l40 -96h2l39 96l268 504h101zM573 965q0 -36 -19 -58t-54 -22t-54 22t-19 58t19 58t53 22q36 0 55 -22t19 -58z" />
    <glyph glyph-name="mdotaccent" unicode="&#x1e41;" horiz-adv-x="1030" 
d="M945 372l-1 -372h-117v349q0 37 -2 63t-9.5 51t-20 39.5t-34 23.5t-51.5 9q-64 0 -99.5 -45.5t-34.5 -112.5v-377h-118v372q0 82 -24.5 122.5t-91.5 40.5q-58 0 -96 -45t-38 -114v-376h-118v630h118v-63h1q26 33 68 53t87 20q58 0 105 -29t70 -76h2q29 47 79 76t106 29
q109 0 164 -68.5t55 -199.5zM591 787q0 -36 -19 -58t-54 -22t-54 22t-19 58t19 58t54 22t54 -21.5t19 -58.5z" />
    <glyph glyph-name="Pdotaccent" unicode="&#x1e56;" horiz-adv-x="797" 
d="M629 556q0 67 -39 105t-118 38h-274l12 -12v-263l-12 -12h274q78 0 117.5 39t39.5 105zM752 556q0 -111 -75 -183t-205 -72h-274l12 -12v-289h-120v810h382q131 0 205.5 -70t74.5 -184zM463 965q0 -36 -19 -58t-54 -22t-54 22t-19 58t19 58t54 22t54 -22t19 -58z" />
    <glyph glyph-name="pdotaccent" unicode="&#x1e57;" horiz-adv-x="753" 
d="M581 313q0 101 -46 161.5t-145 60.5q-98 0 -144.5 -60.5t-46.5 -161.5t46 -159.5t145 -58.5t145 58.5t46 159.5zM698 315q0 -147 -76.5 -236t-222.5 -89q-123 0 -190 75h-2v-275h-117v840h117v-65h2q67 75 190 75q145 0 222 -89.5t77 -235.5zM466 787q0 -36 -19 -58
t-54 -22t-54 22t-19 58t19 58t54 22t54 -21.5t19 -58.5z" />
    <glyph glyph-name="Sdotaccent" unicode="&#x1e60;" horiz-adv-x="798" 
d="M748 225q0 -98 -83 -166.5t-252 -68.5q-105 0 -200.5 34t-162.5 104l89 86q69 -61 131.5 -87t138.5 -26q106 0 161 33.5t55 84.5q0 37 -35.5 68.5t-112.5 51.5q-9 3 -75.5 20t-73.5 19q-125 34 -190 82.5t-65 134.5q0 95 85.5 160t244.5 65q200 0 324 -130l-88 -87
q-90 106 -236 106q-104 0 -155.5 -32t-51.5 -78q0 -37 41.5 -62.5t145.5 -53.5q7 -2 35.5 -9.5t59 -15.5t36.5 -10q118 -30 176 -88t58 -135zM471 965q0 -36 -19 -58t-54 -22t-54 22t-19 58t19 58t54 22t54 -22t19 -58z" />
    <glyph glyph-name="sdotaccent" unicode="&#x1e61;" horiz-adv-x="661" 
d="M606 178q0 -80 -66.5 -134.5t-198.5 -54.5q-175 0 -286 112l80 81q55 -49 102 -68.5t101 -19.5q76 0 113 24t37 56q0 26 -21 44t-81 33q-18 4 -112 31q-95 26 -148 66t-53 111q0 78 68.5 129.5t192.5 51.5q154 0 257 -107l-80 -80q-72 82 -177 82q-73 0 -108 -23t-35 -50
q0 -25 28.5 -41.5t101.5 -35.5q79 -24 101 -29q95 -25 139.5 -69t44.5 -109zM406 787q0 -36 -19 -58t-54 -22t-54 22t-19 58t19 58t54 22t54 -21.5t19 -58.5z" />
    <glyph glyph-name="Tdotaccent" unicode="&#x1e6a;" 
d="M710 810v-111h-291l6 -12v-687h-120v687l7 12h-292v111h690zM440 965q0 -36 -19 -58t-54 -22t-54 22t-19 58t19 58t53 22q36 0 55 -22t19 -58z" />
    <glyph glyph-name="tdotaccent" unicode="&#x1e6b;" horiz-adv-x="493" 
d="M406 143l78 -78q-98 -75 -191 -75q-90 0 -140.5 54.5t-50.5 150.5v322l7 12h-79v101h79l-7 12v93l117 63v-156l-6 -12h198v-101h-198l6 -12v-323q0 -48 21 -73.5t58 -25.5q53 0 108 48zM236 909q0 -36 -19 -58t-54 -22t-54 22t-19 58t19 58t53 22q36 0 55 -22t19 -58z
" />
    <glyph glyph-name="Wgrave" unicode="&#x1e80;" horiz-adv-x="1077" 
d="M926 810h126l-223 -810h-143l-132 490l-16 92h-2l-15 -92l-132 -490h-141l-223 810h128l154 -577l13 -82h2l15 82l156 577h92l157 -577l13 -81h2l14 81zM485 1130l178 -207l-48 -48l-208 178z" />
    <glyph glyph-name="wgrave" unicode="&#x1e81;" horiz-adv-x="915" 
d="M778 630h122l-186 -630h-128l-112 350l-15 84h-2l-15 -84l-114 -350h-127l-186 630h124l116 -410l13 -79h2l13 79l126 410h98l126 -410l14 -79h2l12 79zM401 951l178 -208l-47 -48l-208 178z" />
    <glyph glyph-name="Wacute" unicode="&#x1e82;" horiz-adv-x="1077" 
d="M926 810h126l-223 -810h-143l-132 490l-16 92h-2l-15 -92l-132 -490h-141l-223 810h128l154 -577l13 -82h2l15 82l156 577h92l157 -577l13 -81h2l14 81zM600 1129l78 -77l-208 -178l-48 48z" />
    <glyph glyph-name="wacute" unicode="&#x1e83;" horiz-adv-x="915" 
d="M778 630h122l-186 -630h-128l-112 350l-15 84h-2l-15 -84l-114 -350h-127l-186 630h124l116 -410l13 -79h2l13 79l126 410h98l126 -410l14 -79h2l12 79zM510 951l78 -78l-208 -178l-47 48z" />
    <glyph glyph-name="Wdieresis" unicode="&#x1e84;" horiz-adv-x="1077" 
d="M926 810h126l-223 -810h-143l-132 490l-16 92h-2l-15 -92l-132 -490h-141l-223 810h128l154 -577l13 -82h2l15 82l156 577h92l157 -577l13 -81h2l14 81zM481 971q0 -32 -16.5 -51.5t-47.5 -19.5t-48 19.5t-17 51.5t16.5 51.5t47.5 19.5t48 -19.5t17 -51.5zM725 971
q0 -32 -16.5 -51.5t-47.5 -19.5t-48 19.5t-17 51.5t16.5 51.5t47.5 19.5t48 -19.5t17 -51.5z" />
    <glyph glyph-name="wdieresis" unicode="&#x1e85;" horiz-adv-x="915" 
d="M778 630h122l-186 -630h-128l-112 350l-15 84h-2l-15 -84l-114 -350h-127l-186 630h124l116 -410l13 -79h2l13 79l126 410h98l126 -410l14 -79h2l12 79zM398 778q0 -32 -17 -51.5t-48 -19.5t-47.5 19.5t-16.5 51.5t16.5 51.5t47.5 19.5q32 0 48.5 -19t16.5 -52zM642 778
q0 -32 -17 -51.5t-48 -19.5t-47.5 19.5t-16.5 51.5t16.5 51.5t47.5 19.5q32 0 48.5 -19t16.5 -52z" />
    <glyph glyph-name="Ygrave" unicode="&#x1ef2;" horiz-adv-x="840" 
d="M675 810h150l-344 -472v-338h-121v338l-345 472h151l201 -284l52 -87h2l51 88zM350 1130l178 -207l-48 -48l-208 178z" />
    <glyph glyph-name="ygrave" unicode="&#x1ef3;" horiz-adv-x="700" 
d="M555 630h130l-292 -695q-29 -70 -80 -110t-114 -40q-73 0 -130 29v112q62 -33 118 -33q69 0 115 113l-287 624h130l186 -417l28 -85h2l27 85zM266 951l178 -208l-47 -48l-208 178z" />
    <glyph glyph-name="endash" unicode="&#x2013;" horiz-adv-x="614" 
d="M584 385v-110h-554v110h554z" />
    <glyph glyph-name="emdash" unicode="&#x2014;" horiz-adv-x="889" 
d="M859 385v-110h-829v110h829z" />
    <glyph glyph-name="quoteleft" unicode="&#x2018;" horiz-adv-x="244" 
d="M45 574q0 24 14 56l83 195l57 -24l-55 -132l-14 -11q69 -9 69 -84q0 -38 -20 -61.5t-57 -23.5t-57 23t-20 62z" />
    <glyph glyph-name="quoteright" unicode="&#x2019;" horiz-adv-x="244" 
d="M199 736q0 -27 -14 -57l-83 -195l-57 24l55 132l14 12q-69 7 -69 84q0 38 20 61t57 23t57 -22.5t20 -61.5z" />
    <glyph glyph-name="quotesinglbase" unicode="&#x201a;" horiz-adv-x="244" 
d="M199 72q0 -27 -14 -57l-83 -195l-57 24l55 132l14 12q-69 7 -69 84q0 38 20 61t57 23t57 -22.5t20 -61.5z" />
    <glyph glyph-name="quotedblleft" unicode="&#x201c;" horiz-adv-x="438" 
d="M45 574q0 24 14 56l83 195l57 -24l-55 -132l-14 -11q69 -9 69 -84q0 -38 -20 -61.5t-57 -23.5t-57 23t-20 62zM239 574q0 24 14 56l83 195l57 -24l-55 -132l-13 -11q68 -9 68 -84q0 -39 -20 -62t-57 -23t-57 23t-20 62z" />
    <glyph glyph-name="quotedblright" unicode="&#x201d;" horiz-adv-x="438" 
d="M393 736q0 -25 -13 -57l-84 -195l-57 24l55 132l14 12q-69 7 -69 84q0 38 20 61t57 23t57 -22.5t20 -61.5zM199 736q0 -27 -14 -57l-83 -195l-57 24l55 132l14 12q-69 7 -69 84q0 38 20 61t57 23t57 -22.5t20 -61.5z" />
    <glyph glyph-name="quotedblbase" unicode="&#x201e;" horiz-adv-x="438" 
d="M393 73q0 -25 -13 -57l-84 -195l-57 24l55 132l14 12q-69 7 -69 84q0 38 20 61t57 23t57 -22.5t20 -61.5zM199 73q0 -27 -14 -57l-83 -195l-57 24l55 132l14 12q-69 7 -69 84q0 38 20 61t57 23t57 -22.5t20 -61.5z" />
    <glyph glyph-name="dagger" unicode="&#x2020;" horiz-adv-x="619" 
d="M559 593v-112l-206 11l11 -672h-110l11 672l-205 -11v112l204 -10l-11 227h112l-11 -227z" />
    <glyph glyph-name="daggerdbl" unicode="&#x2021;" horiz-adv-x="614" 
d="M559 593v-112l-206 11v-355l205 12v-112l-204 10l11 -226h-112l11 226l-205 -10v112l206 -12v355l-205 -11v112l204 -10l-11 226h112l-11 -226z" />
    <glyph glyph-name="bullet" unicode="&#x2022;" horiz-adv-x="387" 
d="M297 405q0 -62 -43 -105.5t-105 -43.5t-105.5 43.5t-43.5 105.5q0 61 43.5 104.5t105.5 43.5q61 0 104.5 -43.5t43.5 -104.5z" />
    <glyph glyph-name="ellipsis" unicode="&#x2026;" horiz-adv-x="854" 
d="M214 74q0 -38 -20 -61t-57 -23t-57 22.5t-20 61.5q0 38 20 61.5t57 23.5t57 -23t20 -62zM499 74q0 -38 -20 -61t-57 -23t-57 22.5t-20 61.5q0 38 20 61.5t57 23.5t57 -23t20 -62zM784 74q0 -38 -20 -61t-57 -23t-57 22.5t-20 61.5q0 38 20 61.5t57 23.5t57 -23t20 -62z
" />
    <glyph glyph-name="perthousand" unicode="&#x2030;" horiz-adv-x="1329" 
d="M282 592q0 134 -83 134t-83 -134q0 -129 83 -129t83 129zM780 214q0 134 -83 134t-83 -134q0 -130 82 -130q84 0 84 130zM1195 214q0 134 -83 134t-83 -134q0 -130 82 -130q84 0 84 130zM383 592q0 -99 -47 -161.5t-137 -62.5q-89 0 -136.5 62.5t-47.5 161.5t48 164
t136 65q89 0 136.5 -65t47.5 -164zM544 820h99l-290 -830h-99zM881 214q0 -100 -47 -162.5t-137 -62.5t-137 62.5t-47 162.5q0 99 48 163.5t136 64.5t136 -64.5t48 -163.5zM1296 214q0 -100 -47 -162.5t-137 -62.5t-137 62.5t-47 162.5q0 99 48 163.5t136 64.5t136 -64.5
t48 -163.5z" />
    <glyph glyph-name="guilsinglleft" unicode="&#x2039;" horiz-adv-x="399" 
d="M255 212l89 -89l-77 -78l-212 210l212 210l77 -78l-89 -89l-56 -43q1 -1 1 -2z" />
    <glyph glyph-name="guilsinglright" unicode="&#x203a;" horiz-adv-x="399" 
d="M132 465l212 -210l-212 -210l-77 78l89 89q48 37 56 42l-27 20l-45 40l-73 73z" />
    <glyph glyph-name="fraction" unicode="&#x2044;" horiz-adv-x="283" 
d="M241 820h92l-292 -830h-91z" />
    <glyph glyph-name="tironianet" unicode="&#x204a;" horiz-adv-x="496" 
d="M441 630v-82l-84 -239q-17 -49 -17 -132v-178h-114v188q0 91 21 151l43 124l30 63h-285v105h406z" />
    <glyph glyph-name="Euro" unicode="&#x20ac;" horiz-adv-x="745" 
d="M685 693l-81 -84q-56 102 -174 102q-67 0 -115 -42t-71 -113l-10 -11h282v-99h-301l7 -11q-1 -11 -1 -35v-25l-6 -11h301v-99h-284l9 -11q22 -72 69.5 -113.5t118.5 -41.5q116 0 175 101l80 -82q-88 -128 -255 -128q-121 0 -200.5 70.5t-107.5 193.5l4 11h-85v99h72
l-7 11v25q0 24 1 35l7 11h-73v99h88l-5 11q31 123 110.5 193.5t196.5 70.5q169 0 255 -127z" />
    <glyph glyph-name="indianrupeesign" unicode="&#x20b9;" horiz-adv-x="766" 
d="M140 810h556l-69 -93h-124q28 -34 38 -80h152l-65 -94h-82q-7 -63 -47 -111.5t-101 -69.5v-2q63 -30 96 -97l130 -263h-135l-104 214q-29 58 -75.5 86.5t-121.5 28.5h-34v101h101q71 0 115 32t54 81h-354l70 94h264q-17 37 -53 58.5t-85 21.5h-195z" />
    <glyph glyph-name="careof" unicode="&#x2105;" horiz-adv-x="1076" 
d="M924 216q0 64 -29.5 101t-88.5 37q-117 0 -117 -138q0 -63 29.5 -100t88.5 -37t88 36.5t29 100.5zM379 505l69 -67q-76 -79 -179 -79q-104 0 -159 64t-55 164q0 101 57.5 167t157.5 66q104 0 172 -72l-67 -67q-45 46 -104 46q-57 0 -88.5 -39t-31.5 -101q0 -61 29.5 -98
t89.5 -37t109 53zM629 820h97l-290 -830h-97zM1021 217q0 -102 -56 -166.5t-159 -64.5t-158.5 64t-55.5 167q0 102 55.5 166t158.5 64q104 0 159.5 -63.5t55.5 -166.5z" />
    <glyph glyph-name="numero" unicode="&#x2116;" horiz-adv-x="1443" 
d="M1243 435q0 190 -157 190q-156 0 -156 -190t157 -190q156 0 156 190zM740 810v-810h-111l-361 517l-56 98h-2v-615h-120v810h111l363 -518l54 -96h2v614h120zM1310 92v-92h-447v92h447zM1353 435q0 -132 -67 -212.5t-200 -80.5t-199.5 80t-66.5 213q0 132 66.5 212
t199.5 80q134 0 200.5 -79.5t66.5 -212.5z" />
    <glyph glyph-name="trademark" unicode="&#x2122;" horiz-adv-x="855" 
d="M378 809v-53h-146l1 -352h-58v347l1 5h-146v53h348zM825 809v-405h-58v273l-5 -10l-26 -56l-111 -212h-8l-125 239l-16 39l-1 -1v-272h-57v405h51l1 -3l136 -263l15 -37l6 13l21 43l126 247h51z" />
    <glyph glyph-name="Omega" unicode="&#x2126;" horiz-adv-x="887" 
d="M824 110v-110h-322v98q104 36 156.5 119t52.5 194q0 118 -75.5 205t-190.5 87q-121 0 -196 -85t-75 -208q0 -108 56 -196.5t156 -116.5v-97h-323v110h133q0 2 -1 2q-133 116 -133 301q0 162 110.5 284t271.5 122q160 0 269 -122t109 -283q0 -191 -129 -306q0 -1 1 -1z
" />
    <glyph glyph-name="onethird" unicode="&#x2153;" horiz-adv-x="843" 
d="M222 810v-455h-85v300l7 47l-16 -21l-18 -22l-22 -23l-58 58l118 116h74zM446 820h91l-291 -830h-92zM788 131q0 -57 -47 -99t-133 -42q-105 0 -179 81l63 62q28 -33 54 -47.5t62 -14.5q49 0 71.5 18.5t22.5 39.5q0 55 -84 63l-76 2v76q60 2 73 3q43 5 60.5 21.5
t17.5 34.5q0 44 -85 44q-35 0 -60 -13.5t-52 -45.5l-63 62q71 78 176 78q84 0 127.5 -36t43.5 -90q0 -27 -17 -52t-43 -40v-2q68 -29 68 -103z" />
    <glyph glyph-name="twothirds" unicode="&#x2154;" horiz-adv-x="990" 
d="M379 685q0 -94 -116 -136l-64 -22q-8 -3 -14 -6.5t-11 -9t-8 -9t-7.5 -12t-5.5 -11t-5 -13t-5 -12.5l-1 -2l-7 -8h244v-83h-322v85q0 53 28 97t85 65l55 19q40 14 53.5 27.5t13.5 30.5q0 47 -71 47q-57 0 -103 -62l-63 63q69 82 167 82q76 0 116.5 -38t40.5 -92zM593 820
h91l-291 -830h-92zM935 131q0 -57 -47 -99t-133 -42q-105 0 -179 81l63 62q28 -33 54 -47.5t62 -14.5q49 0 71.5 18.5t22.5 39.5q0 55 -84 63l-76 2v76q60 2 74 3q43 5 60 21.5t17 34.5q0 44 -85 44q-35 0 -60 -13.5t-52 -45.5l-63 62q71 78 176 78q84 0 127.5 -36t43.5 -90
q0 -27 -17 -52t-43 -40v-2q68 -29 68 -103z" />
    <glyph glyph-name="partialdiff" unicode="&#x2202;" horiz-adv-x="653" 
d="M475 288q0 91 -37.5 144t-114.5 53q-78 0 -115 -53t-37 -144q0 -89 37.5 -142.5t114.5 -53.5t114.5 53t37.5 143zM598 368q0 -376 -275 -376q-130 0 -199 83.5t-69 216.5q0 132 68.5 212t199.5 80q43 0 90 -16.5t78 -44.5q-11 110 -57.5 161.5t-110.5 51.5
q-87 0 -154 -67l-82 80q61 53 115.5 74.5t120.5 21.5q52 0 94 -15.5t70.5 -40.5t49 -64t32 -78t18.5 -90t9 -93.5t2 -95.5z" />
    <glyph glyph-name="Delta" unicode="&#x2206;" horiz-adv-x="913" 
d="M205 111h504l-13 12l-219 481l-23 63l-10 -27l-26 -63l-201 -455zM503 810l370 -810h-833l361 810h102z" />
    <glyph glyph-name="product" unicode="&#x220f;" horiz-adv-x="830" 
d="M775 809v-111h-107l6 -12v-897h-115v897l6 12h-300l6 -12v-897h-115v897l6 12h-107v111h720z" />
    <glyph glyph-name="summation" unicode="&#x2211;" horiz-adv-x="747" 
d="M691 -99l1 -111h-637v101l356 430q-1 1 -1 2l-355 386v100h624v-110l-468 1l61 -58l292 -323l-292 -352l-63 -65z" />
    <glyph glyph-name="minus" unicode="&#x2212;" horiz-adv-x="685" 
d="M595 460v-110h-505v110h505z" />
    <glyph glyph-name="radical" unicode="&#x221a;" horiz-adv-x="655" 
d="M542 919h113l-270 -1010h-133l-120 376l-3 6h-129v107h211l106 -342l1 1q8 39 64 254.5t108 411.5z" />
    <glyph glyph-name="infinity" unicode="&#x221e;" horiz-adv-x="875" 
d="M386 409q-76 105 -136 105q-42 0 -70 -31.5t-28 -74.5q0 -42 28.5 -74t70.5 -32q39 0 75 33t60 74zM724 408q0 43 -28.5 74.5t-70.5 31.5q-39 0 -76 -35q-14 -14 -30 -37q-2 -3 -22 -31l21 -33q18 -24 31 -38q36 -38 76 -38q43 0 71 31.5t28 74.5zM815 409
q0 -83 -49 -138.5t-130 -55.5q-57 0 -102.5 33t-91.5 95q-49 -61 -96.5 -94.5t-104.5 -33.5q-82 0 -131.5 55t-49.5 139q0 82 50 137t131 55q56 0 101.5 -33t92.5 -94q46 63 92.5 95t106.5 32q83 0 132 -54t49 -138z" />
    <glyph glyph-name="integral" unicode="&#x222b;" horiz-adv-x="463" 
d="M447 909l-22 -78q-31 15 -52 15q-43 0 -64.5 -19t-26.5 -61q-2 -14 -2 -139v-537q0 -110 -5 -142q-25 -140 -177 -140q-30 0 -83 12l22 78q33 -9 49 -9q85 0 96 86q2 22 2 90v603q0 32 2 88q3 83 47 130t130 47q43 0 84 -24z" />
    <glyph glyph-name="approxequal" unicode="&#x2248;" horiz-adv-x="685" 
d="M545 395l65 -66q-17 -54 -61.5 -87.5t-102.5 -33.5q-41 0 -113 41t-103 41q-33 0 -55.5 -24t-33.5 -61l-65 65q14 51 59 86.5t104 35.5q41 0 114 -41.5t101 -41.5q66 0 91 86zM545 603l65 -66q-17 -54 -61.5 -87.5t-102.5 -33.5q-41 0 -113 41t-103 41q-33 0 -55.5 -24
t-33.5 -61l-65 65q14 51 59 86.5t104 35.5q41 0 114 -41.5t101 -41.5q66 0 91 86z" />
    <glyph glyph-name="notequal" unicode="&#x2260;" horiz-adv-x="685" 
d="M595 344v-109h-291l3 -13l-51 -102h-111l52 103l12 12h-119v109h179l-4 14l49 96l12 12h-236v109h292l-2 12l52 102h111l-52 -103l-12 -11h116v-109h-173l3 -12l-49 -97l-12 -13h231z" />
    <glyph glyph-name="lessequal" unicode="&#x2264;" horiz-adv-x="515" 
d="M418 134v-109h-358v109h358zM243 443l182 -188l-76 -79l-294 292l294 312l76 -80l-182 -187l-42 -35z" />
    <glyph glyph-name="greaterequal" unicode="&#x2265;" horiz-adv-x="515" 
d="M456 134v-109h-358v109h358zM167 780l293 -312l-294 -292l-76 79l182 188l42 35l-42 35l-182 187z" />
    <glyph glyph-name="lozenge" unicode="&#x25ca;" horiz-adv-x="793" 
d="M397 144l206 261l-206 262l-207 -262zM397 843l343 -438l-343 -438l-344 438z" />
    <glyph glyph-name="apple" unicode="&#xf8ff;" horiz-adv-x="827" 
d="M25 407l283 -407h-308v810h306zM827 810v-810h-181l-282 407l280 403h183z" />
    <glyph glyph-name="fi" unicode="&#xfb01;" horiz-adv-x="728" 
d="M638 506v-506h-117v529h-305l6 -12v-517h-117v517l6 12h-81v101h81l-6 12v8q1 92 56 143.5t155 51.5q54 0 96 -16v-104q-42 17 -87 17q-103 0 -103 -100l-6 -12h422v-1v-123zM650 772q0 -32 -19 -53t-51 -21t-51 20.5t-19 53.5q0 32 19 53t51 21t51 -20.5t19 -53.5z" />
    <glyph glyph-name="fl" unicode="&#xfb02;" horiz-adv-x="723" 
d="M633 840v-840h-117v736l-191 1q-40 0 -72 -22t-32 -68v-6l-5 -11h196v-101h-196l6 -12v-517h-117v517l6 12h-81v101h81l-6 12v8q1 86 57.5 137.5t156.5 51.5z" />
    </font>
</defs>
</svg>
