{"asset":{"version":"2.0","generator":"Babylon2Gltf2017","copyright":"2017 (c) BabylonJS"},"scene":0,"scenes":[{"nodes":[23]}],"nodes":[{"skin":0,"mesh":0,"translation":[0.0262377057,0.7350323,-0.204905584],"rotation":[5.96046448E-08,0.0,0.0,-1.0],"scale":[1.0,1.0,1.0],"name":"elf"},{"children":[2,10,11],"translation":[0.0,0.0,0.0],"rotation":[-0.707141,-0.0020449108,0.00219978485,0.7070662],"scale":[1.00000024,1.0,1.0],"name":"mixamorig:Hips"},{"children":[3],"translation":[6.684786E-11,0.009698692,0.0885192454],"rotation":[-0.185690448,0.00342495926,-0.0925860256,0.9782306],"scale":[1.00000012,1.00000012,0.99999994],"name":"mixamorig:Spine"},{"children":[4],"translation":[0.0,7.450581E-09,0.1038904],"rotation":[-0.00998424552,-0.003606779,-0.0270467959,0.9995778],"scale":[0.9999999,1.00000012,0.9999999],"name":"mixamorig:Spine1"},{"children":[5,8,13],"translation":[9.313226E-10,1.49011612E-08,0.118731916],"rotation":[-0.0102881463,-0.00347159547,-0.0266801734,0.9995851],"scale":[3.00000048,2.99999976,2.99999976],"name":"mixamorig:Spine2"},{"children":[6],"translation":[0.0503429174,0.00220307242,0.11907851],"rotation":[0.5887417,-0.5849218,0.396413326,-0.392563671],"scale":[1.00000012,1.00000036,1.0],"name":"mixamorig:LeftShoulder"},{"children":[7],"translation":[3.7252903E-09,0.0,0.100196958],"rotation":[-0.3086962,0.262284726,-0.240250826,0.882152438],"scale":[0.9999999,1.00000012,1.0],"name":"mixamorig:LeftArm"},{"children":[12],"translation":[1.49011612E-08,-8.940697E-08,0.123613529],"rotation":[-0.131884456,-0.501064539,0.4505429,0.7270158],"scale":[1.0,0.99999994,0.99999994],"name":"mixamorig:LeftForeArm"},{"children":[9],"translation":[-2.561137E-09,-8.6613E-08,0.1335733],"rotation":[0.118998341,-0.0135794077,0.0134508917,0.9927105],"scale":[0.999999762,1.00000024,1.00000012],"name":"mixamorig:Neck"},{"translation":[-9.313226E-10,-0.00704801828,0.0177431256],"rotation":[0.212844148,0.04075867,-0.0306223053,0.9757553],"scale":[1.0,1.0,1.0],"name":"mixamorig:Head"},{"children":[17],"translation":[0.11940781,-0.01129806,-0.04893059],"rotation":[0.113386542,0.8512163,0.4983193,0.119382247],"scale":[1.00000012,1.00000024,1.00000012],"name":"mixamorig:LeftUpLeg"},{"children":[20],"translation":[-0.119407788,-0.00710654352,-0.04893066],"rotation":[0.0173175223,0.986245334,0.164133862,-0.008961344],"scale":[1.00000012,1.0,1.00000012],"name":"mixamorig:RightUpLeg"},{"translation":[1.49011612E-08,1.49011612E-08,0.269290119],"rotation":[-9.313227E-09,1.2107197E-08,1.49011647E-08,1.0],"scale":[0.9999997,0.99999994,1.00000012],"name":"mixamorig:LeftHand"},{"children":[14],"translation":[-0.0503429249,0.00098754,0.118945383],"rotation":[0.6664553,0.5334807,-0.323910177,-0.407820851],"scale":[1.00000012,1.0,0.9999999],"name":"mixamorig:RightShoulder"},{"children":[15],"translation":[1.67638063E-08,1.1920929E-07,0.100197017],"rotation":[-0.06849577,0.230046883,-0.165744558,0.956512153],"scale":[1.0,1.00000012,1.00000012],"name":"mixamorig:RightArm"},{"children":[16],"translation":[4.84287739E-08,1.1920929E-07,0.123348989],"rotation":[-0.189166352,0.7149878,-0.440013349,0.50931],"scale":[1.00000036,1.00000012,1.00000024],"name":"mixamorig:RightForeArm"},{"translation":[-1.11758709E-08,0.0,0.273046464],"rotation":[1.77635684E-15,7.450578E-09,-7.45058149E-09,1.0],"scale":[0.9999999,0.99999994,1.00000012],"name":"mixamorig:RightHand"},{"children":[18],"translation":[4.47034836E-08,-1.11758709E-08,0.3323332],"rotation":[0.901211858,0.00148708129,-0.00371556915,0.433360279],"scale":[0.9999998,0.9999998,0.9999999],"name":"mixamorig:LeftLeg"},{"children":[19],"translation":[0.0,2.98023224E-08,0.2374303],"rotation":[-0.642631769,-0.118163265,0.0011508374,0.7570076],"scale":[1.0,1.0,1.00000024],"name":"mixamorig:LeftFoot"},{"translation":[-2.98023224E-08,-1.11758709E-08,0.160369366],"rotation":[-0.3616971,-0.06710727,0.24796547,0.8962059],"scale":[0.9999999,0.999999762,1.0],"name":"mixamorig:LeftToeBase"},{"children":[21],"translation":[-1.49011612E-08,-3.7252903E-09,0.332580239],"rotation":[0.401449978,-0.0243860632,0.0668495,0.913112462],"scale":[1.0,0.9999997,0.999999762],"name":"mixamorig:RightLeg"},{"children":[22],"translation":[-2.98023224E-08,2.98023224E-08,0.237932533],"rotation":[-0.7388604,-0.0190268829,-0.07751674,0.669114649],"scale":[1.00000012,0.9999999,1.00000012],"name":"mixamorig:RightFoot"},{"translation":[0.0,-1.1920929E-07,0.15503411],"rotation":[-0.406660676,0.048429437,-0.229122579,0.883054137],"scale":[0.9999999,1.0,0.9999998],"name":"mixamorig:RightToeBase"},{"children":[0,1],"translation":[0.0,0.0,0.0],"rotation":[0.0,1.0,0.0,-4.371139E-08],"scale":[1.0,1.0,-1.0],"name":"root"}],"meshes":[{"primitives":[{"attributes":{"POSITION":1,"NORMAL":2,"TEXCOORD_0":3,"JOINTS_0":4,"WEIGHTS_0":5},"indices":0,"mode":4,"material":0}],"name":"elf"}],"accessors":[{"bufferView":0,"componentType":5123,"count":6936,"type":"SCALAR","name":"accessorIndices"},{"bufferView":1,"componentType":5126,"count":6936,"max":[1.34890282,2.40995526,2.359377],"min":[-1.76437163,-1.47813439,-1.506065],"type":"VEC3","name":"accessorPositions"},{"bufferView":1,"byteOffset":83232,"componentType":5126,"count":6936,"type":"VEC3","name":"accessorNormals"},{"bufferView":2,"componentType":5126,"count":6936,"type":"VEC2","name":"accessorUVs"},{"bufferView":3,"componentType":5123,"count":6936,"type":"VEC4","name":"accessorJoints"},{"bufferView":4,"componentType":5126,"count":6936,"type":"VEC4","name":"accessorWeights"},{"bufferView":5,"componentType":5126,"count":22,"type":"MAT4","name":"accessorInverseBindMatrices"},{"bufferView":6,"componentType":5126,"count":141,"max":[5.0],"min":[0.0],"type":"SCALAR","name":"accessorAnimationInput"},{"bufferView":7,"componentType":5126,"count":141,"type":"VEC3","name":"accessorAnimationPositions"},{"bufferView":8,"componentType":5126,"count":141,"type":"VEC4","name":"accessorAnimationRotations"},{"bufferView":7,"byteOffset":1692,"componentType":5126,"count":141,"type":"VEC3","name":"accessorAnimationScales"},{"bufferView":6,"byteOffset":564,"componentType":5126,"count":140,"max":[5.0],"min":[0.0],"type":"SCALAR","name":"accessorAnimationInput"},{"bufferView":7,"byteOffset":3384,"componentType":5126,"count":140,"type":"VEC3","name":"accessorAnimationPositions"},{"bufferView":8,"byteOffset":2256,"componentType":5126,"count":140,"type":"VEC4","name":"accessorAnimationRotations"},{"bufferView":7,"byteOffset":5064,"componentType":5126,"count":140,"type":"VEC3","name":"accessorAnimationScales"},{"bufferView":6,"byteOffset":1124,"componentType":5126,"count":141,"max":[5.0],"min":[0.0],"type":"SCALAR","name":"accessorAnimationInput"},{"bufferView":7,"byteOffset":6744,"componentType":5126,"count":141,"type":"VEC3","name":"accessorAnimationPositions"},{"bufferView":8,"byteOffset":4496,"componentType":5126,"count":141,"type":"VEC4","name":"accessorAnimationRotations"},{"bufferView":7,"byteOffset":8436,"componentType":5126,"count":141,"type":"VEC3","name":"accessorAnimationScales"},{"bufferView":6,"byteOffset":1688,"componentType":5126,"count":142,"max":[5.0],"min":[0.0],"type":"SCALAR","name":"accessorAnimationInput"},{"bufferView":7,"byteOffset":10128,"componentType":5126,"count":142,"type":"VEC3","name":"accessorAnimationPositions"},{"bufferView":8,"byteOffset":6752,"componentType":5126,"count":142,"type":"VEC4","name":"accessorAnimationRotations"},{"bufferView":7,"byteOffset":11832,"componentType":5126,"count":142,"type":"VEC3","name":"accessorAnimationScales"},{"bufferView":6,"byteOffset":2256,"componentType":5126,"count":141,"max":[5.0],"min":[0.0],"type":"SCALAR","name":"accessorAnimationInput"},{"bufferView":7,"byteOffset":13536,"componentType":5126,"count":141,"type":"VEC3","name":"accessorAnimationPositions"},{"bufferView":8,"byteOffset":9024,"componentType":5126,"count":141,"type":"VEC4","name":"accessorAnimationRotations"},{"bufferView":7,"byteOffset":15228,"componentType":5126,"count":141,"type":"VEC3","name":"accessorAnimationScales"},{"bufferView":6,"byteOffset":2820,"componentType":5126,"count":142,"max":[5.0],"min":[0.0],"type":"SCALAR","name":"accessorAnimationInput"},{"bufferView":7,"byteOffset":16920,"componentType":5126,"count":142,"type":"VEC3","name":"accessorAnimationPositions"},{"bufferView":8,"byteOffset":11280,"componentType":5126,"count":142,"type":"VEC4","name":"accessorAnimationRotations"},{"bufferView":7,"byteOffset":18624,"componentType":5126,"count":142,"type":"VEC3","name":"accessorAnimationScales"},{"bufferView":6,"byteOffset":3388,"componentType":5126,"count":141,"max":[5.0],"min":[0.0],"type":"SCALAR","name":"accessorAnimationInput"},{"bufferView":7,"byteOffset":20328,"componentType":5126,"count":141,"type":"VEC3","name":"accessorAnimationPositions"},{"bufferView":8,"byteOffset":13552,"componentType":5126,"count":141,"type":"VEC4","name":"accessorAnimationRotations"},{"bufferView":7,"byteOffset":22020,"componentType":5126,"count":141,"type":"VEC3","name":"accessorAnimationScales"},{"bufferView":6,"byteOffset":3952,"componentType":5126,"count":142,"max":[5.0],"min":[0.0],"type":"SCALAR","name":"accessorAnimationInput"},{"bufferView":7,"byteOffset":23712,"componentType":5126,"count":142,"type":"VEC3","name":"accessorAnimationPositions"},{"bufferView":8,"byteOffset":15808,"componentType":5126,"count":142,"type":"VEC4","name":"accessorAnimationRotations"},{"bufferView":7,"byteOffset":25416,"componentType":5126,"count":142,"type":"VEC3","name":"accessorAnimationScales"},{"bufferView":6,"byteOffset":4520,"componentType":5126,"count":142,"max":[5.0],"min":[0.0],"type":"SCALAR","name":"accessorAnimationInput"},{"bufferView":7,"byteOffset":27120,"componentType":5126,"count":142,"type":"VEC3","name":"accessorAnimationPositions"},{"bufferView":8,"byteOffset":18080,"componentType":5126,"count":142,"type":"VEC4","name":"accessorAnimationRotations"},{"bufferView":7,"byteOffset":28824,"componentType":5126,"count":142,"type":"VEC3","name":"accessorAnimationScales"},{"bufferView":6,"byteOffset":5088,"componentType":5126,"count":142,"max":[5.0],"min":[0.0],"type":"SCALAR","name":"accessorAnimationInput"},{"bufferView":7,"byteOffset":30528,"componentType":5126,"count":142,"type":"VEC3","name":"accessorAnimationPositions"},{"bufferView":8,"byteOffset":20352,"componentType":5126,"count":142,"type":"VEC4","name":"accessorAnimationRotations"},{"bufferView":7,"byteOffset":32232,"componentType":5126,"count":142,"type":"VEC3","name":"accessorAnimationScales"},{"bufferView":6,"byteOffset":5656,"componentType":5126,"count":142,"max":[5.0],"min":[0.0],"type":"SCALAR","name":"accessorAnimationInput"},{"bufferView":7,"byteOffset":33936,"componentType":5126,"count":142,"type":"VEC3","name":"accessorAnimationPositions"},{"bufferView":8,"byteOffset":22624,"componentType":5126,"count":142,"type":"VEC4","name":"accessorAnimationRotations"},{"bufferView":7,"byteOffset":35640,"componentType":5126,"count":142,"type":"VEC3","name":"accessorAnimationScales"},{"bufferView":6,"byteOffset":6224,"componentType":5126,"count":140,"max":[5.0],"min":[0.0],"type":"SCALAR","name":"accessorAnimationInput"},{"bufferView":7,"byteOffset":37344,"componentType":5126,"count":140,"type":"VEC3","name":"accessorAnimationPositions"},{"bufferView":8,"byteOffset":24896,"componentType":5126,"count":140,"type":"VEC4","name":"accessorAnimationRotations"},{"bufferView":7,"byteOffset":39024,"componentType":5126,"count":140,"type":"VEC3","name":"accessorAnimationScales"},{"bufferView":6,"byteOffset":6784,"componentType":5126,"count":141,"max":[5.0],"min":[0.0],"type":"SCALAR","name":"accessorAnimationInput"},{"bufferView":7,"byteOffset":40704,"componentType":5126,"count":141,"type":"VEC3","name":"accessorAnimationPositions"},{"bufferView":8,"byteOffset":27136,"componentType":5126,"count":141,"type":"VEC4","name":"accessorAnimationRotations"},{"bufferView":7,"byteOffset":42396,"componentType":5126,"count":141,"type":"VEC3","name":"accessorAnimationScales"},{"bufferView":6,"byteOffset":7348,"componentType":5126,"count":142,"max":[5.0],"min":[0.0],"type":"SCALAR","name":"accessorAnimationInput"},{"bufferView":7,"byteOffset":44088,"componentType":5126,"count":142,"type":"VEC3","name":"accessorAnimationPositions"},{"bufferView":8,"byteOffset":29392,"componentType":5126,"count":142,"type":"VEC4","name":"accessorAnimationRotations"},{"bufferView":7,"byteOffset":45792,"componentType":5126,"count":142,"type":"VEC3","name":"accessorAnimationScales"},{"bufferView":6,"byteOffset":7916,"componentType":5126,"count":142,"max":[5.0],"min":[0.0],"type":"SCALAR","name":"accessorAnimationInput"},{"bufferView":7,"byteOffset":47496,"componentType":5126,"count":142,"type":"VEC3","name":"accessorAnimationPositions"},{"bufferView":8,"byteOffset":31664,"componentType":5126,"count":142,"type":"VEC4","name":"accessorAnimationRotations"},{"bufferView":7,"byteOffset":49200,"componentType":5126,"count":142,"type":"VEC3","name":"accessorAnimationScales"},{"bufferView":6,"byteOffset":8484,"componentType":5126,"count":142,"max":[5.0],"min":[0.0],"type":"SCALAR","name":"accessorAnimationInput"},{"bufferView":7,"byteOffset":50904,"componentType":5126,"count":142,"type":"VEC3","name":"accessorAnimationPositions"},{"bufferView":8,"byteOffset":33936,"componentType":5126,"count":142,"type":"VEC4","name":"accessorAnimationRotations"},{"bufferView":7,"byteOffset":52608,"componentType":5126,"count":142,"type":"VEC3","name":"accessorAnimationScales"},{"bufferView":6,"byteOffset":9052,"componentType":5126,"count":75,"max":[5.0],"min":[0.0],"type":"SCALAR","name":"accessorAnimationInput"},{"bufferView":7,"byteOffset":54312,"componentType":5126,"count":75,"type":"VEC3","name":"accessorAnimationPositions"},{"bufferView":8,"byteOffset":36208,"componentType":5126,"count":75,"type":"VEC4","name":"accessorAnimationRotations"},{"bufferView":7,"byteOffset":55212,"componentType":5126,"count":75,"type":"VEC3","name":"accessorAnimationScales"},{"bufferView":6,"byteOffset":9352,"componentType":5126,"count":141,"max":[5.0],"min":[0.0],"type":"SCALAR","name":"accessorAnimationInput"},{"bufferView":7,"byteOffset":56112,"componentType":5126,"count":141,"type":"VEC3","name":"accessorAnimationPositions"},{"bufferView":8,"byteOffset":37408,"componentType":5126,"count":141,"type":"VEC4","name":"accessorAnimationRotations"},{"bufferView":7,"byteOffset":57804,"componentType":5126,"count":141,"type":"VEC3","name":"accessorAnimationScales"},{"bufferView":6,"byteOffset":9916,"componentType":5126,"count":142,"max":[5.0],"min":[0.0],"type":"SCALAR","name":"accessorAnimationInput"},{"bufferView":7,"byteOffset":59496,"componentType":5126,"count":142,"type":"VEC3","name":"accessorAnimationPositions"},{"bufferView":8,"byteOffset":39664,"componentType":5126,"count":142,"type":"VEC4","name":"accessorAnimationRotations"},{"bufferView":7,"byteOffset":61200,"componentType":5126,"count":142,"type":"VEC3","name":"accessorAnimationScales"},{"bufferView":6,"byteOffset":10484,"componentType":5126,"count":93,"max":[5.0],"min":[0.0],"type":"SCALAR","name":"accessorAnimationInput"},{"bufferView":7,"byteOffset":62904,"componentType":5126,"count":93,"type":"VEC3","name":"accessorAnimationPositions"},{"bufferView":8,"byteOffset":41936,"componentType":5126,"count":93,"type":"VEC4","name":"accessorAnimationRotations"},{"bufferView":7,"byteOffset":64020,"componentType":5126,"count":93,"type":"VEC3","name":"accessorAnimationScales"}],"bufferViews":[{"buffer":0,"byteLength":13872,"name":"bufferViewScalar"},{"buffer":0,"byteOffset":13872,"byteLength":166464,"byteStride":12,"name":"bufferViewFloatVec3"},{"buffer":0,"byteOffset":180336,"byteLength":55488,"byteStride":8,"name":"bufferViewFloatVec2"},{"buffer":0,"byteOffset":235824,"byteLength":55488,"byteStride":8,"name":"bufferViewUnsignedShortVec4"},{"buffer":0,"byteOffset":291312,"byteLength":110976,"byteStride":16,"name":"bufferViewFloatVec4"},{"buffer":0,"byteOffset":402288,"byteLength":1408,"name":"bufferViewFloatMat4"},{"buffer":0,"byteOffset":403696,"byteLength":10856,"name":"bufferViewAnimationFloatScalar"},{"buffer":0,"byteOffset":414552,"byteLength":65136,"name":"bufferViewAnimationFloatVec3"},{"buffer":0,"byteOffset":479688,"byteLength":43424,"name":"bufferViewAnimationFloatVec4"}],"buffers":[{"uri":"RiggedElf.bin","byteLength":523112}],"materials":[{"pbrMetallicRoughness":{"baseColorFactor":[0.6125001,0.6125001,0.6125001,1.0],"metallicFactor":0.0,"roughnessFactor":0.9},"emissiveFactor":[0.0,0.0,0.0],"name":"01 - Default"}],"animations":[{"channels":[{"sampler":0,"target":{"node":1,"path":"translation"}},{"sampler":1,"target":{"node":1,"path":"rotation"}},{"sampler":2,"target":{"node":1,"path":"scale"}}],"samplers":[{"input":7,"interpolation":"LINEAR","output":8},{"input":7,"interpolation":"LINEAR","output":9},{"input":7,"interpolation":"LINEAR","output":10}]},{"channels":[{"sampler":0,"target":{"node":2,"path":"translation"}},{"sampler":1,"target":{"node":2,"path":"rotation"}},{"sampler":2,"target":{"node":2,"path":"scale"}}],"samplers":[{"input":11,"interpolation":"LINEAR","output":12},{"input":11,"interpolation":"LINEAR","output":13},{"input":11,"interpolation":"LINEAR","output":14}]},{"channels":[{"sampler":0,"target":{"node":3,"path":"translation"}},{"sampler":1,"target":{"node":3,"path":"rotation"}},{"sampler":2,"target":{"node":3,"path":"scale"}}],"samplers":[{"input":15,"interpolation":"LINEAR","output":16},{"input":15,"interpolation":"LINEAR","output":17},{"input":15,"interpolation":"LINEAR","output":18}]},{"channels":[{"sampler":0,"target":{"node":4,"path":"translation"}},{"sampler":1,"target":{"node":4,"path":"rotation"}},{"sampler":2,"target":{"node":4,"path":"scale"}}],"samplers":[{"input":19,"interpolation":"LINEAR","output":20},{"input":19,"interpolation":"LINEAR","output":21},{"input":19,"interpolation":"LINEAR","output":22}]},{"channels":[{"sampler":0,"target":{"node":5,"path":"translation"}},{"sampler":1,"target":{"node":5,"path":"rotation"}},{"sampler":2,"target":{"node":5,"path":"scale"}}],"samplers":[{"input":23,"interpolation":"LINEAR","output":24},{"input":23,"interpolation":"LINEAR","output":25},{"input":23,"interpolation":"LINEAR","output":26}]},{"channels":[{"sampler":0,"target":{"node":6,"path":"translation"}},{"sampler":1,"target":{"node":6,"path":"rotation"}},{"sampler":2,"target":{"node":6,"path":"scale"}}],"samplers":[{"input":27,"interpolation":"LINEAR","output":28},{"input":27,"interpolation":"LINEAR","output":29},{"input":27,"interpolation":"LINEAR","output":30}]},{"channels":[{"sampler":0,"target":{"node":7,"path":"translation"}},{"sampler":1,"target":{"node":7,"path":"rotation"}},{"sampler":2,"target":{"node":7,"path":"scale"}}],"samplers":[{"input":31,"interpolation":"LINEAR","output":32},{"input":31,"interpolation":"LINEAR","output":33},{"input":31,"interpolation":"LINEAR","output":34}]},{"channels":[{"sampler":0,"target":{"node":8,"path":"translation"}},{"sampler":1,"target":{"node":8,"path":"rotation"}},{"sampler":2,"target":{"node":8,"path":"scale"}}],"samplers":[{"input":35,"interpolation":"LINEAR","output":36},{"input":35,"interpolation":"LINEAR","output":37},{"input":35,"interpolation":"LINEAR","output":38}]},{"channels":[{"sampler":0,"target":{"node":9,"path":"translation"}},{"sampler":1,"target":{"node":9,"path":"rotation"}},{"sampler":2,"target":{"node":9,"path":"scale"}}],"samplers":[{"input":39,"interpolation":"LINEAR","output":40},{"input":39,"interpolation":"LINEAR","output":41},{"input":39,"interpolation":"LINEAR","output":42}]},{"channels":[{"sampler":0,"target":{"node":10,"path":"translation"}},{"sampler":1,"target":{"node":10,"path":"rotation"}},{"sampler":2,"target":{"node":10,"path":"scale"}}],"samplers":[{"input":43,"interpolation":"LINEAR","output":44},{"input":43,"interpolation":"LINEAR","output":45},{"input":43,"interpolation":"LINEAR","output":46}]},{"channels":[{"sampler":0,"target":{"node":11,"path":"translation"}},{"sampler":1,"target":{"node":11,"path":"rotation"}},{"sampler":2,"target":{"node":11,"path":"scale"}}],"samplers":[{"input":47,"interpolation":"LINEAR","output":48},{"input":47,"interpolation":"LINEAR","output":49},{"input":47,"interpolation":"LINEAR","output":50}]},{"channels":[{"sampler":0,"target":{"node":13,"path":"translation"}},{"sampler":1,"target":{"node":13,"path":"rotation"}},{"sampler":2,"target":{"node":13,"path":"scale"}}],"samplers":[{"input":51,"interpolation":"LINEAR","output":52},{"input":51,"interpolation":"LINEAR","output":53},{"input":51,"interpolation":"LINEAR","output":54}]},{"channels":[{"sampler":0,"target":{"node":14,"path":"translation"}},{"sampler":1,"target":{"node":14,"path":"rotation"}},{"sampler":2,"target":{"node":14,"path":"scale"}}],"samplers":[{"input":55,"interpolation":"LINEAR","output":56},{"input":55,"interpolation":"LINEAR","output":57},{"input":55,"interpolation":"LINEAR","output":58}]},{"channels":[{"sampler":0,"target":{"node":15,"path":"translation"}},{"sampler":1,"target":{"node":15,"path":"rotation"}},{"sampler":2,"target":{"node":15,"path":"scale"}}],"samplers":[{"input":59,"interpolation":"LINEAR","output":60},{"input":59,"interpolation":"LINEAR","output":61},{"input":59,"interpolation":"LINEAR","output":62}]},{"channels":[{"sampler":0,"target":{"node":17,"path":"translation"}},{"sampler":1,"target":{"node":17,"path":"rotation"}},{"sampler":2,"target":{"node":17,"path":"scale"}}],"samplers":[{"input":63,"interpolation":"LINEAR","output":64},{"input":63,"interpolation":"LINEAR","output":65},{"input":63,"interpolation":"LINEAR","output":66}]},{"channels":[{"sampler":0,"target":{"node":18,"path":"translation"}},{"sampler":1,"target":{"node":18,"path":"rotation"}},{"sampler":2,"target":{"node":18,"path":"scale"}}],"samplers":[{"input":67,"interpolation":"LINEAR","output":68},{"input":67,"interpolation":"LINEAR","output":69},{"input":67,"interpolation":"LINEAR","output":70}]},{"channels":[{"sampler":0,"target":{"node":19,"path":"translation"}},{"sampler":1,"target":{"node":19,"path":"rotation"}},{"sampler":2,"target":{"node":19,"path":"scale"}}],"samplers":[{"input":71,"interpolation":"LINEAR","output":72},{"input":71,"interpolation":"LINEAR","output":73},{"input":71,"interpolation":"LINEAR","output":74}]},{"channels":[{"sampler":0,"target":{"node":20,"path":"translation"}},{"sampler":1,"target":{"node":20,"path":"rotation"}},{"sampler":2,"target":{"node":20,"path":"scale"}}],"samplers":[{"input":75,"interpolation":"LINEAR","output":76},{"input":75,"interpolation":"LINEAR","output":77},{"input":75,"interpolation":"LINEAR","output":78}]},{"channels":[{"sampler":0,"target":{"node":21,"path":"translation"}},{"sampler":1,"target":{"node":21,"path":"rotation"}},{"sampler":2,"target":{"node":21,"path":"scale"}}],"samplers":[{"input":79,"interpolation":"LINEAR","output":80},{"input":79,"interpolation":"LINEAR","output":81},{"input":79,"interpolation":"LINEAR","output":82}]},{"channels":[{"sampler":0,"target":{"node":22,"path":"translation"}},{"sampler":1,"target":{"node":22,"path":"rotation"}},{"sampler":2,"target":{"node":22,"path":"scale"}}],"samplers":[{"input":83,"interpolation":"LINEAR","output":84},{"input":83,"interpolation":"LINEAR","output":85},{"input":83,"interpolation":"LINEAR","output":86}]}],"skins":[{"inverseBindMatrices":6,"skeleton":1,"joints":[1,2,3,4,5,6,7,8,9,10,11,12,13,14,15,16,17,18,19,20,21,22],"name":"skeleton #0"}]}