<svg xmlns="http://www.w3.org/2000/svg" viewBox="0 0 20 20"><defs><style>.cls-1{fill:none;}.cls-2{fill:#fff;}</style></defs><g id="UI"><rect class="cls-1" width="20" height="20"/><path class="cls-2" d="M13.73,9.82v.36L15,11l-.78,1.88-1.46-.34-.25.25.34,1.46L11,15l-.79-1.27H9.82L9,15l-1.88-.78.34-1.46-.25-.25-1.46.34L5,11l1.27-.79V9.82L5,9l.78-1.88,1.46.34.25-.25L7.15,5.78,9,5l.79,1.27h.36L11,5l1.88.78-.34,1.46.25.25,1.46-.34L15,9Zm-.58.64a1.79,1.79,0,0,0,0-.23,1.69,1.69,0,0,0,0-.23,1.93,1.93,0,0,0,0-.24,2,2,0,0,0,0-.23l1.16-.72-.42-1-1.33.31a3.49,3.49,0,0,0-.31-.34l-.35-.32.31-1.33-1-.42-.73,1.16-.23,0H9.77l-.24,0L8.81,5.69l-1,.42L8.1,7.44a3.49,3.49,0,0,0-.34.31c-.11.11-.21.22-.32.35L6.11,7.79l-.42,1,1.16.73a1.79,1.79,0,0,0,0,.23,1.69,1.69,0,0,0,0,.23,1.93,1.93,0,0,0,0,.24,2,2,0,0,0,0,.23l-1.16.72.42,1,1.33-.31a3.49,3.49,0,0,0,.31.34l.35.32-.31,1.33,1,.42.73-1.16.23,0h.46l.24,0,.72,1.16,1-.42-.31-1.33a3.49,3.49,0,0,0,.34-.31c.11-.11.21-.22.32-.35l1.33.31.42-1ZM10,8.15a1.75,1.75,0,0,1,.72.15,1.77,1.77,0,0,1,1,1,2.1,2.1,0,0,1,.15.72,1.75,1.75,0,0,1-.15.72,1.77,1.77,0,0,1-1,1,2.1,2.1,0,0,1-.72.15,1.75,1.75,0,0,1-.72-.15,1.77,1.77,0,0,1-1-1A2.1,2.1,0,0,1,8.15,10a1.75,1.75,0,0,1,.15-.72,1.77,1.77,0,0,1,1-1A2.1,2.1,0,0,1,10,8.15Zm0,3.15a1.45,1.45,0,0,0,.51-.1,1.42,1.42,0,0,0,.41-.28,1.22,1.22,0,0,0,.27-.41,1.29,1.29,0,0,0,0-1,1.42,1.42,0,0,0-.28-.41,1.22,1.22,0,0,0-.41-.27,1.29,1.29,0,0,0-1,0,1.42,1.42,0,0,0-.41.28,1.22,1.22,0,0,0-.27.41,1.29,1.29,0,0,0,0,1,1.42,1.42,0,0,0,.28.41,1.22,1.22,0,0,0,.41.27A1.45,1.45,0,0,0,10,11.3Z"/></g></svg>