<svg xmlns="http://www.w3.org/2000/svg" viewBox="0 0 30 30"><defs><style>.cls-1{fill:none;}.cls-2{fill:#fff;}</style></defs><g id="Layer_2" data-name="Layer 2"><g id="UI"><rect class="cls-1" width="30" height="30"/><path class="cls-2" d="M23,9.3a2.65,2.65,0,0,1-.19,1,2.58,2.58,0,0,1-.57.86L12,21.45,7,22.68l1.24-4.94L18.56,7.45a2.54,2.54,0,0,1,.85-.57,2.7,2.7,0,0,1,1-.2,2.52,2.52,0,0,1,1,.21,2.48,2.48,0,0,1,.83.56,3,3,0,0,1,.56.83A2.52,2.52,0,0,1,23,9.3ZM9.58,17.84a3.46,3.46,0,0,1,1.42.87,3.56,3.56,0,0,1,.88,1.43l8.44-8.46L18,9.39ZM8.41,21.31,11,20.67a2.64,2.64,0,0,0-.25-.68,2.25,2.25,0,0,0-.43-.57A2.67,2.67,0,0,0,9.73,19a2.64,2.64,0,0,0-.68-.25ZM21,11l.38-.37a2.74,2.74,0,0,0,.32-.36A1.78,1.78,0,0,0,22,9.83a1.72,1.72,0,0,0,0-1.15,1.78,1.78,0,0,0-.35-.51A2,2,0,0,0,21,7.81a1.81,1.81,0,0,0-.63-.13,1.62,1.62,0,0,0-.52.08,1.53,1.53,0,0,0-.41.23,2.83,2.83,0,0,0-.37.32l-.37.37Z"/></g></g></svg>