<svg xmlns="http://www.w3.org/2000/svg" viewBox="0 0 30 30"><defs><style>.cls-1{fill:none;}.cls-2{fill:#fff;}</style></defs><g id="UI"><rect class="cls-1" width="30" height="30"/><path class="cls-2" d="M8,15a4.72,4.72,0,0,0,.12,1.06,5.31,5.31,0,0,0,.34,1A4.77,4.77,0,0,0,9,18a4.2,4.2,0,0,0,.74.78L9,19.49a5.89,5.89,0,0,1-.86-.94,6.15,6.15,0,0,1-.64-1.08,5.83,5.83,0,0,1-.4-1.2A6.59,6.59,0,0,1,7,15a6,6,0,0,1,.21-1.59A5.51,5.51,0,0,1,7.82,12a6.6,6.6,0,0,1,.94-1.22A5.53,5.53,0,0,1,10,9.82a6.53,6.53,0,0,1,1.44-.6A5.6,5.6,0,0,1,13,9h5.05L16.77,7.73,17.48,7,20,9.5,17.48,12l-.71-.71L18.05,10H13a4.91,4.91,0,0,0-1.33.18,5.25,5.25,0,0,0-1.19.5,4.47,4.47,0,0,0-1,.78,5.51,5.51,0,0,0-.78,1,4.86,4.86,0,0,0-.51,1.19A4.91,4.91,0,0,0,8,15Zm13-4.48a5.82,5.82,0,0,1,.86.93,6.15,6.15,0,0,1,.64,1.08,5.83,5.83,0,0,1,.4,1.2A6.77,6.77,0,0,1,23,15a6,6,0,0,1-.21,1.59A5.51,5.51,0,0,1,22.18,18a6.6,6.6,0,0,1-.94,1.22,5.53,5.53,0,0,1-1.21.94,6.53,6.53,0,0,1-1.44.6A5.6,5.6,0,0,1,17,21H12l1.28,1.27-.71.71L10.05,20.5,12.52,18l.71.71L12,20H17a4.91,4.91,0,0,0,1.33-.18,5.25,5.25,0,0,0,1.19-.5,4.47,4.47,0,0,0,1-.78,5.51,5.51,0,0,0,.78-1,4.86,4.86,0,0,0,.51-1.19A4.91,4.91,0,0,0,22,15a4.81,4.81,0,0,0-.12-1.07,6.07,6.07,0,0,0-.33-1A4.69,4.69,0,0,0,21,12a6.86,6.86,0,0,0-.74-.79Z"/></g></svg>