<svg xmlns="http://www.w3.org/2000/svg" viewBox="0 0 30 30"><defs><style>.cls-1{fill:none;}.cls-2{fill:#fff;}</style></defs><g id="UI"><rect class="cls-1" width="30" height="30"/><polygon class="cls-2" points="15.01 10 18.05 10 16.77 11.27 17.48 11.98 19.95 9.5 17.48 7.02 16.77 7.73 18.05 9 14.6 9 15.01 10"/><path class="cls-2" d="M8.46,17.08a5.31,5.31,0,0,1-.34-1A4.72,4.72,0,0,1,8,15a4.91,4.91,0,0,1,.18-1.33,4.86,4.86,0,0,1,.51-1.19,5.51,5.51,0,0,1,.78-1,4.47,4.47,0,0,1,1-.78,5.25,5.25,0,0,1,1.19-.5l.16,0-.39-.94h0a6.53,6.53,0,0,0-1.44.6,5.53,5.53,0,0,0-1.21.94A6.6,6.6,0,0,0,7.82,12a5.51,5.51,0,0,0-.61,1.43A6,6,0,0,0,7,15a6.59,6.59,0,0,0,.14,1.27,5.83,5.83,0,0,0,.4,1.2,6.15,6.15,0,0,0,.64,1.08,5.89,5.89,0,0,0,.86.94l.71-.71A4.2,4.2,0,0,1,9,18,4.77,4.77,0,0,1,8.46,17.08Z"/><polygon class="cls-2" points="15.91 20 11.95 20 13.23 18.73 12.52 18.02 10.05 20.5 12.52 22.98 13.23 22.27 11.95 21 16.32 21 15.91 20"/><path class="cls-2" d="M22.86,13.73a5.83,5.83,0,0,0-.4-1.2,6.15,6.15,0,0,0-.64-1.08,5.82,5.82,0,0,0-.86-.93l-.7.69A6.86,6.86,0,0,1,21,12a4.69,4.69,0,0,1,.55.91,6.07,6.07,0,0,1,.33,1A4.81,4.81,0,0,1,22,15a4.91,4.91,0,0,1-.18,1.33,4.86,4.86,0,0,1-.51,1.19,5.51,5.51,0,0,1-.78,1,4.47,4.47,0,0,1-1,.78,4.53,4.53,0,0,1-.54.27l.38.92a7,7,0,0,0,.67-.33,5.53,5.53,0,0,0,1.21-.94A6.6,6.6,0,0,0,22.18,18a5.51,5.51,0,0,0,.61-1.43A6,6,0,0,0,23,15,6.77,6.77,0,0,0,22.86,13.73Z"/><rect class="cls-2" x="14.92" y="6.37" width="1" height="16.63" transform="translate(-4.44 7.02) rotate(-22.5)"/></g></svg>