<svg xmlns="http://www.w3.org/2000/svg" viewBox="0 0 180.17 208.04"><defs><style>.cls-1{fill:#fff;}.cls-2{fill:#e0684b;}.cls-3{fill:#bb464b;}.cls-4{fill:#e0ded8;}.cls-5{fill:#d5d2ca;}</style></defs><title>BabylonLogo</title><g id="Layer_2" data-name="Layer 2"><g id="Page_Elements" data-name="Page Elements"><path class="cls-1" d="M90.09,0,0,52V156l90.09,52,90.08-52V52Z"/><polygon class="cls-2" points="180.17 52.01 151.97 35.73 124.85 51.39 153.05 67.67 180.17 52.01"/><polygon class="cls-2" points="27.12 67.67 117.21 15.66 90.08 0 0 52.01 27.12 67.67"/><polygon class="cls-2" points="61.89 120.3 90.08 136.58 118.28 120.3 90.08 104.02 61.89 120.3"/><polygon class="cls-3" points="153.05 67.67 153.05 140.37 90.08 176.72 27.12 140.37 27.12 67.67 0 52.01 0 156.03 90.08 208.04 180.17 156.03 180.17 52.01 153.05 67.67"/><polygon class="cls-3" points="90.08 71.46 61.89 87.74 61.89 120.3 90.08 104.02 118.28 120.3 118.28 87.74 90.08 71.46"/><polygon class="cls-4" points="153.05 67.67 118.28 87.74 118.28 120.3 90.08 136.58 90.08 176.72 153.05 140.37 153.05 67.67"/><polygon class="cls-5" points="27.12 67.67 61.89 87.74 61.89 120.3 90.08 136.58 90.08 176.72 27.12 140.37 27.12 67.67"/></g></g></svg>