<svg viewBox="0 0 24 24" version="1.1" xmlns="http://www.w3.org/2000/svg" xmlns:xlink="http://www.w3.org/1999/xlink" width="24" height="24">
  <!-- Generator: Sketch 59.1 (86144) - https://sketch.com -->
  <title>ic_fluent_refresh_24_regular</title>
  <desc>Created with Sketch.</desc>
  <g id="ðŸ”-Product-Icons">
    <g id="ic_fluent_refresh_24_regular">
      <path d="M3,11.5 C3,16.4705627 7.02943725,20.5 12,20.5 C16.9705627,20.5 21,16.4705627 21,11.5 C21,9.79038753 20.5217936,8.14944804 19.6337823,6.73080614 C19.3444064,6.2685138 19.0136435,5.83349939 18.6460842,5.43118497 L18.44,5.21550342 C18.3051404,5.08211817 18.1184181,4.99894705 17.9122701,4.99894705 C17.4980565,4.99894705 17.1622701,5.33473348 17.1622701,5.74894705 C17.1622701,5.92792822 17.2249646,6.09226631 17.3295906,6.22119838 L17.3641675,6.25826757 C17.741275,6.64412189 18.0761433,7.06947875 18.362333,7.52668093 C19.1020627,8.70843557 19.5,10.0739361 19.5,11.5 C19.5,15.6421356 16.1421356,19 12,19 C7.85786438,19 4.5,15.6421356 4.5,11.5 C4.5,9.10270786 5.63281093,6.89952516 7.50196302,5.49774512 L7.50209339,8.25418677 C7.50209339,8.66840034 7.83787982,9.00418677 8.25209339,9.00418677 C8.63178915,9.00418677 8.94558435,8.72203289 8.99524677,8.35595733 L9.00209339,8.25418677 L9.00209339,3.75 C9.00209339,3.37030423 8.71993951,3.05650904 8.35386394,3.00684662 L8.25209339,3 L3.75209339,3 C3.33787982,3 3.00209339,3.33578644 3.00209339,3.75 C3.00209339,4.12969577 3.28424727,4.44349096 3.65032283,4.49315338 L3.75209339,4.5 L6.34246888,4.49981954 C4.25562789,6.18669368 3,8.73672433 3,11.5 Z" id="ðŸŽ¨Color"></path>
    </g>
  </g>
</svg>