<svg xmlns="http://www.w3.org/2000/svg" width="23" height="45" viewBox="0 0 23 45"><rect width="23" height="45" style="fill:none"/><path d="M4.22,16.8a1.43,1.43,0,0,1,1.43-1.41,1.39,1.39,0,0,1,.81.26l8.47,6.07a1.42,1.42,0,0,1,.32,2,1.44,1.44,0,0,1-.38.36L6.4,29.49a1.42,1.42,0,0,1-2-.44,1.4,1.4,0,0,1-.22-.75Z" style="fill:#ccc"/><path d="M17.56,29.17a.61.61,0,0,0,1.22,0V15.83a.61.61,0,0,0-1.22,0h0Z" style="fill:#ffc017"/><path d="M16.82,25.91a1.35,1.35,0,0,0,2.7,0V19.09a1.35,1.35,0,1,0-2.7,0h0Z" style="fill:#ffc017"/></svg>