<svg xmlns="http://www.w3.org/2000/svg" width="23" height="45" viewBox="0 0 23 45"><rect width="23" height="45" style="fill:none"/><path d="M8.07,21.72a1.42,1.42,0,0,0-.32,2,1.44,1.44,0,0,0,.38.36l8.47,5.43a1.42,1.42,0,0,0,2-.44,1.4,1.4,0,0,0,.22-.75V16.8a1.43,1.43,0,0,0-1.43-1.41,1.39,1.39,0,0,0-.81.26Zm9.49,6.58a.2.2,0,0,1-.31.17L8.79,23a.22.22,0,0,1,0-.29l0-.05,8.46-6.07a.2.2,0,0,1,.28,0,.2.2,0,0,1,0,.13Z" style="fill:#888"/><path d="M4.22,29.17a.61.61,0,0,0,1.22,0V15.83a.61.61,0,0,0-1.22,0h0Z" style="fill:#ffc017"/><path d="M3.48,25.91a1.35,1.35,0,1,0,2.7,0V19.09a1.35,1.35,0,1,0-2.7,0h0Z" style="fill:#ffc017"/></svg>