<svg xmlns="http://www.w3.org/2000/svg" width="23" height="45" viewBox="0 0 23 45"><rect width="23" height="45" style="fill:none"/><path d="M6.46,15.65a1.42,1.42,0,0,0-2,.34,1.39,1.39,0,0,0-.26.81V28.3a1.43,1.43,0,0,0,1.43,1.41,1.4,1.4,0,0,0,.75-.22l8.47-5.43a1.42,1.42,0,0,0,.42-2,1.45,1.45,0,0,0-.36-.38Zm-1,1.15a.2.2,0,0,1,.32-.17l8.46,6.07a.22.22,0,0,1,0,.29s0,0,0,.05L5.75,28.47a.2.2,0,0,1-.28-.06.2.2,0,0,1,0-.11Z" style="fill:#888"/><path d="M17.56,29.17a.61.61,0,0,0,1.22,0V15.83a.61.61,0,0,0-1.22,0h0Z" style="fill:#ffc017"/><path d="M16.82,25.91a1.35,1.35,0,0,0,2.7,0V19.09a1.35,1.35,0,1,0-2.7,0h0Z" style="fill:#ffc017"/></svg>