<svg xmlns="http://www.w3.org/2000/svg" width="20" height="20" viewBox="0 0 20 20"><rect width="20" height="20" style="fill:none"/><path d="M10,4.1a6.71,6.71,0,0,1,1.33.16l.34.39.1.92a.85.85,0,0,0,.83.75A1,1,0,0,0,13,6.25l.85-.38.5.1a6,6,0,0,1,1.35,2.31l-.17.49-.75.56a.83.83,0,0,0,0,1.34l.75.56.17.49A6,6,0,0,1,14.3,14l-.5.1L13,13.75a.85.85,0,0,0-.76.05.82.82,0,0,0-.41.63l-.1.92-.34.39a5.82,5.82,0,0,1-2.69,0l-.33-.39-.1-.92a.83.83,0,0,0-.41-.63.85.85,0,0,0-.76,0l-.85.37L5.7,14a6,6,0,0,1-1.35-2.31l.17-.49.75-.56a.83.83,0,0,0,0-1.34l-.75-.56-.17-.48A6,6,0,0,1,5.7,6l.5-.1.85.38a.85.85,0,0,0,.76,0,.83.83,0,0,0,.41-.63l.1-.92.34-.39A6.73,6.73,0,0,1,10,4.1ZM10,5a5.55,5.55,0,0,0-.82.07l-.07.59A1.74,1.74,0,0,1,6.69,7.08l-.55-.24a5,5,0,0,0-.81,1.4l.48.36a1.74,1.74,0,0,1,0,2.8l-.48.36a5.22,5.22,0,0,0,.81,1.41l.55-.24a1.73,1.73,0,0,1,2.43,1.4l.07.59a4.89,4.89,0,0,0,1.62,0l.07-.59a1.74,1.74,0,0,1,2.43-1.41l.55.24a5,5,0,0,0,.81-1.4l-.48-.36a1.74,1.74,0,0,1,0-2.8l.48-.36a5,5,0,0,0-.81-1.4l-.55.24a1.86,1.86,0,0,1-.7.14,1.74,1.74,0,0,1-1.73-1.55l-.07-.59A4.4,4.4,0,0,0,10,5Zm0,2.72A2.27,2.27,0,1,1,7.73,10,2.27,2.27,0,0,1,10,7.73Zm0,.91A1.36,1.36,0,1,0,11.36,10,1.36,1.36,0,0,0,10,8.64Z" style="fill:#fff"/></svg>