<svg xmlns="http://www.w3.org/2000/svg" width="20" height="20" viewBox="0 0 20 20"><rect width="20" height="20" style="fill:none"/><path d="M14,4.19A1.78,1.78,0,0,1,15.81,6V14A1.78,1.78,0,0,1,14,15.81H6A1.78,1.78,0,0,1,4.19,14V6A1.78,1.78,0,0,1,6,4.19Zm0,1H6A.81.81,0,0,0,5.16,6V14a.81.81,0,0,0,.81.81H14a.81.81,0,0,0,.81-.81V6A.81.81,0,0,0,14,5.16ZM8.71,11.57,12.88,7.4a.49.49,0,0,1,.69,0,.47.47,0,0,1,0,.63l0,.05L9.05,12.6a.49.49,0,0,1-.63.05l-.05-.05L6.43,10.66a.48.48,0,0,1,0-.68.49.49,0,0,1,.63-.05l.06.05,1.59,1.59L12.88,7.4Z" style="fill:#fff"/></svg>