<svg xmlns="http://www.w3.org/2000/svg" width="40" height="40" viewBox="0 0 40 40"><rect width="40" height="40" style="fill:none"/><path d="M27.5,18.85a1.18,1.18,0,0,0-1,.62h-8.3a1.65,1.65,0,0,0-.3-.46l-2.1-2.09a1.4,1.4,0,0,0-2,0L11.7,19a1.41,1.41,0,0,0,0,2l2.09,2.09a1.39,1.39,0,0,0,2,0L17.86,21a1.67,1.67,0,0,0,.21-.33h8.4a1.2,1.2,0,1,0,1-1.81ZM17,20.14l-2.1,2.09a.2.2,0,0,1-.27,0l-2.09-2.09a.19.19,0,0,1,0-.28l2.09-2.09a.2.2,0,0,1,.14-.06.16.16,0,0,1,.13.06L17,19.86A.21.21,0,0,1,17,20.14Z" style="fill:#fff"/></svg>