<svg xmlns="http://www.w3.org/2000/svg" width="40" height="40" viewBox="0 0 40 40"><rect width="40" height="40" style="fill:none"/><path d="M14.05,15a1,1,0,0,1,1-1h1.59a.6.6,0,0,0,.59-.6.59.59,0,0,0-.59-.59H15A2.17,2.17,0,0,0,12.86,15v1.59a.59.59,0,0,0,.59.59.6.6,0,0,0,.6-.59Z" style="fill:#fff"/><path d="M14.05,25a1,1,0,0,0,1,1h1.59a.6.6,0,0,1,.59.6.59.59,0,0,1-.59.59H15A2.17,2.17,0,0,1,12.86,25V23.37a.59.59,0,0,1,.59-.59.6.6,0,0,1,.6.59Z" style="fill:#fff"/><path d="M25,14.05a1,1,0,0,1,1,1v1.59a.6.6,0,0,0,.6.59.59.59,0,0,0,.59-.59V15A2.17,2.17,0,0,0,25,12.86H23.37a.59.59,0,0,0-.59.59.6.6,0,0,0,.59.6Z" style="fill:#fff"/><path d="M26,25a1,1,0,0,1-1,1H23.37a.6.6,0,0,0-.59.6.59.59,0,0,0,.59.59H25A2.17,2.17,0,0,0,27.14,25V23.37a.59.59,0,0,0-.59-.59.6.6,0,0,0-.6.59Z" style="fill:#fff"/></svg>