<svg xmlns="http://www.w3.org/2000/svg" width="30" height="30" viewBox="0 0 30 30"><rect width="30" height="30" style="fill:none"/><path d="M8,10.16A2.13,2.13,0,0,1,10.1,8h7.78a2.51,2.51,0,0,1,1.78.73l1.58,1.58A2.53,2.53,0,0,1,22,12.12v7.73A2.13,2.13,0,0,1,19.89,22H10.15A2.14,2.14,0,0,1,8,19.87V10.16Zm2.13-1a1,1,0,0,0-1,1v9.69a1,1,0,0,0,1,1h.2v-4.1A1.74,1.74,0,0,1,12.06,15h5.85a1.74,1.74,0,0,1,1.74,1.74h0v4.07h.19a1,1,0,0,0,1-1v-7.7a1.38,1.38,0,0,0-.4-1l-1.6-1.53a1.26,1.26,0,0,0-.74-.38v2.11a1.74,1.74,0,0,1-1.74,1.74H12.87a1.73,1.73,0,0,1-1.75-1.73h0V9.19Zm8.34,11.63v-4a.59.59,0,0,0-.57-.59H12.09a.58.58,0,0,0-.58.58h0v4.07ZM12.29,9.19v2.13a.58.58,0,0,0,.58.58h3.48a.58.58,0,0,0,.59-.57h0V9.19Z" style="fill:#fff"/></svg>