<svg xmlns="http://www.w3.org/2000/svg" width="40" height="40" viewBox="0 0 40 40"><path d="M29.89,10.2a1.2,1.2,0,0,0-2,1.18l-6.23,6.23L21,16.94a1.39,1.39,0,0,0-2,0L16.92,19a1.4,1.4,0,0,0,0,2l.57.56-6.23,6.23a1.18,1.18,0,0,0-1.15.3,1.2,1.2,0,0,0,0,1.71,1.2,1.2,0,0,0,2-1.18l6.22-6.22.68.69a1.4,1.4,0,0,0,2,0L23.08,21a1.4,1.4,0,0,0,0-2l-.58-.58,6.24-6.24a1.18,1.18,0,0,0,1.15-.3A1.2,1.2,0,0,0,29.89,10.2Zm-7.66,10-2.09,2.09a.19.19,0,0,1-.28,0l-2.09-2.09a.2.2,0,0,1,0-.27l2.09-2.09a.19.19,0,0,1,.28,0l2.09,2.09A.2.2,0,0,1,22.23,20.15Z" style="fill:#fff"/></svg>