{"asset":{"version":"2.0","generator":"Babylon2Gltf2017","copyright":"2017 (c) BabylonJS"},"scene":0,"scenes":[{"nodes":[3]}],"nodes":[{"mesh":0,"translation":[5.0,0.0,0.0],"rotation":[0.0,-0.923879564,0.0,-0.382683367],"scale":[1.0,1.0,1.0],"name":"SphereMetallicRoughness"},{"mesh":1,"translation":[0.0,0.0,0.0],"rotation":[0.0,0.0,0.0,-1.0],"scale":[1.0,1.0,1.0],"name":"SphereBaseColor"},{"mesh":2,"translation":[-5.0,0.0,0.0],"rotation":[0.0,0.0,0.0,-1.0],"scale":[1.0,1.0,1.0],"name":"SphereBump"},{"children":[0,1,2],"translation":[0.0,0.0,0.0],"rotation":[0.0,1.0,0.0,-4.371139E-08],"scale":[1.0,1.0,-1.0],"name":"root"}],"meshes":[{"primitives":[{"attributes":{"POSITION":1,"NORMAL":2,"TEXCOORD_0":3},"indices":0,"mode":4,"material":0}],"name":"SphereMetallicRoughness"},{"primitives":[{"attributes":{"POSITION":5,"NORMAL":6,"TEXCOORD_0":7},"indices":4,"mode":4,"material":1}],"name":"SphereBaseColor"},{"primitives":[{"attributes":{"POSITION":9,"NORMAL":10,"TEXCOORD_0":11},"indices":8,"mode":4,"material":2}],"name":"SphereBump"}],"accessors":[{"bufferView":0,"componentType":5123,"count":2880,"type":"SCALAR","name":"accessorIndices"},{"bufferView":1,"componentType":5126,"count":2880,"max":[2.0,2.0,2.0],"min":[-2.0,-2.0,-2.0],"type":"VEC3","name":"accessorPositions"},{"bufferView":1,"byteOffset":34560,"componentType":5126,"count":2880,"type":"VEC3","name":"accessorNormals"},{"bufferView":2,"componentType":5126,"count":2880,"type":"VEC2","name":"accessorUVs"},{"bufferView":0,"byteOffset":5760,"componentType":5123,"count":2880,"type":"SCALAR","name":"accessorIndices"},{"bufferView":1,"byteOffset":69120,"componentType":5126,"count":2880,"max":[2.0,2.0,2.0],"min":[-2.0,-2.0,-2.0],"type":"VEC3","name":"accessorPositions"},{"bufferView":1,"byteOffset":103680,"componentType":5126,"count":2880,"type":"VEC3","name":"accessorNormals"},{"bufferView":2,"byteOffset":23040,"componentType":5126,"count":2880,"type":"VEC2","name":"accessorUVs"},{"bufferView":0,"byteOffset":11520,"componentType":5123,"count":2880,"type":"SCALAR","name":"accessorIndices"},{"bufferView":1,"byteOffset":138240,"componentType":5126,"count":2880,"max":[2.0,2.0,2.0],"min":[-2.0,-2.0,-2.0],"type":"VEC3","name":"accessorPositions"},{"bufferView":1,"byteOffset":172800,"componentType":5126,"count":2880,"type":"VEC3","name":"accessorNormals"},{"bufferView":2,"byteOffset":46080,"componentType":5126,"count":2880,"type":"VEC2","name":"accessorUVs"}],"bufferViews":[{"buffer":0,"byteLength":17280,"name":"bufferViewScalar"},{"buffer":0,"byteOffset":17280,"byteLength":207360,"byteStride":12,"name":"bufferViewFloatVec3"},{"buffer":0,"byteOffset":224640,"byteLength":69120,"byteStride":8,"name":"bufferViewFloatVec2"}],"buffers":[{"uri":"PBR_Textures.bin","byteLength":293760}],"materials":[{"pbrMetallicRoughness":{"baseColorFactor":[1.0,0.0,0.0,1.0],"metallicFactor":1.0,"roughnessFactor":1.0,"metallicRoughnessTexture":{"index":0}},"emissiveFactor":[0.0,0.0,0.0],"name":"Material #40"},{"pbrMetallicRoughness":{"baseColorFactor":[1.0,1.0,1.0,1.0],"baseColorTexture":{"index":1},"metallicFactor":1.0,"roughnessFactor":1.0},"emissiveFactor":[0.0,0.0,0.0],"name":"Material #37"},{"pbrMetallicRoughness":{"baseColorFactor":[0.0,0.0,1.0,1.0],"metallicFactor":1.0,"roughnessFactor":1.0},"normalTexture":{"index":2},"emissiveFactor":[0.0,0.0,0.0],"name":"Material #37"}],"textures":[{"sampler":0,"source":0,"name":"Material #40_metallicRoughness.jpg"},{"sampler":1,"source":1,"name":"Material #37_baseColor.jpg"},{"sampler":2,"source":2,"name":"bump.jpg"}],"images":[{"uri":"Material #40_metallicRoughness.jpg"},{"uri":"Material #37_baseColor.jpg"},{"uri":"bump.jpg"}],"samplers":[{"magFilter":9729,"minFilter":9987,"wrapS":10497,"wrapT":10497},{"magFilter":9729,"minFilter":9987,"wrapS":10497,"wrapT":10497},{"magFilter":9729,"minFilter":9987,"wrapS":10497,"wrapT":10497}]}