<svg xmlns="http://www.w3.org/2000/svg" viewBox="0 0 70 70"><defs><style>.cls-1{fill:#fff;}.cls-2{fill:none;}</style></defs><title>EnvironmentIcon</title><g id="Layer_2" data-name="Layer 2"><g id="Page_Elements" data-name="Page Elements"><path class="cls-1" d="M34.89,21.24A13.19,13.19,0,1,0,48.07,34.42,13.19,13.19,0,0,0,34.89,21.24ZM34,33.43a.31.31,0,0,0,.44,0l1.13-1.14a.29.29,0,0,0,0-.32h.46a2.38,2.38,0,0,0,2.6.12l.61,0a.36.36,0,0,0,.07.17l1.14,1.14a.31.31,0,0,0,.22.09.3.3,0,0,0,.21-.09A.3.3,0,0,0,41,33l-.78-.79c3.69.41,6.21,1.23,6.21,2.18,0,1.36-5.14,2.46-11.49,2.46S23.4,35.78,23.4,34.42,28.54,32,34.89,32h.17l-1,1A.32.32,0,0,0,34,33.43Zm3.48-1.61A1.84,1.84,0,1,1,39.34,30,1.84,1.84,0,0,1,37.5,31.82Zm-2.61-8.9A11.5,11.5,0,0,1,46.35,33.54c-1.13-1-4.17-1.56-7.14-1.81A2.42,2.42,0,0,0,40,30a2.45,2.45,0,1,0-4.89,0,2.41,2.41,0,0,0,.58,1.57h-.75c-3.53,0-9.76.45-11.46,2A11.5,11.5,0,0,1,34.89,22.92Zm0,23a11.48,11.48,0,0,1-11.4-10.07c2.68,1.81,10.36,1.87,11.4,1.87s8.72-.06,11.4-1.87A11.48,11.48,0,0,1,34.89,45.92Z"/><path class="cls-1" d="M37.52,27.3h0a.31.31,0,0,0,.31-.3V24.89a.3.3,0,0,0-.3-.31h0a.31.31,0,0,0-.31.31V27A.31.31,0,0,0,37.52,27.3Z"/><path class="cls-1" d="M35.19,28.07a.31.31,0,0,0,.22.09.27.27,0,0,0,.21-.09.3.3,0,0,0,0-.43L34.49,26.5a.3.3,0,0,0-.43,0,.31.31,0,0,0,0,.43Z"/><path class="cls-1" d="M39.63,28.19a.31.31,0,0,0,.22-.09L41,27a.3.3,0,1,0-.43-.43l-1.14,1.14a.3.3,0,0,0,0,.43A.31.31,0,0,0,39.63,28.19Z"/><path class="cls-1" d="M38.6,27.4l.07,0a.19.19,0,0,0,.17-.12l.25-.61a.2.2,0,0,0-.1-.25.2.2,0,0,0-.25.11l-.25.61A.19.19,0,0,0,38.6,27.4Z"/><path class="cls-1" d="M36.21,27.29a.18.18,0,0,0,.17.11l.07,0a.17.17,0,0,0,.1-.24l-.26-.61a.18.18,0,0,0-.24-.1.19.19,0,0,0-.1.24Z"/><path class="cls-1" d="M34.82,28.65l-.61-.25a.18.18,0,0,0-.24.1.19.19,0,0,0,.1.24l.61.25h.07a.18.18,0,0,0,.07-.35Z"/><path class="cls-1" d="M34.67,30.93l-.61.26a.18.18,0,0,0-.1.24.18.18,0,0,0,.17.11h.07l.61-.26a.18.18,0,0,0,.1-.24A.19.19,0,0,0,34.67,30.93Z"/><path class="cls-1" d="M36,33.51l.07,0a.18.18,0,0,0,.17-.12l.25-.61a.18.18,0,0,0-.1-.24.18.18,0,0,0-.24.1l-.25.61A.18.18,0,0,0,36,33.51Z"/><path class="cls-1" d="M38.71,33.43a.18.18,0,0,0,.17.11H39a.18.18,0,0,0,.09-.25l-.25-.61a.19.19,0,1,0-.34.15Z"/><path class="cls-1" d="M40.94,31.22,40.32,31a.19.19,0,0,0-.24.1.18.18,0,0,0,.1.24l.62.25.07,0a.19.19,0,0,0,.17-.12A.19.19,0,0,0,40.94,31.22Z"/><path class="cls-1" d="M40.27,29h.07l.61-.26a.18.18,0,0,0-.14-.34l-.61.26a.18.18,0,0,0-.1.24A.18.18,0,0,0,40.27,29Z"/><path class="cls-1" d="M32.41,30.26h2.11a.31.31,0,1,0,0-.61H32.41a.31.31,0,0,0,0,.61Z"/><path class="cls-1" d="M37.48,35.38h0a.32.32,0,0,0,.31-.31V33a.31.31,0,0,0-.31-.3h0a.3.3,0,0,0-.3.3v2.11A.31.31,0,0,0,37.48,35.38Z"/><path class="cls-1" d="M40.49,29.69a.31.31,0,1,0,0,.62H42.6a.31.31,0,0,0,.3-.31.3.3,0,0,0-.3-.3Z"/><rect class="cls-2" width="70" height="70"/></g></g></svg>