<svg viewBox="0 0 24 24" version="1.1" xmlns="http://www.w3.org/2000/svg" xmlns:xlink="http://www.w3.org/1999/xlink" width="24" height="24">
  <!-- Generator: Sketch 63.1 (92452) - https://sketch.com -->
  <title>ic_fluent_add_24_regular</title>
  <desc>Created with Sketch.</desc>
  <g id="ðŸ”-Product-Icons" stroke="none" stroke-width="1" fill="none" fill-rule="evenodd">
    <g id="ic_fluent_add_24_regular" fill="white" fill-rule="nonzero">
      <path d="M11.7498476,3 C12.1295434,3 12.4433959,3.28201302 12.4931327,3.64807848 L12.5,3.74984765 L12.5012052,11 L19.7542949,11 C20.1685084,11 20.5042949,11.3357864 20.5042949,11.75 C20.5042949,12.1296958 20.222141,12.443491 19.8560654,12.4931534 L19.7542949,12.5 L12.5012052,12.5 L12.50325,19.7491118 C12.5033342,20.1633254 12.1676159,20.4992642 11.7534024,20.4992642 C11.3737066,20.4992642 11.0598541,20.2172511 11.0101173,19.8511857 L11.0032501,19.7494165 L11.0012052,12.5 L3.75220519,12.5 C3.33799163,12.5 3.00220519,12.1642136 3.00220519,11.75 C3.00220519,11.3703042 3.28435907,11.056509 3.65043463,11.0068466 L3.75220519,11 L11.0012052,11 L11,3.75015235 C10.9999159,3.3359388 11.3356341,3 11.7498476,3 Z" id="ðŸŽ¨-Color"></path>
    </g>
  </g>
</svg>