{
    "asset" : {
        "generator" : "Khronos glTF Blender I/O v1.6.4",
        "version" : "2.0"
    },
    "extensionsUsed" : ["MSFT_lod"],
    "scene" : 0,
    "scenes" : [
        {
            "name" : "Scene",
            "nodes" : [
                2
            ]
        }
    ],
    "nodes" : [
        {
            "mesh" : 0,
            "name" : "LOD 2"
        },
        {
            "mesh" : 1,
            "name" : "LOD 1"
        },
        {
            "mesh" : 2,
            "name" : "LOD 0",
            "extensions": {
                "MSFT_lod": {
                    "ids": [
                        1,
                        0
                    ]
                }
            },
            "extras": {
                "MSFT_screencoverage": [
                    0.2,
                    0.05,
                    0.001
                ]
            }
        }
    ],
    "meshes" : [
        {
            "name" : "Sphere",
            "primitives" : [
                {
                    "attributes" : {
                        "POSITION" : 0,
                        "NORMAL" : 1
                    },
                    "indices" : 2
                }
            ]
        },
        {
            "name" : "Sphere.001",
            "primitives" : [
                {
                    "attributes" : {
                        "POSITION" : 3,
                        "NORMAL" : 4
                    },
                    "indices" : 5
                }
            ]
        },
        {
            "name" : "Sphere.002",
            "primitives" : [
                {
                    "attributes" : {
                        "POSITION" : 6,
                        "NORMAL" : 7
                    },
                    "indices" : 8
                }
            ]
        }
    ],
    "accessors" : [
        {
            "bufferView" : 0,
            "componentType" : 5126,
            "count" : 24,
            "max" : [
                1.195096492767334,
                1.137204647064209,
                1.2373459339141846
            ],
            "min" : [
                -1.2373497486114502,
                -1.1723557710647583,
                -1.1918995380401611
            ],
            "type" : "VEC3"
        },
        {
            "bufferView" : 1,
            "componentType" : 5126,
            "count" : 24,
            "type" : "VEC3"
        },
        {
            "bufferView" : 2,
            "componentType" : 5123,
            "count" : 36,
            "type" : "SCALAR"
        },
        {
            "bufferView" : 3,
            "componentType" : 5126,
            "count" : 216,
            "max" : [
                1.0336768627166748,
                1.012019395828247,
                1.0336788892745972
            ],
            "min" : [
                -1.0336815118789673,
                -1.0120211839675903,
                -1.0336735248565674
            ],
            "type" : "VEC3"
        },
        {
            "bufferView" : 4,
            "componentType" : 5126,
            "count" : 216,
            "type" : "VEC3"
        },
        {
            "bufferView" : 5,
            "componentType" : 5123,
            "count" : 324,
            "type" : "SCALAR"
        },
        {
            "bufferView" : 6,
            "componentType" : 5126,
            "count" : 3864,
            "max" : [
                1.000000238418579,
                1.0016438961029053,
                1.0000022649765015
            ],
            "min" : [
                -1.0000017881393433,
                -1.0016461610794067,
                -0.9999995231628418
            ],
            "type" : "VEC3"
        },
        {
            "bufferView" : 7,
            "componentType" : 5126,
            "count" : 3864,
            "type" : "VEC3"
        },
        {
            "bufferView" : 8,
            "componentType" : 5123,
            "count" : 5796,
            "type" : "SCALAR"
        }
    ],
    "bufferViews" : [
        {
            "buffer" : 0,
            "byteLength" : 288,
            "byteOffset" : 0
        },
        {
            "buffer" : 0,
            "byteLength" : 288,
            "byteOffset" : 288
        },
        {
            "buffer" : 0,
            "byteLength" : 72,
            "byteOffset" : 576
        },
        {
            "buffer" : 0,
            "byteLength" : 2592,
            "byteOffset" : 648
        },
        {
            "buffer" : 0,
            "byteLength" : 2592,
            "byteOffset" : 3240
        },
        {
            "buffer" : 0,
            "byteLength" : 648,
            "byteOffset" : 5832
        },
        {
            "buffer" : 0,
            "byteLength" : 46368,
            "byteOffset" : 6480
        },
        {
            "buffer" : 0,
            "byteLength" : 46368,
            "byteOffset" : 52848
        },
        {
            "buffer" : 0,
            "byteLength" : 11592,
            "byteOffset" : 99216
        }
    ],
    "buffers" : [
        {
            "byteLength" : 110808,
            "uri" : "data:application/octet-stream;base64,"
        }
    ]
}
