<svg xmlns="http://www.w3.org/2000/svg" width="30" height="30" viewBox="0 0 30 30"><path d="M18.23,14.57a4.48,4.48,0,1,1-4.47,4.48A4.48,4.48,0,0,1,18.23,14.57Zm0,1.63h-.07a.4.4,0,0,0-.33.32v2.11H15.71a.41.41,0,0,0-.32.32v.15a.42.42,0,0,0,.32.33h2.11v2.11a.4.4,0,0,0,.33.33h.14a.4.4,0,0,0,.33-.33V19.45h2.11a.42.42,0,0,0,.32-.33V19a.41.41,0,0,0-.32-.32H18.64V16.53a.4.4,0,0,0-.33-.32Zm-5.47,2.85a5.44,5.44,0,0,1,.82-2.88V7.7h3.85v1a.61.61,0,0,0,1.22,0V7.09A.61.61,0,0,0,18,6.48H7.91a.61.61,0,0,0-.61.61V8.71a.61.61,0,1,0,1.21,0v-1h3.85V18.24H11.15a.61.61,0,1,0,0,1.21h1.63C12.77,19.32,12.76,19.18,12.76,19.05Z" style="fill:#333"/></svg>