<svg xmlns="http://www.w3.org/2000/svg" width="40" height="40" viewBox="0 0 40 40"><path d="M15,12a3,3,0,0,0-3,3v3.5a.5.5,0,0,0,1,0V15a2,2,0,0,1,2-2h3.5a.5.5,0,0,0,0-1Z" style="fill:#333"/><path d="M21.5,12a.5.5,0,0,0,0,1H25a2,2,0,0,1,2,2v3.5a.5.5,0,0,0,1,0V15a3,3,0,0,0-3-3Z" style="fill:#333"/><path d="M12.5,21a.5.5,0,0,1,.5.5V25a2,2,0,0,0,2,2h3.5a.5.5,0,0,1,0,1H15a3,3,0,0,1-3-3V21.5A.5.5,0,0,1,12.5,21Z" style="fill:#333"/><path d="M28,21.5a.5.5,0,0,0-1,0V25a2,2,0,0,1-2,2H21.5a.5.5,0,0,0,0,1H25a3,3,0,0,0,3-3Z" style="fill:#333"/></svg>