<svg xmlns="http://www.w3.org/2000/svg" width="40" height="40" viewBox="0 0 40 40"><path d="M25.05,13.54a3,3,0,0,1,3,3v6.86a3,3,0,0,1-3,3H15a3,3,0,0,1-3-3V16.57a3,3,0,0,1,3-3Zm0,1.21H15a1.82,1.82,0,0,0-1.82,1.82v6.86A1.82,1.82,0,0,0,15,25.25h10.1a1.82,1.82,0,0,0,1.82-1.82V16.57A1.82,1.82,0,0,0,25.05,14.75Zm0,6.06a.61.61,0,0,1,.61.6v1A1.62,1.62,0,0,1,24,24H23a.61.61,0,1,1,0-1.21h1a.4.4,0,0,0,.4-.41v-1A.6.6,0,0,1,25.05,20.81Zm-10.1,0a.6.6,0,0,1,.61.6v1a.4.4,0,0,0,.4.41h1A.61.61,0,1,1,17,24H16a1.62,1.62,0,0,1-1.62-1.62v-1A.61.61,0,0,1,15,20.81ZM16,16h1a.61.61,0,0,1,.61.61.61.61,0,0,1-.53.6H16a.42.42,0,0,0-.4.33v1.09a.61.61,0,0,1-1.21.08V17.58A1.63,1.63,0,0,1,15.84,16ZM24,16a1.62,1.62,0,0,1,1.62,1.62v1a.61.61,0,0,1-.61.6.6.6,0,0,1-.61-.6v-1a.4.4,0,0,0-.4-.41H23A.61.61,0,1,1,23,16Z" style="fill:#fff"/></svg>