<svg id="icons" xmlns="http://www.w3.org/2000/svg" viewBox="0 0 40 40"><defs><style>.cls-1{fill:#333;}</style></defs><path class="cls-1" d="M25,12.76A2.21,2.21,0,0,1,27.24,15V25A2.21,2.21,0,0,1,25,27.24H15A2.21,2.21,0,0,1,12.76,25V15A2.21,2.21,0,0,1,15,12.76ZM25,14H15a1,1,0,0,0-1,1V25a1,1,0,0,0,1,1H25a1,1,0,0,0,1-1V15A1,1,0,0,0,25,14Zm-6.64,8,5.21-5.2a.59.59,0,0,1,.85,0,.61.61,0,0,1,.06.78l-.06.07-5.63,5.63a.6.6,0,0,1-.79.06L18,23.24l-2.41-2.41a.61.61,0,0,1,0-.85.6.6,0,0,1,.79-.06l.06.06,2,2,5.21-5.2Z"/></svg>