<svg xmlns="http://www.w3.org/2000/svg" width="30" height="30" viewBox="0 0 30 30"><path d="M10.92,6.83a.61.61,0,0,1,.57.4l2.41,6.52v0l.18.49L13.42,16l-.51-1.38h-4L8,17.05a.61.61,0,0,1-.79.36.62.62,0,0,1-.36-.79l1-2.84v0l2.41-6.52A.62.62,0,0,1,10.92,6.83ZM9.38,13.37h3.07L10.92,9.21Z" style="fill:#333"/><path d="M16.48,10.48a.6.6,0,0,1,.57-.38.59.59,0,0,1,.56.39l4.54,11.45h.4a.62.62,0,1,1,0,1.23h-2a.62.62,0,0,1,0-1.23h.32l-1-2.45H14.22l-1,2.45h.32a.62.62,0,0,1,0,1.23h-2a.62.62,0,0,1,0-1.23h.4Zm2.9,7.78L17,12.37l-2.33,5.89Z" style="fill:#333"/></svg>