<svg id="icons" xmlns="http://www.w3.org/2000/svg" viewBox="0 0 40 40"><defs><style>.cls-1{fill:#333;}</style></defs><path class="cls-1" d="M23.86,11.86a2.65,2.65,0,0,1,2.65,2.65v9.36a2.65,2.65,0,0,1-2.65,2.65H14.5a2.65,2.65,0,0,1-2.65-2.65V14.51a2.65,2.65,0,0,1,2.65-2.65Zm.47,13.36-4.72-4.63a.62.62,0,0,0-.79-.06l-.07.06L14,25.22a1.4,1.4,0,0,0,.47.08h9.36a1.4,1.4,0,0,0,.47-.08l-4.72-4.63Zm-.47-12.13H14.5a1.42,1.42,0,0,0-1.43,1.42v9.36a1.33,1.33,0,0,0,.09.49l4.74-4.65a1.84,1.84,0,0,1,2.46-.09l.1.09,4.74,4.65a1.33,1.33,0,0,0,.09-.49V14.51A1.42,1.42,0,0,0,23.86,13.09Zm-2,1.62A1.84,1.84,0,1,1,20,16.55,1.83,1.83,0,0,1,21.83,14.71Zm0,1.22a.61.61,0,0,0-.61.62.61.61,0,0,0,1.22,0A.61.61,0,0,0,21.83,15.93Z"/></svg>