<svg xmlns="http://www.w3.org/2000/svg" width="40" height="40" viewBox="0 0 40 40"><path d="M26.06,14.34H13.94A3.64,3.64,0,0,0,10.3,18V22a3.64,3.64,0,0,0,3.64,3.63H26.06A3.64,3.64,0,0,0,29.7,22V18A3.64,3.64,0,0,0,26.06,14.34Zm0,10.11H13.94a2.42,2.42,0,0,1-.81-.15l1.41-1.39a3.24,3.24,0,0,0,1.45.36A3.28,3.28,0,0,0,19.26,20a3.18,3.18,0,0,0-.35-1.43l.64-.63a.54.54,0,0,1,.74,0L27,24.26A2.43,2.43,0,0,1,26.06,24.45ZM14,20a2,2,0,1,1,2,2A2,2,0,0,1,14,20Zm14.52,2a2.41,2.41,0,0,1-.41,1.34l-6.84-6.44a1.91,1.91,0,0,0-2.67,0l-.53.52a3.22,3.22,0,0,0-2-.75A3.28,3.28,0,0,0,12.72,20a3.23,3.23,0,0,0,.73,2L12,23.47A2.4,2.4,0,0,1,11.51,22V18a2.43,2.43,0,0,1,2.43-2.42H26.06A2.43,2.43,0,0,1,28.49,18Z" style="fill:#fff"/></svg>