<svg xmlns="http://www.w3.org/2000/svg" width="40" height="40" viewBox="0 0 40 40"><path d="M26.31,14.3a1.83,1.83,0,0,1,1.83,1.83v7.74a1.83,1.83,0,0,1-1.83,1.83H13.69a1.83,1.83,0,0,1-1.83-1.83V16.13a1.83,1.83,0,0,1,1.83-1.83Zm0,1.22H13.69a.61.61,0,0,0-.61.61v7.74a.61.61,0,0,0,.61.61H26.31a.61.61,0,0,0,.61-.61V16.13A.61.61,0,0,0,26.31,15.52ZM15.73,22h8.55a.61.61,0,0,1,.08,1.22H15.73A.61.61,0,0,1,15.65,22Zm7.93-2.85a.82.82,0,0,1,.82.82.82.82,0,1,1-.82-.82Zm-4.88,0a.82.82,0,0,1,.82.82.82.82,0,1,1-.82-.82Zm-2.44,0a.82.82,0,0,1,.82.82.82.82,0,0,1-.82.81.81.81,0,0,1-.81-.81A.82.82,0,0,1,16.34,19.18Zm4.89,0A.82.82,0,0,1,22,20a.81.81,0,0,1-.81.81.82.82,0,0,1-.82-.81A.82.82,0,0,1,21.23,19.18Zm-6.11-2.44a.82.82,0,0,1,.81.82.81.81,0,0,1-.81.81.82.82,0,0,1-.82-.81A.82.82,0,0,1,15.12,16.74Zm2.44,0a.82.82,0,0,1,.81.82.81.81,0,0,1-.81.81.82.82,0,0,1-.82-.81A.82.82,0,0,1,17.56,16.74Zm2.44,0a.82.82,0,0,1,.81.82.81.81,0,0,1-.81.81.82.82,0,0,1-.82-.81A.82.82,0,0,1,20,16.74Zm2.44,0a.82.82,0,0,1,.81.82.81.81,0,1,1-1.62,0A.82.82,0,0,1,22.44,16.74Zm2.44,0a.82.82,0,0,1,.82.82.82.82,0,0,1-.82.81.81.81,0,0,1-.81-.81A.82.82,0,0,1,24.88,16.74Z" style="fill:#fff"/></svg>