<svg xmlns="http://www.w3.org/2000/svg" width="40" height="40" viewBox="0 0 40 40"><path d="M19.82,18.55a.62.62,0,0,0-.86,0,.62.62,0,0,0,0,.87l.58.58-.58.58a.62.62,0,0,0,0,.87.62.62,0,0,0,.86,0l.59-.59.58.59a.61.61,0,0,0,.86,0,.6.6,0,0,0,0-.86L21.27,20l.58-.58a.62.62,0,0,0,0-.87.62.62,0,0,0-.86,0l-.58.59Z" style="fill:#fff"/><path d="M14.49,18.55a.62.62,0,0,1,.86,0l.59.59.58-.59a.62.62,0,0,1,.87.87L16.8,20l.59.58a.62.62,0,0,1-.87.87l-.58-.59-.59.59a.62.62,0,0,1-.86,0,.63.63,0,0,1,0-.87l.59-.58-.59-.58A.63.63,0,0,1,14.49,18.55Z" style="fill:#fff"/><path d="M23.65,21.22a.6.6,0,0,0-.6.61.61.61,0,0,0,.6.61h1.43a.61.61,0,0,0,.6-.61.6.6,0,0,0-.6-.61Z" style="fill:#fff"/><path d="M14.52,14.32A2.64,2.64,0,0,0,11.88,17v6.1a2.64,2.64,0,0,0,2.64,2.63h11a2.64,2.64,0,0,0,2.64-2.63V17a2.64,2.64,0,0,0-2.64-2.63ZM13.1,17a1.42,1.42,0,0,1,1.42-1.42h11A1.42,1.42,0,0,1,26.9,17v6.1a1.42,1.42,0,0,1-1.42,1.42h-11a1.42,1.42,0,0,1-1.42-1.42Z" style="fill:#fff"/></svg>