<svg xmlns="http://www.w3.org/2000/svg" width="40" height="40" viewBox="0 0 40 40"><path d="M23.86,16.14a.62.62,0,0,1,.18.43v2a.61.61,0,0,1-1.21,0V18l-1.39,1.39a.61.61,0,1,1-.86-.86L22,17.17h-.56a.6.6,0,0,1-.6-.6.61.61,0,0,1,.6-.61h2A.62.62,0,0,1,23.86,16.14Z" style="fill:#333"/><path d="M16,23.43a.64.64,0,0,0,.18.43.62.62,0,0,0,.43.18h2a.61.61,0,0,0,.6-.61.6.6,0,0,0-.6-.6H18l1.39-1.39a.61.61,0,1,0-.86-.86L17.17,22v-.56a.6.6,0,0,0-.6-.6.61.61,0,0,0-.61.6Z" style="fill:#333"/><path d="M11.93,15.76a2.22,2.22,0,0,1,2.22-2.22h11.7a2.22,2.22,0,0,1,2.22,2.22v8.48a2.22,2.22,0,0,1-2.22,2.22H14.15a2.22,2.22,0,0,1-2.22-2.22Zm2.22-1a1,1,0,0,0-1,1v8.48a1,1,0,0,0,1,1h11.7a1,1,0,0,0,1-1V15.76a1,1,0,0,0-1-1Z" style="fill:#333"/></svg>