<svg xmlns="http://www.w3.org/2000/svg" width="30" height="30" viewBox="0 0 30 30"><path d="M15,11a.61.61,0,0,1,.61.61v2.83h2.83a.61.61,0,0,1,0,1.22H15.61v2.83a.61.61,0,0,1-1.22,0V15.61H11.56a.61.61,0,1,1,0-1.22h2.83V11.56A.61.61,0,0,1,15,11Z" style="fill:#333"/><path d="M7.71,10.34a2.63,2.63,0,0,1,2.63-2.63h9.32a2.63,2.63,0,0,1,2.63,2.63v9.32a2.63,2.63,0,0,1-2.63,2.63H10.34a2.63,2.63,0,0,1-2.63-2.63Zm2.63-1.41a1.41,1.41,0,0,0-1.41,1.41v9.32a1.41,1.41,0,0,0,1.41,1.41h9.32a1.41,1.41,0,0,0,1.41-1.41V10.34a1.41,1.41,0,0,0-1.41-1.41Z" style="fill:#333"/></svg>