<svg viewBox="0 0 24 24" version="1.1" xmlns="http://www.w3.org/2000/svg" xmlns:xlink="http://www.w3.org/1999/xlink" width="5" height="24">
  <!-- Generator: Sketch 59.1 (86144) - https://sketch.com -->
  <title>ic_fluent_color_24_regular</title>
  <desc>Created with Sketch.</desc>
  <g id="ðŸ”-Product-Icons" stroke="none" stroke-width="1" fill="none" fill-rule="evenodd">
    <g id="ic_fluent_color_24_regular" fill="white" fill-rule="nonzero">
      <path d="M3.83904058,5.85749561 C6.78004581,1.94188971 12.8686707,0.802505202 17.2029394,3.497377 C21.4827525,6.15839057 23.0567972,11.2744655 21.303866,16.0747407 C19.648689,20.6073231 15.2875295,22.403209 12.1442101,20.1231428 C10.9667425,19.2690444 10.5102901,18.1984035 10.2896576,16.4593132 L10.1842745,15.4713913 L10.1388589,15.073954 C10.0162342,14.1399065 9.82780748,13.7214296 9.43453605,13.5022264 C8.89894535,13.2036966 8.54231757,13.1967226 7.83905282,13.4692784 L7.48794193,13.6148779 L7.30920754,13.6928218 C6.29543196,14.1331038 5.62104161,14.2877923 4.76804588,14.1090543 L4.56779442,14.0618665 L4.40426138,14.0152691 C1.61529547,13.1510586 1.20220653,9.36813303 3.83904058,5.85749561 Z M4.8232597,12.5739125 L4.94616428,12.610372 L5.080113,12.6412161 C5.51918878,12.7281665 5.89444039,12.6556749 6.51713486,12.3993955 L7.11930681,12.1421347 C8.32144994,11.6492191 9.1045463,11.6010233 10.1648305,12.1920088 C11.0824191,12.7034581 11.4400583,13.4895978 11.62247,14.8516511 L11.6756637,15.310802 L11.729873,15.8425189 L11.7770095,16.2649431 C11.9490842,17.6262078 12.2619162,18.3554553 13.024955,18.90894 C15.3002886,20.5593963 18.5593937,19.2173263 19.8948725,15.5602143 C21.411142,11.4080201 20.0689941,7.04567303 16.4109117,4.77122636 C12.736718,2.48676231 7.51248742,3.46438986 5.03840796,6.75833849 C2.96361994,9.52067707 3.21809532,12.0378944 4.8232597,12.5739125 Z M16.0477462,10.5795744 C15.8690689,9.91274179 16.264797,9.2273206 16.9316297,9.04864333 C17.5984623,8.86996607 18.2838835,9.26569418 18.4625608,9.93252681 C18.641238,10.5993594 18.2455099,11.2847806 17.5786773,11.4634579 C16.9118447,11.6421352 16.2264235,11.2464071 16.0477462,10.5795744 Z M16.5423361,14.0682389 C16.3636589,13.4014063 16.759387,12.7159851 17.4262196,12.5373078 C18.0930522,12.3586306 18.7784734,12.7543587 18.9571507,13.4211913 C19.135828,14.0880239 18.7400999,14.7734451 18.0732672,14.9521224 C17.4064346,15.1307997 16.7210134,14.7350716 16.5423361,14.0682389 Z M14.0692386,7.57689062 C13.8905613,6.91005799 14.2862894,6.2246368 14.9531221,6.04595953 C15.6199547,5.86728227 16.3053759,6.26301038 16.4840531,6.92984301 C16.6627304,7.59667564 16.2670023,8.28209683 15.6001697,8.4607741 C14.933337,8.63945136 14.2479158,8.24372325 14.0692386,7.57689062 Z M14.0407569,16.5752747 C13.8620796,15.9084421 14.2578077,15.2230209 14.9246403,15.0443437 C15.591473,14.8656664 16.2768942,15.2613945 16.4555714,15.9282271 C16.6342487,16.5950598 16.2385206,17.280481 15.571688,17.4591582 C14.9048553,17.6378355 14.2194341,17.2421074 14.0407569,16.5752747 Z M10.5438339,6.60529725 C10.3651566,5.93846462 10.7608847,5.25304343 11.4277174,5.07436616 C12.09455,4.8956889 12.7799712,5.29141701 12.9586484,5.95824964 C13.1373257,6.62508227 12.7415976,7.31050346 12.074765,7.48918073 C11.4079323,7.66785799 10.7225111,7.27212988 10.5438339,6.60529725 Z" id="ðŸŽ¨-Color"></path>
    </g>
  </g>
</svg>