{"asset":{"version":"2.0","generator":"gen-boxes.js"},"scene":0,"scenes":[{"nodes":[0]}],"nodes":[{"mesh":0,"name":"box_100"}],"meshes":[{"name":"box_100","primitives":[{"attributes":{"POSITION":0,"NORMAL":1},"indices":2,"material":0}]}],"materials":[{"name":"boxMat","pbrMetallicRoughness":{"baseColorFactor":[0.8,0.3,0.2,1],"metallicFactor":0,"roughnessFactor":0.6}}],"buffers":[{"byteLength":648,"uri":"data:application/octet-stream;base64,"}],"bufferViews":[{"buffer":0,"byteOffset":0,"byteLength":288,"target":34962},{"buffer":0,"byteOffset":288,"byteLength":288,"target":34962},{"buffer":0,"byteOffset":576,"byteLength":72,"target":34963}],"accessors":[{"bufferView":0,"componentType":5126,"count":24,"type":"VEC3","min":[-50,0,-50],"max":[50,100,50]},{"bufferView":1,"componentType":5126,"count":24,"type":"VEC3"},{"bufferView":2,"componentType":5123,"count":36,"type":"SCALAR"}]}