<svg xmlns="http://www.w3.org/2000/svg" viewBox="0 0 55 55"><defs><style>.cls-1{fill:none;}</style></defs><title>inspectorButton</title><g id="Icon_buttons" data-name="Icon buttons"><rect class="cls-1" width="55" height="55"/><path d="M27.4,31.63l-1.25,1.25V26.7L19.9,23.57v8l5.52,2.77-.31,1.25-6.46-3.24V22.17l8.12-4.06,8.13,4.06v3a3.51,3.51,0,0,0-1.25.43v-2L27.4,26.7Zm-6.73-9.07,6.1,3.05,6.11-3.05-6.11-3Zm16.73,6a2,2,0,0,1-.57,1.37l-7,7-3.68.92.91-3.68,7-7a1.83,1.83,0,0,1,.63-.42,2.07,2.07,0,0,1,.74-.14,2,2,0,0,1,.77.15,2,2,0,0,1,.62.4,2.06,2.06,0,0,1,.42.62A2,2,0,0,1,37.4,28.56Zm-1.25,0a.67.67,0,0,0-.2-.5.76.76,0,0,0-.51-.19.75.75,0,0,0-.26.05.46.46,0,0,0-.22.14L28.2,34.82l-.33,1.31,1.31-.33,6.76-6.75A.65.65,0,0,0,36.15,28.56Z"/></g></svg>