<?xml version="1.0" encoding="utf-8"?>
<!-- Generator: Adobe Illustrator 23.0.3, SVG Export Plug-In . SVG Version: 6.00 Build 0)  -->
<svg version="1.1" id="Calque_1" xmlns="http://www.w3.org/2000/svg" xmlns:xlink="http://www.w3.org/1999/xlink" x="0px" y="0px"
	 viewBox="0 0 630 630" style="enable-background:new 0 0 630 630;" xml:space="preserve">
<style type="text/css">
	.st0{fill:#FFFFFF;}
</style>
<g>
	<path class="st0" d="M491,400c-24.5-10.6-32.3-15.8-36.5-24.5c-2-4-2.7-6.9-2.7-11.8c-0.1-16.7,12.2-26.7,31.3-25.4
		c13,0.9,21.5,6,29.6,17.8c2.7,4,5.1,6.6,5.7,6.2c16.6-10.3,44-28.7,43.8-29.5c-0.7-2.7-9.3-14-15.1-20.2
		c-11.2-11.6-23.4-18.7-39.4-22.7c-10.9-2.7-36.7-3.5-47.8-1.4c-34.2,6.5-57.9,28.4-64.6,59.8c-1.9,9-1.3,31.3,1.1,40.2
		c2.9,10.7,9.9,23.5,17.3,31.5c12.8,13.8,26.8,22.5,59.3,36.5c28.4,12.3,38.4,18.2,43.3,25.2c3.8,5.5,4.7,8.7,4.7,16
		c0,8.1-2.4,13.6-8.2,18.9c-13.6,12.2-41.2,13.7-61.3,3.1c-7-3.7-18.6-14.8-23.9-22.9l-3.8-5.6l-18.1,10.5
		c-10,5.8-20.6,11.9-23.4,13.5c-2.9,1.7-5.5,3.3-5.8,3.7c-0.7,1.2,10.6,17.9,16.4,24.3c14.8,16.4,38.8,28.9,64.1,33.4
		c11.6,2.1,37.2,2.4,48,0.5c34.9-5.9,59.7-23.7,69.7-49.9c9.1-24.1,6.1-56.5-7.3-76.8C555.4,432.2,536.1,419.4,491,400z"/>
	<path class="st0" d="M360,342l-0.2-25.8l-0.3-25.7l-110.1-0.3c-60.5-0.1-110.4,0.1-110.7,0.5c-0.4,0.3-0.7,12-0.7,26V342h41h41
		v116.5V575h29h29V458.5V342h41H360z"/>
</g>
<g>
	<path class="st0" d="M615,15v600H15V15H615 M630,0H0v630h630V0L630,0z"/>
</g>
</svg>
