<svg xmlns="http://www.w3.org/2000/svg" viewBox="0 0 55 55"><defs><style>.cls-1{fill:none;}</style></defs><title>optionsButton</title><g id="Icon_buttons" data-name="Icon buttons"><rect class="cls-1" width="55" height="55"/><path d="M34.81,27.52v.18a.91.91,0,0,1,0,.17,1.09,1.09,0,0,1,0,.18v.17l2.53,1.58-1.56,3.74-2.9-.67c-.15.17-.32.33-.49.49l.67,2.9-3.74,1.55-1.57-2.53H27l-1.57,2.53-3.74-1.55.66-2.9c-.16-.16-.33-.32-.48-.49l-2.9.67L17.45,29.8,20,28.22v-.17c0-.06,0-.12,0-.18s0-.12,0-.17v-.18L17.45,26,19,22.21l2.9.66c.15-.17.32-.33.48-.49l-.66-2.9,3.74-1.55L27,20.46h.71l1.57-2.53,3.74,1.55-.67,2.9c.17.16.34.32.49.49l2.9-.66L37.34,26Zm-1.15,1.27c0-.16,0-.31,0-.46a3.7,3.7,0,0,0,0-.47,3.62,3.62,0,0,0,0-.46c0-.15,0-.31,0-.46L36,25.51l-.84-2-2.65.61c-.2-.24-.41-.47-.62-.68s-.44-.42-.69-.63l.62-2.64-2-.84-1.45,2.3-.46,0-.46,0-.46,0-.46,0L25,19.3l-2,.84.62,2.64c-.25.21-.48.41-.69.62s-.41.45-.62.69l-2.65-.61-.84,2L21.13,27c0,.16,0,.32,0,.47a3.54,3.54,0,0,0,0,.46,3.62,3.62,0,0,0,0,.46c0,.16,0,.31,0,.46l-2.31,1.43.84,2,2.65-.62a6.88,6.88,0,0,0,.62.68q.32.31.69.63L23,35.61l2,.84,1.45-2.31.46,0,.45,0,.47,0,.46,0,1.44,2.31,2-.84L31.17,33a8.4,8.4,0,0,0,.69-.62c.21-.21.41-.44.62-.69l2.65.62.84-2ZM27.39,24.2A3.67,3.67,0,0,1,30,25.27a3.89,3.89,0,0,1,.79,1.17,3.67,3.67,0,0,1,0,2.86A3.66,3.66,0,0,1,30,30.47a3.91,3.91,0,0,1-1.16.79,3.82,3.82,0,0,1-2.87,0,3.91,3.91,0,0,1-1.16-.79A3.66,3.66,0,0,1,24,29.3a3.67,3.67,0,0,1,0-2.86,3.89,3.89,0,0,1,.79-1.17A3.7,3.7,0,0,1,26,24.49,3.65,3.65,0,0,1,27.39,24.2Zm0,6.25a2.6,2.6,0,0,0,1-.2,2.57,2.57,0,0,0,.82-.55,2.52,2.52,0,0,0,.55-.82,2.43,2.43,0,0,0,.2-1,2.38,2.38,0,0,0-.2-1,2.32,2.32,0,0,0-.55-.82,2.56,2.56,0,0,0-3.65,0,2.32,2.32,0,0,0-.55.82,2.38,2.38,0,0,0-.2,1,2.43,2.43,0,0,0,.2,1,2.52,2.52,0,0,0,.55.82,2.57,2.57,0,0,0,1.82.75Z"/></g></svg>