<svg xmlns="http://www.w3.org/2000/svg" width="70" height="70" viewBox="0 0 70 70"><path d="M30.64,37a4.35,4.35,0,0,1,4.24,3.36H47.41a1,1,0,0,1,.14,2H34.88a4.36,4.36,0,0,1-8.49,0h-3.8a1,1,0,0,1-.14-2h3.94A4.37,4.37,0,0,1,30.64,37Zm0,2a2.34,2.34,0,0,0-2.22,1.57l0,.08-.05.2a2.72,2.72,0,0,0-.05.49,2.49,2.49,0,0,0,.08.61l.05.17,0,.09a2.35,2.35,0,0,0,4.4-.09l0-.17,0,.08a2.61,2.61,0,0,0,.1-.69A2.85,2.85,0,0,0,33,41l0-.18,0-.1-.06-.17A2.34,2.34,0,0,0,30.64,39Zm8.72-14.77a4.37,4.37,0,0,1,4.25,3.36h3.8a1,1,0,0,1,.14,2H43.61a4.36,4.36,0,0,1-8.49,0H22.59a1,1,0,0,1-.14-2H35.12A4.35,4.35,0,0,1,39.36,24.26Zm0,2a2.35,2.35,0,0,0-2.22,1.57l0,.08-.06.2a2.73,2.73,0,0,0-.05.5,2.47,2.47,0,0,0,.08.6l0,.17,0,.09a2.35,2.35,0,0,0,4.4-.09l.05-.17,0,.08a2.6,2.6,0,0,0,.1-.68,1.93,1.93,0,0,0,0-.42l0-.18,0-.1-.07-.17A2.34,2.34,0,0,0,39.36,26.28Z" style="fill:#fff"/></svg>