<svg xmlns="http://www.w3.org/2000/svg" width="70" height="70" viewBox="0 0 70 70"><path d="M35,21.58A13.42,13.42,0,1,1,21.58,35,13.42,13.42,0,0,1,35,21.58Zm0,2A11.41,11.41,0,1,0,46.41,35,11.41,11.41,0,0,0,35,23.59Zm0,2.29a6.71,6.71,0,0,1,4.17,12l0,0-1,4.52a2.33,2.33,0,0,1-1.85,1.76h0l-.2,0H34.07a2.33,2.33,0,0,1-2.2-1.6h0l-.06-.2-1-4.52-.21-.17a6.69,6.69,0,0,1-2.24-4.34h0l0-.34v-.36A6.7,6.7,0,0,1,35,25.88Zm1.57,14.49H33.43l.33,1.44,0,.09a.3.3,0,0,0,.29.21H36a.32.32,0,0,0,.27-.24h0ZM35,27.89a4.69,4.69,0,0,0-4.7,4.67h0v.3a4.68,4.68,0,0,0,2,3.55,1,1,0,0,1,.39.59h0L33,38.36H37l.3-1.36a1.09,1.09,0,0,1,.27-.48l.11-.09.23-.18A4.7,4.7,0,0,0,35,27.89Z" style="fill:#fff"/></svg>