{"asset":{"version":"2.0","generator":"Babylon2Gltf2017","copyright":"2017 (c) BabylonJS"},"scene":0,"scenes":[{"nodes":[1]}],"nodes":[{"mesh":0,"translation":[0.0,0.0,0.0],"rotation":[0.7071068,0.0,0.0,-0.7071067],"scale":[100.0,100.0,100.0],"name":"polySurface168"},{"children":[0],"translation":[0.0,0.0,0.0],"rotation":[0.0,1.0,0.0,-4.371139E-08],"scale":[1.0,1.0,-1.0],"name":"root"}],"meshes":[{"primitives":[{"attributes":{"POSITION":1,"NORMAL":2,"COLOR_0":3,"TEXCOORD_0":4},"indices":0,"mode":4,"material":0}],"name":"polySurface168"}],"accessors":[{"bufferView":0,"componentType":5123,"count":14592,"type":"SCALAR","name":"accessorIndices"},{"bufferView":1,"componentType":5126,"count":14592,"max":[0.8106792,0.7583367,0.8187642],"min":[-0.8106792,-0.863278151,-0.8187641],"type":"VEC3","name":"accessorPositions"},{"bufferView":1,"byteOffset":175104,"componentType":5126,"count":14592,"type":"VEC3","name":"accessorNormals"},{"bufferView":2,"componentType":5126,"count":14592,"type":"VEC4","name":"accessorColors"},{"bufferView":3,"componentType":5126,"count":14592,"type":"VEC2","name":"accessorUVs"}],"bufferViews":[{"buffer":0,"byteLength":29184,"name":"bufferViewScalar"},{"buffer":0,"byteOffset":29184,"byteLength":350208,"byteStride":12,"name":"bufferViewFloatVec3"},{"buffer":0,"byteOffset":379392,"byteLength":233472,"byteStride":16,"name":"bufferViewFloatVec4"},{"buffer":0,"byteOffset":612864,"byteLength":116736,"byteStride":8,"name":"bufferViewFloatVec2"}],"buffers":[{"uri":"SmilingFace.bin","byteLength":729600}],"materials":[{"pbrMetallicRoughness":{"baseColorFactor":[1.0,1.0,1.0,1.0],"baseColorTexture":{"index":0},"metallicFactor":0.1666668,"roughnessFactor":0.5678072,"metallicRoughnessTexture":{"index":1}},"emissiveFactor":[0.0,0.0,0.0],"name":"m0smiling_face_DF"}],"textures":[{"sampler":0,"source":0,"name":"m0smiling_face_DF_baseColor.jpg"},{"sampler":1,"source":1,"name":"m0smiling_face_DF_metallicRoughness.jpg"}],"images":[{"uri":"m0smiling_face_DF_baseColor.jpg"},{"uri":"m0smiling_face_DF_metallicRoughness.jpg"}],"samplers":[{"magFilter":9729,"minFilter":9987,"wrapS":10497,"wrapT":10497},{"magFilter":9729,"minFilter":9987,"wrapS":10497,"wrapT":10497}]}