<svg xmlns="http://www.w3.org/2000/svg" viewBox="0 0 160.63 40.18"><defs><style>.cls-1{fill:#d5d2ca;}.cls-2{fill:#fff;}.cls-3{fill:#e0684b;}.cls-4{fill:#bb464b;}.cls-5{fill:#e0ded8;}</style></defs><title>BabylonIdentity</title><g id="Layer_2" data-name="Layer 2"><g id="Page_Elements" data-name="Page Elements"><path class="cls-1" d="M41.27,10h3.41v7.65c.61-1,1.82-2,4.21-2,3.74,0,5.78,3.08,5.78,7.13s-2.12,7.68-6.16,7.68c-2.15,0-3.17-.72-3.85-1.85a11.47,11.47,0,0,1-.14,1.52H41.24c0-1.55,0-3.11,0-4.68Zm6.63,8.42c-2.47,0-3.38,1.65-3.38,4.68,0,2.59.8,4.59,3.33,4.59,2.14,0,3.33-1.92,3.33-4.84C51.18,20.27,50.13,18.43,47.9,18.43Z"/><path class="cls-1" d="M68.59,26.66a26.61,26.61,0,0,0,.2,3.47H65.51a7.37,7.37,0,0,1-.22-1.55c-.49.86-1.51,1.88-4.1,1.88-3.38,0-4.81-2.23-4.81-4.41,0-3.19,2.56-4.67,6.71-4.67h2.15v-1c0-1.1-.36-2.25-2.48-2.25-1.87,0-2.26.85-2.45,1.89H57c.19-2.31,1.65-4.43,5.86-4.4,3.68,0,5.69,1.49,5.69,4.79Zm-3.33-3.14H63.42c-2.5,0-3.6.74-3.6,2.34A2,2,0,0,0,62.1,28c2.81,0,3.16-1.92,3.16-4Z"/><path class="cls-1" d="M71.67,10h3.42v7.65c.6-1,1.81-2,4.21-2,3.74,0,5.77,3.08,5.77,7.13S83,30.46,78.91,30.46c-2.15,0-3.16-.72-3.85-1.85a10,10,0,0,1-.14,1.52H71.65c0-1.55,0-3.11,0-4.68Zm6.64,8.42c-2.48,0-3.39,1.65-3.39,4.68,0,2.59.8,4.59,3.33,4.59,2.15,0,3.33-1.92,3.33-4.84C81.58,20.27,80.53,18.43,78.31,18.43Z"/><path class="cls-1" d="M89.37,16c1.76,5.53,3,9.66,3.3,11h0c.35-1.49,1.23-4.68,3.13-11h3.41L94.37,30.62c-1.37,4.1-2.47,5.26-5.69,5.26A15.34,15.34,0,0,1,87,35.77V33c.3,0,.71,0,1.07,0,1.54,0,2.25-.57,2.89-2.42L85.71,16Z"/><path class="cls-1" d="M100.76,30.13V10h3.41V30.13Z"/><path class="cls-1" d="M120.32,23c0,4.21-2.48,7.43-6.91,7.43s-6.79-3.14-6.79-7.38,2.56-7.43,7-7.43C117.68,15.65,120.32,18.6,120.32,23Zm-10.23,0c0,2.87,1.29,4.68,3.41,4.68s3.33-1.79,3.33-4.65c0-3-1.19-4.7-3.39-4.7S110.09,20,110.09,23.05Z"/><path class="cls-1" d="M122.8,19.53c0-1.21,0-2.47,0-3.55h3.3a15.77,15.77,0,0,1,.14,2,4.32,4.32,0,0,1,4.21-2.31c2.78,0,4.7,1.82,4.7,5.45v9h-3.41V21.49c0-1.77-.63-3-2.5-3s-3,1.29-3,3.91v7.76H122.8Z"/><path class="cls-1" d="M138.37,30.13V25.56H142v4.57Z"/><path class="cls-1" d="M147.67,16.28V30.87c0,3.77-.91,5-3.6,5-.11,0-.66,0-.86,0V34.2c.2,0,.42,0,.58,0,1.84,0,2-1,2-3.08V16.28Zm-1.84-3.57V9.87h1.84v2.84Z"/><path class="cls-1" d="M151.85,26.25a3.45,3.45,0,0,0,3.69,2.66c2.26,0,3.16-1,3.16-2.44s-.63-2.15-3.52-2.84c-3.77-.91-4.62-2.06-4.62-3.91S152,16,155.32,16s4.81,2,5,3.94h-1.81a3,3,0,0,0-3.28-2.39c-2.2,0-2.83,1.07-2.83,2.09s.61,1.73,3.25,2.36c4,1,4.95,2.31,4.95,4.38,0,2.47-2,4.13-5.15,4.13-3.35,0-5.11-1.74-5.47-4.21Z"/><polygon class="cls-2" points="17.4 0 0 10.04 0 30.13 17.4 40.18 34.8 30.13 34.8 10.04 17.4 0"/><polygon class="cls-3" points="34.8 10.04 29.35 6.9 24.11 9.93 29.56 13.07 34.8 10.04"/><polygon class="cls-3" points="5.24 13.07 22.64 3.02 17.4 0 0 10.04 5.24 13.07"/><polygon class="cls-3" points="11.95 23.23 17.4 26.38 22.84 23.23 17.4 20.09 11.95 23.23"/><polygon class="cls-4" points="29.56 13.07 29.56 27.11 17.4 34.13 5.24 27.11 5.24 13.07 0 10.04 0 30.13 17.4 40.18 34.8 30.13 34.8 10.04 29.56 13.07"/><polygon class="cls-4" points="17.4 13.8 11.95 16.95 11.95 23.23 17.4 20.09 22.84 23.23 22.84 16.95 17.4 13.8"/><polygon class="cls-5" points="29.56 13.07 22.84 16.95 22.84 23.23 17.4 26.38 17.4 34.13 29.56 27.11 29.56 13.07"/><polygon class="cls-1" points="5.24 13.07 11.95 16.95 11.95 23.23 17.4 26.38 17.4 34.13 5.24 27.11 5.24 13.07"/></g></g></svg>