<svg xmlns="http://www.w3.org/2000/svg" viewBox="0 0 31.36 31.36"><defs><style>.cls-1{fill:#fff;}</style></defs><title>IBLicon</title><g id="Layer_2" data-name="Layer 2"><g id="Layer_1-2" data-name="Layer 1"><path class="cls-1" d="M15.68,0A15.68,15.68,0,1,0,31.36,15.68,15.69,15.69,0,0,0,15.68,0Zm-1,14.5a.36.36,0,0,0,.52,0l1.35-1.35a.34.34,0,0,0,.06-.38h.54a2.82,2.82,0,0,0,3.09.15l.73.06a.37.37,0,0,0,.09.2l1.35,1.36a.35.35,0,0,0,.26.1.35.35,0,0,0,.25-.1.36.36,0,0,0,0-.52L22,13.09c4.39.48,7.39,1.46,7.39,2.59,0,1.62-6.12,2.93-13.67,2.93S2,17.3,2,15.68s6.12-2.92,13.67-2.92h.2L14.65,14A.36.36,0,0,0,14.65,14.5Zm4.14-1.92A2.19,2.19,0,1,1,21,10.4,2.19,2.19,0,0,1,18.79,12.58ZM15.68,2A13.68,13.68,0,0,1,29.31,14.63c-1.34-1.21-5-1.85-8.49-2.15a2.92,2.92,0,1,0-4.24-.21h-.9c-4.2,0-11.6.53-13.63,2.39A13.68,13.68,0,0,1,15.68,2Zm0,27.36a13.66,13.66,0,0,1-13.56-12c3.19,2.15,12.33,2.23,13.56,2.23s10.37-.08,13.57-2.23A13.68,13.68,0,0,1,15.68,29.36Z"/><path class="cls-1" d="M18.82,7.21h0a.36.36,0,0,0,.36-.36V4.34A.36.36,0,0,0,18.82,4h0a.36.36,0,0,0-.36.36V6.85A.36.36,0,0,0,18.82,7.21Z"/><path class="cls-1" d="M16,8.13a.37.37,0,0,0,.26.1.39.39,0,0,0,.26-.1.37.37,0,0,0,0-.52L15.2,6.26a.36.36,0,0,0-.51.51Z"/><path class="cls-1" d="M21.32,8.27a.38.38,0,0,0,.26-.11l1.35-1.35a.37.37,0,0,0,0-.52.36.36,0,0,0-.51,0L21.06,7.65a.36.36,0,0,0,0,.51A.38.38,0,0,0,21.32,8.27Z"/><path class="cls-1" d="M20.09,7.33l.08,0a.23.23,0,0,0,.21-.14l.3-.73a.23.23,0,0,0-.13-.29.22.22,0,0,0-.28.12L20,7A.22.22,0,0,0,20.09,7.33Z"/><path class="cls-1" d="M17.25,7.19a.23.23,0,0,0,.21.14l.08,0A.22.22,0,0,0,17.66,7l-.31-.72a.21.21,0,0,0-.29-.12.21.21,0,0,0-.11.29Z"/><path class="cls-1" d="M15.6,8.81l-.73-.3a.22.22,0,0,0-.28.12.21.21,0,0,0,.12.29l.73.3.08,0a.22.22,0,0,0,.08-.43Z"/><path class="cls-1" d="M15.42,11.53l-.73.31a.21.21,0,0,0-.12.28.23.23,0,0,0,.21.14l.08,0,.73-.3a.22.22,0,0,0,.11-.29A.2.2,0,0,0,15.42,11.53Z"/><path class="cls-1" d="M17,14.6l.08,0a.23.23,0,0,0,.21-.14l.29-.73a.22.22,0,1,0-.4-.17l-.3.73A.22.22,0,0,0,17,14.6Z"/><path class="cls-1" d="M20.23,14.5a.24.24,0,0,0,.2.14l.09,0a.23.23,0,0,0,.12-.29l-.31-.73a.22.22,0,1,0-.41.17Z"/><path class="cls-1" d="M22.88,11.87l-.73-.29A.22.22,0,1,0,22,12l.73.3.08,0a.23.23,0,0,0,.21-.14A.23.23,0,0,0,22.88,11.87Z"/><path class="cls-1" d="M22.08,9.28a.15.15,0,0,0,.09,0l.72-.3A.22.22,0,0,0,23,8.67a.22.22,0,0,0-.29-.12L22,8.86a.21.21,0,0,0-.12.29A.22.22,0,0,0,22.08,9.28Z"/><path class="cls-1" d="M12.73,10.73h2.51a.38.38,0,0,0,.37-.37.37.37,0,0,0-.37-.36H12.73a.36.36,0,0,0,0,.72Z"/><path class="cls-1" d="M18.76,16.82h0a.37.37,0,0,0,.37-.37V14a.37.37,0,0,0-.36-.37h0a.38.38,0,0,0-.37.37v2.5A.36.36,0,0,0,18.76,16.82Z"/><path class="cls-1" d="M22.34,10.06a.36.36,0,0,0-.36.36.37.37,0,0,0,.36.37h2.51a.36.36,0,0,0,.36-.36.37.37,0,0,0-.36-.37Z"/></g></g></svg>