<svg id="Layer_1" data-name="Layer 1" xmlns="http://www.w3.org/2000/svg" viewBox="0 0 56 56"><defs><style>.cls-1{fill:#fff;}</style></defs><title>IBLicon</title><path class="cls-1" d="M28,17.65A10.09,10.09,0,1,0,38.09,27.74,10.11,10.11,0,0,0,28,17.65ZM27.34,27a.2.2,0,0,0,.16.07.23.23,0,0,0,.17-.07l.87-.87a.22.22,0,0,0,0-.24h.34a1.86,1.86,0,0,0,1.08.35,1.88,1.88,0,0,0,.91-.25l.48,0a.15.15,0,0,0,.05.12l.87.88a.23.23,0,0,0,.16.06.27.27,0,0,0,.17-.06.24.24,0,0,0,0-.33l-.6-.61c2.82.32,4.76.95,4.76,1.67,0,1-3.94,1.88-8.8,1.88s-8.8-.84-8.8-1.88,3.94-1.88,8.8-1.88h.13l-.79.79A.24.24,0,0,0,27.34,27ZM30,25.75a1.41,1.41,0,1,1,1.41-1.41A1.4,1.4,0,0,1,30,25.75Zm-2-6.81a8.8,8.8,0,0,1,8.77,8.13c-.86-.78-3.19-1.2-5.46-1.39a1.85,1.85,0,0,0,.56-1.34,1.87,1.87,0,1,0-3.29,1.21H28c-2.7,0-7.47.34-8.77,1.54A8.8,8.8,0,0,1,28,18.94Zm0,17.61a8.81,8.81,0,0,1-8.73-7.72c2.06,1.39,7.93,1.44,8.73,1.44s6.67-.05,8.73-1.44A8.81,8.81,0,0,1,28,36.55Z"/><path class="cls-1" d="M30,22.29h0a.23.23,0,0,0,.23-.23V20.45a.23.23,0,0,0-.23-.24h0a.25.25,0,0,0-.24.24v1.61A.23.23,0,0,0,30,22.29Z"/><path class="cls-1" d="M28.23,22.88a.23.23,0,0,0,.17.07.2.2,0,0,0,.16-.07.24.24,0,0,0,0-.33l-.87-.87a.23.23,0,1,0-.33.33Z"/><path class="cls-1" d="M31.63,23a.2.2,0,0,0,.16-.07l.87-.87a.22.22,0,0,0,0-.33.24.24,0,0,0-.33,0l-.87.87a.24.24,0,0,0,.17.4Z"/><path class="cls-1" d="M30.84,22.37h.05a.13.13,0,0,0,.13-.09l.19-.47a.14.14,0,1,0-.26-.1l-.19.46A.14.14,0,0,0,30.84,22.37Z"/><path class="cls-1" d="M29,22.28a.14.14,0,0,0,.13.09h.06a.15.15,0,0,0,.07-.19l-.19-.47a.15.15,0,0,0-.19-.07.14.14,0,0,0-.08.18Z"/><path class="cls-1" d="M28,23.32l-.47-.19a.14.14,0,0,0-.18.08.14.14,0,0,0,.07.18l.47.2h.06a.17.17,0,0,0,.13-.09A.15.15,0,0,0,28,23.32Z"/><path class="cls-1" d="M27.83,25.07l-.47.2a.14.14,0,0,0-.07.18.13.13,0,0,0,.13.09h0l.47-.2a.13.13,0,0,0,.07-.18A.13.13,0,0,0,27.83,25.07Z"/><path class="cls-1" d="M28.87,27.05h.05a.13.13,0,0,0,.13-.09l.19-.47a.14.14,0,0,0-.07-.18.14.14,0,0,0-.19.07l-.19.47A.14.14,0,0,0,28.87,27.05Z"/><path class="cls-1" d="M30.93,27a.13.13,0,0,0,.13.09h.05a.15.15,0,0,0,.08-.19L31,26.4a.14.14,0,0,0-.19-.07.14.14,0,0,0-.07.18Z"/><path class="cls-1" d="M32.63,25.29l-.47-.19a.15.15,0,0,0-.19.08.14.14,0,0,0,.08.18l.47.19,0,0a.17.17,0,0,0,.14-.09A.15.15,0,0,0,32.63,25.29Z"/><path class="cls-1" d="M32.12,23.63l.05,0,.47-.19a.15.15,0,0,0,.08-.19.15.15,0,0,0-.19-.07l-.47.19a.15.15,0,0,0-.07.19A.14.14,0,0,0,32.12,23.63Z"/><path class="cls-1" d="M26.1,24.56h1.62a.23.23,0,0,0,.23-.23.23.23,0,0,0-.23-.24H26.1a.24.24,0,0,0,0,.47Z"/><path class="cls-1" d="M30,28.47h0a.23.23,0,0,0,.24-.23V26.63a.24.24,0,0,0-.23-.24h0a.23.23,0,0,0-.23.24v1.61A.23.23,0,0,0,30,28.47Z"/><path class="cls-1" d="M32.29,24.12a.24.24,0,0,0-.24.24.23.23,0,0,0,.23.23H33.9a.23.23,0,0,0,.23-.24.23.23,0,0,0-.23-.23Z"/></svg>