<svg id="Layer_1" data-name="Layer 1" xmlns="http://www.w3.org/2000/svg" viewBox="0 0 160 160"><defs><style>.cls-1{fill:#fff;}</style></defs><title>Icon_Dashboard</title><path class="cls-1" d="M86.9,76.52,101.4,62l-3.54-3.54L83.35,73l0,0a7.36,7.36,0,0,0-3.31-.79,7.52,7.52,0,0,0-3,.59,7.6,7.6,0,0,0-4,4,7.72,7.72,0,0,0,0,5.92,7.6,7.6,0,0,0,4,4,7.72,7.72,0,0,0,5.92,0,7.6,7.6,0,0,0,4-4,7.52,7.52,0,0,0,.59-3,7.36,7.36,0,0,0-.79-3.31Zm-5.05,5a2.46,2.46,0,1,1,.75-1.77A2.42,2.42,0,0,1,81.85,81.56ZM80,117.66A37.66,37.66,0,1,1,117.66,80,37.7,37.7,0,0,1,80,117.66Zm0-70.31A32.65,32.65,0,1,0,112.65,80,32.69,32.69,0,0,0,80,47.35ZM57.38,79.78a22.58,22.58,0,0,0,5.37,14.63l-3.83,3.25A27.63,27.63,0,0,1,93.07,55.44l-3.75,3.75A22.6,22.6,0,0,0,57.38,79.78Zm47-13a27.6,27.6,0,0,1-3.35,30.84l-3.82-3.26a22.58,22.58,0,0,0,3.41-23.82Z"/></svg>