<svg xmlns="http://www.w3.org/2000/svg" viewBox="0 0 70 70"><defs><style>.cls-1{fill:#fff;}.cls-2{fill:none;}</style></defs><title>EditIcon</title><g id="Layer_2" data-name="Layer 2"><g id="Page_Elements" data-name="Page Elements"><path class="cls-1" d="M44.25,30.78a2.56,2.56,0,0,1,1-.64,3.64,3.64,0,0,1,1.17-.2,3.29,3.29,0,0,1,1.21.23,2.73,2.73,0,0,1,1,.62,3,3,0,0,1,.65,1A2.84,2.84,0,0,1,49.5,33a3.14,3.14,0,0,1-.23,1.18,2.84,2.84,0,0,1-.67,1L37.52,46.25l-5.85,1.46,1.46-5.84Zm3,3a1.06,1.06,0,0,0,.33-.79,1,1,0,0,0-.32-.78,1.16,1.16,0,0,0-.8-.29A1.23,1.23,0,0,0,46,32a.88.88,0,0,0-.36.21L34.93,42.89,34.4,45l2.09-.52Z"/><path class="cls-1" d="M31.94,41.2l1-1V31.9l5.94-3v5.32l2-2V26.73L32,22.27l-8.92,4.46V38.5l8.5,4.26Zm0-16.7,5.7,2.85L32,30.18l-5.71-2.83ZM25,37.27V28.94l5.94,3v8.34Z"/><rect class="cls-2" width="70" height="70"/></g></g></svg>