<svg id="Layer_1" data-name="Layer 1" xmlns="http://www.w3.org/2000/svg" viewBox="0 0 800 800"><defs><style>.cls-1{fill:#fff;}</style></defs><title>Icon_ChevronDown copy</title><path class="cls-1" d="M549.83,341.08A36.91,36.91,0,0,1,564,332.24a49.51,49.51,0,0,1,16.3-2.81,44.75,44.75,0,0,1,16.83,3.13,40.83,40.83,0,0,1,13.49,8.74,41.53,41.53,0,0,1,9.06,13.38A42.12,42.12,0,0,1,623,371.52a43.23,43.23,0,0,1-3.24,16.4,42,42,0,0,1-9.28,14L456.17,556.69,374.8,577l20.29-81.37Zm41.44,41.44a15,15,0,0,0,4.54-11q0-6.91-4.43-10.9a16,16,0,0,0-11.11-4,19.55,19.55,0,0,0-5.83.87,11.75,11.75,0,0,0-5,3L420.13,509.86,412.79,539l29.13-7.34Z"/><path class="cls-1" d="M378.59,486.27l14.16-14.14V356.74l82.66-41.22v74.06L503,362V284.66L378.94,222.5l-124.1,62.16v164L373.18,508Zm.35-232.69,79.42,39.71-79.42,39.5-79.42-39.5Zm-96.47,178V315.52l82.66,41.22V472.86Z"/></svg>