<svg id="icons" xmlns="http://www.w3.org/2000/svg" viewBox="0 0 80 30"><defs><style>.cls-1{fill:#bb464b;}.cls-2{fill:#fff;}</style></defs><polygon class="cls-1" points="9.9 30 80 30 80 0 0 0 9.9 30"/><path class="cls-2" d="M21.35,8.82h6c2.61,0,3.83,1.24,3.83,2.89a2.47,2.47,0,0,1-1.75,2.41,2.74,2.74,0,0,1,2.17,2.66c0,2.16-1.7,3.34-4.28,3.34H21.35Zm5.47,4.5c1.36,0,1.87-.51,1.87-1.33,0-1-.76-1.36-1.84-1.36H23.68v2.69Zm-3.14,5h3.25c1.16,0,2.15-.35,2.15-1.63,0-1-.77-1.59-2.16-1.59H23.68Z"/><path class="cls-2" d="M42.36,15.19H35.91v3h7.15l-.27,1.92H33.54V8.82h9.17v1.92h-6.8v2.53h6.45Z"/><path class="cls-2" d="M47.91,10.73h-4.1V8.82H54.36v1.91H50.28v9.39H47.91Z"/><path class="cls-2" d="M56.55,17.28l-1.14,2.84H53l4.66-11.3h3l4.89,11.3H62.92l-1.2-2.84ZM61,15.35c-1.15-2.76-1.71-4.13-2-5h0c-.24.8-.9,2.6-1.84,5Z"/></svg>