<svg xmlns="http://www.w3.org/2000/svg" width="40" height="40" viewBox="0 0 40 40"><path d="M26.08,12.7H13.92a2,2,0,0,0-2,2V22a2,2,0,0,0,2,2h3.65V22.84H13.92a.81.81,0,0,1-.81-.81v-7.3a.81.81,0,0,1,.81-.81H26.08a.81.81,0,0,1,.81.81V22a.81.81,0,0,1-.81.81h-.45l.28.27a1.45,1.45,0,0,1,.56.91,2,2,0,0,0,1.64-2v-7.3A2,2,0,0,0,26.08,12.7Z" style="fill:#fff"/><path d="M19.42,17.75a.62.62,0,0,0-.67-.14.63.63,0,0,0-.37.57v8.51a.6.6,0,0,0,.43.58.61.61,0,0,0,.68-.24l2-2.91,3.45.73a.61.61,0,0,0,.56-1Zm1.92,5.1a.6.6,0,0,0-.62.25l-1.13,1.63V19.64l3.6,3.6Z" style="fill:#fff"/></svg>