<?xml version="1.0" encoding="UTF-8"?><svg id="icons" xmlns="http://www.w3.org/2000/svg" width="40" height="40" viewBox="0 0 40 40"><defs><style>.cls-1{fill:#777777;}</style></defs><path class="cls-1" d="M18.39,14.54h3.24c0-.89-.72-1.62-1.62-1.62s-1.62,.72-1.62,1.62Zm-1.21,0c0-1.56,1.27-2.83,2.83-2.83s2.83,1.27,2.83,2.83h4.65c.34,0,.61,.27,.61,.61s-.27,.61-.61,.61h-1.07l-.95,9.8c-.15,1.56-1.46,2.74-3.02,2.74h-4.9c-1.56,0-2.87-1.19-3.02-2.74l-.95-9.8h-1.07c-.34,0-.61-.27-.61-.61s.27-.61,.61-.61h4.65Zm1.62,3.84c0-.34-.27-.61-.61-.61s-.61,.27-.61,.61v6.07c0,.34,.27,.61,.61,.61s.61-.27,.61-.61v-6.07Zm3.04-.61c.34,0,.61,.27,.61,.61v6.07c0,.34-.27,.61-.61,.61s-.61-.27-.61-.61v-6.07c0-.34,.27-.61,.61-.61Zm-6.08,7.66c.09,.93,.87,1.65,1.81,1.65h4.9c.94,0,1.72-.71,1.81-1.65l.94-9.69H14.81l.94,9.69Z"/></svg>