<?xml version="1.0" encoding="UTF-8"?><svg id="icons" xmlns="http://www.w3.org/2000/svg" width="40" height="40" viewBox="0 0 40 40"><defs><style>.cls-1{fill:#fff;}</style></defs><path class="cls-1" d="M20.61,12.07c.94,0,1.71,.71,1.81,1.62h1.43c.97,0,1.76,.75,1.82,1.7v.13c0,.31-.22,.56-.52,.6h-.08c-.31,0-.56-.22-.6-.52v-.08c0-.31-.23-.56-.53-.6h-1.81c-.33,.48-.88,.8-1.51,.8h-2.85c-.63,0-1.19-.32-1.51-.81h-1.73c-.31,0-.56,.23-.6,.53v11.05c0,.31,.22,.56,.52,.6h2.52c.31,0,.56,.23,.6,.53v.08c0,.34-.27,.61-.6,.61h-2.44c-.97,0-1.76-.75-1.82-1.7V15.53c0-.97,.75-1.76,1.7-1.82h1.56c.1-.92,.87-1.63,1.81-1.63h2.85Zm4.87,4.87c.97,0,1.76,.75,1.82,1.7v7.84c0,.97-.75,1.76-1.7,1.82h-5.4c-.97,0-1.76-.75-1.82-1.7v-7.84c0-.97,.75-1.76,1.7-1.82h5.4Zm0,1.21h-5.28c-.31,0-.56,.23-.6,.53v7.8c0,.31,.22,.56,.52,.6h5.36c.31,0,.56-.22,.6-.52v-7.8c0-.31-.22-.56-.52-.6h-.08Zm-4.87-4.88h-2.85c-.33,0-.61,.27-.61,.61s.27,.61,.61,.61h2.85c.33,0,.61-.27,.61-.61s-.27-.61-.61-.61Z"/></svg>