<?xml version="1.0" encoding="UTF-8"?><svg id="icons" xmlns="http://www.w3.org/2000/svg" width="40" height="40" viewBox="0 0 40 40"><defs><style>.cls-1{fill:#fff;}</style></defs><path class="cls-1" d="M14.76,14.06v10.27c0,1.46,1.18,2.64,2.64,2.64h7.01c-.25,.71-.93,1.22-1.73,1.22h-5.28c-2.13,0-3.86-1.73-3.86-3.86V15.78c0-.8,.51-1.48,1.22-1.73Zm9.96-2.14c1.01,0,1.83,.82,1.83,1.83v10.57c0,1.01-.82,1.83-1.83,1.83h-7.32c-1.01,0-1.83-.82-1.83-1.83V13.75c0-1.01,.82-1.83,1.83-1.83h7.32Zm0,1.22h-7.32c-.34,0-.61,.27-.61,.61v10.57c0,.34,.27,.61,.61,.61h7.32c.34,0,.61-.27,.61-.61V13.75c0-.34-.27-.61-.61-.61Z"/></svg>