<svg xmlns="http://www.w3.org/2000/svg" width="40" height="40" viewBox="0 0 40 40"><path d="M19.39,13.51v5.07a.61.61,0,0,0,.61.61.61.61,0,0,0,.61-.61V14.51a.39.39,0,0,1,.4-.39.43.43,0,0,1,.41.41v6.08a.61.61,0,0,0,1,.42h0l0,0,.08-.07c.08-.07.19-.16.33-.26A2.66,2.66,0,0,1,24,20.2a1.86,1.86,0,0,1,1.13.11.68.68,0,0,1,.36.43l-1.35,1L24,21.8l-1.76,1.76a10,10,0,0,0-1.87,2.59,1.35,1.35,0,0,1-1.2.74H17a1.21,1.21,0,0,1-1.07-.58,9,9,0,0,1-1.39-4.08V16a.41.41,0,1,1,.81,0v2.83a.61.61,0,0,0,.61.61.61.61,0,0,0,.61-.61V14.53a.4.4,0,0,1,.4-.41.41.41,0,0,1,.41.41v4a.61.61,0,1,0,1.21,0V13.51a.41.41,0,0,1,.81,0ZM20.52,13A1.63,1.63,0,0,0,19,11.89,1.6,1.6,0,0,0,17.46,13a1.63,1.63,0,0,0-.5-.07,1.61,1.61,0,0,0-1.61,1.47,1.84,1.84,0,0,0-.41-.05A1.62,1.62,0,0,0,13.31,16v6.28a10.2,10.2,0,0,0,1.56,4.7A2.44,2.44,0,0,0,17,28.11H19.2a2.58,2.58,0,0,0,2.29-1.41,8.79,8.79,0,0,1,1.63-2.28l1.74-1.73,1.58-1.19a.61.61,0,0,0,.25-.49,1.9,1.9,0,0,0-1.06-1.78A3,3,0,0,0,23.74,19a3.64,3.64,0,0,0-1.11.4V14.53A1.63,1.63,0,0,0,21,12.91,1.51,1.51,0,0,0,20.52,13Z" style="fill:#fff"/></svg>