<svg xmlns="http://www.w3.org/2000/svg" width="30" height="30" viewBox="0 0 30 30"><path d="M18.67,14.77l-.07,0a.61.61,0,0,0-.79,0L15.61,17V11.48A.6.6,0,0,0,15,11h-.08a.6.6,0,0,0-.53.6V17l-2.2-2.21-.07-.06a.61.61,0,0,0-.79.92l3.24,3.24.07.06a.62.62,0,0,0,.79-.06l3.24-3.24,0-.07A.61.61,0,0,0,18.67,14.77Z" style="fill:#212121"/><path d="M10.35,7.72a2.62,2.62,0,0,0-2.63,2.63v9.3a2.62,2.62,0,0,0,2.63,2.63h9.3a2.62,2.62,0,0,0,2.63-2.63v-9.3a2.62,2.62,0,0,0-2.63-2.63ZM8.93,10.35a1.43,1.43,0,0,1,1.42-1.42h9.3a1.43,1.43,0,0,1,1.42,1.42v9.3a1.43,1.43,0,0,1-1.42,1.42h-9.3a1.43,1.43,0,0,1-1.42-1.42Z" style="fill:#212121"/></svg>