<svg xmlns="http://www.w3.org/2000/svg" width="40" height="40" viewBox="0 0 40 40"><path d="M22.64,15.2a.61.61,0,0,1-.85,0L20.6,14v3a.6.6,0,1,1-1.2,0V14L18.21,15.2a.61.61,0,0,1-.85,0,.6.6,0,0,1,0-.86l2.21-2.21a.6.6,0,0,1,.86,0l2.21,2.21A.6.6,0,0,1,22.64,15.2Z" style="fill:#fff"/><path d="M15.2,21.79a.61.61,0,0,1,0,.85.6.6,0,0,1-.86,0l-2.21-2.21a.6.6,0,0,1,0-.86l2.21-2.21a.6.6,0,0,1,.86,0,.61.61,0,0,1,0,.85L14,19.4h3a.6.6,0,1,1,0,1.2H14Z" style="fill:#fff"/><path d="M24.8,22.64a.61.61,0,0,1,0-.85L26,20.6H23a.6.6,0,1,1,0-1.2h3L24.8,18.21a.61.61,0,0,1,0-.85.6.6,0,0,1,.86,0l2.21,2.21a.6.6,0,0,1,0,.86l-2.21,2.21A.6.6,0,0,1,24.8,22.64Z" style="fill:#fff"/><path d="M22.64,24.8a.61.61,0,0,0-.85,0L20.6,26V23a.6.6,0,1,0-1.2,0v3L18.21,24.8a.61.61,0,0,0-.85,0,.6.6,0,0,0,0,.86l2.21,2.21a.6.6,0,0,0,.86,0l2.21-2.21A.6.6,0,0,0,22.64,24.8Z" style="fill:#fff"/></svg>