<?xml version="1.0" encoding="UTF-8"?><svg id="a" xmlns="http://www.w3.org/2000/svg" width="16" height="16" viewBox="0 0 16 16"><defs><style>.b{fill:#fff;}</style></defs><path class="b" d="M8.34,11.86c-.13,.13-.34,.13-.47,0l-3.61-3.6c-.14-.14-.14-.37,0-.51l3.61-3.6c.13-.13,.34-.13,.47,0,.13,.13,.13,.34,0,.47l-3.4,3.39,3.4,3.39c.13,.13,.13,.34,0,.47Zm2.63,0c-.13,.13-.34,.13-.47,0l-3.61-3.6c-.14-.14-.14-.37,0-.51l3.61-3.6c.13-.13,.34-.13,.47,0,.13,.13,.13,.34,0,.47l-3.4,3.39,3.4,3.39c.13,.13,.13,.34,0,.47Z"/></svg>