<?xml version="1.0" encoding="UTF-8"?><svg id="Layer_1" xmlns="http://www.w3.org/2000/svg" width="24" height="24" viewBox="0 0 24 24"><defs><style>.cls-1{stroke-width:0px;}</style></defs><path class="cls-1" d="m12,1.97C6.46,1.97,1.97,6.46,1.97,12s4.49,10.03,10.03,10.03,10.03-4.49,10.03-10.03S17.54,1.97,12,1.97Zm0,18.55c-4.71,0-8.52-3.82-8.52-8.52S7.29,3.48,12,3.48s8.52,3.82,8.52,8.52-3.82,8.52-8.52,8.52Zm5.01-10.33c0-2.77-2.25-5.01-5.01-5.01s-5.01,2.24-5.01,5.01v.27s.03.26.03.26c.14,1.27.74,2.42,1.68,3.24l.15.13.77,3.38.04.15c.26.73.91,1.2,1.65,1.2h1.54s.15-.03.15-.03c.7-.14,1.23-.64,1.38-1.31l.77-3.38-.03.03c1.2-.96,1.9-2.39,1.9-3.93Zm-4.1,6.94c-.02.09-.1.16-.2.18h-.07s-1.34,0-1.34,0c-.1,0-.19-.06-.22-.15l-.02-.07-.25-1.08h2.35l-.26,1.12Zm1.28-4.2l-.17.13-.08.07c-.1.1-.17.23-.2.36l-.23,1.01h-.04s-2.95,0-2.95,0h-.04s-.23-1.01-.23-1.01c-.04-.18-.15-.34-.3-.44-.86-.61-1.4-1.58-1.46-2.65v-.23c0-1.92,1.57-3.49,3.5-3.49s3.51,1.57,3.51,3.51c0,1.08-.49,2.08-1.32,2.74Z" style="fill:white"/></svg>