<svg id="Layer_1" data-name="Layer 1" xmlns="http://www.w3.org/2000/svg" viewBox="0 0 24 24"><defs><style>.cls-1{fill:#ffffff;}</style></defs><g id="_-System-Icons" data-name="ðŸ”-System-Icons"><g id="ic_fluent_window_new_20_regular" data-name="ic fluent window new 20 regular"><path id="_-Color" data-name="ðŸŽ¨-Color" class="cls-1" d="M18.14,2.44a3.42,3.42,0,0,1,3.41,3.19v9.78a3.41,3.41,0,0,1-2.41,3.26A3.44,3.44,0,0,1,16,21.55H7.22A4.78,4.78,0,0,1,2.45,17V8.27A3.42,3.42,0,0,1,5.31,4.9a3.43,3.43,0,0,1,3-2.45h9.8Zm-13,3.9A2,2,0,0,0,3.82,8.06v8.72A3.41,3.41,0,0,0,7,20.18h8.78A2,2,0,0,0,17.63,19l.08-.17H8.59a3.42,3.42,0,0,1-3.41-3.19V6.34Zm13-2.53H8.59a2.05,2.05,0,0,0-2,2.05v9.55a2.05,2.05,0,0,0,2.05,2.05h9.55a2.05,2.05,0,0,0,2.05-2.05V5.86A2.05,2.05,0,0,0,18.14,3.81ZM16.78,6.54a.69.69,0,0,1,.67.56v5.56a.68.68,0,0,1-.68.68.67.67,0,0,1-.67-.56V8.87l-5.66,5.66a.68.68,0,0,1-1-.87l.08-.1L15.13,7.9H11.34a.67.67,0,0,1-.68-.68.69.69,0,0,1,.56-.67h5.56Z"/></g></g></svg>