{"asset":{"version":"2.0","generator":"Babylon2Gltf2017","copyright":"2017 (c) BabylonJS"},"scene":0,"scenes":[{"nodes":[1]}],"nodes":[{"mesh":0,"translation":[0.0,0.0,0.0],"rotation":[0.0,0.0,0.0,-1.0],"scale":[1.0,1.0,1.0],"name":"Box001"},{"children":[0],"translation":[0.0,0.0,0.0],"rotation":[0.0,1.0,0.0,-4.371139E-08],"scale":[1.0,1.0,-1.0],"name":"root"}],"meshes":[{"primitives":[{"attributes":{"POSITION":1,"NORMAL":2,"TEXCOORD_0":3},"indices":0,"targets":[{"POSITION":4,"NORMAL":5},{"POSITION":6,"NORMAL":7}]}],"weights":[0.0,0.0],"name":"Box001"}],"accessors":[{"bufferView":0,"componentType":5123,"count":36,"type":"SCALAR","name":"accessorIndices"},{"bufferView":1,"componentType":5126,"count":36,"max":[0.5,1.0,0.5],"min":[-0.5,0.0,-0.5],"type":"VEC3","name":"accessorPositions"},{"bufferView":1,"byteOffset":432,"componentType":5126,"count":36,"type":"VEC3","name":"accessorNormals"},{"bufferView":2,"componentType":5126,"count":36,"type":"VEC2","name":"accessorUVs"},{"bufferView":1,"byteOffset":864,"componentType":5126,"count":36,"max":[0.950000048,0.0,0.0],"min":[0.0,0.0,0.0],"type":"VEC3","name":"accessorTargetPositions"},{"bufferView":1,"byteOffset":1296,"componentType":5126,"count":36,"type":"VEC3","name":"accessorTargetNormals"},{"bufferView":1,"byteOffset":1728,"componentType":5126,"count":36,"max":[0.950000048,0.0,0.0],"min":[0.0,0.0,0.0],"type":"VEC3","name":"accessorTargetPositions"},{"bufferView":1,"byteOffset":2160,"componentType":5126,"count":36,"type":"VEC3","name":"accessorTargetNormals"},{"bufferView":3,"componentType":5126,"count":5,"max":[3.33333325],"min":[0.0],"type":"SCALAR","name":"accessorAnimationInput"},{"bufferView":3,"byteOffset":20,"componentType":5126,"count":10,"type":"SCALAR","name":"accessorAnimationWeights"}],"bufferViews":[{"buffer":0,"byteLength":72,"name":"bufferViewScalar"},{"buffer":0,"byteOffset":72,"byteLength":2592,"byteStride":12,"name":"bufferViewFloatVec3"},{"buffer":0,"byteOffset":2664,"byteLength":288,"byteStride":8,"name":"bufferViewFloatVec2"},{"buffer":0,"byteOffset":2952,"byteLength":60,"name":"bufferViewAnimationFloatScalar"}],"buffers":[{"uri":"AnimatedMorphCube.bin","byteLength":3012}],"animations":[{"channels":[{"sampler":0,"target":{"node":0,"path":"weights"}}],"samplers":[{"input":8,"interpolation":"LINEAR","output":9}]}]}