<svg xmlns="http://www.w3.org/2000/svg" width="70" height="70" viewBox="0 0 70 70"><path d="M37.58,22.25a3,3,0,0,1,2.61,1.49l1.09,1.87h2.78A4.36,4.36,0,0,1,48.42,30V42.72a4.36,4.36,0,0,1-4.36,4.36H25.94a4.36,4.36,0,0,1-4.36-4.36V30a4.36,4.36,0,0,1,4.36-4.36h2.79l1.18-1.92a3,3,0,0,1,2.57-1.44Zm0,2h-5.1a1,1,0,0,0-.77.36l-.09.12-1.47,2.39a1,1,0,0,1-.85.48H25.94A2.35,2.35,0,0,0,23.59,30V42.72a2.35,2.35,0,0,0,2.35,2.35H44.06a2.35,2.35,0,0,0,2.35-2.35V30a2.35,2.35,0,0,0-2.35-2.35H40.7a1,1,0,0,1-.86-.5l-1.39-2.36A1,1,0,0,0,37.58,24.27ZM35,29.63a6,6,0,1,1-6,6A6,6,0,0,1,35,29.63Zm0,2a4,4,0,1,0,4,4A4,4,0,0,0,35,31.64Z" style="fill:#fff"/></svg>