<svg xmlns="http://www.w3.org/2000/svg" width="70" height="70" viewBox="0 0 70 70"><path d="M33.87,45.87,23.8,41.79a.35.35,0,0,1-.21-.31v-13a.35.35,0,0,1,.21-.31l10.07-4.08a3,3,0,0,1,2.26,0L46.2,28.21a.35.35,0,0,1,.21.31v5.62a8.68,8.68,0,0,1,2,1.61V28.52A2.34,2.34,0,0,0,47,26.35L36.89,22.27a5,5,0,0,0-3.78,0L23.05,26.35a2.34,2.34,0,0,0-1.47,2.17v13a2.34,2.34,0,0,0,1.47,2.17l10.06,4.08A5,5,0,0,0,36,48a8.79,8.79,0,0,1-1.53-2A3.05,3.05,0,0,1,33.87,45.87Z" style="fill:#fff"/><path d="M47.92,43.38a2.7,2.7,0,0,1,.23-3.63l.6-.57a7.45,7.45,0,0,0-1.15-2.11l-.8.24-.13,0a2.61,2.61,0,0,1-3.23-1.91l-.25-1A7.24,7.24,0,0,0,42,34.31a7.46,7.46,0,0,0-1.16.09l-.23,1,0,.14a2.62,2.62,0,0,1-3.27,1.83l-.88-.26a7.68,7.68,0,0,0-1.14,2.11l.6.57.07.08a2.62,2.62,0,0,1,0,3.76l-.63.61a7.68,7.68,0,0,0,1.14,2.11l.81-.24.13,0A2.62,2.62,0,0,1,40.64,48l.24,1a6.41,6.41,0,0,0,1.16.1,6.23,6.23,0,0,0,1.15-.1l.24-1,0-.06a2.68,2.68,0,0,1,3.35-1.88l.8.24a7.45,7.45,0,0,0,1.15-2.11l-.64-.61ZM42,43.7a2,2,0,1,1,2-2A2,2,0,0,1,42,43.7Z" style="fill:#fff"/><path d="M36,35.39v-2l6.39-2.43a1,1,0,0,0,.59-1.3,1,1,0,0,0-1.3-.58L35,31.56,28.31,29a1,1,0,0,0-1.3.58,1,1,0,0,0,.59,1.3L34,33.34v5A8.7,8.7,0,0,1,36,35.39Z" style="fill:#fff"/></svg>