<?xml version="1.0" encoding="UTF-8"?>
<svg id="Layer_1" data-name="Layer 1" xmlns="http://www.w3.org/2000/svg" width="24" height="24" viewBox="0 0 24 24">
  <path fill="white" class="cls-1" d="M6.25,3c-1.79,0-3.25,1.46-3.25,3.25v11.5c0,1.79,1.46,3.25,3.25,3.25h11.5c1.79,0,3.25-1.46,3.25-3.25V6.25c0-1.79-1.46-3.25-3.25-3.25H6.25ZM4.5,6.25c0-.97.78-1.75,1.75-1.75h11.5c.97,0,1.75.78,1.75,1.75v11.5c0,.97-.78,1.75-1.75,1.75H6.25c-.97,0-1.75-.78-1.75-1.75V6.25ZM9,12c0-1.66,1.34-3,3-3s3,1.34,3,3-1.34,3-3,3-3-1.34-3-3ZM7.56,11.25h-.81c-.41,0-.75.34-.75.75s.34.75.75.75h.81c.32,1.88,1.8,3.37,3.69,3.69v.81c0,.41.34.75.75.75s.75-.34.75-.75v-.81c1.88-.32,3.37-1.8,3.69-3.69h.81c.41,0,.75-.34.75-.75s-.34-.75-.75-.75h-.81c-.32-1.88-1.8-3.37-3.69-3.69v-.81c0-.41-.34-.75-.75-.75s-.75.34-.75.75v.81c-1.88.32-3.37,1.8-3.69,3.69ZM13.5,12c0,.83-.67,1.5-1.5,1.5s-1.5-.67-1.5-1.5.67-1.5,1.5-1.5,1.5.67,1.5,1.5Z"/>
</svg>