<svg xmlns="http://www.w3.org/2000/svg" width="24" height="24" viewBox="0 0 24 24"><path d="M7.13,13.61a.76.76,0,0,0,.06,1.06,1.6,1.6,0,0,1,.51.88l1,4.68A2.26,2.26,0,0,0,10.92,22h2.16a2.26,2.26,0,0,0,2.19-1.76l1-4.68a1.6,1.6,0,0,1,.51-.88,7.18,7.18,0,0,0,2.42-5,7.26,7.26,0,0,0-2-5.4A7.13,7.13,0,0,0,12,2,6.9,6.9,0,0,0,7.13,3.94a.75.75,0,1,0,1,1.1A5.35,5.35,0,0,1,12,3.51a5.67,5.67,0,0,1,4.16,1.8,5.8,5.8,0,0,1,1.58,4.28,5.7,5.7,0,0,1-1.93,3.95,3.18,3.18,0,0,0-1,1.69L14.45,17H9.55l-.38-1.77a3.16,3.16,0,0,0-1-1.68A.75.75,0,0,0,7.13,13.61Zm3.06,6.29-.3-1.4h4.23l-.31,1.4a.76.76,0,0,1-.73.59H10.92A.76.76,0,0,1,10.19,19.9Z" style="fill:white"/><path d="M2.23,8.86,4.87,6.23a.75.75,0,0,1,1.06,0,.74.74,0,0,1,0,1.06L4.58,8.64h7.11a.75.75,0,0,1,0,1.5H4.58l1.35,1.35a.74.74,0,0,1,0,1.06.75.75,0,0,1-.53.22.74.74,0,0,1-.53-.22L2.23,9.92a.75.75,0,0,1,0-1.06Z" style="fill:white"/></svg>