<?xml version="1.0" encoding="UTF-8"?><svg id="Layer_1" xmlns="http://www.w3.org/2000/svg" width="24" height="24" viewBox="0 0 24 24"><defs><style>.cls-1{fill:#fff;}</style></defs><path class="cls-1" d="m4.35,5.56c0-.71.57-1.28,1.28-1.28h2.04c.42,0,.76-.35.76-.77,0-.41-.32-.75-.73-.76,0,0-.02,0-.03,0h-2.1c-1.53.03-2.75,1.28-2.74,2.81v2.04c0,.41.32.75.73.76,0,0,.02,0,.03,0h0c.42,0,.76-.34.77-.76v-2.04Zm0,12.81c0,.71.57,1.28,1.28,1.28h2.04c.42,0,.76.35.76.77,0,.41-.32.75-.73.76,0,0-.02,0-.03,0h-2.1c-1.53-.03-2.75-1.28-2.74-2.81v-2.09c0-.41.32-.75.73-.76,0,0,.02,0,.03,0h0c.42,0,.76.34.77.76v2.09Zm14.03-14.03c.71,0,1.28.57,1.28,1.28v2.04c0,.42.35.76.77.76.41,0,.75-.32.76-.73,0,0,0-.02,0-.03h0v-2.1c-.03-1.53-1.28-2.75-2.81-2.74h-2.09c-.41,0-.75.32-.76.73,0,0,0,.02,0,.03h0c0,.42.34.76.76.77h2.09Zm1.28,14.09c0,.71-.57,1.28-1.28,1.28h-2.09c-.42,0-.76.35-.76.77,0,.41.32.75.73.76,0,0,.02,0,.03,0h2.09c1.54-.03,2.77-1.3,2.74-2.84,0,0,0-.02,0-.03v-2.09c0-.41-.32-.75-.73-.76,0,0-.02,0-.03,0h0c-.42,0-.76.34-.77.76l.06,2.15Z"/></svg>