<?xml version="1.0" encoding="UTF-8"?><svg id="Layer_1" xmlns="http://www.w3.org/2000/svg" width="24" height="24" viewBox="0 0 24 24"><defs><style>.cls-1{fill:#fff;}</style></defs><path class="cls-1" d="m22,16c0,1.38-.7,2.6-1.76,3.32l-.14.68h-4.2l-.14-.68c-1.06-.72-1.76-1.94-1.76-3.32,0-2.21,1.79-4,4-4s4,1.79,4,4Z"/><path class="cls-1" d="m16.1,21l.16.79c.14.7.76,1.21,1.47,1.21h.54c.72,0,1.33-.5,1.47-1.21l.16-.79h-3.8Z"/><path class="cls-1" d="m12,17c.41,0,.75-.34.75-.75v-5.49l4.77-1.81c.39-.15.58-.58.44-.97-.15-.39-.58-.58-.97-.44l-4.98,1.89-4.98-1.89c-.39-.15-.82.05-.97.44-.15.39.05.82.44.97l4.77,1.81v5.49c0,.41.34.75.75.75Z"/><path class="cls-1" d="m14.93,20.19l-.06-.31c-.16-.13-.31-.27-.46-.42l-1.56.63c-.54.22-1.15.22-1.69,0l-7.5-3.04c-.09-.04-.16-.13-.16-.23V7.17c0-.1.06-.19.16-.23l7.5-3.04c.54-.22,1.15-.22,1.69,0l7.5,3.04c.09.04.16.13.16.23v4.53c.59.34,1.1.79,1.5,1.34v-5.87c0-.71-.43-1.35-1.09-1.62l-7.5-3.04c-.9-.37-1.91-.37-2.82,0l-7.5,3.04c-.66.27-1.09.91-1.09,1.62v9.65c0,.71.43,1.35,1.09,1.62l7.5,3.04c.9.37,1.91.37,2.82,0l1.64-.67-.13-.63Z"/></svg>