<?xml version="1.0" encoding="UTF-8"?>
<svg id="Layer_1" data-name="Layer 1" xmlns="http://www.w3.org/2000/svg" width="24" height="24" viewBox="0 0 24 24">
  <path fill="white" class="cls-1" d="M19.5,12.91v4.84c0,.97-.78,1.75-1.75,1.75H6.25c-.97,0-1.75-.78-1.75-1.75V6.25c0-.97.78-1.75,1.75-1.75h4.93c.45-.6,1-1.11,1.64-1.5h-6.57c-1.79,0-3.25,1.46-3.25,3.25v11.5c0,1.79,1.46,3.25,3.25,3.25h11.5c1.79,0,3.25-1.46,3.25-3.25v-6.42c-.4.62-.91,1.15-1.5,1.58Z"/>
  <path fill="white" class="cls-1" d="M12.95,8.1c0-1.66,1.34-3,3-3s3,1.34,3,3-1.34,3-3,3-3-1.34-3-3ZM11.51,7.35h-.81c-.41,0-.75.34-.75.75s.34.75.75.75h.81c.32,1.88,1.8,3.37,3.69,3.69v.81c0,.41.34.75.75.75s.75-.34.75-.75v-.81c1.88-.32,3.37-1.8,3.69-3.69h.81c.41,0,.75-.34.75-.75s-.34-.75-.75-.75h-.81c-.32-1.88-1.8-3.37-3.69-3.69v-.81c0-.41-.34-.75-.75-.75s-.75.34-.75.75v.81c-1.88.32-3.37,1.8-3.69,3.69ZM17.45,8.1c0,.83-.67,1.5-1.5,1.5s-1.5-.67-1.5-1.5.67-1.5,1.5-1.5,1.5.67,1.5,1.5Z"/>
</svg>