<?xml version="1.0" encoding="UTF-8"?>
    <svg id="Layer_1" xmlns="http://www.w3.org/2000/svg" width="24" height="24" viewBox="0 0 24 24">
    <g fill="white" fill-rule="nonzero">
        <path d="m11.41,14.12c-.19.41-.34.89-.34,1.38,0,.73.29,1.43.78,1.91.44.44,1.03.71,1.73.71,1.47,0,2.5-1.23,2.5-2.62,0-.49-.15-.97-.34-1.38-.19-.42-.44-.81-.67-1.13-.24-.33-.47-.61-.65-.81l-.31-.33h0c-.29-.29-.77-.29-1.06,0h0c-.06.07-.21.23-.3.33-.18.2-.41.48-.65.81-.24.33-.48.72-.67,1.13Zm2.42-.26c.2.28.39.59.53.89.14.31.21.56.21.76,0,.69-.48,1.12-1,1.12-.25,0-.49-.1-.67-.28-.2-.2-.32-.48-.32-.84,0-.19.06-.45.21-.76.14-.3.33-.6.53-.89.09-.12.18-.24.27-.35.09.11.18.22.27.35ZM6.82,2.13c-.41,0-.75.34-.75.75v1.76s-.06.06-.09.09L1.73,8.97c-.78.78-.78,2.05,0,2.83l3.54,3.54c.78.78,2.05.78,2.83,0l4.24-4.24c.78-.78.78-2.05,0-2.83l-3.54-3.54c-.34-.34-.78-.54-1.24-.58v-1.27c0-.41-.34-.75-.75-.75Zm-.75,4.62v.63c0,.41.34.75.75.75s.75-.34.75-.75v-1.71c.06.02.12.06.17.11l3.54,3.54c.09.09.13.2.14.31H3.19l2.88-2.88Zm.26,7.52l-3.13-3.13h6.96l-3.13,3.13c-.2.2-.51.2-.71,0Z"/>
        <path d="m22.52,17.91L13.81,4.55c-.38-.59-1.04-.94-1.74-.94h0c-.71,0-1.36.35-1.74.94l-.11.17,1.13,1.13.29-.44c.14-.21.35-.24.44-.24s.3.02.43.24l8.71,13.37c.15.23.07.45.02.53-.04.08-.18.27-.46.27H3.36c-.28,0-.41-.19-.46-.27-.04-.08-.13-.3.02-.53l1.72-2.65-1.13-1.13-1.9,2.92c-.42.64-.45,1.45-.09,2.12.36.67,1.06,1.09,1.83,1.09h17.42c.76,0,1.46-.42,1.83-1.09.36-.67.33-1.49-.09-2.12Z"/>
    </g>
</svg>