<?xml version="1.0" encoding="utf-8"?>
<!-- Generator: Adobe Illustrator 24.1.2, SVG Export Plug-In . SVG Version: 6.00 Build 0)  -->
<svg version="1.1" id="Layer_1" xmlns="http://www.w3.org/2000/svg" xmlns:xlink="http://www.w3.org/1999/xlink" x="0px" y="0px"
	 width="24px" height="24px" viewBox="0 0 24 24" style="enable-background:new 0 0 24 24;" xml:space="preserve">
<style type="text/css">
	.st0{fill:#212121;}
</style>
<desc>Created with Sketch.</desc>
<g>
	<g id="_xD83D__xDD0D_-Product-Icons_3_">
		<g id="ic_fluent_document_copy_24_regular_1_">
			<path id="_xD83C__xDFA8_-Color_3_" class="st0" d="M20,11v6.2c0,2.6-2.1,4.8-4.8,4.8H8.8c-1,0-1.8-0.6-2.1-1.5l8.6,0
				c1.8,0,3.3-1.5,3.3-3.3V11l0,0l0-2.1C19.4,9.2,20,10.1,20,11z"/>
		</g>
	</g>
	<path class="st0" d="M12.5,8.4h-1.4V7c0-0.3-0.2-0.5-0.5-0.5H10C9.7,6.5,9.5,6.7,9.5,7v1.4H8c-0.3,0-0.5,0.2-0.5,0.5v0.6
		C7.5,9.8,7.8,10,8,10h1.4v1.4c0,0.3,0.2,0.5,0.5,0.5h0.6c0.3,0,0.5-0.2,0.5-0.5V10h1.4c0.3,0,0.5-0.2,0.5-0.5V8.9
		C13,8.7,12.8,8.4,12.5,8.4z"/>
	<path class="st0" d="M13,14.5v0.6c0,0.3-0.2,0.5-0.5,0.5H8c-0.3,0-0.5-0.2-0.5-0.5v-0.6C7.5,14.2,7.8,14,8,14h4.5
		C12.8,14,13,14.2,13,14.5z"/>
	<path class="st0" d="M16.8,7.3l-4.6-4.6c-0.4-0.4-1-0.7-1.6-0.7H6.3C5,2,4,3,4,4.2v13c0,1.2,1,2.3,2.3,2.3h9c1.2,0,2.2-1,2.2-2.3
		V8.9C17.5,8.3,17.3,7.7,16.8,7.3z M15.2,18h-9c-0.4,0-0.8-0.3-0.8-0.8v-13c0-0.4,0.3-0.7,0.8-0.7h4.2c0.6,0,1.1,0.6,1.5,1.1
		l2.9,2.9C15.4,7.9,16,8.4,16,9l0,8.3C16,17.7,15.7,18,15.2,18z"/>
</g>
</svg>
