<svg xmlns="http://www.w3.org/2000/svg" width="24" height="24" viewBox="0 0 24 24"><path d="M18.63,22H10.89a2,2,0,0,1-2-2V4a2,2,0,0,1,2-2h7.74a2,2,0,0,1,2,2V20A2,2,0,0,1,18.63,22ZM10.89,3.51a.5.5,0,0,0-.5.5V20a.5.5,0,0,0,.5.5h7.74a.51.51,0,0,0,.5-.5V4a.51.51,0,0,0-.5-.5Z" style="fill:#212121"/><path d="M4.36,17.75a2,2,0,0,1-2-2V8.2a2,2,0,0,1,2-2V7.7a.51.51,0,0,0-.5.5v7.55a.51.51,0,0,0,.5.5Z" style="fill:#212121"/><path d="M7.83,19.69H7.4a2,2,0,0,1-2-2V6.18a2,2,0,0,1,2-2h.43v1.5H7.4a.51.51,0,0,0-.5.5V17.69a.51.51,0,0,0,.5.5h.43Z" style="fill:#212121"/></svg>