<svg viewBox="0 0 24 24" version="1.1" xmlns="http://www.w3.org/2000/svg" xmlns:xlink="http://www.w3.org/1999/xlink" width="24" height="24">
  <!-- Generator: Sketch 59.1 (86144) - https://sketch.com -->
  <title>ic_fluent_settings_24_regular</title>
  <desc>Created with Sketch.</desc>
  <g id="ðŸ”-Product-Icons" stroke="none" stroke-width="1" fill="none" fill-rule="evenodd">
    <g id="ic_fluent_settings_24_regular" fill="#212121" fill-rule="nonzero">
      <path d="M12.0124778,2.25004981 C12.7464561,2.25850931 13.4775625,2.34331189 14.1939893,2.50308791 C14.5067308,2.57283489 14.7406198,2.83356075 14.7761194,3.15201278 L14.9463241,4.67885731 C15.0233647,5.37990957 15.6152692,5.91089096 16.3209275,5.91163079 C16.5105994,5.91192723 16.6982236,5.8724274 16.8734931,5.79488275 L18.2741165,5.17960888 C18.5654231,5.05164206 18.9057701,5.12140804 19.1232362,5.35366556 C20.1354163,6.43469153 20.8892426,7.73119861 21.327994,9.14563241 C21.4226025,9.45062817 21.3137138,9.78208282 21.0566646,9.9715529 L19.8151844,10.8866429 C19.4610446,11.1468395 19.2518879,11.5600547 19.2518879,11.9995059 C19.2518879,12.438957 19.4610446,12.8521723 19.8159631,13.1129417 L21.0585161,14.0283492 C21.3156542,14.2177866 21.424614,14.5492871 21.3300078,14.8543382 C20.8914192,16.2685371 20.1380215,17.5649441 19.1264267,18.6461445 C18.9091604,18.8783604 18.5690663,18.9483128 18.2777879,18.8206973 L16.8714553,18.2045515 C16.4691374,18.0284918 16.0070651,18.0542838 15.62684,18.2740235 C15.2466148,18.4937632 14.9935731,18.8812498 14.9452542,19.3177822 L14.776179,20.8444618 C14.7413156,21.1592635 14.5124557,21.4182309 14.2043301,21.4915398 C12.7558808,21.8361534 11.2467854,21.8361534 9.79833608,21.4915398 C9.49021045,21.4182309 9.26135058,21.1592635 9.22648722,20.8444618 L9.0576652,19.3200377 C9.00807734,18.8843357 8.75464533,18.4980265 8.37472926,18.2790311 C7.99481318,18.0600358 7.53350779,18.0343481 7.13250482,18.2094252 L5.7258787,18.8256995 C5.43452472,18.9533482 5.0943393,18.8833238 4.87708632,18.6509825 C3.86492915,17.5685306 3.11149836,16.270585 2.67350518,14.8548427 C2.57916657,14.5499084 2.688166,14.2186739 2.94515048,14.0293496 L4.18848222,13.1133693 C4.54262206,12.8531727 4.75177873,12.4399574 4.75177873,12.0005063 C4.75177873,11.5610552 4.54262206,11.1478399 4.18801888,10.8873026 L2.94546579,9.97289561 C2.68810018,9.78349773 2.57900047,9.45183111 2.67367169,9.14663286 C3.11242314,7.73219906 3.8662494,6.43569197 4.87842956,5.35466601 C5.09589562,5.12240848 5.43624261,5.0526425 5.72754921,5.18060933 L7.12792442,5.79577421 C7.53086629,5.97260708 7.9941044,5.94589569 8.37607497,5.7227409 C8.75639478,5.50213708 9.00959105,5.1142722 9.05847199,4.67769189 L9.2285477,3.15201278 C9.26406522,2.83339973 9.49816738,2.57259043 9.81110802,2.5029921 C10.528382,2.34346958 11.2602557,2.25870353 12.0124778,2.25004981 Z M12.0126647,3.74994801 C11.5586248,3.75529426 11.1058626,3.79447802 10.6581282,3.86706495 L10.5491978,4.84423461 C10.4473682,5.75372759 9.92033793,6.56107177 9.1307238,7.01908176 C8.33627573,7.48322292 7.36766706,7.53907517 6.52488669,7.16921711 L5.62659688,6.77461123 C5.05466409,7.4687762 4.59944511,8.25140361 4.27882526,9.09173245 L5.07662396,9.67884052 C5.815434,10.2216652 6.25177873,11.083719 6.25177873,12.0005063 C6.25177873,12.9172936 5.815434,13.7793474 5.07740261,14.3215992 L4.27834975,14.9102735 C4.59869009,15.7520832 5.05398125,16.5361738 5.62630503,17.2316774 L6.53143729,16.8351192 C7.36953,16.4692082 8.33154713,16.5227779 9.12383307,16.979476 C9.91611902,17.4361742 10.4446321,18.2417923 10.548297,19.1526711 L10.6572578,20.1365419 C11.546902,20.2878194 12.4557641,20.2878194 13.3454083,20.1365419 L13.4543643,19.1527147 C13.5551575,18.2421074 14.0830557,17.433729 14.8762852,16.9753059 C15.6695147,16.5168827 16.6334944,16.4630752 17.4731076,16.8305011 L18.3775251,17.2267466 C18.94933,16.5323272 19.4044378,15.7495077 19.724985,14.9090277 L18.9270427,14.3211717 C18.1882326,13.778347 17.7518879,12.9162932 17.7518879,11.9995059 C17.7518879,11.0827186 18.1882326,10.2206648 18.9261146,9.67852303 L19.7229974,9.09114331 C19.402369,8.25065824 18.9470946,7.46788844 18.3750682,6.77361003 L17.4785957,7.16741578 C17.1132613,7.329057 16.7180786,7.41225335 16.3189691,7.41162946 C14.8492845,7.41008883 13.6158417,6.30360096 13.4554292,4.84387563 L13.3465034,3.86674729 C12.9009715,3.79424709 12.45294,3.75516877 12.0126647,3.74994801 Z M12,8.25 C14.0710678,8.25 15.75,9.92893219 15.75,12 C15.75,14.0710678 14.0710678,15.75 12,15.75 C9.92893219,15.75 8.25,14.0710678 8.25,12 C8.25,9.92893219 9.92893219,8.25 12,8.25 Z M12,9.75 C10.7573593,9.75 9.75,10.7573593 9.75,12 C9.75,13.2426407 10.7573593,14.25 12,14.25 C13.2426407,14.25 14.25,13.2426407 14.25,12 C14.25,10.7573593 13.2426407,9.75 12,9.75 Z" id="ðŸŽ¨-Color"></path>
    </g>
  </g>
</svg>