<svg xmlns="http://www.w3.org/2000/svg" width="24" height="24" viewBox="0 0 24 24"><rect width="24" height="24" style="fill:none"/><path d="M19.93,9.59V17a.5.5,0,0,1-.5.5H4.56a.5.5,0,0,1-.5-.5V8.75a.51.51,0,0,1,.5-.5H10.7l1.48-1.5H4.56a2,2,0,0,0-2,2V17a2,2,0,0,0,2,2H19.43a2,2,0,0,0,2-2V8.75a1.79,1.79,0,0,0-.09-.57Z" style="fill:#212121"/><path d="M20.55,3.36l.15.14a2.77,2.77,0,0,1,0,3.9L14.4,13.75a1.49,1.49,0,0,1-.65.39L9.54,15.35A.51.51,0,0,1,8.92,15a.42.42,0,0,1,0-.27l1.21-4.22a1.44,1.44,0,0,1,.38-.64l6.31-6.36A2.74,2.74,0,0,1,20.55,3.36Zm-2.67,1.2-6.31,6.36-.71,2.49,2.48-.71,6.3-6.36a1.26,1.26,0,0,0,.09-1.68l-.1-.11A1.24,1.24,0,0,0,17.88,4.56Z" style="fill:#212121"/></svg>