<svg xmlns="http://www.w3.org/2000/svg" viewBox="0 0 2048 2048">
  <path d="M384 1920q-53 0-99-20t-82-55-55-81-20-100V384q0-53 20-99t55-82 81-55 100-20h1008q51 0 98 19t83 56l272 272q36 36 55 83t20 98v232q-30-23-62-42t-66-37V656q0-26-9-49t-28-42l-272-272q-31-31-75-36v319q0 40-15 75t-41 61-61 41-75 15H704q-40 0-75-15t-61-41-41-61-15-75V256H384q-27 0-50 10t-41 27-27 40-10 51v1280q0 27 10 50t27 41 40 27 51 10v-576q0-40 15-75t41-61 61-41 75-15h312q-23 30-42 62t-37 66H576q-26 0-45 19t-19 45v576h297q17 34 36 66t43 62H384zm832-1280q26 0 45-19t19-45V256H640v320q0 26 19 45t45 19h512zm-320 832q0-119 45-224t124-183 183-123 224-46q79 0 152 20t138 58 117 91 90 117 58 137 21 153q0 119-45 224t-124 183-183 123-224 46q-120 0-225-45t-183-123-123-183-45-225zm576 328q30 0 51-21l256-256q21-21 21-51t-21-51-51-21q-30 0-51 21l-141 141v-346q0-26-19-45t-45-19q-26 0-45 19t-19 45v346l-141-141q-21-21-51-21t-51 21-21 51q0 30 21 51l256 256q21 21 51 21z" />
</svg>