<svg xmlns="http://www.w3.org/2000/svg" viewBox="0 0 40 40"><defs><style>.cls-1{fill:#fff;}</style></defs><title>colorPicker</title><g id="UI_Elements" data-name="UI Elements"><path class="cls-1" d="M22.76,11c-1.75,1.25,2.18,3.18.18,4.33-1.61.92-3.23-1.69-6.14-2.34A7.34,7.34,0,0,0,8.58,23c1.82,4.11,6.31,6.22,11.46,6.22C26.91,29.22,32,25.6,32,20,32,14.16,24.89,9.5,22.76,11ZM13.1,24.85a3,3,0,1,1,3-3A3,3,0,0,1,13.1,24.85Zm5.78-2.43a2.67,2.67,0,1,1-2.66,2.66A2.66,2.66,0,0,1,18.88,22.42ZM24.77,22a2.34,2.34,0,1,1-2.34,2.34A2.34,2.34,0,0,1,24.77,22Zm3.81-3.08a2,2,0,1,1-2,2A2,2,0,0,1,28.58,18.92Zm-.95-4.22a1.7,1.7,0,1,1-1.69,1.69A1.69,1.69,0,0,1,27.63,14.7Z"/></g></svg>