<svg xmlns="http://www.w3.org/2000/svg" width="24" height="24" viewBox="0 0 24 24"><path d="M21.12,18,16.28,8.35a1.34,1.34,0,0,0-1.21-.76,1.36,1.36,0,0,0-1,.42h0l-.87-1.74A1.35,1.35,0,0,0,12,5.52a1.32,1.32,0,0,0-1,.42h0l-.87-1.75a1.36,1.36,0,0,0-1.22-.75,1.34,1.34,0,0,0-1.21.75L2.88,13.86a1.36,1.36,0,0,0,1.22,2H6l0,.11a1.36,1.36,0,0,0,1.21,2H9.07L9,18a1.35,1.35,0,0,0,1.21,2H19.9a1.35,1.35,0,0,0,1.22-2ZM6.75,14.33H4.32L8.93,5.11l1.22,2.43Zm3.07,2.08H7.39L12,7.19l1.22,2.43Zm.64,2.07,4.61-9.21,4.61,9.21Z" style="fill:white"/></svg>