<svg xmlns="http://www.w3.org/2000/svg" width="24" height="24" viewBox="0 0 24 24"><path d="M15.81,13.55a3.16,3.16,0,0,0-1,1.68L14.45,17H9.55l-.38-1.77a3.18,3.18,0,0,0-1-1.69A5.7,5.7,0,0,1,6.26,9.59,5.8,5.8,0,0,1,7.84,5.31,5.67,5.67,0,0,1,12,3.51,5.35,5.35,0,0,1,15.85,5a.75.75,0,0,0,1-1.1A6.9,6.9,0,0,0,12,2,7.13,7.13,0,0,0,6.75,4.28a7.26,7.26,0,0,0-2,5.4,7.18,7.18,0,0,0,2.42,5,1.6,1.6,0,0,1,.51.88l1,4.68A2.26,2.26,0,0,0,10.92,22h2.16a2.26,2.26,0,0,0,2.19-1.76l1-4.68a1.6,1.6,0,0,1,.51-.88.76.76,0,0,0,.06-1.06A.75.75,0,0,0,15.81,13.55Zm-2.73,6.94H10.92a.76.76,0,0,1-.73-.59l-.31-1.4h4.23l-.3,1.4A.76.76,0,0,1,13.08,20.49Z" style="fill:white"/><path d="M21.77,8.86,19.13,6.23a.75.75,0,0,0-1.06,0,.74.74,0,0,0,0,1.06l1.35,1.35H12.31a.75.75,0,0,0,0,1.5h7.11l-1.35,1.35a.74.74,0,0,0,0,1.06.75.75,0,0,0,.53.22.74.74,0,0,0,.53-.22l2.64-2.63a.75.75,0,0,0,0-1.06Z" style="fill:white"/></svg>