<svg xmlns="http://www.w3.org/2000/svg" width="24" height="24" viewBox="0 0 24 24"><path d="M8.62,11.2H3.92l3-3a.75.75,0,0,0,0-1.06.74.74,0,0,0-1.06,0L2.24,10.76a1.67,1.67,0,0,0,0,2.37l3.58,3.58a.75.75,0,0,0,1.06,0,.75.75,0,0,0,0-1.06l-3-3h4.7a.75.75,0,1,0,0-1.5Z" style="fill:white"/><path d="M21.76,10.76,18.18,7.18a.74.74,0,0,0-1.06,0,.75.75,0,0,0,0,1.06l3,3h-4.7a.75.75,0,1,0,0,1.5h4.7l-3,3a.75.75,0,0,0,0,1.06.74.74,0,0,0,.53.22.73.73,0,0,0,.53-.22l3.58-3.58A1.67,1.67,0,0,0,21.76,10.76Z" style="fill:white"/><path d="M12,3.64a.76.76,0,0,0-.75.75V19.61a.75.75,0,0,0,1.5,0V4.39A.75.75,0,0,0,12,3.64Z" style="fill:white"/></svg>