<svg viewBox="0 0 24 24" version="1.1" xmlns="http://www.w3.org/2000/svg" xmlns:xlink="http://www.w3.org/1999/xlink" width="24" height="24">
  <!-- Generator: Sketch 59.1 (86144) - https://sketch.com -->
  <title>ic_fluent_lightbulb_24_regular</title>
  <desc>Created with Sketch.</desc>
  <g id="ðŸ”-Product-Icons" stroke="none" stroke-width="1" fill="none" fill-rule="evenodd">
    <g id="ic_fluent_lightbulb_24_regular" fill="white" fill-rule="nonzero">
      <path d="M12.000008,2.00139734 C16.0040628,2.00139734 19.249992,5.24733208 19.249992,9.25139734 C19.249992,11.3474567 18.3493333,13.2711054 16.5869535,14.9933011 C16.5100054,15.0685004 16.450441,15.1590617 16.4118457,15.2586031 L16.380373,15.3609016 L15.2492957,20.256497 C15.0265913,21.2204195 14.2034707,21.9187611 13.2302558,21.9933796 L13.0570456,22 L10.9432689,22 C9.95374997,22 9.08791486,21.3549492 8.79629808,20.4232534 L8.75088874,20.2559339 L7.62132399,15.3611533 C7.58904306,15.2212595 7.51728321,15.0935695 7.41456824,14.9932517 C5.73516207,13.3530399 4.83779011,11.5301519 4.75613429,9.54965138 L4.750008,9.25139734 L4.75388322,9.01208292 C4.88014853,5.11879041 8.07602134,2.00139734 12.000008,2.00139734 Z M14.115008,18.4993973 L9.884008,18.4993973 L10.2124755,19.9186446 C10.2831529,20.2249131 10.5356676,20.4507962 10.8400612,20.4929101 L10.9432689,20.5 L13.0570456,20.5 C13.3712985,20.5 13.6481364,20.3048226 13.757662,20.0177756 L13.7877956,19.9188323 L14.115008,18.4993973 Z M12.000008,3.50139734 C8.89821922,3.50139734 6.37007083,5.95741111 6.25416008,9.03084139 L6.250008,9.25139734 L6.25672343,9.52840679 C6.33286953,11.0917695 7.05722352,12.5475342 8.46263227,13.9201432 C8.72676013,14.1781068 8.92266257,14.4964075 9.03423135,14.8463815 L9.08291336,15.0238752 L9.538008,16.9993973 L14.461008,16.9993973 L14.9188729,15.023237 C15.0019011,14.6638694 15.1717664,14.3313677 15.4124215,14.0542893 L15.5385739,13.9205009 C16.9431998,12.547902 17.6671738,11.0920338 17.7432801,9.5284475 L17.749992,9.25139734 L17.7458399,9.03084154 C17.6299293,5.9574132 15.1017833,3.50139734 12.000008,3.50139734 Z" id="ðŸŽ¨-Color"></path>
    </g>
  </g>
</svg>