<svg viewBox="0 0 24 24" version="1.1" xmlns="http://www.w3.org/2000/svg" xmlns:xlink="http://www.w3.org/1999/xlink" width="24" height="24">
  <!-- Generator: Sketch 59.1 (86144) - https://sketch.com -->
  <title>ic_fluent_pause_24_regular</title>
  <desc>Created with Sketch.</desc>
  <g id="ðŸ”-Product-Icons" stroke="none" stroke-width="1" fill="none" fill-rule="evenodd">
    <g id="ic_fluent_pause_24_regular" fill="white" fill-rule="nonzero">
      <path d="M8.25,2 C9.21649831,2 10,2.78350169 10,3.75 L10,20.25 C10,21.2164983 9.21649831,22 8.25,22 L4.75,22 C3.78350169,22 3,21.2164983 3,20.25 L3,3.75 C3,2.78350169 3.78350169,2 4.75,2 L8.25,2 Z M19.25,2 C20.2164983,2 21,2.78350169 21,3.75 L21,20.25 C21,21.2164983 20.2164983,22 19.25,22 L15.75,22 C14.7835017,22 14,21.2164983 14,20.25 L14,3.75 C14,2.78350169 14.7835017,2 15.75,2 L19.25,2 Z M8.25,3.5 L4.75,3.5 C4.61192881,3.5 4.5,3.61192881 4.5,3.75 L4.5,20.25 C4.5,20.3880712 4.61192881,20.5 4.75,20.5 L8.25,20.5 C8.38807119,20.5 8.5,20.3880712 8.5,20.25 L8.5,3.75 C8.5,3.61192881 8.38807119,3.5 8.25,3.5 Z M19.25,3.5 L15.75,3.5 C15.6119288,3.5 15.5,3.61192881 15.5,3.75 L15.5,20.25 C15.5,20.3880712 15.6119288,20.5 15.75,20.5 L19.25,20.5 C19.3880712,20.5 19.5,20.3880712 19.5,20.25 L19.5,3.75 C19.5,3.61192881 19.3880712,3.5 19.25,3.5 Z" id="ðŸŽ¨-Color"></path>
    </g>
  </g>
</svg>