<svg viewBox="0 0 24 24" version="1.1" xmlns="http://www.w3.org/2000/svg" xmlns:xlink="http://www.w3.org/1999/xlink" width="24" height="24">
  <!-- Generator: Sketch 59.1 (86144) - https://sketch.com -->
  <title>ic_fluent_play_24_regular</title>
  <desc>Created with Sketch.</desc>
  <g id="ðŸ”-Product-Icons" stroke="none" stroke-width="1" fill="none" fill-rule="evenodd">
    <g id="ic_fluent_play_24_regular" fill="white" fill-rule="nonzero">
      <path d="M6.33994976,2.27500912 C5.25284495,1.67304649 3.88358525,2.06633193 3.28162262,3.15343674 C3.09690734,3.48702035 3,3.86207592 3,4.2433865 L3,19.7591388 C3,21.0017795 4.00735931,22.0091388 5.25,22.0091388 C5.63140051,22.0091388 6.00654154,21.9121858 6.34018202,21.7273876 L20.3484443,13.9684314 C21.4354781,13.3663405 21.8286019,11.9970344 21.226511,10.9100006 C21.0219396,10.540661 20.7175758,10.2363331 20.348212,10.0318053 L6.33994976,2.27500912 Z M19.9143452,11.6367887 C20.1150422,11.9991333 19.9840009,12.4555686 19.6216563,12.6562656 L5.61339401,20.4152217 C5.50218051,20.4768211 5.3771335,20.5091388 5.25,20.5091388 C4.83578644,20.5091388 4.5,20.1733524 4.5,19.7591388 L4.5,4.2433865 C4.5,4.11628298 4.53230245,3.99126445 4.59387421,3.88006992 C4.79452842,3.51770165 5.25094832,3.3866065 5.61331659,3.58726071 L19.6215789,11.3440569 C19.7447001,11.4122328 19.8461547,11.5136755 19.9143452,11.6367887 Z" id="ðŸŽ¨-Color"></path>
    </g>
  </g>
</svg>