<svg viewBox="0 0 20 20" version="1.1" xmlns="http://www.w3.org/2000/svg" xmlns:xlink="http://www.w3.org/1999/xlink" width="27" height="27">
  <!-- Generator: Sketch 64 (93537) - https://sketch.com -->
  <title>ic_fluent_window_new_20_regular</title>
  <desc>Created with Sketch.</desc>
  <g id="ðŸ”-System-Icons" stroke="none" stroke-width="1" fill="none" fill-rule="evenodd">
    <g id="ic_fluent_window_new_20_regular" fill="white" fill-rule="nonzero">
      <path d="M14.5,3 C15.825472,3 16.9100378,4.03153766 16.9946823,5.33562452 L17,5.5 L17,12.5 C17,13.6248 16.2572,14.5761 15.2354,14.8901 C15.0566136,16.0311636 14.105895,16.9162833 12.934399,16.9943911 L12.7656,17 L6.5,17 C4.63143333,17 3.10487333,15.5357256 3.00517885,13.6920355 L3,13.5 L3,7.26562 C3,6.02104 3.90947,4.98887 5.10007,4.79744 C5.38765316,3.81341789 6.26401881,3.08064388 7.32204931,3.00623559 L7.5,3 L14.5,3 Z M5,5.85098 C4.46221538,6.04106 4.0651929,6.52910923 4.00729467,7.11674983 L4,7.26562 L4,13.5 C4,14.825472 5.03153766,15.9100378 6.33562452,15.9946823 L6.5,16 L12.7656,16 C13.3684615,16 13.8883314,15.6443456 14.12669,15.1313988 L14.1803,15 L7.5,15 C6.1745184,15 5.08996147,13.9684531 5.00531769,12.6643744 L5,12.5 L5,5.85098 Z M14.5,4 L7.5,4 C6.67157,4 6,4.67157 6,5.5 L6,12.5 C6,13.3284 6.67157,14 7.5,14 L14.5,14 C15.3284,14 16,13.3284 16,12.5 L16,5.5 C16,4.67157 15.3284,4 14.5,4 Z M13.4999975,6 C13.7454219,6 13.949598,6.17687704 13.9919405,6.41012499 L13.9999975,6.5 L13.9999975,10.4844 C13.9999975,10.7605 13.7761,10.9844 13.4999975,10.9844 C13.2545775,10.9844 13.050398,10.8074914 13.0080546,10.5742645 L12.9999975,10.4844 L12.9999975,7.70711 L8.85355,11.8536 C8.65829,12.0488 8.34171,12.0488 8.14645,11.8536 C7.97287667,11.68 7.95359074,11.410558 8.08859222,11.2156598 L8.14645,11.1464 L12.2929,7 L9.51562,7 C9.23948,7 9.01562,6.77614 9.01562,6.5 C9.01562,6.25454222 9.19249704,6.0503921 9.42574499,6.00805575 L9.51562,6 L13.4999975,6 Z" id="ðŸŽ¨-Color"></path>
    </g>
  </g>
</svg>