<svg xmlns="http://www.w3.org/2000/svg" viewBox="0 0 40 40"><defs><style>.cls-1{fill:none;}.cls-2{fill:#e0684b;}.cls-3{fill:#bb464b;}.cls-4{fill:#e0ded8;}.cls-5{fill:#d5d2ca;}.cls-6{fill:#fff;}</style></defs><g id="UI"><rect class="cls-1" width="40" height="40"/><polygon class="cls-2" points="32.91 13.78 29.54 11.84 26.29 13.71 29.66 15.65 32.91 13.78"/><polygon class="cls-2" points="14.61 15.65 25.38 9.44 22.14 7.57 11.37 13.78 14.61 15.65"/><polygon class="cls-2" points="18.77 21.95 22.14 23.89 25.51 21.95 22.14 20 18.77 21.95"/><polygon class="cls-3" points="29.66 15.65 29.66 24.34 22.14 28.69 14.61 24.34 14.61 15.65 11.37 13.78 11.37 26.22 22.14 32.44 32.91 26.22 32.91 13.78 29.66 15.65"/><polygon class="cls-3" points="22.14 16.11 18.77 18.05 18.77 21.95 22.14 20 25.51 21.95 25.51 18.05 22.14 16.11"/><polygon class="cls-4" points="29.66 15.65 25.51 18.05 25.51 21.95 22.14 23.89 22.14 28.69 29.66 24.34 29.66 15.65"/><polygon class="cls-5" points="14.61 15.65 18.77 18.05 18.77 21.95 22.14 23.89 22.14 28.69 14.61 24.34 14.61 15.65"/><polygon class="cls-6" points="25.38 9.44 29.54 11.84 26.29 13.71 29.66 15.65 25.51 18.05 22.14 16.11 18.77 18.05 14.61 15.65 25.38 9.44"/></g></svg>