<svg xmlns="http://www.w3.org/2000/svg" width="40" height="40" viewBox="0 0 40 40"><rect width="40" height="40" style="fill:none"/><path d="M20,30.5A10.5,10.5,0,1,1,30.5,20,10.51,10.51,0,0,1,20,30.5Zm0-20A9.5,9.5,0,1,0,29.5,20,9.51,9.51,0,0,0,20,10.5Z" style="fill:#fff"/><path d="M18.45,20.77v4.14H16.26V14.58h4.55c2.25,0,3.46,1.23,3.46,2.83a2.5,2.5,0,0,1-1.5,2.45c.51.19,1.29.72,1.29,2.58V23a7.77,7.77,0,0,0,.15,2H22.08a7.38,7.38,0,0,1-.21-2.32v-.15c0-1.13-.28-1.67-1.95-1.67Zm0-1.78h1.88c1.21,0,1.69-.47,1.69-1.32s-.55-1.32-1.65-1.32H18.45Z" style="fill:#fff"/></svg>