<svg xmlns="http://www.w3.org/2000/svg" width="40" height="40" viewBox="0 0 40 40"><rect width="40" height="40" style="fill:none"/><path d="M20,30.5A10.5,10.5,0,1,1,30.5,20,10.51,10.51,0,0,1,20,30.5Zm0-20A9.5,9.5,0,1,0,29.5,20,9.51,9.51,0,0,0,20,10.5Z" style="fill:#fff"/><path d="M24.6,24.91H23a5.43,5.43,0,0,1-.18-1,3.5,3.5,0,0,1-3,1.2c-3,0-4.68-2.28-4.68-5.22,0-3.1,1.81-5.44,5.07-5.44,2.65,0,4.23,1.5,4.47,3.25H22.39a2.09,2.09,0,0,0-2.26-1.51c-2.13,0-2.73,1.78-2.73,3.6s.69,3.54,2.74,3.54a2.05,2.05,0,0,0,2.27-2.25V21H20.14V19.12H24.6Z" style="fill:#fff"/></svg>