<svg xmlns="http://www.w3.org/2000/svg" width="40" height="40" viewBox="0 0 40 40"><rect width="40" height="40" style="fill:none"/><path d="M20,30.5A10.5,10.5,0,1,1,30.5,20,10.51,10.51,0,0,1,20,30.5Zm0-20A9.5,9.5,0,1,0,29.5,20,9.51,9.51,0,0,0,20,10.5Z" style="fill:#fff"/><path d="M16.17,14.58h4.51c2.51,0,3.45,1.29,3.45,2.64a2.31,2.31,0,0,1-1.32,2.23,2.48,2.48,0,0,1,1.62,2.37c0,1.77-1.39,3.09-3.58,3.09H16.17Zm4.26,4.08c1.06,0,1.5-.48,1.5-1.22s-.57-1.14-1.43-1.14H18.36v2.36Zm-2.07,4.53h2c1.22,0,1.76-.51,1.76-1.44s-.54-1.37-1.77-1.37h-2Z" style="fill:#fff"/></svg>