<svg xmlns="http://www.w3.org/2000/svg" width="40" height="40" viewBox="0 0 40 40"><rect width="40" height="40" style="fill:none"/><path d="M24.53,19.72l-.08-.07a.75.75,0,0,0-1,.07l-2.72,2.72V15.65A.75.75,0,0,0,20,15h-.1a.75.75,0,0,0-.65.74v6.69l-2.72-2.72-.08-.07a.75.75,0,0,0-1,1.13l4,4,.08.07a.75.75,0,0,0,1-.07l4-4,.07-.08A.75.75,0,0,0,24.53,19.72Z" style="fill:#fff"/><path d="M10,20A10,10,0,1,0,20,10,10,10,0,0,0,10,20Zm18.5,0A8.5,8.5,0,1,1,20,11.5,8.51,8.51,0,0,1,28.5,20Z" style="fill:#fff"/></svg>