<svg xmlns="http://www.w3.org/2000/svg" width="40" height="40" viewBox="0 0 40 40"><rect width="40" height="40" style="fill:none"/><path d="M12.5,21a.5.5,0,0,1,.5.5V25a2,2,0,0,0,2,2h3.5a.5.5,0,0,1,0,1H15a3,3,0,0,1-3-3V21.5A.5.5,0,0,1,12.5,21Zm15,0a.5.5,0,0,1,.49.41V25a3,3,0,0,1-2.82,3H21.5a.5.5,0,0,1-.09-1H25a2,2,0,0,0,2-1.85V21.5A.5.5,0,0,1,27.5,21Zm-9-9a.5.5,0,0,1,.09,1H15a2,2,0,0,0-2,1.85V18.5a.5.5,0,0,1-1,.09V15a3,3,0,0,1,2.82-3H18.5ZM25,12a3,3,0,0,1,3,2.82V18.5a.5.5,0,0,1-1,.09V15a2,2,0,0,0-1.85-2H21.5a.5.5,0,0,1-.09-1H25Z" style="fill:#fff"/></svg>