<svg xmlns="http://www.w3.org/2000/svg" width="40" height="40" viewBox="0 0 40 40"><rect width="40" height="40" style="fill:none"/><path d="M29.36,18.39a2.18,2.18,0,0,1,0,3.08l-7.91,7.91a1.22,1.22,0,0,1-.89.37h-1.7a.85.85,0,0,1-.86-.86v-1.7a1.22,1.22,0,0,1,.37-.89l7.91-7.91A2.18,2.18,0,0,1,29.36,18.39ZM30,23.11V27.5a2.25,2.25,0,0,1-2.25,2.25H23l1.5-1.5h3.25a.76.76,0,0,0,.75-.75v-3ZM23.63,10.25a1.23,1.23,0,0,1,.76.26L29.64,15a1.21,1.21,0,0,1,.36.9v1.23a2.43,2.43,0,0,0-.75-.43,2,2,0,0,0-.74-.1V16L24,12.14V15a1.75,1.75,0,0,1-1.75,1.75h-6A1.75,1.75,0,0,1,14.5,15V11.75H12.25a.75.75,0,0,0-.75.75v15a.75.75,0,0,0,.75.75H13V22.51a1.75,1.75,0,0,1,1.61-1.74H22l-1.55,1.5H14.75a.25.25,0,0,0-.24.2v5.79h2v1.5H12.25A2.25,2.25,0,0,1,10,27.5v-15a2.25,2.25,0,0,1,2.25-2.25Zm3.72,9.21-7.84,7.83v.95h.95l7.83-7.84a.66.66,0,0,0-.94-.94ZM22.5,11.75H16V15a.25.25,0,0,0,.25.25h6A.25.25,0,0,0,22.5,15Z" style="fill:#fff"/></svg>