<svg viewBox="0 0 24 24" version="1.1" xmlns="http://www.w3.org/2000/svg" xmlns:xlink="http://www.w3.org/1999/xlink" width="24" height="24">
  <!-- Generator: Sketch 59.1 (86144) - https://sketch.com -->
  <title>ic_fluent_delete_24_regular</title>
  <desc>Created with Sketch.</desc>
  <g id="ðŸ”-Product-Icons" stroke="none" stroke-width="1" fill="none" fill-rule="evenodd">
    <g id="ic_fluent_delete_24_regular" fill="#212121" fill-rule="nonzero">
      <path d="M12,1.75 C13.7330315,1.75 15.1492459,3.10645477 15.2448552,4.81557609 L15.25,5 L20.5,5 C20.9142136,5 21.25,5.33578644 21.25,5.75 C21.25,6.12969577 20.9678461,6.44349096 20.6017706,6.49315338 L20.5,6.5 L19.704,6.5 L18.4238627,19.5191927 C18.2911666,20.8682696 17.1984309,21.9099961 15.8626249,21.9944645 L15.6870698,22 L8.31293022,22 C6.95734302,22 5.81365352,21.0144851 5.59883106,19.6933629 L5.57613734,19.5191927 L4.295,6.5 L3.5,6.5 C3.12030423,6.5 2.80650904,6.21784612 2.75684662,5.85177056 L2.75,5.75 C2.75,5.37030423 3.03215388,5.05650904 3.39822944,5.00684662 L3.5,5 L8.75,5 C8.75,3.20507456 10.2050746,1.75 12,1.75 Z M18.197,6.5 L5.802,6.5 L7.06893346,19.3723603 C7.12767639,19.9695801 7.60033019,20.4342891 8.18584501,20.493596 L8.31293022,20.5 L15.6870698,20.5 C16.2871716,20.5 16.795916,20.0751057 16.9122531,19.4982083 L16.9310665,19.3723603 L18.197,6.5 Z M13.75,9.25 C14.1296958,9.25 14.443491,9.53215388 14.4931534,9.89822944 L14.5,10 L14.5,17 C14.5,17.4142136 14.1642136,17.75 13.75,17.75 C13.3703042,17.75 13.056509,17.4678461 13.0068466,17.1017706 L13,17 L13,10 C13,9.58578644 13.3357864,9.25 13.75,9.25 Z M10.25,9.25 C10.6296958,9.25 10.943491,9.53215388 10.9931534,9.89822944 L11,10 L11,17 C11,17.4142136 10.6642136,17.75 10.25,17.75 C9.87030423,17.75 9.55650904,17.4678461 9.50684662,17.1017706 L9.5,17 L9.5,10 C9.5,9.58578644 9.83578644,9.25 10.25,9.25 Z M12,3.25 C11.0818266,3.25 10.3288077,3.95711027 10.2558012,4.85647279 L10.25,5 L13.75,5 C13.75,4.03350169 12.9664983,3.25 12,3.25 Z" id="ðŸŽ¨-Color"></path>
    </g>
  </g>
</svg>