<svg width="55" height="55" xmlns="http://www.w3.org/2000/svg" xmlns:svg="http://www.w3.org/2000/svg">
 <defs>
  <style>.cls-1{fill:none;}</style>
 </defs>
 <title>diffButton</title>
 <g>
  <title>Layer 1</title>
  <g stroke="null" id="Icon_buttons">
   <rect stroke="null" class="cls-1" width="18.710151" height="19.692677" id="svg_1" y="10.177081" x="11.781248"/>
   <path stroke="null" id="XMLID_8_" class="st0" d="m27.429738,25.895418l2.755495,0l0,1.467999l-2.755495,0l0,2.900195l-1.394756,0l0,-2.900195l-2.755495,0l0,-1.467999l2.755495,0l0,-2.900195l1.394756,0l0,2.900195zm-4.150251,8.736387l6.905746,0l0,-1.467999l-6.905746,0l0,1.467999zm6.225377,-16.004775l4.830621,5.084291l0,13.820679c0,0.787707 -0.612332,1.467999 -1.394756,1.467999l-12.416737,0c-0.748406,0 -1.394756,-0.644488 -1.394756,-1.467999l0,-17.436971c0,-0.787707 0.612332,-1.467999 1.394756,-1.467999l8.980873,0l-0.000001,0zm3.435863,5.836193l-4.150251,-4.368193l-8.266486,0l0,17.472776l12.450755,0l0,-13.104581l-0.034019,0l0.000001,-0.000001zm-2.075126,-8.736387l-7.586116,0l0,1.467999l6.905746,0l5.545008,5.836193l0,11.636581l1.394756,0l0,-12.388484l-6.259396,-6.55229l0,-0.000001l0.000001,0.000001z"/>
  </g>
 </g>
</svg>