<svg viewBox="0 0 24 24" version="1.1" xmlns="http://www.w3.org/2000/svg" xmlns:xlink="http://www.w3.org/1999/xlink" width="24" height="24">
  <!-- Generator: Sketch 59.1 (86144) - https://sketch.com -->
  <title>ic_fluent_download_24_regular</title>
  <desc>Created with Sketch.</desc>
  <g id="ðŸ”-Product-Icons" stroke="none" stroke-width="1" fill="none" fill-rule="evenodd">
    <g id="ic_fluent_download_24_regular" fill="#212121" fill-rule="nonzero">
      <path d="M18.2497829,20.5 C18.6639964,20.4998801 19,20.8355693 19,21.2497829 C19,21.6639964 18.6644307,21.9998801 18.2502171,22 L5.25021713,22.0037635 C4.83600358,22.0038834 4.5,21.6681942 4.5,21.2539806 C4.5,20.8397671 4.83556933,20.5038835 5.24978287,20.5037635 L18.2497829,20.5 Z M11.6482294,2.01179265 L11.75,2.00494604 C12.1296958,2.00494604 12.443491,2.28709992 12.4931534,2.65317548 L12.5,2.75494604 L12.499,16.439946 L16.2208157,12.7196151 C16.4871097,12.4533761 16.9037759,12.4292131 17.1973649,12.6470979 L17.2814758,12.7197247 C17.5477149,12.9860188 17.5718779,13.402685 17.3539931,13.6962739 L17.2813662,13.7803849 L12.283721,18.7769976 C12.017575,19.0430885 11.6011881,19.0673924 11.3075982,18.8498298 L11.2234781,18.777305 L6.22003241,13.7806923 C5.92693913,13.4879993 5.92661465,13.0131257 6.21930767,12.7200324 C6.48539223,12.453584 6.90203927,12.4290932 7.19579956,12.646747 L7.27996759,12.7193077 L10.999,16.432946 L11,2.75494604 C11,2.37525027 11.2821539,2.06145508 11.6482294,2.01179265 L11.75,2.00494604 L11.6482294,2.01179265 Z" id="ðŸŽ¨-Color"></path>
    </g>
  </g>
</svg>