<svg xmlns="http://www.w3.org/2000/svg" width="24" height="24" viewBox="0 0 24 24">
    <path d="M11,19.73l-7.49-3a.24.24,0,0,1-.16-.23V6.81a.25.25,0,0,1,.16-.23l7.49-3a2.25,2.25,0,0,1,1.69,0l7.5,3a.25.25,0,0,1,.15.23V11a6.4,6.4,0,0,1,1.5,1.19V6.81a1.75,1.75,0,0,0-1.09-1.62l-7.5-3a3.79,3.79,0,0,0-2.81,0L3,5.19A1.75,1.75,0,0,0,1.88,6.81v9.65A1.74,1.74,0,0,0,3,18.08l7.5,3a3.8,3.8,0,0,0,2.16.2,6.46,6.46,0,0,1-1.14-1.46A2.42,2.42,0,0,1,11,19.73Z"/>
    <path d="M21.5,17.88a2,2,0,0,1,.17-2.7l.45-.43a5.46,5.46,0,0,0-.86-1.57l-.6.18-.1,0A1.94,1.94,0,0,1,18.16,12L18,11.19a5.32,5.32,0,0,0-1.72,0l-.17.72,0,.1a2,2,0,0,1-2.44,1.36L13,13.18a5.68,5.68,0,0,0-.85,1.57l.45.43,0,.05a2,2,0,0,1,0,2.81l-.47.45A5.68,5.68,0,0,0,13,20.06l.61-.18.09,0a1.93,1.93,0,0,1,2.4,1.42l.19.77a5.32,5.32,0,0,0,1.72,0l.17-.72,0,0a2,2,0,0,1,2.49-1.4l.6.18a5.46,5.46,0,0,0,.86-1.57L21.64,18Zm-4.38.24a1.5,1.5,0,1,1,1.45-1.5A1.48,1.48,0,0,1,17.12,18.12Z"/>
    <path d="M12.63,11.93V10.4l4.76-1.81a.75.75,0,0,0-.53-1.4l-5,1.89-5-1.89a.74.74,0,0,0-1,.43.75.75,0,0,0,.43,1l4.77,1.81v3.7A6.31,6.31,0,0,1,12.63,11.93Z"/>
</svg>