<?xml version="1.0" encoding="utf-8"?>
<!-- Generator: Adobe Illustrator 24.1.2, SVG Export Plug-In . SVG Version: 6.00 Build 0)  -->
<svg version="1.1" id="Layer_1" xmlns="http://www.w3.org/2000/svg" xmlns:xlink="http://www.w3.org/1999/xlink" x="0px" y="0px"
	 width="24px" height="24px" viewBox="0 0 24 24" style="enable-background:new 0 0 24 24;" xml:space="preserve">
<style type="text/css">
	.st0{fill:#212121;}
</style>
<path class="st0" d="M11.1,20.9l0.5-1.8c0.1-0.6,0.4-1.1,0.8-1.5l0-7.1l7.7-3.1v3.1c0.3-0.1,0.6-0.1,0.9-0.1h0h0
	c0.2,0,0.4,0,0.6,0.1V6.3c0,0,0,0,0-0.1c0-0.3-0.2-0.6-0.5-0.7l-9.3-3.8c-0.2-0.1-0.4-0.1-0.6,0L2,5.5C1.8,5.7,1.6,5.9,1.6,6.2v0
	c0,0,0,0,0,0v11c0,0.3,0.2,0.6,0.5,0.7l9,3.6C11,21.4,11,21.1,11.1,20.9z M11.6,3.3l7.3,2.9l-7.3,2.9L4.3,6.2L11.6,3.3z M10.8,19.9
	l-7.7-3.1V7.3l7.7,3.1L10.8,19.9z"/>
<g>
	<path class="st0" d="M21,11.6L21,11.6c0.6,0,1.2,0.2,1.6,0.7c0.9,0.9,0.9,2.3,0,3.2l-5.9,5.9c-0.3,0.3-0.8,0.6-1.2,0.7l-1.8,0.5
		c-0.8,0.2-1.5-0.5-1.3-1.3l0.5-1.8c0.1-0.5,0.4-0.9,0.7-1.2l5.9-5.9C19.8,11.8,20.4,11.6,21,11.6z M21.5,13.3
		c-0.3-0.3-0.8-0.3-1.1,0l-5.9,5.9c-0.2,0.2-0.3,0.3-0.3,0.6l-0.3,1.2l1.2-0.3c0.2-0.1,0.4-0.2,0.6-0.3l5.9-5.9
		C21.8,14.1,21.8,13.6,21.5,13.3z"/>
</g>
</svg>
