<svg viewBox="0 0 24 24" version="1.1" xmlns="http://www.w3.org/2000/svg" xmlns:xlink="http://www.w3.org/1999/xlink" width="24" height="24">
  <!-- Generator: Sketch 59.1 (86144) - https://sketch.com -->
  <title>ic_fluent_document_24_regular</title>
  <desc>Created with Sketch.</desc>
  <g id="ðŸ”-Product-Icons" stroke="none" stroke-width="1" fill="none" fill-rule="evenodd">
    <g id="ic_fluent_document_24_regular" fill="#212121" fill-rule="nonzero">
      <path d="M18.5,20 C18.5,20.275 18.276,20.5 18,20.5 L6,20.5 C5.724,20.5 5.5,20.275 5.5,20 L5.5,4 C5.5,3.725 5.724,3.5 6,3.5 L12,3.5 L12,8 C12,9.104 12.896,10 14,10 L18.5,10 L18.5,20 Z M13.5,4.621 L17.378,8.5 L14,8.5 C13.724,8.5 13.5,8.275 13.5,8 L13.5,4.621 Z M19.414,8.414 L13.585,2.586 C13.559,2.56 13.527,2.54 13.5,2.516 C13.429,2.452 13.359,2.389 13.281,2.336 C13.241,2.309 13.195,2.291 13.153,2.268 C13.082,2.228 13.012,2.184 12.937,2.152 C12.74,2.07 12.528,2.029 12.313,2.014 C12.266,2.011 12.22,2 12.172,2 L12.171,2 L12,2 L6,2 C4.896,2 4,2.896 4,4 L4,20 C4,21.104 4.896,22 6,22 L18,22 C19.104,22 20,21.104 20,20 L20,10 L20,9.828 C20,9.298 19.789,8.789 19.414,8.414 L19.414,8.414 Z" id="ðŸŽ¨-Color"></path>
    </g>
  </g>
</svg>