<svg xmlns="http://www.w3.org/2000/svg" viewBox="0 0 55 55"><defs><style>.cls-1{fill:none;}</style></defs><title> savePGButton</title><g id="Icon_buttons" data-name="Icon buttons"><rect class="cls-1" width="55" height="55"/><path d="M34.9,19.12a1.16,1.16,0,0,1,.49.1,1.33,1.33,0,0,1,.66.66,1.16,1.16,0,0,1,.1.49V36.62H20.88l-2.23-2.24v-14a1.26,1.26,0,0,1,.36-.88,1.18,1.18,0,0,1,.4-.27,1.13,1.13,0,0,1,.49-.1Zm0,1.25H33.65v7.5H21.15v-7.5H19.9V33.86l1.5,1.51h1v-5h8.75v5H34.9ZM22.4,26.62h10V20.37h-10Zm7.5,5H23.65v3.75H24.9v-2.5h1.25v2.5H29.9Z"/></g></svg>