<svg viewBox="0 0 24 24" version="1.1" xmlns="http://www.w3.org/2000/svg" xmlns:xlink="http://www.w3.org/1999/xlink" width="24" height="24">
  <!-- Generator: Sketch 59.1 (86144) - https://sketch.com -->
  <title>ic_fluent_save_24_regular</title>
  <desc>Created with Sketch.</desc>
  <g id="ðŸ”-Product-Icons" stroke="none" stroke-width="1" fill="none" fill-rule="evenodd">
    <g id="ic_fluent_save_24_regular" fill="#212121" fill-rule="nonzero">
      <path d="M15.65,2 C15.9717273,2 16.2675997,2.02771153 16.5001858,2.25 L21.6298279,6.75 C21.8765897,6.98583653 22,7.30866402 22,7.65 L22,19.25 C22,20.4926407 20.9926407,21.5 19.75,21.5 L4.25,21.5 C3.00735931,21.5 2,20.4926407 2,19.25 L2,4.25 C2,3.00735931 3.00735931,2 4.25,2 L15.65,2 Z M6,3.499 L4.25,3.5 C3.83578644,3.5 3.5,3.83578644 3.5,4.25 L3.5,19.25 C3.5,19.6642136 3.83578644,20 4.25,20 L5,20 L5,14.25 C5,13.3318266 5.70711027,12.5788077 6.60647279,12.5058012 L6.75,12.5 L17.2845336,12.5 C18.202707,12.5 18.9245594,13.2433143 18.9944492,14.1462973 L19,14.2901153 L19,20 L19.75,20 C20.1642136,20 20.5,19.6642136 20.5,19.25 L20.5,7.76609146 L15.5362794,3.5 L15.5,3.499 L15.5,6.75249137 C15.5,7.71898968 14.7164983,8.50249137 13.75,8.50249137 L7.75,8.50249137 C6.78350169,8.50249137 6,7.71898968 6,6.75249137 L6,3.499 Z M17.2845336,14 L6.75,14 C6.63165327,14 6.53251318,14.0822334 6.50660268,14.1926773 L6.5,14.25 L6.5,20 L17.5,20 L17.5,14.25 C17.5,14.1349407 17.4462533,14.0380358 17.3484354,14.0089302 L17.2845336,14 Z M14,3.499 L7.5,3.499 L7.5,6.75249137 C7.5,6.89056256 7.61192881,7.00249137 7.75,7.00249137 L13.75,7.00249137 C13.8880712,7.00249137 14,6.89056256 14,6.75249137 L14,3.499 Z" id="ðŸŽ¨-Color"></path>
    </g>
  </g>
</svg>