<svg xmlns="http://www.w3.org/2000/svg" viewBox="0 0 21 21"><defs><style>.cls-1{fill:#fff;}</style></defs><title>Matrix</title><g id="Layer_5" data-name="Layer 5"><path class="cls-1" d="M11.5,6.11V9.5h3.39A4.51,4.51,0,0,0,11.5,6.11Z"/><path class="cls-1" d="M11.5,14.89a4.51,4.51,0,0,0,3.39-3.39H11.5Z"/><path class="cls-1" d="M11.5,3.07v2A5.54,5.54,0,0,1,15.92,9.5h2A7.51,7.51,0,0,0,11.5,3.07Z"/><path class="cls-1" d="M15.92,11.5a5.54,5.54,0,0,1-4.42,4.42v2a7.51,7.51,0,0,0,6.43-6.43Z"/><path class="cls-1" d="M5.08,11.5h-2A7.51,7.51,0,0,0,9.5,17.93v-2A5.54,5.54,0,0,1,5.08,11.5Z"/><path class="cls-1" d="M9.5,3.07A7.51,7.51,0,0,0,3.07,9.5h2A5.54,5.54,0,0,1,9.5,5.08Z"/><path class="cls-1" d="M9.5,11.5H6.11A4.51,4.51,0,0,0,9.5,14.89Z"/><path class="cls-1" d="M9.5,6.11A4.51,4.51,0,0,0,6.11,9.5H9.5Z"/></g></svg>