<svg viewBox="0 0 24 24" version="1.1" xmlns="http://www.w3.org/2000/svg" xmlns:xlink="http://www.w3.org/1999/xlink" width="24" height="24">
  <!-- Generator: Sketch 63.1 (92452) - https://sketch.com -->
  <title>ic_fluent_add_circle_24_regular</title>
  <desc>Created with Sketch.</desc>
  <g id="ðŸ”-System-Icons" stroke="none" stroke-width="1" fill="none" fill-rule="evenodd">
    <g id="ic_fluent_add_circle_24_regular" fill="white" fill-rule="nonzero">
      <path d="M12,2 C17.5228475,2 22,6.4771525 22,12 C22,17.5228475 17.5228475,22 12,22 C6.4771525,22 2,17.5228475 2,12 C2,6.4771525 6.4771525,2 12,2 Z M12,3.5 C7.30557963,3.5 3.5,7.30557963 3.5,12 C3.5,16.6944204 7.30557963,20.5 12,20.5 C16.6944204,20.5 20.5,16.6944204 20.5,12 C20.5,7.30557963 16.6944204,3.5 12,3.5 Z M12,7 C12.4142136,7 12.75,7.33578644 12.75,7.75 L12.75,11.25 L16.25,11.25 C16.6642136,11.25 17,11.5857864 17,12 C17,12.4142136 16.6642136,12.75 16.25,12.75 L12.75,12.75 L12.75,16.25 C12.75,16.6642136 12.4142136,17 12,17 C11.5857864,17 11.25,16.6642136 11.25,16.25 L11.25,12.75 L7.75,12.75 C7.33578644,12.75 7,12.4142136 7,12 C7,11.5857864 7.33578644,11.25 7.75,11.25 L11.25,11.25 L11.25,7.75 C11.25,7.33578644 11.5857864,7 12,7 Z" id="ðŸŽ¨-Color"></path>
    </g>
  </g>
</svg>