<svg viewBox="0 0 24 24" version="1.1" xmlns="http://www.w3.org/2000/svg" xmlns:xlink="http://www.w3.org/1999/xlink" width="24" height="24">
  <!-- Generator: Sketch 64 (93537) - https://sketch.com -->
  <title>ic_fluent_dictionary_24_regular</title>
  <desc>Created with Sketch.</desc>
  <g id="ðŸ”-System-Icons">
    <g id="ic_fluent_dictionary_24_regular">
      <path d="M18,2 C19.3807,2 20.5,3.11929 20.5,4.5 L20.5,18.75 C20.5,19.1642 20.1642,19.5 19.75,19.5 L5.5,19.5 C5.5,20.0523 5.94772,20.5 6.5,20.5 L19.75,20.5 C20.1642,20.5 20.5,20.8358 20.5,21.25 C20.5,21.6642 20.1642,22 19.75,22 L6.5,22 C5.11929,22 4,20.8807 4,19.5 L4,4.5 C4,3.11929 5.11929,2 6.5,2 L18,2 Z M18,3.5 L6.5,3.5 C5.94772,3.5 5.5,3.94772 5.5,4.5 L5.5,18 L19,18 L19,4.5 C19,3.94772 18.5523,3.5 18,3.5 Z M16,5 C16.5523,5 17,5.44772 17,6 L17,8 C17,8.55228 16.5523,9 16,9 L8,9 C7.44772,9 7,8.55228 7,8 L7,6 C7,5.44772 7.44772,5 8,5 L16,5 Z M15.5,6.5 L8.5,6.5 L8.5,7.5 L15.5,7.5 L15.5,6.5 Z" id="ðŸŽ¨-Color"></path>
    </g>
  </g>
</svg>