<svg viewBox="0 0 24 24" version="1.1" xmlns="http://www.w3.org/2000/svg" xmlns:xlink="http://www.w3.org/1999/xlink" width="24" height="24">
  <!-- Generator: Sketch 59.1 (86144) - https://sketch.com -->
  <title>ic_fluent_navigation_24_regular</title>
  <desc>Created with Sketch.</desc>
  <g id="ðŸ”-Product-Icons" fill-rule="evenodd">
    <g id="ic_fluent_navigation_24_regular">
      <path d="M2.75254822,18 L21.2525482,18 C21.6667618,18 22.0025482,18.3357864 22.0025482,18.75 C22.0025482,19.1296958 21.7203943,19.443491 21.3543188,19.4931534 L21.2525482,19.5 L2.75254822,19.5 C2.33833466,19.5 2.00254822,19.1642136 2.00254822,18.75 C2.00254822,18.3703042 2.2847021,18.056509 2.65077766,18.0068466 L2.75254822,18 L21.2525482,18 L2.75254822,18 Z M2.75254822,11.5030063 L21.2525482,11.5030063 C21.6667618,11.5030063 22.0025482,11.8387927 22.0025482,12.2530063 C22.0025482,12.6327021 21.7203943,12.9464972 21.3543188,12.9961597 L21.2525482,13.0030063 L2.75254822,13.0030063 C2.33833466,13.0030063 2.00254822,12.6672199 2.00254822,12.2530063 C2.00254822,11.8733105 2.2847021,11.5595153 2.65077766,11.5098529 L2.75254822,11.5030063 L21.2525482,11.5030063 L2.75254822,11.5030063 Z M2.75168905,5.0032392 L21.251689,5.0032392 C21.6659026,5.0032392 22.001689,5.33902564 22.001689,5.7532392 C22.001689,6.13293497 21.7195352,6.44673016 21.3534596,6.49639258 L21.251689,6.5032392 L2.75168905,6.5032392 C2.33747549,6.5032392 2.00168905,6.16745276 2.00168905,5.7532392 C2.00168905,5.37354343 2.28384293,5.05974824 2.64991849,5.01008582 L2.75168905,5.0032392 L21.251689,5.0032392 L2.75168905,5.0032392 Z" id="ðŸŽ¨-Color"></path>
    </g>
  </g>
</svg>