<svg xmlns="http://www.w3.org/2000/svg" viewBox="0 0 170.94 55"><defs><style>.cls-1{fill:#d5d2ca;}.cls-2{fill:#fff;}.cls-3{fill:#e0684b;}.cls-4{fill:#bb464b;}.cls-5{fill:#e0ded8;}.cls-6{fill:none;}</style></defs><title>sampleButton copy</title><g id="UI"><path class="cls-1" d="M53,19.48h2.67v6A3.52,3.52,0,0,1,59,23.9c2.94,0,4.53,2.42,4.53,5.59s-1.66,6-4.83,6a3.09,3.09,0,0,1-3-1.44,9.55,9.55,0,0,1-.1,1.19H53c0-1.21,0-2.44,0-3.67Zm5.2,6.6c-1.94,0-2.65,1.29-2.65,3.67,0,2,.62,3.6,2.6,3.6,1.69,0,2.61-1.51,2.61-3.8C60.76,27.52,59.94,26.08,58.2,26.08Z"/><path class="cls-1" d="M74.42,32.53a21.33,21.33,0,0,0,.15,2.72H72A6,6,0,0,1,71.83,34c-.39.67-1.19,1.46-3.22,1.46a3.4,3.4,0,0,1-3.77-3.45c0-2.5,2-3.66,5.26-3.66h1.68v-.76c0-.86-.28-1.77-1.94-1.77-1.47,0-1.77.67-1.92,1.49H65.36c.15-1.81,1.29-3.47,4.59-3.45,2.89,0,4.47,1.17,4.47,3.75Zm-2.61-2.46H70.36c-2,0-2.83.58-2.83,1.83a1.61,1.61,0,0,0,1.79,1.64c2.2,0,2.48-1.51,2.48-3.15Z"/><path class="cls-1" d="M76.83,19.48h2.68v6a3.5,3.5,0,0,1,3.3-1.58c2.93,0,4.53,2.42,4.53,5.59s-1.66,6-4.84,6a3.07,3.07,0,0,1-3-1.44,9.57,9.57,0,0,1-.11,1.19H76.81c0-1.21,0-2.44,0-3.67Zm5.2,6.6c-1.94,0-2.65,1.29-2.65,3.67,0,2,.62,3.6,2.61,3.6,1.68,0,2.61-1.51,2.61-3.8C84.6,27.52,83.78,26.08,82,26.08Z"/><path class="cls-1" d="M90.7,24.16c1.38,4.33,2.37,7.57,2.58,8.65h0c.28-1.17,1-3.67,2.46-8.65h2.68L94.63,35.63c-1.08,3.22-1.95,4.13-4.47,4.13a10.2,10.2,0,0,1-1.35-.09v-2.2c.23,0,.56,0,.84,0,1.21,0,1.77-.45,2.26-1.9L87.84,24.16Z"/><path class="cls-1" d="M99.63,35.25V19.48h2.67V35.25Z"/><path class="cls-1" d="M115,29.68c0,3.3-1.94,5.82-5.41,5.82s-5.33-2.46-5.33-5.78,2-5.82,5.46-5.82C112.89,23.9,115,26.21,115,29.68Zm-8,0c0,2.25,1,3.67,2.68,3.67s2.6-1.4,2.6-3.65S111.3,26,109.57,26,106.94,27.29,106.94,29.7Z"/><path class="cls-1" d="M116.9,26.94c0-1,0-1.94,0-2.78h2.59a13.3,13.3,0,0,1,.11,1.55,3.39,3.39,0,0,1,3.3-1.81c2.17,0,3.69,1.42,3.69,4.27v7.08h-2.68V28.48c0-1.38-.49-2.37-2-2.37s-2.35,1-2.35,3.06v6.08H116.9Z"/><path class="cls-1" d="M129.11,35.25V31.67H132v3.58Z"/><path class="cls-1" d="M136.4,24.4V35.83c0,3-.71,4-2.83,4l-.67-.05V38.44a3.62,3.62,0,0,0,.46,0c1.44,0,1.6-.78,1.6-2.42V24.4ZM135,21.59V19.37h1.44v2.22Z"/><path class="cls-1" d="M139.68,32.21a2.71,2.71,0,0,0,2.89,2.09c1.77,0,2.48-.8,2.48-1.92s-.49-1.68-2.76-2.22c-2.95-.72-3.62-1.62-3.62-3.07s1.14-2.95,3.73-2.95,3.77,1.55,3.94,3.08h-1.42a2.37,2.37,0,0,0-2.57-1.87c-1.72,0-2.22.84-2.22,1.64s.48,1.36,2.55,1.85c3.17.76,3.88,1.81,3.88,3.43,0,1.94-1.55,3.24-4,3.24-2.63,0-4-1.36-4.29-3.3Z"/><path class="cls-2" d="M34.29,11.63,20.65,19.51V35.25l13.64,7.88,13.63-7.88V19.51Z"/><polygon class="cls-3" points="47.92 19.51 43.66 17.04 39.55 19.41 43.82 21.88 47.92 19.51"/><polygon class="cls-3" points="24.76 21.88 38.39 14 34.29 11.63 20.65 19.51 24.76 21.88"/><polygon class="cls-3" points="30.02 29.84 34.29 32.31 38.56 29.84 34.29 27.38 30.02 29.84"/><polygon class="cls-4" points="43.82 21.88 43.82 32.88 34.29 38.38 24.76 32.88 24.76 21.88 20.65 19.51 20.65 35.25 34.29 43.13 47.92 35.25 47.92 19.51 43.82 21.88"/><polygon class="cls-4" points="34.29 22.45 30.02 24.91 30.02 29.84 34.29 27.38 38.56 29.84 38.56 24.91 34.29 22.45"/><polygon class="cls-5" points="43.82 21.88 38.56 24.91 38.56 29.84 34.29 32.31 34.29 38.38 43.82 32.88 43.82 21.88"/><polygon class="cls-1" points="24.76 21.88 30.02 24.91 30.02 29.84 34.29 32.31 34.29 38.38 24.76 32.88 24.76 21.88"/><polygon class="cls-2" points="38.39 14 43.66 17.04 39.55 19.41 43.82 21.88 38.56 24.91 34.29 22.45 30.02 24.91 24.76 21.88 38.39 14"/></g><g id="Icon_buttons" data-name="Icon buttons"><rect class="cls-6" width="55" height="55"/></g></svg>