<?xml version="1.0" encoding="UTF-8"?><svg id="Layer_1" xmlns="http://www.w3.org/2000/svg" width="24" height="24" viewBox="0 0 24 24"><defs><style>.cls-1{fill:#ffffff;}</style></defs><path class="cls-1" d="m12,2C6.48,2,2,6.48,2,12s4.48,10,10,10,10-4.48,10-10S17.52,2,12,2Zm8.47,9.46c-.27.49-3.11,1.76-8.51,1.76-.55,0-1.06-.02-1.56-.04-.01-.38-.02-.78-.02-1.19,0-5.44,1.22-8.26,1.65-8.48,4.49.02,8.16,3.53,8.44,7.95ZM10.09,3.72c-.96,2.11-1.26,5.76-1.26,8.26,0,.34,0,.7.02,1.08-3.31-.34-5.07-1.17-5.32-1.53.21-3.82,2.94-6.97,6.56-7.8ZM3.64,13.48c1.35.63,3.36.98,5.29,1.16.16,2.03.51,4.21,1.18,5.64-3.31-.75-5.88-3.43-6.47-6.8Zm8.48,7.01c-.39-.18-1.29-2.1-1.62-5.75.52.02,1.01.03,1.46.03,2.55,0,6.32-.32,8.41-1.33-.68,3.97-4.1,7-8.25,7.05Z"/></svg>