{"asset":{"version":"2.0","generator":"babylon.js glTF exporter for 3dsmax 2019 v1.5.0"},"scene":0,"scenes":[{"nodes":[0],"extensions":{}}],"nodes":[{"children":[1,15,20],"name":"mixamorig:Hips"},{"children":[2],"name":"mixamorig:Spine"},{"children":[3],"name":"mixamorig:Spine1"},{"children":[4,7,11],"name":"mixamorig:Spine2"},{"children":[5],"name":"mixamorig:Neck"},{"children":[6],"name":"mixamorig:Head"},{"name":"mixamorig:HeadTop_End"},{"children":[8],"name":"mixamorig:LeftShoulder"},{"children":[9],"name":"mixamorig:LeftArm"},{"children":[10],"name":"mixamorig:LeftForeArm"},{"name":"mixamorig:LeftHand"},{"children":[12],"name":"mixamorig:RightShoulder"},{"children":[13],"name":"mixamorig:RightArm"},{"children":[14],"name":"mixamorig:RightForeArm"},{"name":"mixamorig:RightHand"},{"children":[16],"name":"mixamorig:LeftUpLeg"},{"children":[17],"name":"mixamorig:LeftLeg"},{"children":[18],"name":"mixamorig:LeftFoot"},{"children":[19],"name":"mixamorig:LeftToeBase"},{"name":"mixamorig:LeftToe_End"},{"children":[21],"name":"mixamorig:RightUpLeg"},{"children":[22],"name":"mixamorig:RightLeg"},{"children":[23],"name":"mixamorig:RightFoot"},{"children":[24],"name":"mixamorig:RightToeBase"},{"name":"mixamorig:RightToe_End"}],"accessors":[{"bufferView":0,"componentType":5126,"count":22,"max":[0.7],"min":[0.0],"type":"SCALAR","name":"accessorAnimationInput"},{"bufferView":1,"componentType":5126,"count":22,"type":"VEC4","name":"accessorAnimationRotations"},{"bufferView":0,"byteOffset":88,"componentType":5126,"count":22,"max":[0.7],"min":[0.0],"type":"SCALAR","name":"accessorAnimationInput"},{"bufferView":1,"byteOffset":352,"componentType":5126,"count":22,"type":"VEC4","name":"accessorAnimationRotations"},{"bufferView":0,"byteOffset":176,"componentType":5126,"count":19,"max":[0.7],"min":[0.0],"type":"SCALAR","name":"accessorAnimationInput"},{"bufferView":1,"byteOffset":704,"componentType":5126,"count":19,"type":"VEC4","name":"accessorAnimationRotations"},{"bufferView":0,"byteOffset":252,"componentType":5126,"count":19,"max":[0.7],"min":[0.0],"type":"SCALAR","name":"accessorAnimationInput"},{"bufferView":1,"byteOffset":1008,"componentType":5126,"count":19,"type":"VEC4","name":"accessorAnimationRotations"},{"bufferView":0,"byteOffset":328,"componentType":5126,"count":16,"max":[0.7],"min":[0.0],"type":"SCALAR","name":"accessorAnimationInput"},{"bufferView":1,"byteOffset":1312,"componentType":5126,"count":16,"type":"VEC4","name":"accessorAnimationRotations"},{"bufferView":0,"byteOffset":392,"componentType":5126,"count":22,"max":[0.7],"min":[0.0],"type":"SCALAR","name":"accessorAnimationInput"},{"bufferView":1,"byteOffset":1568,"componentType":5126,"count":22,"type":"VEC4","name":"accessorAnimationRotations"},{"bufferView":0,"byteOffset":480,"componentType":5126,"count":22,"max":[0.7],"min":[0.0],"type":"SCALAR","name":"accessorAnimationInput"},{"bufferView":1,"byteOffset":1920,"componentType":5126,"count":22,"type":"VEC4","name":"accessorAnimationRotations"},{"bufferView":0,"byteOffset":568,"componentType":5126,"count":22,"max":[0.7],"min":[0.0],"type":"SCALAR","name":"accessorAnimationInput"},{"bufferView":1,"byteOffset":2272,"componentType":5126,"count":22,"type":"VEC4","name":"accessorAnimationRotations"},{"bufferView":0,"byteOffset":656,"componentType":5126,"count":22,"max":[0.7],"min":[0.0],"type":"SCALAR","name":"accessorAnimationInput"},{"bufferView":1,"byteOffset":2624,"componentType":5126,"count":22,"type":"VEC4","name":"accessorAnimationRotations"},{"bufferView":0,"byteOffset":744,"componentType":5126,"count":22,"max":[0.7],"min":[0.0],"type":"SCALAR","name":"accessorAnimationInput"},{"bufferView":1,"byteOffset":2976,"componentType":5126,"count":22,"type":"VEC4","name":"accessorAnimationRotations"},{"bufferView":0,"byteOffset":832,"componentType":5126,"count":22,"max":[0.7],"min":[0.0],"type":"SCALAR","name":"accessorAnimationInput"},{"bufferView":1,"byteOffset":3328,"componentType":5126,"count":22,"type":"VEC4","name":"accessorAnimationRotations"},{"bufferView":0,"byteOffset":920,"componentType":5126,"count":22,"max":[0.7],"min":[0.0],"type":"SCALAR","name":"accessorAnimationInput"},{"bufferView":1,"byteOffset":3680,"componentType":5126,"count":22,"type":"VEC4","name":"accessorAnimationRotations"},{"bufferView":0,"byteOffset":1008,"componentType":5126,"count":22,"max":[0.7],"min":[0.0],"type":"SCALAR","name":"accessorAnimationInput"},{"bufferView":1,"byteOffset":4032,"componentType":5126,"count":22,"type":"VEC4","name":"accessorAnimationRotations"},{"bufferView":0,"byteOffset":1096,"componentType":5126,"count":22,"max":[0.7],"min":[0.0],"type":"SCALAR","name":"accessorAnimationInput"},{"bufferView":1,"byteOffset":4384,"componentType":5126,"count":22,"type":"VEC4","name":"accessorAnimationRotations"},{"bufferView":0,"byteOffset":1184,"componentType":5126,"count":22,"max":[0.7],"min":[0.0],"type":"SCALAR","name":"accessorAnimationInput"},{"bufferView":1,"byteOffset":4736,"componentType":5126,"count":22,"type":"VEC4","name":"accessorAnimationRotations"},{"bufferView":0,"byteOffset":1272,"componentType":5126,"count":17,"max":[0.7],"min":[0.0],"type":"SCALAR","name":"accessorAnimationInput"},{"bufferView":1,"byteOffset":5088,"componentType":5126,"count":17,"type":"VEC4","name":"accessorAnimationRotations"},{"bufferView":0,"byteOffset":1340,"componentType":5126,"count":22,"max":[0.7],"min":[0.0],"type":"SCALAR","name":"accessorAnimationInput"},{"bufferView":1,"byteOffset":5360,"componentType":5126,"count":22,"type":"VEC4","name":"accessorAnimationRotations"},{"bufferView":0,"byteOffset":1428,"componentType":5126,"count":22,"max":[0.7],"min":[0.0],"type":"SCALAR","name":"accessorAnimationInput"},{"bufferView":1,"byteOffset":5712,"componentType":5126,"count":22,"type":"VEC4","name":"accessorAnimationRotations"},{"bufferView":0,"byteOffset":1516,"componentType":5126,"count":22,"max":[0.7],"min":[0.0],"type":"SCALAR","name":"accessorAnimationInput"},{"bufferView":1,"byteOffset":6064,"componentType":5126,"count":22,"type":"VEC4","name":"accessorAnimationRotations"},{"bufferView":0,"byteOffset":1604,"componentType":5126,"count":18,"max":[0.7],"min":[0.0],"type":"SCALAR","name":"accessorAnimationInput"},{"bufferView":1,"byteOffset":6416,"componentType":5126,"count":18,"type":"VEC4","name":"accessorAnimationRotations"}],"bufferViews":[{"buffer":0,"byteLength":1676,"name":"bufferViewAnimationFloatScalar"},{"buffer":0,"byteOffset":1676,"byteLength":6704,"name":"bufferViewAnimationFloatVec4"}],"buffers":[{"uri":"Elf_run.bin","byteLength":8380}],"animations":[{"channels":[{"sampler":0,"target":{"node":0,"path":"rotation"}},{"sampler":1,"target":{"node":1,"path":"rotation"}},{"sampler":2,"target":{"node":2,"path":"rotation"}},{"sampler":3,"target":{"node":3,"path":"rotation"}},{"sampler":4,"target":{"node":4,"path":"rotation"}},{"sampler":5,"target":{"node":5,"path":"rotation"}},{"sampler":6,"target":{"node":7,"path":"rotation"}},{"sampler":7,"target":{"node":8,"path":"rotation"}},{"sampler":8,"target":{"node":9,"path":"rotation"}},{"sampler":9,"target":{"node":11,"path":"rotation"}},{"sampler":10,"target":{"node":12,"path":"rotation"}},{"sampler":11,"target":{"node":13,"path":"rotation"}},{"sampler":12,"target":{"node":15,"path":"rotation"}},{"sampler":13,"target":{"node":16,"path":"rotation"}},{"sampler":14,"target":{"node":17,"path":"rotation"}},{"sampler":15,"target":{"node":18,"path":"rotation"}},{"sampler":16,"target":{"node":20,"path":"rotation"}},{"sampler":17,"target":{"node":21,"path":"rotation"}},{"sampler":18,"target":{"node":22,"path":"rotation"}},{"sampler":19,"target":{"node":23,"path":"rotation"}}],"samplers":[{"input":0,"interpolation":"LINEAR","output":1},{"input":2,"interpolation":"LINEAR","output":3},{"input":4,"interpolation":"LINEAR","output":5},{"input":6,"interpolation":"LINEAR","output":7},{"input":8,"interpolation":"LINEAR","output":9},{"input":10,"interpolation":"LINEAR","output":11},{"input":12,"interpolation":"LINEAR","output":13},{"input":14,"interpolation":"LINEAR","output":15},{"input":16,"interpolation":"LINEAR","output":17},{"input":18,"interpolation":"LINEAR","output":19},{"input":20,"interpolation":"LINEAR","output":21},{"input":22,"interpolation":"LINEAR","output":23},{"input":24,"interpolation":"LINEAR","output":25},{"input":26,"interpolation":"LINEAR","output":27},{"input":28,"interpolation":"LINEAR","output":29},{"input":30,"interpolation":"LINEAR","output":31},{"input":32,"interpolation":"LINEAR","output":33},{"input":34,"interpolation":"LINEAR","output":35},{"input":36,"interpolation":"LINEAR","output":37},{"input":38,"interpolation":"LINEAR","output":39}],"name":"Run"}]}