<svg xmlns="http://www.w3.org/2000/svg" width="40" height="40" viewBox="0 0 40 40"><path d="M12.31,21.54v4.1a2,2,0,0,0,2,2H26.42a2,2,0,0,0,2-2V16.78a2,2,0,0,0-2-2H19.21L20.42,16h6a.8.8,0,0,1,.8.81v8.86a.8.8,0,0,1-.8.81H14.33a.81.81,0,0,1-.81-.81V22.75Z" style="fill:#333"/><path d="M15.54,13a.6.6,0,1,1,1.2,0v1a1.57,1.57,0,0,1,1,.46l2.85,2.85a1.61,1.61,0,0,1,0,2.28L17.17,23a1.61,1.61,0,0,1-2.28,0L12,20.13a1.61,1.61,0,0,1,0-2.28l3.42-3.42.08-.07Zm0,3.62v-.5L13.21,18.4h6.64a.34.34,0,0,0-.12-.26l-2.85-2.85a.34.34,0,0,0-.14-.09v1.37a.6.6,0,1,1-1.2,0Zm-2.32,3,2.52,2.52a.42.42,0,0,0,.57,0l2.53-2.52Z" style="fill:#333"/><path d="M19.57,22.32a2.76,2.76,0,0,1,.27-1.12,5.33,5.33,0,0,1,.54-.91c.2-.27.39-.49.53-.65l.24-.26h0a.6.6,0,0,1,.86,0l.24.27a6,6,0,0,1,.53.65,5.33,5.33,0,0,1,.54.91,2.76,2.76,0,0,1,.28,1.12,2,2,0,1,1-4,0ZM21.37,21a4.15,4.15,0,0,0-.43.72,1.57,1.57,0,0,0-.17.61.81.81,0,1,0,1.62,0,1.57,1.57,0,0,0-.17-.61,4.15,4.15,0,0,0-.43-.72l-.21-.28Z" style="fill:#333"/></svg>