<svg id="icons" xmlns="http://www.w3.org/2000/svg" viewBox="0 0 30 30"><defs><style>.cls-1{fill:#333;}</style></defs><path class="cls-1" d="M21.72,7.67h-5.3a.62.62,0,0,0-.61.61.61.61,0,0,0,.61.61h3.82L16,13.14a.62.62,0,0,0,.87.87l4.25-4.25v3.82a.61.61,0,0,0,.61.61.62.62,0,0,0,.61-.61V8.28A.62.62,0,0,0,21.72,7.67Z"/><path class="cls-1" d="M21.72,15.81a.61.61,0,0,0-.61.62v3.25a1.43,1.43,0,0,1-1.43,1.43H15V17.24A2.24,2.24,0,0,0,12.76,15H8.89V10.32a1.43,1.43,0,0,1,1.43-1.43h3.25a.61.61,0,0,0,.62-.61.62.62,0,0,0-.62-.61H10.32a2.65,2.65,0,0,0-2.65,2.65v9.36a2.65,2.65,0,0,0,2.65,2.65h9.36a2.65,2.65,0,0,0,2.65-2.65V16.43A.62.62,0,0,0,21.72,15.81Zm-7.94,5.3H10.32a1.43,1.43,0,0,1-1.43-1.43V16.22h3.87a1,1,0,0,1,1,1Z"/></svg>