<svg id="icons" xmlns="http://www.w3.org/2000/svg" viewBox="0 0 30 30"><defs><style>.cls-1{fill:#212121;}</style></defs><path class="cls-1" d="M17.87,12.15a.51.51,0,0,1,.71,0l2.5,2.5a.5.5,0,0,1,0,.71l-2.5,2.5a.5.5,0,0,1-.71-.71l1.65-1.64H16.16a.5.5,0,0,1-.5-.5.5.5,0,0,1,.5-.5h3.36l-1.65-1.65A.51.51,0,0,1,17.87,12.15Zm-10.45-3a.51.51,0,0,1,.5.44V20.37a.51.51,0,0,1-.5.51.5.5,0,0,1-.5-.44V9.63A.51.51,0,0,1,7.42,9.12Zm15.16,0a.5.5,0,0,1,.5.44V20.37a.51.51,0,0,1-1,.07V9.63A.51.51,0,0,1,22.58,9.12ZM12,12.86l-1.65,1.65h3.36a.5.5,0,0,1,.5.5.5.5,0,0,1-.5.5H10.38L12,17.15a.5.5,0,1,1-.71.71l-2.5-2.5a.51.51,0,0,1,0-.71l2.5-2.5a.5.5,0,1,1,.71.71Z"/></svg>