<svg xmlns="http://www.w3.org/2000/svg" width="30" height="30" viewBox="0 0 30 30"><path d="M20.48,11.35H18.65V9.52a1.93,1.93,0,0,0,0-.24,2.53,2.53,0,0,0-.38-1.15L18.2,8a2.62,2.62,0,0,0-1.94-1.15H9.52A2.64,2.64,0,0,0,6.88,9.52V16a2,2,0,0,0,0,.25,2.66,2.66,0,0,0,.38,1.14l.06.09a2.67,2.67,0,0,0,.8.77,2.53,2.53,0,0,0,1.15.38h2.07v1.83A2.64,2.64,0,0,0,14,23.12h6.5a2.64,2.64,0,0,0,2.64-2.64V14A2.64,2.64,0,0,0,20.48,11.35Zm-3-1.83v1l-.87.87H15.05L17.35,9A1.28,1.28,0,0,1,17.44,9.52Zm0,3V16A1.43,1.43,0,0,1,16,17.44H12.56V14A1.43,1.43,0,0,1,14,12.56Zm-9.34-3A1.41,1.41,0,0,1,9.52,8.1h.56l-2,2Zm0,2.28,3.7-3.7h1.53L8.1,13.33Zm3.25,4.77-.87.87h-1A1.28,1.28,0,0,1,9,17.35l2.31-2.3Zm.11-3.36L8.18,16.49A1.51,1.51,0,0,1,8.1,16v-1l7-7h1a1.5,1.5,0,0,1,.47.08l-3.28,3.28A2.68,2.68,0,0,0,11.46,13.21ZM21.9,20.48a1.41,1.41,0,0,1-1.42,1.42H14a1.42,1.42,0,0,1-1.42-1.42V18.65H16A2.64,2.64,0,0,0,18.65,16V12.56h1.83A1.42,1.42,0,0,1,21.9,14Z" style="fill:#333"/></svg>