<svg xmlns="http://www.w3.org/2000/svg" width="30" height="30" viewBox="0 0 30 30"><path d="M8.31,10.34a8.34,8.34,0,0,1,14.25,8.34c-1.35,3.7-4.91,5.16-7.47,3.3a3.82,3.82,0,0,1-1.52-3l-.08-.81,0-.32c-.1-.76-.26-1.1-.58-1.28a1.27,1.27,0,0,0-1.3,0l-.28.12-.15.06a3.12,3.12,0,0,1-2.07.34L8.9,17l-.13,0C6.49,16.29,6.15,13.2,8.31,10.34Zm.8,5.48.1,0,.11,0a1.81,1.81,0,0,0,1.17-.19l.49-.21a2.47,2.47,0,0,1,3.68,2.21l0,.37.05.44,0,.34a2.75,2.75,0,0,0,1,2.16c1.86,1.35,4.52.25,5.61-2.73A7.11,7.11,0,0,0,9.29,11.07C7.59,13.33,7.8,15.38,9.11,15.82Zm9.16-1.63a1,1,0,0,1,2-.53,1,1,0,1,1-2,.53ZM18.68,17a1,1,0,1,1,1.24.72A1,1,0,0,1,18.68,17Zm-2-5.3a1,1,0,0,1,.72-1.25,1,1,0,1,1,.53,2A1,1,0,0,1,16.66,11.74Zm0,7.35a1,1,0,0,1,.72-1.25,1,1,0,0,1,.53,2A1,1,0,0,1,16.63,19.09ZM13.78,11a1,1,0,1,1,1.25.72A1,1,0,0,1,13.78,11Z" style="fill:#333"/></svg>