<svg xmlns="http://www.w3.org/2000/svg" width="30" height="30" viewBox="0 0 30 30"><path d="M15,8.71a2,2,0,0,1,2,1.91v.11h3.26a.47.47,0,0,1,.06.93h-.56L19,19.75a1.7,1.7,0,0,1-1.59,1.53H12.71A1.71,1.71,0,0,1,11,19.85l0-.1-.79-8.09h-.5a.46.46,0,0,1-.46-.4V11.2a.46.46,0,0,1,.4-.46H13A2,2,0,0,1,15,8.71Zm3.85,2.95h-7.7l.79,8a.78.78,0,0,0,.69.7h4.66a.77.77,0,0,0,.76-.62v-.08Zm-2.76,1.71a.47.47,0,0,1,.46.4v4.41a.46.46,0,0,1-.92.06v-4.4A.47.47,0,0,1,16.09,13.37Zm-2.18,0a.46.46,0,0,1,.46.4v4.41a.47.47,0,0,1-.93.06v-4.4A.47.47,0,0,1,13.91,13.37ZM15,9.65a1.07,1.07,0,0,0-1.08,1v.09h2.18A1.08,1.08,0,0,0,15,9.65Z" style="fill:#333"/></svg>