<svg id="icons" xmlns="http://www.w3.org/2000/svg" viewBox="0 0 30 30"><defs><style>.cls-1{fill:#333;}</style></defs><path class="cls-1" d="M23.11,9.32a2.23,2.23,0,0,1-2.23,2.24H9.12a2.24,2.24,0,0,1,0-4.47H20.88A2.23,2.23,0,0,1,23.11,9.32ZM21.49,15a2.23,2.23,0,0,1-2.23,2.23H10.74a2.23,2.23,0,0,1,0-4.46h8.52A2.23,2.23,0,0,1,21.49,15Zm-2.44,5.68a2.23,2.23,0,0,1-2.23,2.23H13.18a2.24,2.24,0,0,1,0-4.47h3.64A2.23,2.23,0,0,1,19.05,20.68ZM21.89,9.32a1,1,0,0,0-1-1H9.12a1,1,0,0,0,0,2H20.88A1,1,0,0,0,21.89,9.32ZM20.27,15a1,1,0,0,0-1-1H10.74a1,1,0,0,0,0,2h8.52A1,1,0,0,0,20.27,15Zm-2.43,5.68a1,1,0,0,0-1-1H13.18a1,1,0,1,0,0,2h3.64A1,1,0,0,0,17.84,20.68Z"/></svg>