<svg xmlns="http://www.w3.org/2000/svg" width="30" height="30" viewBox="0 0 30 30"><path d="M21.4,19.65l0,0a2.45,2.45,0,0,1,.11.71,2,2,0,0,1-2,2,2,2,0,0,1-1.12-.34l-.05,0-.05,0a2.33,2.33,0,0,1-.64-.84v0l-.79-1.88H13l-.75,1.83a2,2,0,0,1-.74,1A2,2,0,0,1,9,21.87a1.88,1.88,0,0,1-.55-1.38,3.37,3.37,0,0,1,0-.48l0-.13,4.55-11h0a2.27,2.27,0,0,1,.76-.94,1.94,1.94,0,0,1,1.26-.32,2,2,0,0,1,1.82,1.31ZM15.81,9.34a.79.79,0,0,0-.3-.41.83.83,0,0,0-.41-.13H15a1.11,1.11,0,0,0-.26,0,.64.64,0,0,0-.25.12.85.85,0,0,0-.34.42L9.71,20.21a1.48,1.48,0,0,0,0,.28.72.72,0,0,0,.19.53.77.77,0,0,0,.57.19.7.7,0,0,0,.44-.14.76.76,0,0,0,.3-.4l1.07-2.61h5.43l1.09,2.59a1.17,1.17,0,0,0,.32.42.76.76,0,0,0,.46.14.7.7,0,0,0,.54-.23.73.73,0,0,0,.25-.58,1.2,1.2,0,0,0,0-.33ZM17,16.46,15,11.54l-2,4.92Zm-2.31-1.2h.5l-.25-.6Z" style="fill:#333"/></svg>