<svg xmlns="http://www.w3.org/2000/svg" width="40" height="40" viewBox="0 0 40 40"><path d="M21.6,13.38a.6.6,0,0,1-.6.6H19a.6.6,0,1,1,0-1.2h2A.6.6,0,0,1,21.6,13.38Z" style="fill:#fff"/><path d="M14,19a.6.6,0,0,0-1.2,0v2A.6.6,0,0,0,14,21Z" style="fill:#fff"/><path d="M26,19a.6.6,0,0,1,1.2,0v2A.6.6,0,0,1,26,21Z" style="fill:#fff"/><path d="M21,27.22A.6.6,0,0,0,21,26H19a.6.6,0,1,0,0,1.2Z" style="fill:#fff"/><path d="M16,13.38a.6.6,0,0,0-.6-.6H15a2.21,2.21,0,0,0-2.2,2.2v.41a.6.6,0,0,0,1.2,0V15a1,1,0,0,1,1-1h.41A.6.6,0,0,0,16,13.38Z" style="fill:#fff"/><path d="M24.61,12.78a.6.6,0,1,0,0,1.2H25a1,1,0,0,1,1,1v.41a.6.6,0,1,0,1.2,0V15a2.21,2.21,0,0,0-2.2-2.2Z" style="fill:#fff"/><path d="M16,26.62a.6.6,0,0,1-.6.6H15a2.21,2.21,0,0,1-2.2-2.2v-.41a.6.6,0,0,1,1.2,0V25a1,1,0,0,0,1,1h.41A.6.6,0,0,1,16,26.62Z" style="fill:#fff"/><path d="M24.61,27.22a.6.6,0,0,1,0-1.2H25a1,1,0,0,0,1-1v-.41a.6.6,0,0,1,1.2,0V25a2.21,2.21,0,0,1-2.2,2.2Z" style="fill:#fff"/></svg>