<svg xmlns="http://www.w3.org/2000/svg" width="30" height="30" viewBox="0 0 30 30"><path d="M22.3,9.93A2.23,2.23,0,0,0,20.07,7.7H9.93A2.23,2.23,0,0,0,7.7,9.93V20.07A2.23,2.23,0,0,0,9.93,22.3H20.07a2.23,2.23,0,0,0,2.23-2.23Zm-12.37-1H20.07a1,1,0,0,1,1,1V20.07a1,1,0,0,1-1,1H9.93a1,1,0,0,1-1-1V9.93A1,1,0,0,1,9.93,8.91Z" style="fill:#333"/><path d="M10.76,13.39h8.46a.6.6,0,0,1,.08,1.2H10.76a.6.6,0,0,1-.08-1.2Z" style="fill:#333"/><path d="M12.3,15.82h5.4a.6.6,0,0,1,.09,1.2H12.3a.6.6,0,0,1-.09-1.2Z" style="fill:#333"/></svg>