<svg xmlns="http://www.w3.org/2000/svg" width="40" height="40" viewBox="0 0 40 40"><path d="M27.6,19.73a1.85,1.85,0,0,0-2.63,0l-4.81,4.81a2.22,2.22,0,0,0-.58,1l-.37,1.49a.89.89,0,0,0,1.08,1.07l1.49-.37a2.23,2.23,0,0,0,1-.58l4.81-4.81A1.85,1.85,0,0,0,27.6,19.73Z" style="fill:#fff"/><path d="M18.82,20.52a.62.62,0,0,1,.79.06l1.7,1.66.86-.86-1.7-1.67-.11-.1a1.83,1.83,0,0,0-2.46.1l-4.74,4.64a1.28,1.28,0,0,1-.09-.48V14.5a1.43,1.43,0,0,1,1.43-1.43h9.37A1.43,1.43,0,0,1,25.3,14.5v4.06a2.56,2.56,0,0,1,1.22-.18V14.5a2.65,2.65,0,0,0-2.65-2.65H14.5a2.65,2.65,0,0,0-2.65,2.65v9.37a2.65,2.65,0,0,0,2.65,2.65h4l.29-1.16,0-.06H14.5a1.51,1.51,0,0,1-.48-.08l4.74-4.64Z" style="fill:#fff"/><path d="M20,16.54a1.84,1.84,0,1,0,1.83-1.84A1.83,1.83,0,0,0,20,16.54Zm2.45,0a.62.62,0,0,1-1.23,0,.62.62,0,1,1,1.23,0Z" style="fill:#fff"/></svg>