<svg xmlns="http://www.w3.org/2000/svg" width="30" height="30" viewBox="0 0 30 30"><path d="M10.35,8.93a1.43,1.43,0,0,0-1.42,1.42v1.21a.61.61,0,1,1-1.21,0V10.35a2.63,2.63,0,0,1,2.63-2.63h1.21a.61.61,0,1,1,0,1.21Z" style="fill:#333"/><path d="M21.07,10.35a1.43,1.43,0,0,0-1.42-1.42H18.44a.61.61,0,1,1,0-1.21h1.21a2.63,2.63,0,0,1,2.63,2.63v1.21a.61.61,0,1,1-1.21,0Z" style="fill:#333"/><path d="M21.07,19.65a1.43,1.43,0,0,1-1.42,1.42H18.44a.61.61,0,1,0,0,1.21h1.21a2.63,2.63,0,0,0,2.63-2.63V18.44a.61.61,0,1,0-1.21,0Z" style="fill:#333"/><path d="M8.93,19.65a1.43,1.43,0,0,0,1.42,1.42h1.21a.61.61,0,1,1,0,1.21H10.35a2.63,2.63,0,0,1-2.63-2.63V18.44a.61.61,0,1,1,1.21,0Z" style="fill:#333"/><path d="M12,10.15A1.81,1.81,0,0,0,10.15,12V18A1.81,1.81,0,0,0,12,19.85H18A1.81,1.81,0,0,0,19.85,18V12A1.81,1.81,0,0,0,18,10.15ZM11.36,12a.61.61,0,0,1,.61-.61H18a.61.61,0,0,1,.61.61V18a.61.61,0,0,1-.61.61H12a.61.61,0,0,1-.61-.61Z" style="fill:#333"/></svg>