<svg xmlns="http://www.w3.org/2000/svg" width="30" height="30" viewBox="0 0 30 30"><path d="M10.16,10.76a.6.6,0,0,1,.6-.6h2a.61.61,0,1,1,0,1.21h-.56l1.39,1.39a.6.6,0,0,1-.85.85l-1.39-1.39v.56a.61.61,0,1,1-1.21,0Z" style="fill:#333"/><path d="M19.24,19.85a.64.64,0,0,0,.43-.18.63.63,0,0,0,.17-.43v-2a.61.61,0,1,0-1.21,0v.56l-1.39-1.39a.6.6,0,1,0-.85.85l1.39,1.39h-.56a.61.61,0,0,0,0,1.22Z" style="fill:#333"/><path d="M19.67,10.33a.63.63,0,0,1,.17.43v2a.61.61,0,1,1-1.21,0v-.56l-1.39,1.39a.6.6,0,1,1-.85-.85l1.39-1.39h-.56a.61.61,0,1,1,0-1.21h2A.63.63,0,0,1,19.67,10.33Z" style="fill:#333"/><path d="M10.16,19.24a.58.58,0,0,0,.6.6h2a.61.61,0,1,0,0-1.21h-.56l1.39-1.39a.6.6,0,1,0-.85-.85l-1.39,1.39v-.56a.61.61,0,0,0-1.21,0Z" style="fill:#333"/><path d="M7.73,9.55A1.83,1.83,0,0,1,9.55,7.73h10.9a1.83,1.83,0,0,1,1.82,1.82v10.9a1.83,1.83,0,0,1-1.82,1.82H9.55a1.83,1.83,0,0,1-1.82-1.82Zm1.82-.61a.62.62,0,0,0-.61.61v10.9a.62.62,0,0,0,.61.61h10.9a.62.62,0,0,0,.61-.61V9.55a.62.62,0,0,0-.61-.61Z" style="fill:#333"/></svg>