<svg xmlns="http://www.w3.org/2000/svg" width="40" height="40" viewBox="0 0 40 40"><path d="M22.25,13.18V26.91H21V13.18Zm1.16,3.34v4.19h1.22V16.52Zm.61-.61a.61.61,0,1,0,.61.61A.61.61,0,0,0,24,15.91Zm0,4.19a.61.61,0,1,0,.61.61A.61.61,0,0,0,24,20.1ZM12.74,24.64a2.62,2.62,0,0,0,2.62,2.62h9.28a2.62,2.62,0,0,0,2.62-2.62V15.36a2.62,2.62,0,0,0-2.62-2.62H15.36a2.62,2.62,0,0,0-2.62,2.62ZM14,15.36A1.41,1.41,0,0,1,15.36,14h9.28a1.41,1.41,0,0,1,1.41,1.41v9.28a1.41,1.41,0,0,1-1.41,1.41H15.36A1.41,1.41,0,0,1,14,24.64Z" style="fill:#fff"/></svg>