<svg xmlns="http://www.w3.org/2000/svg" width="30" height="30" viewBox="0 0 30 30"><path d="M19.18,11.72a.77.77,0,0,0-.56-.25.78.78,0,0,0-.5.19.75.75,0,0,0-.06,1.06l.89,1H16.12a.75.75,0,1,0,0,1.5H19l-.89,1a.75.75,0,0,0,.06,1.06.75.75,0,0,0,1.06-.06l2-2.25a.76.76,0,0,0,0-1Z" style="fill:#333"/><path d="M21.35,8.48a2.2,2.2,0,0,0-2.06-1.41H9.2A2.21,2.21,0,0,0,7,9.29V19.38a2.21,2.21,0,0,0,1.67,2.14,2.2,2.2,0,0,0,2.06,1.41H20.8A2.21,2.21,0,0,0,23,20.71V10.62A2.21,2.21,0,0,0,21.35,8.48Zm.58,7.16L20.3,17.47v1.91a1,1,0,0,1-1,1H9.2a1,1,0,0,1-1-1V9.29a1,1,0,0,1,1-1H19.29a1,1,0,0,1,1,1v2.19l1.63,1.83A1.75,1.75,0,0,1,21.93,15.64Z" style="fill:#333"/></svg>