<svg xmlns="http://www.w3.org/2000/svg" width="30" height="30" viewBox="0 0 30 30"><path d="M16.66,17.8a.73.73,0,0,0-.5.19l-1,.89V16.05a.75.75,0,0,0-1.5,0v2.83l-1-.89a.72.72,0,0,0-.49-.19.75.75,0,0,0-.5,1.31l2.25,2a.74.74,0,0,0,1,0l2.25-2a.76.76,0,0,0,.07-1.06A.78.78,0,0,0,16.66,17.8Z" style="fill:#333"/><path d="M21.35,8.48a2.2,2.2,0,0,0-2.06-1.41H9.2A2.21,2.21,0,0,0,7,9.29V19.38a2.21,2.21,0,0,0,1.67,2.14,2.2,2.2,0,0,0,2.06,1.41H20.8A2.21,2.21,0,0,0,23,20.71V10.62A2.21,2.21,0,0,0,21.35,8.48ZM20.3,19.38a1,1,0,0,1-1,1H17.22l-1.65,1.47a1.71,1.71,0,0,1-1.16.44,1.74,1.74,0,0,1-1.17-.44l-1.65-1.47H9.2a1,1,0,0,1-1-1V9.29a1,1,0,0,1,1-1H19.29a1,1,0,0,1,1,1Z" style="fill:#333"/></svg>