<svg xmlns="http://www.w3.org/2000/svg" width="30" height="30" viewBox="0 0 30 30"><path d="M10,7a3,3,0,0,0-3,3v3.5a.5.5,0,0,0,1,0V10a2,2,0,0,1,2-2h3.5a.5.5,0,0,0,0-1Z" style="fill:#333"/><path d="M16.5,7a.5.5,0,0,0,0,1H20a2,2,0,0,1,2,2v3.5a.5.5,0,0,0,1,0V10a3,3,0,0,0-3-3Z" style="fill:#333"/><path d="M7.5,16a.5.5,0,0,1,.5.5V20a2,2,0,0,0,2,2h3.5a.5.5,0,0,1,0,1H10a3,3,0,0,1-3-3V16.5A.5.5,0,0,1,7.5,16Z" style="fill:#333"/><path d="M23,16.5a.5.5,0,0,0-1,0V20a2,2,0,0,1-2,2H16.5a.5.5,0,0,0,0,1H20a3,3,0,0,0,3-3Z" style="fill:#333"/></svg>