<svg id="icons" xmlns="http://www.w3.org/2000/svg" viewBox="0 0 30 30"><defs><style>.cls-1{fill:#333;}</style></defs><path class="cls-1" d="M11.77,12.93a.61.61,0,0,1,.06.86l-.54.61H13.6a.6.6,0,1,1,0,1.2H11.29l.54.61a.61.61,0,0,1-.06.86.6.6,0,0,1-.85-.06L9.5,15.4a.61.61,0,0,1,0-.8L10.92,13A.6.6,0,0,1,11.77,12.93Zm6.42.86a.61.61,0,1,1,.91-.8l1.41,1.61a.61.61,0,0,1,0,.8L19.1,17a.61.61,0,1,1-.91-.8l.53-.61H16.41a.6.6,0,0,1,0-1.2h2.31ZM6.93,10.36A1.82,1.82,0,0,1,8.75,8.55h12.5a1.82,1.82,0,0,1,1.82,1.81v9.28a1.82,1.82,0,0,1-1.82,1.81H8.75a1.82,1.82,0,0,1-1.82-1.81Zm1.82-.6a.61.61,0,0,0-.61.6v9.28a.61.61,0,0,0,.61.6h12.5a.61.61,0,0,0,.61-.6V10.36a.61.61,0,0,0-.61-.6Z"/></svg>