<svg xmlns="http://www.w3.org/2000/svg" width="30" height="30" viewBox="0 0 30 30"><path d="M21.48,12.14a2.59,2.59,0,0,1,0,3.66l-5.73,5.72A1.83,1.83,0,0,1,15,22l-3.45,1a.8.8,0,0,1-1-.53.87.87,0,0,1,0-.48l1.09-3.4a1.86,1.86,0,0,1,.45-.73l5.73-5.72A2.59,2.59,0,0,1,21.48,12.14ZM18.67,13l-5.73,5.73a.61.61,0,0,0-.15.24l-.86,2.67,2.72-.82a.54.54,0,0,0,.25-.15L20.63,15a1.39,1.39,0,0,0-2-2ZM11.9,7.26l0,.08L14.56,14l-.93.93L13,13.39H9.73l-.8,2a.61.61,0,0,1-.71.36l-.07,0a.61.61,0,0,1-.37-.71l0-.08,3-7.63A.6.6,0,0,1,11.9,7.26Zm-.52,2-1.18,3h2.36Z" style="fill:#333"/></svg>