<svg id="icons" xmlns="http://www.w3.org/2000/svg" viewBox="0 0 30 30"><defs><style>.cls-1{fill:#333;}</style></defs><path class="cls-1" d="M21.56,10.49a1.85,1.85,0,0,0-1.85-1.85H10.29a1.85,1.85,0,0,0-1.85,1.85v3.28a.62.62,0,0,0,.62.61.61.61,0,0,0,.61-.61V10.49a.62.62,0,0,1,.62-.62h9.42a.62.62,0,0,1,.62.62v3.28a.61.61,0,0,0,.61.61.62.62,0,0,0,.62-.61Zm-2.28,5.72a.61.61,0,0,1,.8-.06l.07.06,1.94,1.94a.65.65,0,0,1,.06,1l-.06,0-1.94,1.94-.07.06a.62.62,0,0,1-.72,0l-.08-.06-.06-.07a.63.63,0,0,1,0-.73l.07-.07,1-1H17.1a.63.63,0,0,1,0-1.22h3.18l-1-1L19.22,17A.61.61,0,0,1,19.28,16.21Zm-8.56,0a.61.61,0,0,1,.06.8l-.06.07-1,1h3.1a.58.58,0,0,1,.54.61.59.59,0,0,1-.46.61H9.72l1,1a.61.61,0,0,1,.06.8l-.06.07a.61.61,0,0,1-.8.06l-.07-.06L7.91,19.24a.66.66,0,0,1,0-1.09l1.94-1.94A.62.62,0,0,1,10.72,16.21Z"/></svg>