<svg xmlns="http://www.w3.org/2000/svg" width="30" height="30" viewBox="0 0 30 30"><path d="M11,13.39h8a.72.72,0,0,1,.8.61.69.69,0,0,1-.69.59H11c-.44,0-.8-.27-.8-.6a.69.69,0,0,1,.69-.6Z" style="fill:#333"/><path d="M19,15.8H10.87a.69.69,0,0,0-.69.6c0,.33.36.6.8.6h8.15a.69.69,0,0,0,.69-.59A.72.72,0,0,0,19,15.8Z" style="fill:#333"/><path d="M22.23,10A2.21,2.21,0,0,0,20,7.77H10A2.21,2.21,0,0,0,7.77,10V20A2.21,2.21,0,0,0,10,22.23H20A2.21,2.21,0,0,0,22.23,20ZM10,9H20a1,1,0,0,1,1,1V20a1,1,0,0,1-1,1H10a1,1,0,0,1-1-1V10A1,1,0,0,1,10,9Z" style="fill:#333"/></svg>