<svg xmlns="http://www.w3.org/2000/svg" width="30" height="30" viewBox="0 0 30 30"><path d="M22.29,9.94a2.23,2.23,0,0,0-2.23-2.23H9.94A2.23,2.23,0,0,0,7.71,9.94V20.06a2.23,2.23,0,0,0,2.23,2.23H20.06a2.23,2.23,0,0,0,2.23-2.23Zm-12.35-1H20.06a1,1,0,0,1,1,1V20.06a1,1,0,0,1-1,1H9.94a1,1,0,0,1-1-1V9.94A1,1,0,0,1,9.94,8.92Zm.81,2.43h8.5a.61.61,0,0,1,.61.61.6.6,0,0,1-.52.6H10.75a.61.61,0,0,1-.09-1.21Zm8.5,2.43H10.66A.61.61,0,0,0,10.75,15h8.59a.6.6,0,0,0,.52-.6A.61.61,0,0,0,19.25,13.78Z" style="fill:#333"/></svg>