<svg xmlns="http://www.w3.org/2000/svg" viewBox="0 0 55 55"><defs><style>.cls-1{fill:none;}</style></defs><title>clearButton</title><g id="Icon_buttons" data-name="Icon buttons"><rect class="cls-1" width="55" height="55"/><path d="M34.89,21.62H33.64V36a1.79,1.79,0,0,1-.14.73,1.76,1.76,0,0,1-.4.59,1.94,1.94,0,0,1-.6.41,2,2,0,0,1-.73.14h-10a2,2,0,0,1-.73-.14,1.94,1.94,0,0,1-.6-.41,1.76,1.76,0,0,1-.4-.59,1.8,1.8,0,0,1-.15-.73V21.62H18.64V20.37h5V19.12a1.34,1.34,0,0,1,.1-.49,1.36,1.36,0,0,1,.27-.39,1.09,1.09,0,0,1,.4-.27,1.12,1.12,0,0,1,.48-.1h3.75a1.13,1.13,0,0,1,.49.1,1.18,1.18,0,0,1,.4.27,1.36,1.36,0,0,1,.27.39,1.33,1.33,0,0,1,.09.49v1.25h5Zm-2.5,0H21.14V36a.63.63,0,0,0,.19.44.6.6,0,0,0,.44.18h10a.6.6,0,0,0,.44-.18.62.62,0,0,0,.18-.44Zm-7.5,12.5H23.64v-10h1.25Zm0-13.75h3.75V19.12H24.89Zm2.5,13.75H26.14v-10h1.25Zm2.5,0H28.64v-10h1.25Z"/></g></svg>