<svg xmlns="http://www.w3.org/2000/svg" viewBox="0 0 55 55"><defs><style>.cls-1{fill:none;}</style></defs><title>codeButton</title><g id="Icon_buttons" data-name="Icon buttons"><rect class="cls-1" width="55" height="55"/><path d="M17.77,26.62a2.81,2.81,0,0,0,1.07-.22,2.94,2.94,0,0,0,.87-.6,2.68,2.68,0,0,0,.59-.87,2.52,2.52,0,0,0,.22-1.06q0-.77,0-1.53a9.2,9.2,0,0,1,.05-1.49,5.62,5.62,0,0,1,.34-1.4,3.86,3.86,0,0,1,.84-1.26,4.23,4.23,0,0,1,1.35-.89A4.08,4.08,0,0,1,24.65,17v1.38a2.56,2.56,0,0,0-1.07.22,2.79,2.79,0,0,0-1.46,1.46,2.6,2.6,0,0,0-.22,1.07c0,.4,0,.79,0,1.18s0,.78,0,1.15a7.89,7.89,0,0,1-.1,1.1,4.34,4.34,0,0,1-.29,1,4.11,4.11,0,0,1-.56.93,4,4,0,0,1-.91.81,4.07,4.07,0,0,1,.91.82,3.85,3.85,0,0,1,.56.92,4.42,4.42,0,0,1,.29,1,7.75,7.75,0,0,1,.1,1.09c0,.38,0,.76,0,1.15s0,.79,0,1.19a2.56,2.56,0,0,0,.22,1.07,2.73,2.73,0,0,0,.59.87,2.79,2.79,0,0,0,.87.59,2.56,2.56,0,0,0,1.07.22v1.38a4.09,4.09,0,0,1-1.58-.32,3.92,3.92,0,0,1-1.35-.89,3.72,3.72,0,0,1-.84-1.25,5.59,5.59,0,0,1-.34-1.41,9,9,0,0,1-.05-1.48q0-.77,0-1.53a2.55,2.55,0,0,0-.22-1.06,2.83,2.83,0,0,0-.59-.88,2.91,2.91,0,0,0-.87-.59A2.63,2.63,0,0,0,17.77,28ZM30.15,17a4.12,4.12,0,0,1,1.58.31,4.3,4.3,0,0,1,1.34.89,3.57,3.57,0,0,1,.84,1.26,5.64,5.64,0,0,1,.35,1.4,9.21,9.21,0,0,1,0,1.49q0,.77,0,1.53a2.52,2.52,0,0,0,.22,1.06,2.84,2.84,0,0,0,.59.87,2.94,2.94,0,0,0,.87.6,2.77,2.77,0,0,0,1.07.22V28a2.6,2.6,0,0,0-1.07.22,2.91,2.91,0,0,0-.87.59,3,3,0,0,0-.59.88,2.55,2.55,0,0,0-.22,1.06q0,.77,0,1.53a9.06,9.06,0,0,1,0,1.48,5.6,5.6,0,0,1-.35,1.41,3.45,3.45,0,0,1-.84,1.25,4,4,0,0,1-1.34.89,4.13,4.13,0,0,1-1.58.32V36.24A2.58,2.58,0,0,0,31.21,36a2.83,2.83,0,0,0,.88-.59,3.11,3.11,0,0,0,.59-.87,2.73,2.73,0,0,0,.22-1.07c0-.4,0-.8,0-1.19s0-.77,0-1.15a7.75,7.75,0,0,1,.1-1.09,5,5,0,0,1,.29-1,3.85,3.85,0,0,1,.56-.92,4.3,4.3,0,0,1,.91-.82,4.27,4.27,0,0,1-.91-.81,4.11,4.11,0,0,1-.56-.93,4.89,4.89,0,0,1-.29-1,7.89,7.89,0,0,1-.1-1.1c0-.37,0-.76,0-1.15s0-.78,0-1.18a2.77,2.77,0,0,0-.22-1.07,3,3,0,0,0-.59-.87,2.67,2.67,0,0,0-.88-.59,2.58,2.58,0,0,0-1.06-.22Z"/></g></svg>