{"asset":{"version":"2.0","generator":"Babylon2Gltf2017","copyright":"2017 (c) BabylonJS"},"scene":0,"scenes":[{"nodes":[1]}],"nodes":[{"mesh":0,"translation":[9.536743E-07,-13.0220337,1.406303E-06],"rotation":[0.7071068,0.0,0.0,-0.7071067],"scale":[1.0,1.0,1.0],"name":"WaterBottle"},{"children":[0],"translation":[0.0,0.0,0.0],"rotation":[0.0,1.0,0.0,-4.371139E-08],"scale":[1.0,1.0,-1.0],"name":"root"}],"meshes":[{"primitives":[{"attributes":{"POSITION":1,"NORMAL":2,"TEXCOORD_0":3},"indices":0,"mode":4,"material":0}],"name":"WaterBottle"}],"accessors":[{"bufferView":0,"componentType":5123,"count":13530,"type":"SCALAR","name":"accessorIndices"},{"bufferView":1,"componentType":5126,"count":13530,"max":[5.445,5.445002,26.0440674],"min":[-5.445002,-5.44500351,0.0],"type":"VEC3","name":"accessorPositions"},{"bufferView":1,"byteOffset":162360,"componentType":5126,"count":13530,"type":"VEC3","name":"accessorNormals"},{"bufferView":2,"componentType":5126,"count":13530,"type":"VEC2","name":"accessorUVs"}],"bufferViews":[{"buffer":0,"byteLength":27060,"name":"bufferViewScalar"},{"buffer":0,"byteOffset":27060,"byteLength":324720,"byteStride":12,"name":"bufferViewFloatVec3"},{"buffer":0,"byteOffset":351780,"byteLength":108240,"byteStride":8,"name":"bufferViewFloatVec2"}],"buffers":[{"uri":"WaterBottle.bin","byteLength":460020}],"materials":[{"pbrMetallicRoughness":{"baseColorFactor":[1.0,1.0,1.0,1.0],"baseColorTexture":{"index":2},"metallicFactor":1.0,"roughnessFactor":1.0,"metallicRoughnessTexture":{"index":3}},"normalTexture":{"index":0},"emissiveTexture":{"index":1},"emissiveFactor":[0.0,0.0,0.0],"name":"Material #39"}],"textures":[{"sampler":0,"source":0,"name":"WaterBottle_Normal.png"},{"sampler":1,"source":1,"name":"WaterBottle_Emissive.png"},{"sampler":2,"source":2,"name":"Material #39_baseColor.jpg"},{"sampler":3,"source":3,"name":"Material #39_metallicRoughness.jpg"}],"images":[{"uri":"WaterBottle_Normal.png"},{"uri":"WaterBottle_Emissive.png"},{"uri":"Material #39_baseColor.jpg"},{"uri":"Material #39_metallicRoughness.jpg"}],"samplers":[{"magFilter":9729,"minFilter":9987,"wrapS":10497,"wrapT":10497},{"magFilter":9729,"minFilter":9987,"wrapS":10497,"wrapT":10497},{"magFilter":9729,"minFilter":9987,"wrapS":10497,"wrapT":10497},{"magFilter":9729,"minFilter":9987,"wrapS":10497,"wrapT":10497}]}